<svg width="578" height="982" viewBox="0 0 578 982" fill="none" xmlns="http://www.w3.org/2000/svg">
<circle cx="445.5" cy="501.5" r="130.5" fill="#C6C6C6" fill-opacity="0.1" stroke="#1E75F9" stroke-width="2"/>
<path d="M424.956 478.052V482H424.843C423.844 482 422.963 481.801 422.2 481.404C421.448 480.996 420.895 480.399 420.541 479.615L420.379 479.647V480.937C420.379 482.881 419.966 484.541 419.139 485.916C418.312 487.291 417.13 488.343 415.594 489.074C414.068 489.804 412.253 490.169 410.147 490.169C407.269 490.169 405.045 489.407 403.477 487.881C401.908 486.356 401.124 484.181 401.124 481.355C401.124 480.496 401.21 479.54 401.382 478.487C401.564 477.435 401.86 476.151 402.268 474.636L405.668 475.555C405.335 476.693 405.088 477.725 404.927 478.648C404.776 479.562 404.701 480.378 404.701 481.098C404.701 484.503 406.635 486.206 410.502 486.206C412.586 486.206 414.122 485.69 415.11 484.659C416.099 483.638 416.593 482.059 416.593 479.921V459.86H420.379V473.702C420.379 475.152 420.669 476.242 421.25 476.973C421.84 477.692 422.984 478.052 424.682 478.052H424.956ZM422.377 487.624L424.923 485.078L427.485 487.624L424.923 490.169L422.377 487.624ZM428.017 487.624L430.547 485.078L433.109 487.624L430.547 490.169L428.017 487.624ZM434.624 471.22V473.734C434.624 474.754 434.715 475.587 434.897 476.231C435.091 476.865 435.467 477.327 436.025 477.617C436.595 477.907 437.433 478.052 438.539 478.052H439.409V482H438.491C437.126 482 435.929 481.672 434.897 481.017C433.877 480.362 433.173 479.449 432.787 478.278H432.625C432.26 479.449 431.524 480.362 430.418 481.017C429.312 481.672 428.076 482 426.712 482H424.956C424.558 482 424.359 481.339 424.359 480.018C424.359 478.708 424.558 478.052 424.956 478.052H426.712C427.883 478.052 428.764 477.907 429.354 477.617C429.945 477.316 430.337 476.849 430.531 476.215C430.735 475.571 430.837 474.744 430.837 473.734V471.22H434.624ZM450.076 476.94C449.668 478.745 448.792 480.04 447.45 480.824C446.118 481.608 444.168 482 441.601 482H439.425C439.221 482 439.071 481.85 438.974 481.549C438.877 481.248 438.829 480.743 438.829 480.034C438.829 479.325 438.877 478.82 438.974 478.52C439.071 478.208 439.221 478.052 439.425 478.052H441.52C443.572 478.052 445.092 477.811 446.08 477.327C447.068 476.844 447.562 476.156 447.562 475.265C447.562 474.738 447.305 474.121 446.789 473.412C446.284 472.703 445.452 471.854 444.292 470.866C443.142 469.877 441.606 468.701 439.683 467.337L439.989 463.905C444.189 461.939 448.776 460.419 453.75 459.345L454.298 463.26C452.063 463.787 450.135 464.286 448.513 464.759C446.902 465.221 445.457 465.693 444.179 466.177L444.163 466.306C445.441 467.283 446.494 468.137 447.321 468.868C448.159 469.598 448.873 470.318 449.464 471.027C450.065 471.736 450.651 472.542 451.22 473.444C451.918 474.615 452.563 475.539 453.154 476.215C453.745 476.881 454.389 477.354 455.087 477.633C455.796 477.913 456.661 478.052 457.682 478.052H457.698V482H457.682C455.834 482 454.335 481.613 453.186 480.84C452.037 480.056 451.054 478.756 450.237 476.94H450.076ZM470.411 460.473L472.957 457.911L475.503 460.473L472.957 463.019L470.411 460.473ZM473.231 465.629L475.761 463.083L478.323 465.629L475.761 468.175L473.231 465.629ZM467.591 465.629L470.137 463.083L472.699 465.629L470.137 468.175L467.591 465.629ZM482.093 477.956C481.868 479.266 481.411 480.271 480.724 480.969C480.036 481.656 479.053 482 477.775 482C476.443 482 475.417 481.683 474.697 481.049C473.988 480.416 473.51 479.578 473.263 478.536H473.102C472.565 480.845 471.088 482 468.671 482C467.339 482 466.313 481.683 465.593 481.049C464.884 480.416 464.401 479.519 464.143 478.358H463.982C463.563 479.454 462.87 480.335 461.903 481.001C460.947 481.667 459.776 482 458.391 482H457.698C457.494 482 457.343 481.844 457.247 481.533C457.15 481.21 457.102 480.695 457.102 479.986C457.102 479.288 457.15 478.793 457.247 478.503C457.343 478.203 457.494 478.052 457.698 478.052H458.391C459.766 478.052 460.77 477.741 461.404 477.118C462.048 476.484 462.44 475.469 462.58 474.072L462.854 471.124L466.625 471.397L466.302 475.023C466.195 475.958 466.367 476.699 466.818 477.247C467.269 477.784 467.951 478.052 468.864 478.052C469.713 478.052 470.325 477.805 470.701 477.311C471.077 476.817 471.319 476.065 471.426 475.055L471.7 471.945L475.003 472.171L474.778 475.249C474.703 476.162 474.875 476.86 475.293 477.343C475.723 477.816 476.357 478.052 477.195 478.052C478.838 478.052 479.66 477.161 479.66 475.377C479.66 475.001 479.601 474.4 479.483 473.573C479.375 472.746 479.247 471.908 479.096 471.059L482.722 470.302L483.108 472.896C483.312 474.239 483.592 475.286 483.946 476.038C484.312 476.79 484.811 477.316 485.445 477.617C486.089 477.907 486.938 478.052 487.991 478.052H488.007V482H487.991C486.283 482 484.978 481.646 484.075 480.937C483.173 480.217 482.566 479.223 482.254 477.956H482.093ZM495.338 468.787C495.65 470.022 495.897 471.177 496.08 472.251C496.262 473.326 496.354 474.276 496.354 475.104C496.354 477.359 495.725 479.073 494.468 480.244C493.222 481.415 491.305 482 488.716 482H488.023C487.625 482 487.427 481.339 487.427 480.018C487.427 478.708 487.625 478.052 488.023 478.052H488.716C490.123 478.052 491.133 477.778 491.745 477.23C492.368 476.672 492.68 475.834 492.68 474.717C492.68 474.169 492.599 473.471 492.438 472.622C492.277 471.763 492.067 470.807 491.81 469.754L495.338 468.787ZM486.686 463.389L489.231 460.843L491.793 463.389L489.231 465.935L486.686 463.389ZM492.325 463.389L494.855 460.843L497.417 463.389L494.855 465.935L492.325 463.389ZM393.438 528.769C393.298 529.628 393.18 530.391 393.083 531.057C392.998 531.712 392.955 532.298 392.955 532.813C392.955 533.78 393.229 534.564 393.776 535.166C394.324 535.757 395.329 536.052 396.79 536.052H396.806V540H396.79C395.082 540 393.653 539.656 392.503 538.969C391.354 538.271 390.559 537.143 390.119 535.585H389.958C388.862 537.271 387.293 538.432 385.252 539.065C383.211 539.688 380.778 540 377.953 540C374.043 540 371.164 539.291 369.316 537.873C367.479 536.455 366.561 534.382 366.561 531.653C366.561 530.031 366.873 528.162 367.496 526.046L370.815 526.997C370.579 527.781 370.391 528.549 370.251 529.301C370.122 530.042 370.058 530.676 370.058 531.202C370.058 532.889 370.713 534.119 372.023 534.892C373.345 535.666 375.52 536.052 378.549 536.052C381.106 536.052 383.158 535.789 384.705 535.263C386.251 534.726 387.428 533.882 388.233 532.733C389.05 531.583 389.635 530.074 389.99 528.205L393.438 528.769ZM374.602 526.562L377.147 524.016L379.709 526.562L377.147 529.107L374.602 526.562ZM380.241 526.562L382.771 524.016L385.333 526.562L382.771 529.107L380.241 526.562ZM398.659 514.09L401.205 511.544L403.767 514.09L401.205 516.636L398.659 514.09ZM404.298 514.09L406.828 511.544L409.39 514.09L406.828 516.636L404.298 514.09ZM396.806 536.052H402.188C404.229 536.052 405.641 535.784 406.425 535.247C407.209 534.699 407.602 533.759 407.602 532.427C406.173 532.792 404.857 532.975 403.654 532.975C401.806 532.975 400.437 532.577 399.545 531.782C398.664 530.987 398.224 529.763 398.224 528.108C398.224 526.465 398.465 525.036 398.949 523.822C399.443 522.598 400.13 521.652 401.011 520.986C401.892 520.31 402.923 519.971 404.105 519.971C405.501 519.971 406.71 520.455 407.73 521.421C408.751 522.377 409.541 523.736 410.099 525.498C410.658 527.26 410.937 529.338 410.937 531.734C410.937 534.591 410.223 536.686 408.794 538.018C407.365 539.339 405.109 540 402.026 540H396.806C396.602 540 396.451 539.844 396.354 539.533C396.258 539.221 396.209 538.716 396.209 538.018C396.209 537.32 396.258 536.82 396.354 536.52C396.451 536.208 396.602 536.052 396.806 536.052ZM407.07 529.14C406.941 527.442 406.603 526.137 406.055 525.224C405.518 524.311 404.814 523.854 403.944 523.854C403.16 523.854 402.521 524.198 402.026 524.886C401.543 525.573 401.301 526.465 401.301 527.561C401.301 528.871 402.166 529.526 403.896 529.526C404.336 529.526 404.819 529.494 405.346 529.43C405.883 529.354 406.458 529.258 407.07 529.14ZM422.861 540.081L422.732 539.887C422.195 539.93 421.652 539.962 421.104 539.984C420.557 539.995 420.025 540 419.509 540C417.758 540 416.389 539.554 415.4 538.663C414.423 537.771 413.934 536.417 413.934 534.602C413.934 533.238 414.149 531.949 414.579 530.735C415.019 529.521 415.674 528.533 416.544 527.77C417.425 526.997 418.526 526.61 419.848 526.61C420.933 526.61 421.867 526.878 422.651 527.416C423.436 527.942 424.085 528.656 424.601 529.559C425.117 530.45 425.52 531.46 425.81 532.588C426.11 533.705 426.309 534.86 426.406 536.052H427.485V540H426.261C425.896 542.062 424.757 543.808 422.845 545.237C420.943 546.666 418.371 547.847 415.126 548.782L413.483 545.205C415.921 544.635 417.984 543.905 419.67 543.013C421.357 542.122 422.42 541.144 422.861 540.081ZM422.925 536.133C422.904 535.316 422.791 534.484 422.587 533.635C422.383 532.776 422.055 532.056 421.604 531.476C421.153 530.896 420.535 530.606 419.751 530.606C418.849 530.606 418.172 530.966 417.721 531.686C417.27 532.405 417.044 533.195 417.044 534.054C417.044 534.838 417.28 535.392 417.753 535.714C418.236 536.025 418.886 536.181 419.703 536.181C420.229 536.181 420.761 536.181 421.298 536.181C421.846 536.17 422.388 536.154 422.925 536.133ZM427.485 536.052C428.312 536.052 428.995 535.88 429.532 535.537C430.069 535.182 430.547 534.677 430.966 534.022C431.396 533.356 431.847 532.55 432.319 531.605C433.146 529.972 433.979 528.705 434.817 527.802C435.666 526.9 436.793 526.449 438.201 526.449C439.382 526.449 440.419 526.792 441.311 527.48C442.213 528.167 442.917 529.07 443.421 530.187C443.937 531.304 444.195 532.513 444.195 533.812C444.195 535.778 443.685 537.331 442.664 538.469C441.654 539.597 440.269 540.161 438.507 540.161C437.271 540.161 436.165 539.882 435.188 539.323C434.221 538.754 433.404 537.975 432.738 536.987C432.094 537.964 431.379 538.711 430.595 539.227C429.811 539.742 428.774 540 427.485 540C427.088 540 426.889 539.339 426.889 538.018C426.889 536.708 427.088 536.052 427.485 536.052ZM434.64 534.312C435.306 534.935 435.945 535.413 436.557 535.746C437.18 536.068 437.835 536.229 438.523 536.229C439.243 536.229 439.812 536.004 440.231 535.553C440.661 535.102 440.875 534.505 440.875 533.764C440.875 533.227 440.757 532.701 440.521 532.185C440.285 531.659 439.962 531.224 439.554 530.88C439.146 530.525 438.679 530.348 438.152 530.348C437.39 530.348 436.783 530.644 436.332 531.234C435.891 531.814 435.467 532.54 435.059 533.41L434.64 534.312ZM480.45 528.769C480.31 529.628 480.192 530.391 480.095 531.057C480.009 531.712 479.966 532.298 479.966 532.813C479.966 533.78 480.24 534.564 480.788 535.166C481.336 535.757 482.34 536.052 483.801 536.052H483.817V540H483.801C482.093 540 480.665 539.656 479.515 538.969C478.366 538.271 477.571 537.143 477.13 535.585H476.969C475.874 537.271 474.305 538.432 472.264 539.065C470.223 539.688 467.79 540 464.965 540C461.055 540 458.176 539.291 456.328 537.873C454.491 536.455 453.573 534.382 453.573 531.653C453.573 530.031 453.884 528.162 454.507 526.046L457.827 526.997C457.59 527.781 457.402 528.549 457.263 529.301C457.134 530.042 457.069 530.676 457.069 531.202C457.069 532.889 457.725 534.119 459.035 534.892C460.356 535.666 462.532 536.052 465.561 536.052C468.118 536.052 470.169 535.789 471.716 535.263C473.263 534.726 474.439 533.882 475.245 532.733C476.062 531.583 476.647 530.074 477.001 528.205L480.45 528.769ZM461.613 526.562L464.159 524.016L466.721 526.562L464.159 529.107L461.613 526.562ZM467.253 526.562L469.783 524.016L472.345 526.562L469.783 529.107L467.253 526.562ZM483.817 536.052C484.902 536.052 485.719 535.939 486.267 535.714C486.825 535.478 487.201 535.091 487.395 534.554C487.588 534.017 487.685 533.286 487.685 532.362V517.86H491.471V532.362C491.471 534.844 490.843 536.74 489.586 538.05C488.34 539.35 486.417 540 483.817 540C483.624 540 483.474 539.86 483.366 539.581C483.259 539.302 483.205 538.781 483.205 538.018C483.205 537.255 483.259 536.74 483.366 536.471C483.474 536.192 483.624 536.052 483.817 536.052ZM504.313 539.855L504.185 539.662C503.733 539.791 503.234 539.898 502.686 539.984C502.149 540.059 501.596 540.097 501.026 540.097C499.254 540.097 497.874 539.651 496.885 538.759C495.897 537.857 495.403 536.503 495.403 534.699C495.403 533.324 495.618 532.024 496.047 530.799C496.477 529.564 497.127 528.56 497.997 527.786C498.878 527.002 499.984 526.61 501.316 526.61C502.53 526.61 503.562 526.938 504.41 527.593C505.259 528.248 505.946 529.124 506.473 530.219C506.999 531.315 507.38 532.54 507.617 533.893C507.864 535.247 507.987 536.622 507.987 538.018C507.987 540.628 507.01 542.804 505.055 544.544C503.11 546.284 500.291 547.697 496.595 548.782L494.952 545.205C497.455 544.614 499.539 543.851 501.204 542.917C502.879 541.993 503.916 540.972 504.313 539.855ZM504.378 535.923C504.346 535.118 504.222 534.307 504.007 533.49C503.803 532.674 503.476 531.992 503.024 531.444C502.584 530.885 501.982 530.606 501.22 530.606C500.618 530.606 500.113 530.783 499.705 531.138C499.308 531.481 499.007 531.927 498.803 532.475C498.609 533.023 498.513 533.587 498.513 534.167C498.513 534.951 498.749 535.499 499.222 535.811C499.705 536.122 500.355 536.278 501.171 536.278C501.762 536.278 502.326 536.24 502.863 536.165C503.4 536.09 503.905 536.009 504.378 535.923ZM524.439 533.426C524.439 534.93 524.047 536.181 523.263 537.18C522.489 538.168 521.442 538.904 520.121 539.388C518.799 539.871 517.317 540.113 515.673 540.113C514.073 540.113 512.343 539.876 510.485 539.404L511.355 535.698C512.15 535.87 512.891 535.999 513.579 536.084C514.277 536.16 514.943 536.197 515.577 536.197C517.188 536.197 518.445 535.956 519.347 535.472C520.26 534.989 520.717 534.28 520.717 533.345C520.717 532.421 520.228 531.272 519.25 529.897C518.273 528.511 516.952 527.077 515.287 525.595L517.784 522.63C520.019 524.606 521.684 526.481 522.779 528.253C523.886 530.015 524.439 531.739 524.439 533.426Z" fill="white"/>
<circle cx="436.5" cy="180.5" r="140.5" fill="#C6C6C6" fill-opacity="0.1" stroke="#1E75F9" stroke-width="2"/>
<path d="M412.733 157.052V161H412.62C411.621 161 410.74 160.801 409.978 160.404C409.226 159.996 408.672 159.399 408.318 158.615L408.157 158.647V159.937C408.157 161.881 407.743 163.541 406.916 164.916C406.089 166.291 404.907 167.343 403.371 168.074C401.846 168.804 400.03 169.169 397.925 169.169C395.046 169.169 392.822 168.407 391.254 166.881C389.686 165.356 388.901 163.181 388.901 160.355C388.901 159.496 388.987 158.54 389.159 157.487C389.342 156.435 389.637 155.151 390.045 153.636L393.445 154.555C393.112 155.693 392.865 156.725 392.704 157.648C392.554 158.562 392.479 159.378 392.479 160.098C392.479 163.503 394.412 165.206 398.279 165.206C400.363 165.206 401.899 164.69 402.888 163.659C403.876 162.638 404.37 161.059 404.37 158.921V138.86H408.157V152.702C408.157 154.152 408.447 155.242 409.027 155.973C409.618 156.692 410.762 157.052 412.459 157.052H412.733ZM410.155 166.624L412.701 164.078L415.263 166.624L412.701 169.169L410.155 166.624ZM415.794 166.624L418.324 164.078L420.886 166.624L418.324 169.169L415.794 166.624ZM422.401 150.22V152.734C422.401 153.754 422.492 154.587 422.675 155.231C422.868 155.865 423.244 156.327 423.803 156.617C424.372 156.907 425.21 157.052 426.316 157.052H427.187V161H426.268C424.904 161 423.706 160.672 422.675 160.017C421.654 159.362 420.951 158.449 420.564 157.278H420.403C420.038 158.449 419.302 159.362 418.195 160.017C417.089 160.672 415.854 161 414.489 161H412.733C412.335 161 412.137 160.339 412.137 159.018C412.137 157.708 412.335 157.052 412.733 157.052H414.489C415.66 157.052 416.541 156.907 417.132 156.617C417.723 156.316 418.115 155.849 418.308 155.215C418.512 154.571 418.614 153.744 418.614 152.734V150.22H422.401ZM437.854 155.94C437.445 157.745 436.57 159.04 435.227 159.824C433.895 160.608 431.945 161 429.378 161H427.203C426.999 161 426.848 160.85 426.751 160.549C426.655 160.248 426.606 159.743 426.606 159.034C426.606 158.325 426.655 157.82 426.751 157.52C426.848 157.208 426.999 157.052 427.203 157.052H429.297C431.349 157.052 432.869 156.811 433.857 156.327C434.846 155.844 435.34 155.156 435.34 154.265C435.34 153.738 435.082 153.121 434.566 152.412C434.062 151.703 433.229 150.854 432.069 149.866C430.919 148.877 429.383 147.701 427.46 146.337L427.767 142.905C431.967 140.939 436.554 139.419 441.527 138.345L442.075 142.26C439.841 142.787 437.913 143.286 436.291 143.759C434.679 144.221 433.234 144.693 431.956 145.177L431.94 145.306C433.218 146.283 434.271 147.137 435.098 147.868C435.936 148.598 436.65 149.318 437.241 150.027C437.843 150.736 438.428 151.542 438.998 152.444C439.696 153.615 440.34 154.539 440.931 155.215C441.522 155.881 442.167 156.354 442.865 156.633C443.574 156.913 444.438 157.052 445.459 157.052H445.475V161H445.459C443.611 161 442.113 160.613 440.963 159.84C439.814 159.056 438.831 157.756 438.015 155.94H437.854ZM458.188 139.473L460.734 136.911L463.28 139.473L460.734 142.019L458.188 139.473ZM461.008 144.629L463.538 142.083L466.1 144.629L463.538 147.175L461.008 144.629ZM455.369 144.629L457.915 142.083L460.477 144.629L457.915 147.175L455.369 144.629ZM469.871 156.956C469.645 158.266 469.188 159.271 468.501 159.969C467.813 160.656 466.831 161 465.552 161C464.22 161 463.194 160.683 462.475 160.049C461.766 159.416 461.288 158.578 461.041 157.536H460.879C460.342 159.845 458.865 161 456.448 161C455.116 161 454.09 160.683 453.371 160.049C452.662 159.416 452.178 158.519 451.92 157.358H451.759C451.34 158.454 450.647 159.335 449.681 160.001C448.725 160.667 447.554 161 446.168 161H445.475C445.271 161 445.121 160.844 445.024 160.533C444.927 160.21 444.879 159.695 444.879 158.986C444.879 158.288 444.927 157.793 445.024 157.503C445.121 157.203 445.271 157.052 445.475 157.052H446.168C447.543 157.052 448.547 156.741 449.181 156.118C449.826 155.484 450.218 154.469 450.357 153.072L450.631 150.124L454.402 150.397L454.08 154.023C453.972 154.958 454.144 155.699 454.595 156.247C455.046 156.784 455.729 157.052 456.642 157.052C457.49 157.052 458.103 156.805 458.479 156.311C458.854 155.817 459.096 155.065 459.204 154.055L459.478 150.945L462.781 151.171L462.555 154.249C462.48 155.162 462.652 155.86 463.071 156.343C463.5 156.816 464.134 157.052 464.972 157.052C466.616 157.052 467.438 156.161 467.438 154.377C467.438 154.001 467.378 153.4 467.26 152.573C467.153 151.746 467.024 150.908 466.874 150.059L470.499 149.302L470.886 151.896C471.09 153.239 471.369 154.286 471.724 155.038C472.089 155.79 472.588 156.316 473.222 156.617C473.867 156.907 474.715 157.052 475.768 157.052H475.784V161H475.768C474.06 161 472.755 160.646 471.853 159.937C470.95 159.217 470.343 158.223 470.032 156.956H469.871ZM483.116 147.787C483.427 149.022 483.674 150.177 483.857 151.251C484.04 152.326 484.131 153.276 484.131 154.104C484.131 156.359 483.502 158.073 482.246 159.244C481 160.415 479.082 161 476.493 161H475.8C475.403 161 475.204 160.339 475.204 159.018C475.204 157.708 475.403 157.052 475.8 157.052H476.493C477.9 157.052 478.91 156.778 479.522 156.23C480.146 155.672 480.457 154.834 480.457 153.717C480.457 153.169 480.376 152.471 480.215 151.622C480.054 150.763 479.845 149.807 479.587 148.754L483.116 147.787ZM474.463 142.389L477.009 139.843L479.571 142.389L477.009 144.935L474.463 142.389ZM480.103 142.389L482.632 139.843L485.194 142.389L482.632 144.935L480.103 142.389ZM358.898 224.624L361.444 222.078L364.006 224.624L361.444 227.169L358.898 224.624ZM373.787 205.626C374.034 206.55 374.228 207.479 374.367 208.414C374.518 209.348 374.593 210.208 374.593 210.992C374.593 212.99 374.152 214.574 373.271 215.745C372.391 216.916 370.983 217.754 369.05 218.259C367.127 218.753 364.597 219 361.46 219C358.345 219 355.821 218.753 353.887 218.259C351.964 217.765 350.562 216.943 349.682 215.793C348.801 214.633 348.36 213.076 348.36 211.121C348.36 210.358 348.436 209.499 348.586 208.542C348.736 207.576 348.93 206.604 349.166 205.626L352.55 206.399C352.378 207.162 352.233 207.93 352.115 208.704C351.997 209.466 351.938 210.116 351.938 210.653C351.938 211.846 352.233 212.759 352.824 213.393C353.425 214.026 354.419 214.461 355.805 214.698C357.201 214.934 359.086 215.052 361.46 215.052C363.877 215.052 365.779 214.929 367.165 214.682C368.561 214.435 369.549 213.989 370.129 213.344C370.72 212.7 371.016 211.781 371.016 210.589C371.016 210.02 370.962 209.359 370.854 208.607C370.747 207.855 370.602 207.119 370.419 206.399L373.787 205.626ZM377.912 197.521L381.457 196.506C382.016 197.924 382.483 199.326 382.859 200.711C383.246 202.097 383.568 203.606 383.826 205.239C384.083 206.872 384.304 208.768 384.486 210.927L380.78 211.362C380.576 208.634 380.243 206.147 379.781 203.902C379.319 201.657 378.696 199.53 377.912 197.521ZM391.109 196.86H394.879V211.427C394.879 212.77 395.186 213.709 395.798 214.247C396.421 214.784 397.415 215.052 398.779 215.052H398.795V219H398.779C394.89 219 392.634 217.249 392.011 213.747L391.995 213.199C390.523 215.176 388.611 216.637 386.259 217.582C383.906 218.527 380.888 219 377.203 219V215.052C379.534 215.052 381.554 214.864 383.262 214.488C384.97 214.112 386.452 213.527 387.709 212.732C388.977 211.937 390.11 210.911 391.109 209.654V196.86ZM401.631 197.312L404.177 194.766L406.739 197.312L404.177 199.857L401.631 197.312ZM407.271 197.312L409.8 194.766L412.362 197.312L409.8 199.857L407.271 197.312ZM400.567 209.638C400.567 208.295 400.852 207.13 401.421 206.142C401.991 205.143 402.764 204.369 403.742 203.821C404.719 203.273 405.81 203 407.013 203C408.205 203 409.285 203.273 410.251 203.821C411.229 204.369 412.008 205.143 412.588 206.142C413.168 207.13 413.458 208.285 413.458 209.606C413.458 210.702 413.195 211.668 412.668 212.506C412.142 213.344 411.46 214.042 410.622 214.601L410.687 214.746C411.116 214.843 411.562 214.918 412.024 214.972C412.486 215.025 412.964 215.052 413.458 215.052H415.23V219H413.152C411.831 219 410.681 218.844 409.704 218.533C408.737 218.21 407.818 217.765 406.948 217.195C406.089 217.765 405.176 218.21 404.209 218.533C403.253 218.844 402.125 219 400.825 219H398.811C398.403 219 398.199 218.339 398.199 217.018C398.199 215.708 398.403 215.052 398.811 215.052H400.342C400.879 215.052 401.395 215.025 401.889 214.972C402.394 214.918 402.888 214.843 403.371 214.746L403.419 214.585C402.571 214.048 401.883 213.366 401.357 212.539C400.831 211.711 400.567 210.745 400.567 209.638ZM406.997 213.812C407.824 213.371 408.49 212.829 408.995 212.184C409.51 211.54 409.768 210.75 409.768 209.815C409.768 208.978 409.51 208.285 408.995 207.737C408.49 207.189 407.829 206.915 407.013 206.915C406.186 206.915 405.514 207.189 404.999 207.737C404.494 208.274 404.241 208.967 404.241 209.815C404.241 210.707 404.499 211.486 405.015 212.152C405.53 212.807 406.191 213.36 406.997 213.812ZM422.562 205.787C422.874 207.022 423.121 208.177 423.303 209.251C423.486 210.326 423.577 211.276 423.577 212.104C423.577 214.359 422.949 216.073 421.692 217.244C420.446 218.415 418.528 219 415.939 219H415.247C414.849 219 414.65 218.339 414.65 217.018C414.65 215.708 414.849 215.052 415.247 215.052H415.939C417.347 215.052 418.356 214.778 418.969 214.23C419.592 213.672 419.903 212.834 419.903 211.717C419.903 211.169 419.823 210.471 419.662 209.622C419.5 208.763 419.291 207.807 419.033 206.754L422.562 205.787ZM416.536 200.051L419.082 197.505L421.644 200.051L419.082 202.597L416.536 200.051ZM431.102 219H427.348V196.86H431.102V219ZM462.974 205.062L461.75 208.446C460.611 207.952 459.494 207.705 458.398 207.705C457.517 207.705 456.722 207.887 456.013 208.252C455.304 208.618 454.74 209.123 454.321 209.767C453.902 210.401 453.693 211.131 453.693 211.958C453.693 212.85 454.085 213.425 454.869 213.683C455.664 213.93 456.916 214.128 458.624 214.279C460.127 214.397 461.336 214.746 462.249 215.326C463.162 215.906 463.619 216.938 463.619 218.42C463.619 219.988 463.119 221.358 462.12 222.529C461.121 223.7 459.735 224.607 457.963 225.252C456.201 225.907 454.166 226.235 451.856 226.235C448.537 226.235 445.975 225.488 444.17 223.995C442.376 222.513 441.479 220.396 441.479 217.646C441.479 216.787 441.543 215.718 441.672 214.44C441.812 213.151 442 211.808 442.236 210.412L445.846 211.072C445.588 212.565 445.4 213.79 445.282 214.746C445.174 215.702 445.121 216.562 445.121 217.324C445.121 219.021 445.674 220.273 446.78 221.079C447.887 221.895 449.605 222.303 451.937 222.303C453.44 222.303 454.81 222.164 456.045 221.884C457.292 221.605 458.285 221.229 459.026 220.756C459.768 220.284 460.138 219.752 460.138 219.161C460.138 218.549 459.816 218.162 459.171 218.001C458.527 217.84 457.753 217.732 456.851 217.679C455.508 217.582 454.343 217.367 453.354 217.034C452.377 216.69 451.62 216.159 451.083 215.439C450.556 214.708 450.293 213.709 450.293 212.442C450.293 210.852 450.664 209.423 451.405 208.156C452.146 206.877 453.145 205.868 454.402 205.126C455.659 204.375 457.055 203.999 458.591 203.999C459.999 203.999 461.459 204.353 462.974 205.062ZM471.321 219H467.566V196.86H471.321V219ZM476.687 208.784L480.231 207.56C480.833 209.343 481.311 211.029 481.666 212.619C482.02 214.209 482.197 215.648 482.197 216.938C482.197 219.451 481.386 221.573 479.764 223.302C478.153 225.042 475.596 226.546 472.094 227.814L470.402 224.269C473.195 223.302 475.242 222.266 476.542 221.159C477.841 220.063 478.491 218.672 478.491 216.986C478.491 215.998 478.325 214.768 477.992 213.296C477.659 211.824 477.224 210.32 476.687 208.784ZM494.314 219.081L494.186 218.887C493.648 218.93 493.106 218.962 492.558 218.984C492.01 218.995 491.479 219 490.963 219C489.212 219 487.842 218.554 486.854 217.663C485.876 216.771 485.388 215.417 485.388 213.602C485.388 212.238 485.603 210.949 486.032 209.735C486.473 208.521 487.128 207.533 487.998 206.77C488.879 205.997 489.98 205.61 491.301 205.61C492.386 205.61 493.321 205.878 494.105 206.416C494.889 206.942 495.539 207.656 496.055 208.559C496.57 209.45 496.973 210.46 497.263 211.588C497.564 212.705 497.763 213.86 497.859 215.052H498.939V219H497.714C497.349 221.062 496.21 222.808 494.298 224.237C492.397 225.666 489.824 226.847 486.58 227.782L484.937 224.205C487.375 223.635 489.438 222.905 491.124 222.013C492.811 221.122 493.874 220.144 494.314 219.081ZM494.379 215.133C494.357 214.316 494.245 213.484 494.041 212.635C493.836 211.776 493.509 211.056 493.058 210.476C492.606 209.896 491.989 209.606 491.205 209.606C490.302 209.606 489.625 209.966 489.174 210.686C488.723 211.405 488.498 212.195 488.498 213.054C488.498 213.838 488.734 214.392 489.207 214.714C489.69 215.025 490.34 215.181 491.156 215.181C491.683 215.181 492.214 215.181 492.751 215.181C493.299 215.17 493.842 215.154 494.379 215.133ZM511.652 197.473L514.198 194.911L516.744 197.473L514.198 200.019L511.652 197.473ZM514.472 202.629L517.002 200.083L519.564 202.629L517.002 205.175L514.472 202.629ZM508.833 202.629L511.378 200.083L513.94 202.629L511.378 205.175L508.833 202.629ZM510.105 215.052C510.954 215.052 511.566 214.805 511.942 214.311C512.318 213.817 512.56 213.065 512.667 212.055L512.941 208.945L516.245 209.171L516.019 212.249C515.933 213.162 516.11 213.86 516.551 214.343C516.991 214.816 517.636 215.052 518.484 215.052C519.301 215.052 519.908 214.816 520.305 214.343C520.713 213.871 520.917 213.205 520.917 212.345C520.917 212.044 520.891 211.631 520.837 211.104C520.794 210.578 520.729 210.02 520.644 209.429C520.568 208.838 520.488 208.301 520.402 207.817L524.06 206.947C524.221 207.753 524.36 208.645 524.479 209.622C524.597 210.6 524.656 211.491 524.656 212.297C524.656 214.574 524.183 216.261 523.238 217.356C522.292 218.452 520.923 219 519.129 219C517.775 219 516.728 218.683 515.987 218.049C515.246 217.416 514.751 216.578 514.504 215.536H514.343C513.828 217.845 512.345 219 509.896 219C508.585 219 507.565 218.683 506.834 218.049C506.115 217.416 505.631 216.519 505.384 215.358H505.223C504.804 216.454 504.111 217.335 503.145 218.001C502.188 218.667 501.018 219 499.632 219H498.939C498.735 219 498.584 218.844 498.488 218.533C498.391 218.21 498.343 217.695 498.343 216.986C498.343 216.288 498.391 215.793 498.488 215.503C498.584 215.203 498.735 215.052 498.939 215.052H499.632C501.007 215.052 502.011 214.741 502.645 214.118C503.29 213.484 503.682 212.469 503.821 211.072L504.095 208.124L507.866 208.397L507.543 212.023C507.436 212.958 507.608 213.699 508.059 214.247C508.51 214.784 509.192 215.052 510.105 215.052Z" fill="white"/>
<circle cx="145.5" cy="360.5" r="144" fill="#C6C6C6" fill-opacity="0.1" stroke="#1E75F9" stroke-width="3"/>
<path d="M107.295 341.161C108.262 341.709 108.944 342.241 109.342 342.756C109.739 343.283 109.938 343.911 109.938 344.642C109.938 345.748 109.46 346.752 108.504 347.655C107.559 348.568 106.28 349.288 104.669 349.814C103.058 350.351 101.253 350.62 99.2549 350.62C95.624 350.62 92.9277 349.868 91.166 348.364C89.415 346.86 88.5396 344.545 88.5396 341.419C88.5396 340.184 88.6362 338.787 88.8296 337.229C89.0229 335.661 89.3022 334.018 89.6675 332.299L93.1479 332.976C92.4282 336.284 92.0684 339.002 92.0684 341.129C92.0684 343.084 92.627 344.491 93.7441 345.351C94.8721 346.221 96.7144 346.656 99.271 346.656C101.269 346.656 102.896 346.393 104.153 345.866C105.41 345.351 106.039 344.685 106.039 343.868C106.039 343.492 105.84 343.165 105.442 342.885C105.045 342.617 104.341 342.348 103.332 342.08C102.322 341.811 100.893 341.51 99.0454 341.177L99.6255 337.052H111.533V341H107.295V341.161ZM118.849 327.787C119.16 329.022 119.407 330.177 119.59 331.251C119.772 332.326 119.864 333.276 119.864 334.104C119.864 336.359 119.235 338.073 117.979 339.244C116.732 340.415 114.815 341 112.226 341H111.533C111.136 341 110.937 340.339 110.937 339.018C110.937 337.708 111.136 337.052 111.533 337.052H112.226C113.633 337.052 114.643 336.778 115.255 336.23C115.878 335.672 116.19 334.834 116.19 333.717C116.19 333.169 116.109 332.471 115.948 331.622C115.787 330.763 115.578 329.807 115.32 328.754L118.849 327.787ZM112.822 322.051L115.368 319.505L117.93 322.051L115.368 324.597L112.822 322.051ZM131.691 341.081L131.562 340.887C131.025 340.93 130.482 340.962 129.935 340.984C129.387 340.995 128.855 341 128.339 341C126.588 341 125.219 340.554 124.23 339.663C123.253 338.771 122.764 337.417 122.764 335.602C122.764 334.238 122.979 332.949 123.409 331.735C123.849 330.521 124.504 329.533 125.375 328.77C126.255 327.997 127.356 327.61 128.678 327.61C129.763 327.61 130.697 327.878 131.481 328.416C132.266 328.942 132.916 329.656 133.431 330.559C133.947 331.45 134.35 332.46 134.64 333.588C134.94 334.705 135.139 335.86 135.236 337.052H136.315V341H135.091C134.726 343.062 133.587 344.808 131.675 346.237C129.773 347.666 127.201 348.847 123.957 349.782L122.313 346.205C124.751 345.635 126.814 344.905 128.5 344.013C130.187 343.122 131.25 342.144 131.691 341.081ZM131.755 337.133C131.734 336.316 131.621 335.484 131.417 334.635C131.213 333.776 130.885 333.056 130.434 332.476C129.983 331.896 129.365 331.606 128.581 331.606C127.679 331.606 127.002 331.966 126.551 332.686C126.1 333.405 125.874 334.195 125.874 335.054C125.874 335.838 126.11 336.392 126.583 336.714C127.066 337.025 127.716 337.181 128.533 337.181C129.059 337.181 129.591 337.181 130.128 337.181C130.676 337.17 131.218 337.154 131.755 337.133ZM146.966 335.94C146.558 337.745 145.683 339.04 144.34 339.824C143.008 340.608 141.058 341 138.491 341H136.315C136.111 341 135.961 340.85 135.864 340.549C135.768 340.248 135.719 339.743 135.719 339.034C135.719 338.325 135.768 337.82 135.864 337.52C135.961 337.208 136.111 337.052 136.315 337.052H138.41C140.462 337.052 141.982 336.811 142.97 336.327C143.958 335.844 144.453 335.156 144.453 334.265C144.453 333.738 144.195 333.121 143.679 332.412C143.174 331.703 142.342 330.854 141.182 329.866C140.032 328.877 138.496 327.701 136.573 326.337L136.879 322.905C141.08 320.939 145.667 319.419 150.64 318.345L151.188 322.26C148.954 322.787 147.025 323.286 145.403 323.759C143.792 324.221 142.347 324.693 141.069 325.177L141.053 325.306C142.331 326.283 143.384 327.137 144.211 327.868C145.049 328.598 145.763 329.318 146.354 330.027C146.956 330.736 147.541 331.542 148.11 332.444C148.809 333.615 149.453 334.539 150.044 335.215C150.635 335.881 151.279 336.354 151.978 336.633C152.687 336.913 153.551 337.052 154.572 337.052H154.588V341H154.572C152.724 341 151.226 340.613 150.076 339.84C148.927 339.056 147.944 337.756 147.127 335.94H146.966ZM147.869 313.543L148.271 315.702C144.49 316.39 140.773 317.641 137.121 319.457L136.106 317.491C137.997 316.545 139.936 315.74 141.923 315.074C143.921 314.408 145.903 313.897 147.869 313.543ZM161.903 327.787C162.215 329.022 162.462 330.177 162.645 331.251C162.827 332.326 162.918 333.276 162.918 334.104C162.918 336.359 162.29 338.073 161.033 339.244C159.787 340.415 157.87 341 155.281 341H154.588C154.19 341 153.992 340.339 153.992 339.018C153.992 337.708 154.19 337.052 154.588 337.052H155.281C156.688 337.052 157.698 336.778 158.31 336.23C158.933 335.672 159.245 334.834 159.245 333.717C159.245 333.169 159.164 332.471 159.003 331.622C158.842 330.763 158.632 329.807 158.375 328.754L161.903 327.787ZM155.877 322.051L158.423 319.505L160.985 322.051L158.423 324.597L155.877 322.051ZM167.076 330.784L170.621 329.56L171.7 332.927C172.044 333.969 172.409 334.791 172.796 335.393C173.193 335.994 173.704 336.424 174.327 336.682C174.95 336.929 175.766 337.052 176.776 337.052H176.792V341H176.776C174.853 341 173.408 340.339 172.441 339.018L172.28 339.083C172.398 341.671 171.62 343.809 169.944 345.496C168.279 347.193 165.792 348.632 162.483 349.814L160.792 346.269C163.703 345.249 165.776 344.185 167.011 343.079C168.257 341.972 168.88 340.608 168.88 338.986C168.88 338.062 168.719 336.886 168.397 335.457C168.085 334.018 167.645 332.46 167.076 330.784ZM187.958 337.052C188.807 337.052 189.419 336.805 189.795 336.311C190.171 335.817 190.413 335.065 190.521 334.055L190.794 330.945L194.098 331.171L193.872 334.249C193.786 335.162 193.963 335.86 194.404 336.343C194.844 336.816 195.489 337.052 196.337 337.052C197.154 337.052 197.761 336.816 198.158 336.343C198.566 335.871 198.771 335.205 198.771 334.345C198.771 334.044 198.744 333.631 198.69 333.104C198.647 332.578 198.583 332.02 198.497 331.429C198.421 330.838 198.341 330.301 198.255 329.817L201.913 328.947C202.074 329.753 202.213 330.645 202.332 331.622C202.45 332.6 202.509 333.491 202.509 334.297C202.509 336.574 202.036 338.261 201.091 339.356C200.146 340.452 198.776 341 196.982 341C195.628 341 194.581 340.683 193.84 340.049C193.099 339.416 192.604 338.578 192.357 337.536H192.196C191.681 339.845 190.198 341 187.749 341C186.438 341 185.418 340.683 184.688 340.049C183.968 339.416 183.484 338.519 183.237 337.358H183.076C182.657 338.454 181.964 339.335 180.998 340.001C180.042 340.667 178.871 341 177.485 341H176.792C176.588 341 176.438 340.844 176.341 340.533C176.244 340.21 176.196 339.695 176.196 338.986C176.196 338.288 176.244 337.793 176.341 337.503C176.438 337.203 176.588 337.052 176.792 337.052H177.485C178.86 337.052 179.864 336.741 180.498 336.118C181.143 335.484 181.535 334.469 181.674 333.072L181.948 330.124L185.719 330.397L185.396 334.023C185.289 334.958 185.461 335.699 185.912 336.247C186.363 336.784 187.045 337.052 187.958 337.052ZM55.314 399.161C56.2808 399.709 56.9629 400.241 57.3604 400.756C57.7578 401.283 57.9565 401.911 57.9565 402.642C57.9565 403.748 57.4785 404.752 56.5225 405.655C55.5771 406.568 54.2988 407.288 52.6875 407.814C51.0762 408.351 49.2715 408.62 47.2734 408.62C43.6426 408.62 40.9463 407.868 39.1846 406.364C37.4336 404.86 36.5581 402.545 36.5581 399.419C36.5581 398.184 36.6548 396.787 36.8481 395.229C37.0415 393.661 37.3208 392.018 37.686 390.299L41.1665 390.976C40.4468 394.284 40.0869 397.002 40.0869 399.129C40.0869 401.084 40.6455 402.491 41.7627 403.351C42.8906 404.221 44.7329 404.656 47.2896 404.656C49.2876 404.656 50.915 404.393 52.1719 403.866C53.4287 403.351 54.0571 402.685 54.0571 401.868C54.0571 401.492 53.8584 401.165 53.4609 400.885C53.0635 400.617 52.3599 400.348 51.3501 400.08C50.3403 399.811 48.9116 399.51 47.064 399.177L47.644 395.052H59.5518V399H55.314V399.161ZM59.5518 395.052C60.3789 395.052 61.061 394.88 61.5981 394.537C62.1353 394.182 62.6133 393.677 63.0322 393.022C63.4619 392.356 63.9131 391.55 64.3857 390.605C65.2129 388.972 66.0454 387.705 66.8833 386.802C67.7319 385.9 68.8599 385.449 70.2671 385.449C71.4487 385.449 72.4854 385.792 73.377 386.48C74.2793 387.167 74.9829 388.07 75.4878 389.187C76.0034 390.304 76.2612 391.513 76.2612 392.812C76.2612 394.778 75.751 396.331 74.7305 397.469C73.7207 398.597 72.335 399.161 70.5732 399.161C69.3379 399.161 68.2314 398.882 67.2539 398.323C66.2871 397.754 65.4707 396.975 64.8047 395.987C64.1602 396.964 63.4458 397.711 62.6616 398.227C61.8774 398.742 60.8408 399 59.5518 399C59.1543 399 58.9556 398.339 58.9556 397.018C58.9556 395.708 59.1543 395.052 59.5518 395.052ZM66.7061 393.312C67.3721 393.935 68.0112 394.413 68.6235 394.746C69.2466 395.068 69.9019 395.229 70.5894 395.229C71.3091 395.229 71.8784 395.004 72.2974 394.553C72.7271 394.102 72.9419 393.505 72.9419 392.764C72.9419 392.227 72.8237 391.701 72.5874 391.185C72.3511 390.659 72.0288 390.224 71.6206 389.88C71.2124 389.525 70.7451 389.348 70.2188 389.348C69.4561 389.348 68.8491 389.644 68.3979 390.234C67.9575 390.814 67.5332 391.54 67.125 392.41L66.7061 393.312ZM79.9028 377.521L83.4478 376.506C84.0063 377.924 84.4736 379.326 84.8496 380.711C85.2363 382.097 85.5586 383.606 85.8164 385.239C86.0742 386.872 86.2944 388.768 86.4771 390.927L82.771 391.362C82.5669 388.634 82.2339 386.147 81.772 383.902C81.3101 381.657 80.687 379.53 79.9028 377.521ZM93.0996 376.86H96.8701V391.427C96.8701 392.77 97.1763 393.709 97.7886 394.247C98.4116 394.784 99.4053 395.052 100.77 395.052H100.786V399H100.77C96.8809 399 94.625 397.249 94.002 393.747L93.9858 393.199C92.5142 395.176 90.6021 396.637 88.2495 397.582C85.897 398.527 82.8784 399 79.1938 399V395.052C81.5249 395.052 83.5444 394.864 85.2524 394.488C86.9604 394.112 88.4429 393.527 89.6997 392.732C90.9673 391.937 92.1006 390.911 93.0996 389.654V376.86ZM111.968 395.052C112.817 395.052 113.429 394.805 113.805 394.311C114.181 393.817 114.423 393.065 114.53 392.055L114.804 388.945L118.107 389.171L117.882 392.249C117.796 393.162 117.973 393.86 118.414 394.343C118.854 394.816 119.499 395.052 120.347 395.052C121.164 395.052 121.771 394.816 122.168 394.343C122.576 393.871 122.78 393.205 122.78 392.345C122.78 392.044 122.753 391.631 122.7 391.104C122.657 390.578 122.592 390.02 122.506 389.429C122.431 388.838 122.351 388.301 122.265 387.817L125.922 386.947C126.083 387.753 126.223 388.645 126.341 389.622C126.459 390.6 126.519 391.491 126.519 392.297C126.519 394.574 126.046 396.261 125.101 397.356C124.155 398.452 122.786 399 120.992 399C119.638 399 118.591 398.683 117.85 398.049C117.108 397.416 116.614 396.578 116.367 395.536H116.206C115.69 397.845 114.208 399 111.759 399C110.448 399 109.428 398.683 108.697 398.049C107.978 397.416 107.494 396.519 107.247 395.358H107.086C106.667 396.454 105.974 397.335 105.007 398.001C104.051 398.667 102.88 399 101.495 399H100.802C100.598 399 100.447 398.844 100.351 398.533C100.254 398.21 100.206 397.695 100.206 396.986C100.206 396.288 100.254 395.793 100.351 395.503C100.447 395.203 100.598 395.052 100.802 395.052H101.495C102.87 395.052 103.874 394.741 104.508 394.118C105.152 393.484 105.544 392.469 105.684 391.072L105.958 388.124L109.729 388.397L109.406 392.023C109.299 392.958 109.471 393.699 109.922 394.247C110.373 394.784 111.055 395.052 111.968 395.052ZM134.06 399H130.305V376.86H134.06V399ZM165.932 385.062L164.707 388.446C163.568 387.952 162.451 387.705 161.355 387.705C160.475 387.705 159.68 387.887 158.971 388.252C158.262 388.618 157.698 389.123 157.279 389.767C156.86 390.401 156.65 391.131 156.65 391.958C156.65 392.85 157.042 393.425 157.827 393.683C158.622 393.93 159.873 394.128 161.581 394.279C163.085 394.397 164.293 394.746 165.207 395.326C166.12 395.906 166.576 396.938 166.576 398.42C166.576 399.988 166.077 401.358 165.078 402.529C164.079 403.7 162.693 404.607 160.92 405.252C159.159 405.907 157.123 406.235 154.813 406.235C151.494 406.235 148.932 405.488 147.127 403.995C145.333 402.513 144.437 400.396 144.437 397.646C144.437 396.787 144.501 395.718 144.63 394.44C144.77 393.151 144.958 391.808 145.194 390.412L148.803 391.072C148.545 392.565 148.357 393.79 148.239 394.746C148.132 395.702 148.078 396.562 148.078 397.324C148.078 399.021 148.631 400.273 149.738 401.079C150.844 401.895 152.563 402.303 154.894 402.303C156.398 402.303 157.768 402.164 159.003 401.884C160.249 401.605 161.243 401.229 161.984 400.756C162.725 400.284 163.096 399.752 163.096 399.161C163.096 398.549 162.773 398.162 162.129 398.001C161.484 397.84 160.711 397.732 159.809 397.679C158.466 397.582 157.3 397.367 156.312 397.034C155.334 396.69 154.577 396.159 154.04 395.439C153.514 394.708 153.25 393.709 153.25 392.442C153.25 390.852 153.621 389.423 154.362 388.156C155.104 386.877 156.103 385.868 157.359 385.126C158.616 384.375 160.013 383.999 161.549 383.999C162.956 383.999 164.417 384.353 165.932 385.062ZM174.133 388.784L177.678 387.56C178.28 389.343 178.758 391.029 179.112 392.619C179.467 394.209 179.644 395.648 179.644 396.938C179.644 399.451 178.833 401.573 177.211 403.302C175.6 405.042 173.043 406.546 169.541 407.814L167.849 404.269C170.642 403.302 172.688 402.266 173.988 401.159C175.288 400.063 175.938 398.672 175.938 396.986C175.938 395.998 175.771 394.768 175.438 393.296C175.105 391.824 174.67 390.32 174.133 388.784ZM191.761 399.081L191.632 398.887C191.095 398.93 190.553 398.962 190.005 398.984C189.457 398.995 188.925 399 188.41 399C186.659 399 185.289 398.554 184.301 397.663C183.323 396.771 182.834 395.417 182.834 393.602C182.834 392.238 183.049 390.949 183.479 389.735C183.919 388.521 184.575 387.533 185.445 386.77C186.326 385.997 187.427 385.61 188.748 385.61C189.833 385.61 190.768 385.878 191.552 386.416C192.336 386.942 192.986 387.656 193.501 388.559C194.017 389.45 194.42 390.46 194.71 391.588C195.011 392.705 195.209 393.86 195.306 395.052H196.386V399H195.161C194.796 401.062 193.657 402.808 191.745 404.237C189.844 405.666 187.271 406.847 184.027 407.782L182.383 404.205C184.822 403.635 186.884 402.905 188.571 402.013C190.257 401.122 191.321 400.144 191.761 399.081ZM191.826 395.133C191.804 394.316 191.691 393.484 191.487 392.635C191.283 391.776 190.956 391.056 190.504 390.476C190.053 389.896 189.436 389.606 188.651 389.606C187.749 389.606 187.072 389.966 186.621 390.686C186.17 391.405 185.944 392.195 185.944 393.054C185.944 393.838 186.181 394.392 186.653 394.714C187.137 395.025 187.787 395.181 188.603 395.181C189.129 395.181 189.661 395.181 190.198 395.181C190.746 395.17 191.289 395.154 191.826 395.133ZM204.668 384.45C206.183 384.45 207.423 384.965 208.39 385.997C209.368 387.028 209.856 388.376 209.856 390.041C209.856 391.309 209.513 392.506 208.825 393.634C208.148 394.751 207.187 395.729 205.941 396.567C204.706 397.394 203.25 398.012 201.574 398.42C201.854 399.43 202.256 400.386 202.783 401.288C203.32 402.201 203.997 403.001 204.813 403.689H204.894C205.817 401.884 206.612 400.418 207.278 399.29C207.955 398.162 208.567 397.292 209.115 396.68C209.674 396.057 210.238 395.632 210.807 395.407C211.376 395.17 212.016 395.052 212.725 395.052H213.24V399H212.725C212.198 399 211.709 399.118 211.258 399.354C210.807 399.602 210.351 400.026 209.889 400.627C209.438 401.24 208.933 402.094 208.374 403.189C207.815 404.285 207.16 405.692 206.408 407.411H203.653C202.256 406.219 201.139 404.908 200.301 403.479C199.463 402.051 198.873 400.558 198.529 399H196.386C196.182 399 196.031 398.844 195.935 398.533C195.838 398.221 195.79 397.716 195.79 397.018C195.79 395.708 195.988 395.052 196.386 395.052H198.207C198.131 392.635 198.378 390.643 198.948 389.074C199.517 387.506 200.301 386.346 201.3 385.594C202.31 384.831 203.433 384.45 204.668 384.45ZM201.236 394.859C202.879 394.708 204.211 394.236 205.232 393.441C206.252 392.635 206.763 391.658 206.763 390.508C206.763 389.789 206.564 389.214 206.167 388.784C205.78 388.344 205.286 388.124 204.684 388.124C203.664 388.124 202.804 388.661 202.106 389.735C201.418 390.809 201.128 392.517 201.236 394.859ZM213.24 395.052C214.067 395.052 214.75 394.88 215.287 394.537C215.824 394.182 216.302 393.677 216.721 393.022C217.15 392.356 217.602 391.55 218.074 390.605C218.901 388.972 219.734 387.705 220.572 386.802C221.42 385.9 222.548 385.449 223.956 385.449C225.352 385.449 226.491 385.916 227.372 386.851C228.252 387.785 229.037 389.015 229.724 390.541C230.358 391.905 231.029 393 231.738 393.828C232.447 394.644 233.403 395.052 234.606 395.052H234.623V399H234.606C233.253 399 232.141 398.619 231.271 397.856C230.401 397.083 229.778 396.078 229.402 394.843L229.241 394.859C228.961 396.223 228.376 397.281 227.484 398.033C226.593 398.785 225.519 399.161 224.262 399.161C223.026 399.161 221.92 398.882 220.942 398.323C219.976 397.754 219.159 396.975 218.493 395.987C217.849 396.964 217.134 397.711 216.35 398.227C215.566 398.742 214.529 399 213.24 399C212.843 399 212.644 398.339 212.644 397.018C212.644 395.708 212.843 395.052 213.24 395.052ZM220.395 393.312C221.061 393.935 221.7 394.413 222.312 394.746C222.935 395.068 223.59 395.229 224.278 395.229C224.998 395.229 225.567 395.004 225.986 394.553C226.416 394.102 226.63 393.505 226.63 392.764C226.63 392.227 226.512 391.701 226.276 391.185C226.04 390.659 225.717 390.224 225.309 389.88C224.901 389.525 224.434 389.348 223.907 389.348C223.145 389.348 222.538 389.644 222.086 390.234C221.646 390.814 221.222 391.54 220.813 392.41L220.395 393.312ZM241.197 404.624L243.743 402.078L246.305 404.624L243.743 407.169L241.197 404.624ZM241.841 383.982C242.411 383.982 243.098 384.111 243.904 384.369C244.72 384.616 245.913 385.083 247.481 385.771C249.017 386.426 250.317 386.942 251.38 387.318C252.444 387.683 253.486 387.984 254.506 388.22V391.411L246.417 396.1C244.667 397.131 243.034 397.872 241.519 398.323C240.004 398.774 238.398 399 236.701 399H234.639C234.435 399 234.284 398.85 234.188 398.549C234.091 398.237 234.042 397.727 234.042 397.018C234.042 396.309 234.091 395.804 234.188 395.503C234.284 395.203 234.435 395.052 234.639 395.052H237.442C238.28 395.052 239.064 394.988 239.795 394.859C240.536 394.73 241.31 394.515 242.115 394.214C242.921 393.914 243.845 393.505 244.887 392.99L249.672 390.524V390.363C248.577 390.084 247.186 389.59 245.499 388.881C244.5 388.494 243.721 388.215 243.163 388.043C242.604 387.871 242.153 387.785 241.809 387.785C241.111 387.785 240.536 388.005 240.085 388.446C239.634 388.875 239.215 389.595 238.828 390.605L238.715 390.943L235.944 390.089L236.057 389.751C236.69 387.699 237.464 386.228 238.377 385.336C239.301 384.434 240.456 383.982 241.841 383.982Z" fill="white"/>
<path d="M253.336 860.202C254.549 860.89 255.406 861.558 255.905 862.205C256.404 862.866 256.653 863.655 256.653 864.572C256.653 865.961 256.053 867.222 254.853 868.354C253.666 869.501 252.061 870.404 250.038 871.065C248.015 871.739 245.75 872.077 243.241 872.077C238.683 872.077 235.298 871.133 233.086 869.245C230.888 867.357 229.789 864.45 229.789 860.526C229.789 858.975 229.911 857.222 230.153 855.266C230.396 853.298 230.747 851.234 231.205 849.076L235.575 849.926C234.671 854.08 234.219 857.492 234.219 860.162C234.219 862.616 234.921 864.383 236.323 865.462C237.739 866.554 240.052 867.1 243.262 867.1C245.77 867.1 247.813 866.77 249.391 866.109C250.969 865.462 251.758 864.626 251.758 863.601C251.758 863.129 251.508 862.717 251.009 862.367C250.51 862.03 249.627 861.692 248.359 861.355C247.092 861.018 245.298 860.641 242.978 860.223L243.707 855.044H258.656V860H253.336V860.202ZM272.674 855.044C273.74 855.044 274.508 854.734 274.98 854.113C275.452 853.493 275.756 852.549 275.891 851.281L276.235 847.377L280.381 847.66L280.098 851.524C279.99 852.67 280.213 853.547 280.766 854.154C281.319 854.747 282.128 855.044 283.193 855.044C284.218 855.044 284.98 854.747 285.479 854.154C285.992 853.561 286.248 852.724 286.248 851.646C286.248 851.268 286.214 850.749 286.147 850.088C286.093 849.427 286.012 848.726 285.904 847.984C285.809 847.242 285.708 846.568 285.6 845.961L290.192 844.869C290.395 845.88 290.57 847 290.718 848.227C290.867 849.454 290.941 850.573 290.941 851.585C290.941 854.444 290.347 856.561 289.161 857.937C287.974 859.312 286.255 860 284.002 860C282.303 860 280.988 859.602 280.058 858.807C279.127 858.011 278.507 856.959 278.197 855.651H277.994C277.347 858.55 275.486 860 272.411 860C270.766 860 269.485 859.602 268.568 858.807C267.664 858.011 267.057 856.885 266.747 855.428H266.545C266.019 856.804 265.149 857.91 263.935 858.746C262.735 859.582 261.265 860 259.526 860H258.656C258.399 860 258.211 859.804 258.089 859.413C257.968 859.009 257.907 858.361 257.907 857.471C257.907 856.595 257.968 855.974 258.089 855.61C258.211 855.233 258.399 855.044 258.656 855.044H259.526C261.252 855.044 262.513 854.653 263.308 853.871C264.117 853.075 264.61 851.801 264.785 850.047L265.129 846.346L269.862 846.689L269.458 851.241C269.323 852.414 269.539 853.345 270.105 854.033C270.672 854.707 271.528 855.044 272.674 855.044ZM296.18 847.175L300.63 845.638L301.986 849.865C302.417 851.174 302.876 852.205 303.361 852.96C303.86 853.716 304.501 854.255 305.283 854.579C306.065 854.889 307.09 855.044 308.358 855.044H308.378V860H308.358C305.944 860 304.13 859.171 302.916 857.512L302.714 857.593C302.862 860.843 301.885 863.527 299.781 865.644C297.691 867.775 294.569 869.582 290.415 871.065L288.291 866.615C291.946 865.334 294.548 863.999 296.099 862.61C297.664 861.22 298.446 859.508 298.446 857.471C298.446 856.312 298.243 854.835 297.839 853.041C297.448 851.234 296.895 849.279 296.18 847.175ZM312.849 867.019L316.025 863.823L319.241 867.019L316.025 870.216L312.849 867.019ZM305.769 867.019L308.965 863.823L312.181 867.019L308.965 870.216L305.769 867.019ZM309.329 873.513L312.525 870.317L315.721 873.513L312.525 876.709L309.329 873.513ZM318.917 843.412C319.308 844.963 319.612 846.413 319.828 847.762C320.057 849.11 320.171 850.304 320.171 851.342C320.171 854.174 319.369 856.325 317.764 857.795C316.159 859.265 313.59 860 310.057 860H308.378C307.879 860 307.63 859.171 307.63 857.512C307.63 855.867 307.879 855.044 308.378 855.044H310.057C312.08 855.044 313.503 854.7 314.325 854.012C315.148 853.311 315.559 852.259 315.559 850.857C315.559 850.169 315.458 849.292 315.256 848.227C315.067 847.148 314.811 845.948 314.487 844.626L318.917 843.412ZM335.485 841.41L335.303 838.112L340.036 837.829L340.744 849.805C340.866 851.801 341.257 853.176 341.917 853.931C342.578 854.673 343.731 855.044 345.377 855.044H345.397V860H345.377C343.462 860 341.884 859.676 340.643 859.029C339.416 858.368 338.438 857.377 337.71 856.055C336.226 856.689 334.662 857.006 333.017 857.006C331.439 857.006 330.03 856.77 328.789 856.298C327.548 855.826 326.57 855.138 325.856 854.235C325.141 853.318 324.784 852.212 324.784 850.917C324.784 848.49 325.721 846.453 327.595 844.808C329.47 843.163 332.1 842.03 335.485 841.41ZM335.829 845.961C333.738 846.164 332.073 846.622 330.832 847.337C329.591 848.052 328.971 848.948 328.971 850.027C328.971 850.877 329.382 851.504 330.205 851.908C331.041 852.3 332.073 852.495 333.3 852.495C334.419 852.495 335.437 852.36 336.354 852.091C336.287 851.713 336.233 851.376 336.193 851.079C336.166 850.782 336.139 850.472 336.112 850.149L335.829 845.961ZM345.397 855.044C346.435 855.044 347.292 854.828 347.966 854.397C348.64 853.952 349.24 853.318 349.766 852.495C350.306 851.659 350.872 850.648 351.465 849.461C352.504 847.411 353.549 845.82 354.601 844.687C355.666 843.554 357.082 842.988 358.849 842.988C360.602 842.988 362.032 843.574 363.137 844.747C364.243 845.921 365.228 847.465 366.091 849.38C366.886 851.093 367.729 852.468 368.619 853.507C369.509 854.531 370.71 855.044 372.22 855.044H372.24V860H372.22C370.521 860 369.125 859.521 368.033 858.564C366.94 857.593 366.158 856.332 365.686 854.781L365.484 854.801C365.133 856.514 364.398 857.842 363.279 858.786C362.16 859.73 360.811 860.202 359.233 860.202C357.682 860.202 356.293 859.852 355.066 859.15C353.852 858.436 352.827 857.458 351.991 856.217C351.182 857.444 350.285 858.382 349.301 859.029C348.316 859.676 347.015 860 345.397 860C344.898 860 344.648 859.171 344.648 857.512C344.648 855.867 344.898 855.044 345.397 855.044ZM354.378 852.859C355.214 853.641 356.017 854.242 356.786 854.66C357.568 855.064 358.39 855.266 359.253 855.266C360.157 855.266 360.872 854.983 361.398 854.417C361.937 853.85 362.207 853.102 362.207 852.171C362.207 851.497 362.059 850.836 361.762 850.189C361.465 849.528 361.061 848.982 360.548 848.551C360.036 848.105 359.449 847.883 358.788 847.883C357.831 847.883 357.069 848.254 356.502 848.996C355.949 849.724 355.417 850.634 354.904 851.726L354.378 852.859ZM372.261 855.044H373.636C375.174 855.044 376.542 854.869 377.743 854.518C375.774 852.738 374.789 850.917 374.789 849.056C374.789 847.802 375.133 846.642 375.821 845.577C376.509 844.511 377.473 843.77 378.714 843.352L378.754 843.149L375.416 841.693L377.358 837.384L388.626 842.219C391.094 843.257 393.069 844.296 394.553 845.334C396.036 846.359 397.108 847.465 397.769 848.652C398.43 849.838 398.76 851.2 398.76 852.738C398.76 855.03 398.039 856.851 396.596 858.2C395.166 859.548 393.224 860.223 390.77 860.223C387.897 860.223 385.045 859.38 382.213 857.694C380.986 858.463 379.698 859.043 378.349 859.434C377.001 859.811 375.538 860 373.96 860H372.261C372.004 860 371.816 859.811 371.694 859.434C371.573 859.043 371.512 858.402 371.512 857.512C371.512 856.635 371.573 856.008 371.694 855.631C371.816 855.239 372.004 855.044 372.261 855.044ZM382.415 853.587C384.749 852.414 385.915 850.877 385.915 848.975C385.915 847.789 385.612 846.858 385.005 846.184C384.398 845.496 383.582 845.152 382.557 845.152C381.546 845.152 380.669 845.543 379.927 846.325C379.199 847.108 378.835 848.052 378.835 849.157C378.835 849.899 379.145 850.668 379.765 851.463C380.386 852.246 381.269 852.954 382.415 853.587ZM386.684 854.356C388.275 854.95 389.745 855.246 391.094 855.246C393.602 855.246 394.856 854.329 394.856 852.495C394.856 851.457 394.404 850.546 393.501 849.764C392.611 848.982 391.094 848.159 388.949 847.296C389.826 850.209 389.071 852.563 386.684 854.356Z" fill="white"/>
<rect x="173.5" y="714.5" width="281" height="266" rx="28.5" stroke="#1E75F9" stroke-width="3"/>
<path d="M293.501 261.5L289.246 264.126L293.501 261.5ZM310.784 685.843C312.631 687.897 315.792 688.064 317.845 686.218L351.306 656.128C353.359 654.281 353.526 651.12 351.68 649.067C349.834 647.013 346.672 646.846 344.619 648.692L314.876 675.439L288.13 645.696C286.283 643.643 283.122 643.476 281.069 645.322C279.015 647.168 278.848 650.33 280.694 652.383L310.784 685.843ZM288.869 88.116C276.837 117.696 266 150.464 266 180.5H276C276 152.536 286.164 121.304 298.132 91.884L288.869 88.116ZM266 180.5C266 210.319 272.037 236.249 289.246 264.126L297.755 258.874C281.63 232.751 276 208.681 276 180.5H266ZM289.246 264.126C305.308 290.146 313.501 327.674 313.501 358H323.501C323.501 326.326 315.028 286.854 297.755 258.874L289.246 264.126ZM313.501 358C313.501 377.739 309.425 394.02 303.422 410.68C300.405 419.056 296.921 427.474 293.203 436.541C289.499 445.575 285.585 455.2 281.792 465.818L291.21 469.182C294.917 458.8 298.754 449.363 302.455 440.334C306.144 431.339 309.723 422.694 312.83 414.07C319.078 396.73 323.501 379.261 323.501 358H313.501ZM281.792 465.818C266.09 509.786 281.631 557.877 297.107 586.385L305.895 581.615C290.971 554.123 276.913 509.214 291.21 469.182L281.792 465.818ZM297.107 586.385C304.198 599.449 307.675 617.724 309.155 635.906C310.625 653.959 310.087 671.331 309.509 682.235L319.495 682.765C320.083 671.669 320.645 653.791 319.122 635.094C317.611 616.526 314.004 596.551 305.895 581.615L297.107 586.385ZM298.132 91.884C304.159 77.0688 308.67 64.8641 311.64 50.9835C314.612 37.0925 316 21.7182 316 0.5H306C306 21.2818 304.639 35.9075 301.861 48.8915C299.081 61.8859 294.843 73.4312 288.869 88.116L298.132 91.884Z" fill="#1E75F9"/>
</svg>
