<svg width="520" height="520" viewBox="0 0 520 520" fill="none" xmlns="http://www.w3.org/2000/svg">
<path d="M119.05 300C119.056 299.802 119.11 299.608 119.205 299.434C119.301 299.26 119.436 299.112 119.6 299C119.946 298.742 120.346 298.564 120.77 298.48C121.06 298.42 121.71 298.76 121.77 298.98C121.85 299.44 121.93 299.89 122 300.26C122 300.39 122.07 301.37 122.17 302.35C122.177 302.598 122.204 302.846 122.25 303.09C122.25 303.33 122.31 303.57 122.37 303.8C122.52 304.24 122.59 304.63 122.71 304.88C123.095 305.869 123.539 306.834 124.04 307.77C124.601 308.738 125.272 309.637 126.04 310.45C126.862 311.272 127.759 312.015 128.72 312.67C129.157 312.955 129.578 313.266 129.98 313.6C131.434 314.726 133.158 315.45 134.98 315.7C135.276 315.768 135.584 315.768 135.88 315.7C136.211 315.653 136.548 315.653 136.88 315.7C137.14 315.7 137.42 315.7 137.73 315.7C138.043 315.72 138.357 315.72 138.67 315.7C139.616 315.626 140.555 315.482 141.48 315.27C142.975 315.068 144.405 314.528 145.66 313.69C145.85 313.57 145.98 313.38 146.26 313.37C146.87 313.32 147.15 312.88 147.52 312.54L148.22 311.74C148.46 311.48 148.71 311.22 148.93 310.94C149.224 310.658 149.562 310.425 149.93 310.25C150.26 310.06 150.65 310.46 150.65 310.6C150.65 310.99 151.02 310.87 151.24 310.95C151.323 310.972 151.401 311.009 151.47 311.06C151.473 311.334 151.422 311.606 151.32 311.86C151.177 312.431 150.98 312.987 150.73 313.52C150.337 314.458 149.826 315.342 149.21 316.15L148.3 317.03C147.987 317.328 147.653 317.602 147.3 317.85C146.917 318.16 146.516 318.447 146.1 318.71C145.66 318.96 145.23 319.25 144.78 319.47L143.52 320.05C142.73 320.36 142.11 320.54 141.9 320.63C141.455 320.737 140.997 320.784 140.54 320.77C140.49 320.77 140.08 320.88 139.48 320.94L138.48 321.07L137.33 321.12C136.54 321.17 135.77 321.07 135.17 321.06C134.57 321.05 134.17 320.93 134.1 320.92C132.869 320.766 131.686 320.35 130.63 319.7C130.422 319.576 130.2 319.475 129.97 319.4C128.036 318.635 126.247 317.546 124.68 316.18C124.29 315.82 123.88 315.48 123.47 315.18L122.31 314.08C122.185 313.93 122.075 313.77 121.98 313.6C121.851 313.39 121.708 313.189 121.55 313C119.894 310.996 118.686 308.66 118.01 306.15C117.88 305.458 117.833 304.753 117.87 304.05C117.94 303.15 118.03 302.26 118.08 301.91C118.151 301.546 118.305 301.204 118.53 300.91C118.763 300.645 118.94 300.335 119.05 300Z" fill="currentColor"/>
<path d="M365.54 416.47C365.39 417.01 364.78 417.22 364.1 417.28C363.88 417.28 363.45 417.01 363.44 416.83C363.44 416.48 363.39 416.14 363.39 415.83C363.39 415.52 364.08 412.7 364.39 411.72C364.667 410.769 365.022 409.843 365.45 408.95C366.282 407.049 367.213 405.193 368.24 403.39C368.507 402.956 368.826 402.556 369.19 402.2C369.52 401.85 369.93 401.47 370.34 401.08L372.96 398.58L374.29 401.71C374.908 403.256 375.048 404.953 374.69 406.58C374.6 406.906 374.553 407.242 374.55 407.58C374.506 407.956 374.416 408.326 374.28 408.68C374.044 409.27 373.77 409.845 373.46 410.4C372.996 411.251 372.435 412.046 371.79 412.77C370.7 413.77 369.66 414.68 368.57 415.52C368.41 415.64 368.31 415.83 368.06 415.83C367.47 415.83 367.24 416.18 366.93 416.45C366.508 416.819 366.056 417.154 365.58 417.45C365.279 417.581 364.958 417.659 364.63 417.68C364.33 417.73 363.99 417.26 363.99 417.15C363.99 416.83 363.67 416.79 363.47 416.65C363.395 416.604 363.327 416.547 363.27 416.48C363.278 416.267 363.322 416.058 363.4 415.86C363.53 415.53 363.71 415.12 363.9 414.69C364.164 414.074 364.468 413.476 364.81 412.9L366.32 410.99C366.866 410.294 367.37 409.566 367.83 408.81C367.974 408.597 368.157 408.413 368.37 408.27C368.483 408.113 368.58 407.945 368.66 407.77C368.841 407.447 369.001 407.113 369.14 406.77C369.337 406.326 369.478 405.859 369.56 405.38C369.78 404.88 369.56 404.61 369.92 404.26C369.99 404.18 369.92 404.14 369.92 404.09C369.89 404.027 369.869 403.959 369.86 403.89L373.86 404.53C373.193 405.247 372.572 406.005 372 406.8C371.638 407.345 371.304 407.91 371 408.49C370.922 408.588 370.839 408.681 370.75 408.77C370.64 408.882 370.542 409.006 370.46 409.14C369.7 410.55 368.78 411.9 368.15 413.41C368.03 413.77 366.76 415.16 366.57 415.56C366.46 415.79 365.6 416.25 365.54 416.47Z" fill="currentColor"/>
<path d="M195.09 467.48C194.8 467.18 195.09 466.58 195.71 466.2C196.013 466.117 196.328 466.09 196.64 466.12L197.31 466.26C197.31 466.26 197.75 466.5 198.15 466.77C198.329 466.902 198.52 467.015 198.72 467.11C198.779 467.102 198.836 467.085 198.89 467.06C199.02 466.96 199.02 466.92 199.04 466.93C199.06 466.94 199.04 466.86 199.04 466.86C199.078 466.892 199.122 466.916 199.17 466.93C199.235 466.952 199.305 466.952 199.37 466.93H199.43L199.5 466.69C199.55 466.51 199.55 466.56 199.55 466.51C199.55 466.46 199.55 466.51 199.48 466.38C199.473 466.332 199.449 466.289 199.412 466.258C199.375 466.226 199.328 466.209 199.28 466.21C199.2 466.21 199.12 466.12 199.04 466.01C198.96 465.9 198.83 465.83 198.9 465.78C199.516 465.381 200.011 464.821 200.33 464.16C200.4 463.86 199.7 466.77 200 465.54V465.48V465.36C200.004 465.28 200.004 465.2 200 465.12C200 464.97 200 464.99 200 464.94C200 464.63 199.93 464.94 200.41 465.34C200.472 465.405 200.539 465.465 200.61 465.52L200.7 465.59H200.6C200.5 465.625 200.409 465.679 200.33 465.75C200.27 465.75 200.33 465.87 200.11 465.89C199.63 465.89 199.65 466.13 199.58 466.31C199.48 466.587 199.356 466.854 199.21 467.11C199.048 467.269 198.867 467.407 198.67 467.52C198.371 467.614 198.05 467.614 197.75 467.52C197.54 467.37 197.23 467.52 196.95 467.52C196.854 467.53 196.757 467.53 196.66 467.52C196.355 467.137 196.134 466.694 196.01 466.22C195.816 465.692 195.728 465.132 195.75 464.57C195.75 464.57 195.81 464.29 195.94 463.87C196.123 463.256 196.414 462.681 196.8 462.17C197.395 461.386 198.237 460.826 199.19 460.58C199.758 460.459 200.342 460.425 200.92 460.48C201.23 460.518 201.529 460.617 201.8 460.77C202.055 460.92 202.293 461.098 202.51 461.3C202.783 461.508 203.043 461.732 203.29 461.97C203.645 462.334 203.963 462.733 204.24 463.16C204.605 463.708 204.9 464.299 205.12 464.92L205.25 465.58C205.3 465.817 205.331 466.058 205.34 466.3C205.38 466.764 205.256 467.227 204.99 467.61C204.911 467.716 204.872 467.847 204.88 467.98C204.88 468.29 204.73 468.74 204.65 469.11C204.537 469.48 204.397 469.841 204.23 470.19C203.916 470.834 203.489 471.416 202.97 471.91C202.491 472.425 201.899 472.822 201.24 473.07C201.112 473.101 200.978 473.101 200.85 473.07C200.69 473.06 200.53 473.06 200.37 473.07C199.562 473.157 198.748 472.978 198.05 472.56C197.67 472.354 197.306 472.12 196.96 471.86C196.62 471.55 196.31 471.19 195.96 470.86C195.711 470.432 195.484 469.991 195.28 469.54C195.212 469.194 195.101 468.858 194.95 468.54C194.9 468.41 195.22 467.58 195.09 467.48Z" fill="currentColor"/>
<path d="M258.39 487.62C258.49 488.05 257.87 488.42 257.07 488.39C256.739 488.282 256.428 488.12 256.15 487.91C255.97 487.76 255.77 487.57 255.6 487.41C255.416 487.116 255.249 486.813 255.1 486.5C255.062 486.415 255.015 486.335 254.96 486.26C254.926 486.232 254.889 486.208 254.85 486.19C254.791 486.171 254.728 486.171 254.67 486.19C254.49 486.19 254.46 486.26 254.46 486.24C254.46 486.22 254.4 486.24 254.41 486.31C254.396 486.253 254.372 486.199 254.34 486.15C254.24 485.99 254.13 485.96 254.06 485.98H254.01L253.17 485.44L253.26 485.5L253.61 485.71L253.97 485.9V486.04C253.97 486.1 253.91 486.18 254.06 486.3C254.097 486.338 254.126 486.384 254.145 486.433C254.164 486.483 254.172 486.537 254.17 486.59V486.76C254.168 486.78 254.168 486.8 254.17 486.82H254C253.232 486.826 252.481 487.044 251.83 487.45C251.6 487.67 253.83 485.5 252.89 486.45L252.79 486.55C252.734 486.608 252.684 486.672 252.64 486.74C252.609 486.794 252.572 486.844 252.53 486.89C252.39 487.19 252.58 486.96 252.4 486.32C252.361 486.144 252.304 485.973 252.23 485.81L252.31 485.88C252.412 485.903 252.518 485.903 252.62 485.88C252.69 485.88 252.7 485.79 252.89 485.88C253.34 486.16 253.44 485.95 253.6 485.83C253.847 485.645 254.112 485.484 254.39 485.35C254.632 485.322 254.877 485.322 255.12 485.35C255.456 485.433 255.761 485.61 256 485.86C256.11 486.13 256.48 486.2 256.75 486.34L257.03 486.5C257.095 487.023 257.051 487.554 256.9 488.06C256.783 488.648 256.548 489.205 256.21 489.7C256.031 489.888 255.841 490.065 255.64 490.23C255.123 490.686 254.527 491.042 253.88 491.28C252.876 491.651 251.777 491.672 250.76 491.34C250.368 491.202 249.992 491.021 249.64 490.8L249.12 490.43C248.856 490.216 248.638 489.951 248.48 489.65C248.301 489.448 248.14 489.23 248 489C247.671 488.137 247.498 487.223 247.49 486.3C247.474 485.593 247.548 484.888 247.71 484.2C247.859 483.75 248.043 483.312 248.26 482.89C248.518 482.406 248.935 482.024 249.44 481.81C249.61 481.712 249.753 481.575 249.86 481.41C250.851 480.197 252.246 479.384 253.79 479.12C254.499 478.975 255.231 478.975 255.94 479.12C256.073 479.164 256.196 479.235 256.3 479.33C256.432 479.427 256.569 479.517 256.71 479.6C257.457 479.964 258.072 480.551 258.47 481.28C258.696 481.661 258.893 482.059 259.06 482.47C259.15 482.68 259.21 482.91 259.3 483.12C259.39 483.33 259.37 483.61 259.42 483.85C259.436 484.056 259.436 484.264 259.42 484.47C259.391 484.806 259.341 485.14 259.27 485.47C259.22 486.15 259 486.66 259.02 486.8C259.04 486.94 258.33 487.45 258.39 487.62Z" fill="currentColor"/>
<path d="M333.31 277.66C319.79 292.72 306.84 285.79 294.17 278.88C285.22 274 279.72 280.32 268.09 278.49C256.83 276.71 252.56 271.04 250.39 265.19C270.83 257.96 276.77 231.74 279.39 230.19C291.81 233.19 296.54 217.25 293.55 213.31C289.79 208.38 285.81 210.68 283.07 211.62C282.12 211.94 279.49 176.73 255.39 176.76C247.85 176.76 239.68 181.62 234.75 185.76C198.67 164.83 245.93 113.62 282.87 157.45C288.23 149.65 352.26 152.07 332.18 220.92C329.06 231.74 355.64 252.79 333.31 277.66Z" fill="currentColor"/>
<path d="M250.87 141.75C244.513 141.78 238.339 143.887 233.29 147.75C230.783 149.657 228.616 151.972 226.88 154.6C225.163 157.214 224.018 160.162 223.52 163.25C223.033 166.306 223.325 169.437 224.37 172.35L224.76 173.44C224.909 173.786 225.082 174.12 225.28 174.44L225.83 175.44L226.1 175.95L226.44 176.43L227.82 178.32L229.43 180.03C229.982 180.592 230.573 181.113 231.2 181.59C231.789 182.121 232.417 182.606 233.08 183.04L234.62 184.04C234.69 184.14 234.78 184.04 234.86 183.97L235.6 183.4C238.31 181.332 241.241 179.571 244.34 178.15C246.623 177.085 249.027 176.302 251.5 175.82C252.759 175.574 254.038 175.443 255.32 175.43C256.595 175.42 257.869 175.511 259.13 175.7C261.672 176.076 264.125 176.91 266.37 178.16C268.591 179.411 270.597 181.012 272.31 182.9C275.867 186.98 278.585 191.72 280.31 196.85C281.198 199.356 281.956 201.906 282.58 204.49C282.89 205.78 283.18 207.07 283.45 208.35L283.74 209.73C283.74 209.83 283.79 209.93 283.83 210.03C283.87 210.13 284.02 210.03 284.11 209.97L284.59 209.8C284.95 209.67 285.33 209.55 285.71 209.44C286.513 209.205 287.344 209.077 288.18 209.06C289.942 209.06 291.641 209.712 292.95 210.89C293.24 211.18 293.55 211.46 293.82 211.77C294.09 212.08 294.33 212.34 294.6 212.77C295.083 213.542 295.384 214.414 295.48 215.32C295.647 216.919 295.521 218.535 295.11 220.09C294.387 223.175 292.802 225.991 290.54 228.21C289.381 229.336 288 230.208 286.484 230.77C284.969 231.331 283.353 231.57 281.74 231.47C281.34 231.47 280.95 231.39 280.56 231.35C280.17 231.31 280.14 231.27 279.92 231.23C279.7 231.19 279.68 231.39 279.58 231.49L279.53 231.58C279.481 231.65 279.437 231.723 279.4 231.8L279.15 232.25C278.51 233.51 277.91 234.86 277.3 236.2C276.09 238.9 274.82 241.59 273.4 244.2C270.63 249.529 267.017 254.375 262.7 258.55C259.874 261.212 256.627 263.388 253.09 264.99C252.57 265.24 252.4 265.29 252.09 265.4L251.71 265.55L251.51 265.62C251.51 265.62 251.51 265.73 251.51 265.78C251.6 265.99 251.68 266.2 251.78 266.41C251.96 266.83 252.16 267.24 252.38 267.64C253.205 269.245 254.282 270.707 255.57 271.97C258.236 274.462 261.525 276.189 265.09 276.97C266.861 277.424 268.667 277.722 270.49 277.86C272.308 277.973 274.133 277.916 275.94 277.69C278.27 277.41 280.59 276.85 283.01 276.43C285.499 275.9 288.071 275.9 290.56 276.43C291.806 276.732 293.011 277.182 294.15 277.77C295.27 278.32 296.28 278.91 297.36 279.47C299.48 280.59 301.61 281.66 303.78 282.62C308.11 284.48 312.71 285.9 317.3 285.51L318.16 285.46L319 285.3C319.56 285.18 320.13 285.11 320.68 284.96C321.819 284.672 322.93 284.284 324 283.8C324.51 283.54 325.05 283.33 325.54 283.03L327.01 282.1L327.74 281.63L328.43 281.08L329.79 279.98C331.94 277.98 332.92 277.16 333.05 277.4C333.18 277.64 332.41 278.9 330.74 280.88C329.701 282.051 328.545 283.113 327.29 284.05C326.92 284.32 326.56 284.64 326.14 284.89L324.83 285.65C323.877 286.203 322.872 286.662 321.83 287.02C317.46 288.7 311.59 288.42 306.2 286.43C303.826 285.577 301.508 284.575 299.26 283.43C298.13 282.88 297.05 282.29 295.94 281.71L294.32 280.83L293.5 280.39L292.75 280.02C290.782 279.041 288.596 278.58 286.4 278.68C284.045 278.898 281.707 279.269 279.4 279.79C276.875 280.29 274.304 280.518 271.73 280.47C269.139 280.381 266.568 279.985 264.07 279.29C261.516 278.624 259.088 277.547 256.88 276.1C255.764 275.356 254.725 274.502 253.78 273.55C252.851 272.582 252.017 271.527 251.29 270.4C250.95 269.83 250.59 269.27 250.29 268.67C249.915 267.932 249.582 267.174 249.29 266.4L248.63 264.74C248.567 264.614 248.523 264.479 248.5 264.34L248.88 264.19L249.63 263.89L251.14 263.29L251.52 263.14L251.84 263.01L252.23 262.83C254.379 261.873 256.412 260.675 258.29 259.26C262.071 256.343 265.342 252.818 267.97 248.83C270.659 244.771 273 240.492 274.97 236.04L276.53 232.65C276.8 232.08 277.07 231.51 277.4 230.92C277.49 230.77 277.56 230.63 277.66 230.47C277.8 230.237 277.953 230.014 278.12 229.8L278.69 229.24L279 228.99C279 228.99 279.09 228.87 279.15 228.89H279.33L280.77 229.08L281.66 229.19C282.206 229.235 282.754 229.235 283.3 229.19C284.388 229.113 285.455 228.846 286.45 228.4C290.45 226.57 293.05 221.87 293.45 217.32C293.57 216.274 293.426 215.215 293.03 214.24L292.87 213.98L292.61 213.66C292.437 213.439 292.25 213.228 292.05 213.03C291.676 212.647 291.256 212.311 290.8 212.03C289.918 211.488 288.878 211.262 287.85 211.39C287.293 211.444 286.743 211.558 286.21 211.73C285.93 211.81 285.64 211.92 285.36 212.02L283.9 212.55C283.743 212.596 283.582 212.629 283.42 212.65H283.01H282.8C282.8 212.73 282.8 212.55 282.8 212.57H282.71H282.61C282.47 212.57 282.4 212.41 282.31 212.29C281.962 211.672 281.734 210.993 281.64 210.29L281.06 207.63C280.68 205.92 280.27 204.23 279.79 202.55C278.869 199.195 277.65 195.929 276.15 192.79C274.688 189.682 272.756 186.818 270.42 184.3C268.199 181.892 265.417 180.07 262.322 178.996C259.228 177.921 255.916 177.627 252.68 178.14C249.505 178.701 246.44 179.764 243.6 181.29C242.156 182.044 240.754 182.875 239.4 183.78C238.72 184.23 238.06 184.71 237.4 185.19L236.4 186L235.63 186.63L235.24 186.94L235.05 187.1C234.975 187.06 234.901 187.017 234.83 186.97L232 185.16C231.65 184.91 231.28 184.7 230.94 184.44L229.94 183.61C229.29 183.04 228.58 182.55 227.99 181.92L226.18 180C223.911 177.327 222.302 174.158 221.48 170.75C220.708 167.329 220.791 163.771 221.72 160.39C222.636 157.042 224.229 153.918 226.4 151.21C228.539 148.509 231.11 146.181 234.01 144.32C237.584 142.048 241.575 140.512 245.75 139.8C249.92 139.112 254.183 139.227 258.31 140.14C262.394 141.135 266.3 142.754 269.89 144.94L272.52 146.64C273.37 147.24 274.16 147.92 274.99 148.55L276.22 149.55C276.63 149.87 276.99 150.25 277.37 150.55L279.65 152.68C280.36 153.35 280.97 154.11 281.65 154.82L282.52 155.82L282.77 156.1L282.89 156.24C282.94 156.24 282.98 156.36 283.02 156.24C283.139 156.082 283.284 155.947 283.45 155.84C283.74 155.642 284.045 155.465 284.36 155.31C285.049 154.98 285.765 154.709 286.5 154.5C287.931 154.113 289.393 153.852 290.87 153.72C293.788 153.471 296.724 153.528 299.63 153.89C305.435 154.578 311.064 156.334 316.23 159.07C321.406 161.818 325.881 165.718 329.31 170.47C332.653 175.259 334.912 180.719 335.93 186.47C337.72 196.08 336.7 205.83 334.62 215.11C334.33 216.27 334.08 217.43 333.77 218.58L333.3 220.31L333.07 221.17L332.92 221.92C332.818 224.138 333.253 226.347 334.19 228.36C335.91 232.65 338.19 236.83 340.01 241.29C341.699 245.208 342.808 249.352 343.3 253.59C343.625 256.997 343.337 260.434 342.45 263.74C341.849 265.975 340.962 268.123 339.81 270.13C338.61 272.351 337.029 274.345 335.14 276.02C334.54 276.51 333.78 277.19 333.38 277.43C332.71 277.83 333.38 276.77 334.95 274.49C337.381 271.056 339.188 267.221 340.29 263.16C341.266 259.177 341.345 255.027 340.52 251.01C339.639 246.889 338.269 242.887 336.44 239.09C335.55 237.09 334.6 235.2 333.66 233.2C332.667 231.174 331.821 229.078 331.13 226.93C330.773 225.766 330.551 224.565 330.47 223.35C330.444 223.017 330.444 222.683 330.47 222.35C330.468 222.014 330.501 221.679 330.57 221.35C330.63 221.02 330.7 220.66 330.77 220.35L330.98 219.56C331.57 217.47 332.1 215.36 332.55 213.24C334.38 204.77 335.21 195.93 333.71 187.41C332.998 183.166 331.593 179.068 329.55 175.28C327.489 171.52 324.742 168.179 321.45 165.43C316.154 161.122 309.88 158.182 303.18 156.87C299.833 156.176 296.416 155.884 293 156C291.319 156.04 289.645 156.238 288 156.59C287.232 156.762 286.48 156.996 285.75 157.29L285.25 157.53L285.03 157.65L284.92 157.72C284.864 157.748 284.814 157.785 284.77 157.83L284.33 158.23L284.11 158.43L283.86 158.73L282.86 159.87L278.58 155.15C277.53 154.04 276.37 153.05 275.27 151.99C274.711 151.471 274.124 150.983 273.51 150.53L271.72 149.12C270.5 148.21 269.19 147.45 267.93 146.6C262.741 143.52 256.834 141.857 250.8 141.78L250.87 141.75Z" fill="currentColor"/>
<path d="M234.66 261.53C227.6 267.47 216.9 273.53 209.78 263.16C202.78 253.01 216.78 246.62 223.92 237.45C226 247 229 257.11 234.66 261.53Z" fill="currentColor"/>
<path d="M219.93 243.89C218.26 245.42 216.56 246.89 214.93 248.38C213.331 249.804 211.899 251.404 210.66 253.15C209.835 254.342 209.307 255.713 209.12 257.15C209.008 258.382 209.203 259.623 209.69 260.76C209.81 261.06 209.97 261.35 210.11 261.64L210.61 262.49L211.81 264.12C212.622 265.16 213.635 266.027 214.787 266.671C215.939 267.315 217.208 267.723 218.52 267.87C220.939 268.041 223.359 267.55 225.52 266.45C228.324 264.976 231 263.27 233.52 261.35C234.34 260.78 234.65 261.35 234.36 262.35C233.854 263.834 232.864 265.105 231.55 265.96C230.11 266.954 228.588 267.824 227 268.56C225.365 269.338 223.627 269.876 221.84 270.16C219.981 270.491 218.07 270.385 216.26 269.85C215.799 269.722 215.348 269.561 214.91 269.37L213.65 268.72C213.247 268.479 212.863 268.208 212.5 267.91C212.138 267.643 211.803 267.341 211.5 267.01L210.35 265.82C210.01 265.4 209.7 264.96 209.35 264.53C208.662 263.658 208.084 262.704 207.63 261.69C207.144 260.628 206.856 259.486 206.78 258.32C206.71 257.151 206.866 255.98 207.24 254.87C208.111 252.615 209.451 250.57 211.17 248.87C212.75 247.17 214.46 245.66 216.17 244.15C217.17 243.22 218.23 242.3 219.23 241.36C220.393 240.283 221.495 239.141 222.53 237.94L224.34 235.75C225.115 239.737 226.117 243.677 227.34 247.55C228.306 250.539 229.65 253.392 231.34 256.04C231.69 256.63 232.12 257.13 232.51 257.68C232.9 258.23 233.23 258.56 233.51 258.92C233.747 259.184 233.964 259.464 234.16 259.76C234.437 260.127 234.594 260.57 234.61 261.03C234.625 261.223 234.625 261.417 234.61 261.61C234.55 261.89 234.26 261.93 233.76 261.74C233.446 261.619 233.147 261.461 232.87 261.27C232.501 260.995 232.148 260.702 231.81 260.39C229.694 258.144 228.001 255.536 226.81 252.69C225.578 249.858 224.575 246.932 223.81 243.94C223.67 243.42 223.54 242.94 223.42 242.4L223.15 241.31V241.13C223.152 241.09 223.152 241.05 223.15 241.01H223.09L222.77 241.34C221.9 242.24 221 243.1 220.1 243.93L219.93 243.89Z" fill="currentColor"/>
<path d="M227 209.18C225.933 215.608 225.507 222.127 225.73 228.64C225.861 235.129 226.87 241.571 228.73 247.79C230.005 252.254 232.298 256.362 235.43 259.79C236.776 261.216 238.423 262.323 240.252 263.029C242.081 263.735 244.045 264.022 246 263.87C250.017 263.485 253.837 261.946 257 259.44C260.293 256.903 263.215 253.917 265.68 250.57C268.22 247.205 270.532 243.674 272.6 240C273.53 238.38 274.43 236.73 275.33 235.07L276.7 232.58C276.94 232.16 277.17 231.74 277.43 231.33C277.57 231.12 277.68 230.91 277.84 230.7C278.012 230.429 278.213 230.177 278.44 229.95C278.645 229.676 278.917 229.459 279.23 229.32L280.17 229.46L280.64 229.53H280.98L281.64 229.6C282.503 229.657 283.371 229.604 284.22 229.44C285.908 229.094 287.464 228.279 288.71 227.09C290.284 225.482 291.489 223.551 292.24 221.43C292.991 219.309 293.271 217.05 293.06 214.81C293.003 214.348 292.831 213.908 292.56 213.53C292.447 213.331 292.298 213.154 292.12 213.01C291.966 212.846 291.787 212.708 291.59 212.6C290.7 212.132 289.689 211.944 288.69 212.06C286.475 212.281 284.36 213.096 282.57 214.42C281.5 215.25 281.18 215.65 280.95 215.49C280.72 215.33 280.85 214.49 281.7 213.49C282.916 212.025 284.501 210.91 286.29 210.26C287.562 209.762 288.926 209.543 290.29 209.62C290.696 209.641 291.098 209.705 291.49 209.81C291.917 209.907 292.328 210.066 292.71 210.28C292.92 210.39 293.12 210.49 293.32 210.62L293.87 211.07C294.23 211.388 294.543 211.755 294.8 212.16C295.058 212.52 295.257 212.918 295.39 213.34C295.516 213.715 295.613 214.1 295.68 214.49C295.787 215.201 295.83 215.921 295.81 216.64C295.653 220.721 294.168 224.64 291.58 227.8C289.756 230.008 287.202 231.49 284.38 231.98C284.03 232.045 283.676 232.085 283.32 232.1C282.971 232.125 282.62 232.125 282.27 232.1C281.937 232.118 281.603 232.118 281.27 232.1L280.34 231.99L280.08 231.93C280 231.93 280.08 231.93 280.02 231.93L279.96 232.02C279.88 232.125 279.806 232.235 279.74 232.35C279.59 232.59 279.43 232.82 279.28 233.08C274.58 241.49 269.85 250.59 262.55 257.72C260.355 259.902 257.884 261.788 255.2 263.33C252.444 264.92 249.371 265.882 246.2 266.15C242.905 266.421 239.612 265.61 236.82 263.84C234.158 262.024 231.94 259.632 230.33 256.84C226.78 250.84 225.15 244.18 224.21 237.53C223.747 234.195 223.484 230.836 223.42 227.47C223.339 224.114 223.432 220.756 223.7 217.41C224.253 209.144 225.981 200.999 228.83 193.22C229.38 191.75 230.03 190.32 230.71 188.89C231.064 188.17 231.461 187.472 231.9 186.8C232.12 186.46 232.33 186.12 232.57 185.8L233.32 184.8C235.382 182.312 237.999 180.342 240.96 179.05C243.869 177.802 246.933 176.954 250.07 176.53C251.62 176.29 253.18 176.12 254.73 176.01C255.49 175.93 256.31 175.93 257.11 175.91C257.914 175.94 258.716 176.02 259.51 176.15C261.963 176.544 264.31 177.432 266.41 178.76C268.486 180.055 270.37 181.634 272.01 183.45C275.209 187.096 277.705 191.304 279.37 195.86C280.091 197.863 280.669 199.915 281.1 202C281.738 204.759 282.007 207.59 281.9 210.42C281.886 211.7 281.607 212.963 281.08 214.13C280.92 214.477 280.733 214.812 280.52 215.13C279.85 215.78 280.24 212.65 279.62 207.13C279.109 202.998 278.018 198.958 276.38 195.13C274.779 191.25 272.511 187.679 269.68 184.58C266.959 181.486 263.311 179.353 259.28 178.5C258.784 178.406 258.283 178.343 257.78 178.31C257.281 178.275 256.78 178.275 256.28 178.31H255.52L254.7 178.37C254.16 178.42 253.61 178.45 253.07 178.52C250.921 178.724 248.79 179.079 246.69 179.58C245.161 179.948 243.666 180.443 242.22 181.06C240.799 181.649 239.455 182.412 238.22 183.33C237.605 183.781 237.017 184.268 236.46 184.79C235.917 185.323 235.409 185.891 234.94 186.49C233.975 187.694 233.159 189.01 232.51 190.41C231.14 193.353 230.013 196.403 229.14 199.53C228.238 202.677 227.53 205.876 227.02 209.11L227 209.18Z" fill="currentColor"/>
<path d="M189.78 292.78C193.37 291.64 196.95 290.42 200.55 289.2C201.86 288.75 203.15 288.2 204.47 287.81C209.128 286.242 213.873 284.944 218.68 283.92C220.845 283.454 223.04 283.143 225.25 282.99L226.32 282.93H227.41C228.149 282.95 228.885 283.033 229.61 283.18C231.108 283.448 232.497 284.142 233.61 285.18C234.32 285.86 233.72 286.18 232.79 286.18C232.33 286.18 231.79 286.13 231.23 286.12C230.94 286.12 230.68 286.02 230.36 286C230.04 285.971 229.725 285.908 229.42 285.81C226.868 285.344 224.252 285.344 221.7 285.81C219.01 286.18 216.29 286.81 213.56 287.4C210.28 288.17 206.98 289.4 203.7 290.53L192.86 294.22C190.62 294.96 188.38 295.69 186.12 296.37C182.7 297.42 179.22 298.37 175.72 299.09C173.016 299.732 170.263 300.144 167.49 300.32C166.87 300.32 166.26 300.32 165.63 300.32C163.27 300.12 162.55 299.67 162.25 298.95C162.165 298.797 162.104 298.631 162.07 298.46C162.02 297.91 162.97 297.8 164.49 297.91C169.05 298.16 173.96 297.14 178.84 295.91C182.46 294.98 186.1 293.86 189.7 292.66L189.78 292.78Z" fill="currentColor"/>
<path d="M215.54 215C214.521 216.779 213.406 218.502 212.2 220.16C211.75 220.77 211.34 221.41 210.85 221.99C209.12 224.089 206.984 225.817 204.57 227.07C203.481 227.634 202.325 228.057 201.13 228.33C199.595 228.768 197.965 228.733 196.45 228.23C195.99 228.06 196.23 227.47 196.72 226.95C196.968 226.681 197.258 226.454 197.58 226.28C197.879 226.092 198.227 225.995 198.58 226C201.196 225.99 203.743 225.157 205.86 223.62C207.253 222.579 208.472 221.324 209.47 219.9C210.676 218.344 211.778 216.71 212.77 215.01C213.4 214.01 214 212.89 214.59 211.8C215.034 210.912 215.545 210.059 216.12 209.25C216.839 208.501 217.694 207.897 218.64 207.47C219.99 206.79 221.29 206.18 222.44 205.47C222.68 205.32 222.91 205.15 223.13 204.99C223.96 204.41 224.13 204.32 224.83 204.55C224.98 204.61 225.14 204.64 225.28 204.71C225.397 204.76 225.494 204.849 225.554 204.962C225.614 205.075 225.634 205.204 225.61 205.33C225.541 205.744 225.337 206.124 225.03 206.41C223.976 207.384 222.761 208.169 221.44 208.73C220.341 209.172 219.294 209.735 218.32 210.41C218.18 210.52 218.07 210.65 217.97 210.74C217.87 210.83 217.82 210.95 217.71 211.12C217.49 211.48 217.25 211.92 217.01 212.35L215.59 215H215.54Z" fill="currentColor"/>
<path d="M222.47 201.23C221.883 201.33 221.302 201.464 220.73 201.63C220.52 201.69 220.34 201.82 220.13 201.88C219.379 202.075 218.641 202.315 217.92 202.6C217.611 202.74 217.325 202.926 217.07 203.15C216.75 203.44 216.54 203.82 216.07 203.89C215.93 203.89 215.49 203.46 215.17 202.94C214.85 202.42 214.67 201.79 214.91 201.58C215.705 200.896 216.674 200.447 217.71 200.28C218.288 200.111 218.851 199.89 219.39 199.62C220.01 199.41 220.64 199.24 221.28 199.08L222.46 198.81C223.06 198.68 223.68 198.6 224.29 198.46C224.799 198.296 225.321 198.172 225.85 198.09C225.999 198.07 226.151 198.07 226.3 198.09C226.431 198.105 226.557 198.149 226.668 198.22C226.779 198.292 226.872 198.387 226.94 198.5C226.977 198.621 226.98 198.75 226.95 198.873C226.92 198.996 226.858 199.109 226.77 199.2C226.678 199.314 226.578 199.421 226.47 199.52C226.377 199.596 226.281 199.666 226.18 199.73L226.06 199.82C225.966 199.93 225.892 200.055 225.84 200.19C225.77 200.4 225.7 200.39 225.59 200.47C225.462 200.534 225.328 200.584 225.19 200.62C224.89 200.71 224.54 200.79 224.19 200.87C223.66 200.99 223.09 201.1 222.52 201.25L222.47 201.23Z" fill="currentColor"/>
<path d="M174.51 228.15C180.42 218.68 185.83 208.92 191.51 199.21C192.57 197.44 193.61 195.67 194.77 193.93C195.364 193.029 196.012 192.164 196.71 191.34C197.482 190.554 198.322 189.838 199.22 189.2C202.167 186.997 205.314 185.075 208.62 183.46C209.474 183.051 210.353 182.694 211.25 182.39C211.721 182.229 212.202 182.099 212.69 182C213.223 181.893 213.767 181.856 214.31 181.89C216.233 182.126 218.101 182.694 219.83 183.57C221.52 184.355 223.136 185.289 224.66 186.36C225.435 186.901 226.173 187.492 226.87 188.13C227.226 188.472 227.56 188.836 227.87 189.22C228.075 189.469 228.256 189.737 228.41 190.02C228.576 190.317 228.698 190.637 228.77 190.97C228.849 191.293 228.84 191.63 228.745 191.948C228.65 192.266 228.472 192.553 228.23 192.78C227.719 193.231 227.078 193.508 226.4 193.57C226.094 193.606 225.785 193.606 225.48 193.57C225.224 193.55 224.971 193.513 224.72 193.46C224.237 193.358 223.763 193.221 223.3 193.05C222.411 192.727 221.548 192.336 220.72 191.88C220.32 191.67 219.87 191.39 219.53 191.2C219.197 191.004 218.841 190.85 218.47 190.74C216.21 190.03 213.61 191.11 211.47 192.59C210.398 193.355 209.394 194.212 208.47 195.15C207.99 195.61 207.54 196.15 207.11 196.6C206.89 196.853 206.68 197.103 206.48 197.35C206.314 197.557 206.16 197.775 206.02 198C205.947 198.357 205.897 198.717 205.87 199.08L205.7 200.42C205.212 204.597 204 208.658 202.12 212.42C200.201 216.303 196.96 219.374 192.98 221.08C191.74 221.57 191.13 221.54 191.1 221.32C191.07 221.1 191.58 220.6 192.41 219.91C193.529 219.025 194.588 218.066 195.58 217.04C196.911 215.606 198.094 214.042 199.11 212.37C200.435 210.154 201.445 207.765 202.11 205.27C202.463 204.01 202.753 202.73 202.98 201.43C203.09 200.78 203.19 200.13 203.28 199.43L203.41 198.43L203.48 197.9C203.48 197.83 203.53 197.61 203.57 197.46C203.606 197.294 203.653 197.13 203.71 196.97C203.949 196.54 204.231 196.135 204.55 195.76C204.79 195.46 205.03 195.18 205.27 194.9C205.77 194.35 206.27 193.81 206.81 193.3C207.871 192.253 209.026 191.306 210.26 190.47C211.549 189.579 212.974 188.904 214.48 188.47C216.136 187.974 217.905 188.009 219.54 188.57C219.948 188.724 220.342 188.912 220.72 189.13L221.61 189.65C222.173 189.975 222.754 190.269 223.35 190.53C223.908 190.78 224.487 190.981 225.08 191.13C225.34 191.19 225.604 191.233 225.87 191.26H226.09C226.2 191.26 226.32 191.14 226.27 191.02C226.261 190.962 226.237 190.906 226.2 190.86C226.038 190.62 225.854 190.396 225.65 190.19C224.738 189.265 223.733 188.438 222.65 187.72C220.649 186.36 218.468 185.287 216.17 184.53C215.624 184.365 215.065 184.244 214.5 184.17C213.988 184.099 213.468 184.133 212.97 184.27C211.812 184.581 210.69 185.01 209.62 185.55C207.359 186.672 205.181 187.952 203.1 189.38C202.1 190.09 201.03 190.83 200.04 191.6L199.3 192.19C199.05 192.39 198.9 192.57 198.7 192.76C198.492 192.966 198.298 193.187 198.12 193.42C197.94 193.65 197.74 193.87 197.56 194.13C195.97 196.33 194.56 198.76 193.11 201.13L188.9 208.45C186.11 213.35 183.3 218.25 180.4 223.1C176.847 229.1 173.15 234.99 169.31 240.77C163.49 249.55 157.21 258.09 150.6 266.19C145.46 272.49 140.25 278.54 134.6 284.27L130.74 288C125.89 292.53 124.11 293.71 122.63 294.16C122.305 294.28 121.971 294.37 121.63 294.43C120.82 294.43 122.63 292.43 126.13 289.14C136.822 278.921 146.652 267.837 155.52 256C162.28 247.06 168.52 237.7 174.45 228.1L174.51 228.15Z" fill="currentColor"/>
<path d="M219 176.63C221.708 177.532 224.315 178.712 226.78 180.15C227.703 180.647 228.597 181.195 229.46 181.79C230.247 182.355 230.974 182.998 231.63 183.71C232.011 184.12 232.328 184.585 232.57 185.09C232.724 185.403 232.819 185.742 232.85 186.09C232.872 186.446 232.838 186.804 232.75 187.15C232.676 187.489 232.523 187.806 232.302 188.074C232.081 188.342 231.799 188.553 231.48 188.69C230.856 188.917 230.18 188.966 229.53 188.83C228.595 188.62 227.687 188.308 226.82 187.9L222.5 185.9C221.6 185.5 220.68 185.14 219.78 184.82C219.361 184.662 218.933 184.525 218.5 184.41C218.206 184.328 217.905 184.278 217.6 184.26C217.428 184.237 217.269 184.156 217.15 184.03C217.042 183.902 216.972 183.745 216.949 183.579C216.926 183.412 216.951 183.243 217.02 183.09C217.165 182.828 217.367 182.603 217.611 182.43C217.856 182.257 218.135 182.141 218.43 182.09C219.06 181.945 219.717 181.976 220.33 182.18C222.291 182.933 224.202 183.812 226.05 184.81C226.94 185.26 227.82 185.7 228.68 186.06C229.077 186.226 229.485 186.367 229.9 186.48C230.19 186.55 230.21 186.59 230.37 186.56C230.53 186.53 230.82 186.08 229.97 185.17C229.131 184.356 228.202 183.641 227.2 183.04C224.924 181.587 222.509 180.364 219.99 179.39C219.225 179.088 218.444 178.828 217.65 178.61C216.956 178.361 216.214 178.269 215.48 178.34C214.343 178.662 213.275 179.191 212.33 179.9C211.282 180.623 210.28 181.411 209.33 182.26C207.903 183.6 206.544 185.012 205.26 186.49C204.97 186.81 204.7 187.14 204.4 187.49C203.29 188.66 202.79 188.92 202.1 188.7C201.938 188.665 201.78 188.611 201.63 188.54C201.18 188.29 201.36 187.54 202.09 186.62C204.381 183.676 207.021 181.02 209.95 178.71C211.165 177.73 212.511 176.925 213.95 176.32C214.391 176.143 214.85 176.019 215.32 175.95C215.798 175.883 216.282 175.883 216.76 175.95C217.529 176.072 218.287 176.249 219.03 176.48L219 176.63Z" fill="currentColor"/>
<path d="M150.06 307.66C153.93 301.94 157.33 295.78 160.68 289.66L164.24 282.87C168.49 274.87 172.7 266.87 177.11 259.01C179.11 255.5 181.03 252.01 183.11 248.53C185.76 244.15 188.38 239.61 192.32 236.03C193.59 234.94 193.79 235.6 193.24 236.95C192.88 237.82 192.462 238.665 191.99 239.48C191.37 240.619 190.679 241.718 189.92 242.77C186.92 246.91 184.32 251.39 181.7 255.87C179.08 260.35 176.56 264.93 173.98 269.51C170.9 274.99 168.03 280.87 164.98 286.51C161.65 292.76 158.29 299.01 154.56 305.07C153.4 306.93 152.21 308.78 150.92 310.57C149.651 312.416 148.19 314.123 146.56 315.66C145.238 316.834 143.664 317.689 141.96 318.16C140.302 318.648 138.578 318.881 136.85 318.85C133.421 318.808 130.06 317.885 127.09 316.17C124.752 314.865 122.807 312.955 121.46 310.64C120.126 308.261 119.593 305.515 119.94 302.81C120.075 301.643 120.333 300.493 120.71 299.38C121.189 297.914 121.897 296.533 122.81 295.29C123.206 294.695 123.77 294.232 124.43 293.96C124.651 293.858 124.882 293.781 125.12 293.73C125.43 293.73 125.43 294.11 125.12 294.82C124.81 295.53 124.35 296.56 123.76 297.87C121.98 301.73 121.48 306.26 123.66 309.77C125.84 313.28 129.92 315.57 134.19 316.26C137.338 316.84 140.589 316.376 143.45 314.94C144.774 314.083 145.944 313.007 146.91 311.76C148.001 310.43 149.022 309.045 149.97 307.61L150.06 307.66Z" fill="currentColor"/>
<path d="M136.14 338C133.057 338.398 129.933 338.361 126.86 337.89C123.772 337.401 120.782 336.426 118 335C117 334.46 116 333.83 115.07 333.24C114.14 332.65 113.24 331.87 112.43 331.06C109.515 328.264 107.37 324.765 106.2 320.9C105.137 317.079 104.858 313.082 105.38 309.15C105.764 305.643 106.882 302.257 108.66 299.21C109.253 298.23 109.943 297.312 110.72 296.47C111.516 295.621 112.413 294.872 113.39 294.24C115.371 292.997 117.661 292.336 120 292.33C121.44 292.33 121.18 292.99 120.1 293.63C119.02 294.27 117.24 295.1 115.38 296.15C111.98 297.97 109.72 301.61 108.58 305.57C107.417 309.625 107.168 313.887 107.85 318.05C108.56 323.05 111.78 327.72 115.85 330.86C118.133 332.598 120.711 333.909 123.46 334.73C126.243 335.544 129.13 335.949 132.03 335.93C135.625 335.879 139.185 335.219 142.56 333.98C143.839 333.519 145.088 332.978 146.3 332.36C146.91 332.05 147.48 331.67 148.07 331.36C148.662 331.027 149.236 330.663 149.79 330.27C151.997 328.676 154.011 326.83 155.79 324.77C157.154 323.206 158.304 321.467 159.21 319.6C160.1 317.838 160.537 315.883 160.48 313.91C160.409 313.098 160.213 312.302 159.9 311.55C159.437 310.556 158.86 309.62 158.18 308.76C157.813 308.326 157.553 307.812 157.42 307.26C157.361 307.047 157.318 306.829 157.29 306.61C157.29 306.3 157.65 306.28 158.29 306.55C159.261 307.014 160.111 307.699 160.77 308.55C162.197 310.281 162.956 312.467 162.91 314.71C162.821 316.901 162.24 319.044 161.21 320.98C159.199 324.688 156.481 327.967 153.21 330.63C152.014 331.651 150.733 332.568 149.38 333.37C148.69 333.77 148.04 334.21 147.33 334.56L145.2 335.56C142.306 336.802 139.259 337.653 136.14 338.09V338Z" fill="currentColor"/>
<path d="M315.3 311.22C313.331 306.958 310.989 302.879 308.3 299.03C305.666 295.207 302.395 291.865 298.63 289.15C295.899 287.242 292.81 285.905 289.55 285.22C286.681 284.614 283.724 284.546 280.83 285.02C277.908 285.549 275.079 286.499 272.43 287.84C267.03 290.49 262.11 294.18 257.04 297.68C254.796 299.282 252.459 300.748 250.04 302.07C247.505 303.499 244.599 304.133 241.7 303.89C239.77 303.732 237.931 303.001 236.42 301.79C234.915 300.511 233.912 298.739 233.59 296.79C233.301 294.931 233.414 293.032 233.92 291.22C234.392 289.482 235.063 287.804 235.92 286.22C237 284.27 237.39 284.87 237.11 286.75C237 287.7 236.73 288.97 236.49 290.46C236.193 292.066 236.059 293.697 236.09 295.33C236.059 296.765 236.549 298.163 237.468 299.265C238.386 300.368 239.673 301.101 241.09 301.33C242.603 301.621 244.161 301.587 245.66 301.23C246.431 301.053 247.184 300.805 247.91 300.49C248.62 300.2 249.4 299.73 250.14 299.36C256.14 295.93 261.7 291.36 268.05 287.74C269.973 286.646 271.96 285.668 274 284.81C275 284.34 276.12 284.03 277.19 283.65C277.73 283.49 278.29 283.36 278.84 283.22L279.67 283.01L280.53 282.88C285.081 282.075 289.765 282.524 294.08 284.18C298.71 286.064 302.844 288.989 306.16 292.73C309.438 296.384 312.274 300.412 314.61 304.73C317.475 309.971 319.942 315.42 321.99 321.03C325.047 329.493 327.654 338.112 329.8 346.85C331.52 353.58 333.15 360.18 334.7 366.85C335.05 368.32 335.4 369.75 335.75 371.23C337.01 376.71 337.36 378.41 337.1 379.74C337.074 380.044 337.021 380.346 336.94 380.64C336.67 381.34 335.43 379.22 334.35 375.2C332.74 369.25 331.35 363.13 329.87 356.94C328.39 350.75 326.87 344.51 325.07 338.32C322.568 329.092 319.303 320.087 315.31 311.4L315.3 311.22Z" fill="currentColor"/>
<path d="M306.75 393C305.82 390.47 304.86 388 303.84 385.45C303.47 384.54 303.02 383.66 302.65 382.75C301.31 379.55 299.94 376.36 298.4 373.27C297.71 371.896 296.946 370.56 296.11 369.27C295.05 367.64 293.85 366.11 292.81 364.55C292.49 364.08 292.97 363.68 293.81 363.68C294.326 363.692 294.832 363.824 295.289 364.065C295.745 364.306 296.139 364.65 296.44 365.07C298.793 368.462 300.736 372.121 302.23 375.97C303.14 378.24 304.31 380.5 305.3 382.8C306.37 385.32 307.38 387.87 308.36 390.43L310.13 395.17C311.02 397.57 311.84 400 312.69 402.39C313.35 404.25 314.11 406.04 314.69 407.93C314.82 408.35 314.97 408.75 315.08 409.19C315.48 410.78 315.35 411.54 314.63 411.92C314.558 411.966 314.477 411.997 314.393 412.01C314.309 412.024 314.223 412.02 314.14 412C314.09 411.976 314.043 411.946 314 411.91C313.968 411.878 313.931 411.851 313.89 411.83C313.772 411.797 313.663 411.739 313.57 411.66C313.334 411.349 313.167 410.991 313.08 410.61C312.02 407.51 310.73 404.06 309.53 400.61C308.61 398.06 307.68 395.5 306.7 392.96L306.75 393Z" fill="currentColor"/>
<path d="M410.56 337.84C413.45 335.71 417.64 333.72 421.31 334.02C423.82 334.23 422.82 334.96 421.38 335.88C420.38 336.53 419.3 337.09 418.29 337.76C416.66 338.85 419.12 339.47 420.14 338.76C421.46 337.87 429 334.14 424.55 332.56C419.55 330.79 412.69 333.85 408.71 336.78C407.13 337.94 409.56 338.54 410.56 337.78V337.84Z" fill="currentColor"/>
<path d="M341.72 411.27C344.573 413.947 348.058 415.856 351.85 416.82C353.229 417.183 354.638 417.421 356.06 417.53C358.528 417.793 361.024 417.478 363.35 416.61C365.691 415.695 367.757 414.194 369.35 412.25C370.771 410.498 371.841 408.488 372.5 406.33C372.916 404.972 373.168 403.568 373.25 402.15C373.31 401.485 373.31 400.815 373.25 400.15C373.229 399.667 373.066 399.2 372.78 398.81C372.694 398.77 372.622 398.705 372.575 398.622C372.529 398.54 372.509 398.444 372.52 398.35C372.584 398.161 372.702 397.995 372.861 397.874C373.02 397.752 373.211 397.682 373.41 397.67C373.776 397.676 374.128 397.807 374.41 398.04C374.759 398.311 375.048 398.652 375.26 399.04C375.729 399.864 375.96 400.802 375.93 401.75C375.785 405.098 374.798 408.355 373.06 411.22C371.378 414.126 368.891 416.484 365.9 418.01C362.26 419.788 358.156 420.386 354.16 419.72C352.037 419.362 349.959 418.778 347.96 417.98C345.946 417.192 344.046 416.139 342.31 414.85C341.236 414.05 340.233 413.16 339.31 412.19C338.411 411.208 337.598 410.151 336.88 409.03C334.728 405.609 333.629 401.631 333.72 397.59C333.723 394.465 334.54 391.394 336.09 388.68C336.441 388.078 336.835 387.504 337.27 386.96C337.817 386.225 338.495 385.598 339.27 385.11C339.466 384.983 339.687 384.898 339.917 384.86C340.148 384.822 340.384 384.833 340.61 384.89C340.792 384.924 340.97 384.977 341.14 385.05C341.37 385.19 341.34 385.49 341.14 385.88C340.778 386.412 340.377 386.917 339.94 387.39C338.32 389.25 337.166 391.467 336.57 393.86C335.957 396.319 335.892 398.883 336.38 401.37C337.107 405.15 338.999 408.608 341.79 411.26L341.72 411.27Z" fill="currentColor"/>
<path d="M425.66 351.48C427.27 351.64 428.87 351.83 430.46 352.03L432.82 352.32L433.96 352.44H434.51H434.89C437.868 352.07 440.745 351.122 443.36 349.65C443.988 349.288 444.583 348.873 445.14 348.41C445.407 348.195 445.657 347.961 445.89 347.71L446.19 347.37L446.28 347.25C446.36 347.14 446.41 346.92 446.28 346.86C446.204 346.845 446.126 346.845 446.05 346.86H444.94C443.333 346.912 441.724 346.875 440.12 346.75L437.68 346.52L435.26 346.17C430.619 345.392 426.025 344.354 421.5 343.06C417.616 341.887 413.67 340.929 409.68 340.19C408.725 340.036 407.758 339.959 406.79 339.96L405.4 340.06L403.99 340.35C402.081 340.857 400.231 341.564 398.47 342.46C394.866 344.31 391.418 346.451 388.16 348.86C384.86 351.25 381.65 353.79 378.51 356.41C372.93 361.07 367.51 366.02 362.26 370.96C358.87 374.13 355.51 377.35 352.08 380.51C350.35 382.09 348.62 383.65 346.83 385.16C345.044 386.712 343.153 388.139 341.17 389.43C340.85 389.62 340.57 389.79 340.32 389.91C340.106 390.001 339.885 390.078 339.66 390.14C339.31 390.23 339.13 390.21 339.1 390.09C339.07 389.97 339.19 389.75 339.43 389.47L340.43 388.37C342.12 386.58 345.12 383.28 349.06 379.69C356.06 373.33 362.93 366.76 370.06 360.47C373.64 357.33 377.29 354.23 381.06 351.27C384.83 348.269 388.785 345.507 392.9 343C395.416 341.427 398.07 340.088 400.83 339C401.55 338.74 402.29 338.53 403.01 338.3C403.73 338.07 404.53 337.94 405.31 337.84C406.874 337.686 408.451 337.74 410 338C412.949 338.478 415.867 339.125 418.74 339.94C421.59 340.7 424.42 341.48 427.23 342.19C430.312 342.982 433.433 343.613 436.58 344.08C437.36 344.19 438.15 344.31 438.93 344.36C439.71 344.41 440.5 344.54 441.29 344.55C442.08 344.56 442.85 344.63 443.66 344.62L446.15 344.55C446.757 344.521 447.362 344.63 447.92 344.87C448.176 345.002 448.399 345.19 448.573 345.42C448.746 345.651 448.865 345.917 448.92 346.2C449 346.795 448.891 347.4 448.61 347.93C448.338 348.428 448.002 348.889 447.61 349.3C446.4 350.529 444.99 351.543 443.44 352.3C441.944 353.06 440.372 353.66 438.75 354.09C437.95 354.32 437.14 354.49 436.32 354.65C435.901 354.735 435.477 354.795 435.05 354.83C434.81 354.83 434.54 354.83 434.32 354.83L433.69 354.78C429.69 354.36 425.82 353.78 421.88 353.55C417.998 353.218 414.089 353.359 410.24 353.97C409.88 354.04 409.52 354.09 409.16 354.17L408.11 354.45L407.11 354.73L406.11 355.13C405.78 355.27 405.43 355.38 405.11 355.53L404.19 356.06C403.554 356.409 402.946 356.807 402.37 357.25C399.966 358.981 397.711 360.911 395.63 363.02C391.497 367.289 387.787 371.947 384.55 376.93C379.607 384.608 375.116 392.568 371.1 400.77C370.18 402.55 369.35 404.34 368.46 406.16C366.79 409.52 365.7 411.75 364.85 413.27C364.304 414.351 363.592 415.34 362.74 416.2C362.476 416.483 362.188 416.744 361.88 416.98C361.12 417.42 362.08 414.47 364.33 409.42C367.74 401.97 371.48 394.42 375.7 386.93C379.894 379.294 384.778 372.057 390.29 365.31C392.432 362.797 394.751 360.441 397.23 358.26C398.48 357.17 399.79 356.14 401.14 355.18C401.48 354.94 401.8 354.69 402.14 354.46L403.31 353.78C404.082 353.34 404.892 352.972 405.73 352.68C408.956 351.606 412.33 351.043 415.73 351.01C419.022 350.94 422.315 351.077 425.59 351.42L425.66 351.48Z" fill="currentColor"/>
<path d="M340.38 438.34C337.729 437.614 335.22 436.444 332.96 434.88C331.83 434.13 330.82 433.27 329.78 432.44C328.759 431.575 327.788 430.653 326.87 429.68C325.487 428.281 324.257 426.739 323.2 425.08C321.374 422.09 320.262 418.719 319.95 415.23C319.695 411.786 320.127 408.326 321.22 405.05C322.153 402.191 323.38 399.437 324.88 396.83C326.699 393.454 329.019 390.372 331.76 387.69C332.65 386.88 332.96 387.45 332.76 388.57C332.337 390.204 331.573 391.731 330.52 393.05C328.26 395.977 326.344 399.155 324.81 402.52C323.253 405.832 322.356 409.415 322.17 413.07C322.09 415.287 322.429 417.499 323.17 419.59C323.95 421.711 325.031 423.708 326.38 425.52C327.915 427.508 329.669 429.316 331.61 430.91C333.517 432.551 335.644 433.918 337.93 434.97C340.724 436.246 343.797 436.793 346.86 436.56C351.556 436.023 356.003 434.161 359.68 431.19C362.544 428.921 365.173 426.372 367.53 423.58L369.11 421.76C371.11 419.51 372.05 418.76 373.11 418.97C373.33 418.97 373.66 419.13 373.62 419.32C373.604 419.375 373.577 419.426 373.54 419.47C373.531 419.516 373.531 419.564 373.54 419.61C373.544 419.65 373.544 419.69 373.54 419.73V419.79C373.54 419.84 373.54 419.91 373.46 420C373.23 420.35 372.73 421 372.04 421.87C367.96 426.95 363.04 432.43 356.58 435.96C354.146 437.311 351.503 438.244 348.76 438.72C345.97 439.188 343.113 439.072 340.37 438.38L340.38 438.34Z" fill="currentColor"/>
<path d="M171.12 337.16C174.27 336.72 177.42 336.16 180.59 335.6C181.75 335.4 182.88 335.11 184.04 334.92C188.133 334.22 192.24 333.606 196.36 333.08C198.18 332.81 200.02 332.58 201.82 332.29C204.13 331.861 206.471 331.62 208.82 331.57C210.29 331.57 208.64 334.08 206 334.37L191.85 336C188.99 336.31 186.08 337 183.19 337.52C180 338.1 176.82 338.7 173.59 339.21C172.59 339.37 171.59 339.53 170.59 339.64C169.59 339.75 168.59 339.94 167.59 340C164.532 340.33 161.448 340.33 158.39 340L156.61 339.73C156.32 339.68 156.02 339.65 155.73 339.59L154.87 339.36L153.13 338.91C152.55 338.75 152.01 338.47 151.45 338.26C150.89 338.05 150.45 337.87 149.98 337.65C148.29 336.65 147.85 336.13 147.88 335.39C147.859 335.224 147.859 335.056 147.88 334.89C148.02 334.39 148.88 334.47 150.09 335.06C153.692 336.85 157.648 337.817 161.67 337.89C164.815 337.894 167.955 337.646 171.06 337.15L171.12 337.16Z" fill="currentColor"/>
<path d="M204.16 371.67C204.79 368.79 205.35 365.88 205.81 362.96C205.97 361.89 206.06 360.81 206.21 359.75C206.776 355.993 207.133 352.207 207.28 348.41C207.319 346.74 207.242 345.069 207.05 343.41C206.919 342.376 206.726 341.351 206.47 340.34C206.256 339.397 205.944 338.479 205.54 337.6C205.32 337.14 205.74 336.68 206.6 336.84C207.175 337.007 207.695 337.325 208.105 337.761C208.515 338.197 208.8 338.736 208.93 339.32C209.476 341.596 209.738 343.93 209.71 346.27C209.709 348.537 209.562 350.802 209.27 353.05C208.93 355.74 208.78 358.54 208.4 361.26C207.99 364.26 207.47 367.26 206.88 370.21C206.52 372.03 206.11 373.85 205.7 375.66C205.06 378.4 204.32 381.13 203.58 383.83C202.99 385.93 202.5 388.01 201.81 390.08C201.66 390.54 201.52 390.99 201.35 391.44C200.67 393.12 200.23 393.57 199.49 393.61C199.324 393.625 199.156 393.625 198.99 393.61C198.48 393.52 198.45 392.71 198.84 391.53C199.98 387.99 201.06 384.2 202.07 380.34C202.81 377.48 203.51 374.58 204.07 371.66L204.16 371.67Z" fill="currentColor"/>
<path d="M297.16 418.84C297.16 415.77 297.16 412.7 297.06 409.62C297.06 408.5 296.92 407.38 296.89 406.26C296.79 402.26 296.727 398.283 296.7 394.33C296.7 392.56 296.64 390.78 296.58 389.03C296.441 386.764 296.519 384.491 296.81 382.24C297.03 380.85 299.26 382.77 299.17 385.3C299.08 389.81 299.11 394.35 299 398.96C298.94 401.73 299.21 404.59 299.31 407.42C299.43 410.53 299.49 413.65 299.52 416.77C299.52 418.69 299.52 420.61 299.52 422.53C299.52 425.44 299.37 428.36 299.24 431.25C299.18 433.49 299.13 435.7 299.07 437.93C299.07 438.42 299.07 438.93 298.99 439.39C298.82 441.22 298.6 441.78 297.92 442.09C297.768 442.167 297.611 442.234 297.45 442.29C296.94 442.4 296.62 441.61 296.62 440.29C296.62 436.36 296.87 432.29 297 428.11C297.09 425.04 297.16 421.95 297.12 418.85L297.16 418.84Z" fill="currentColor"/>
<path d="M159.53 171C158.33 170.08 157.21 169.08 156.11 168.07C155.7 167.7 155.26 167.38 154.88 166.99C153.529 165.615 152.264 164.159 151.09 162.63C150.55 161.97 150 161.31 149.45 160.63C148.634 159.829 148.032 158.835 147.7 157.74C147.61 157.37 148.28 157.17 149.01 157.13C149.324 157.065 149.65 157.073 149.96 157.155C150.271 157.236 150.558 157.389 150.8 157.6C151.86 159.21 153.12 160.86 154.33 162.6C155.141 163.616 156.052 164.547 157.05 165.38C158.09 166.36 159.17 167.307 160.29 168.22C161 168.75 161.67 169.33 162.42 169.8C163.506 170.583 164.657 171.272 165.86 171.86C166.798 172.259 167.773 172.567 168.77 172.78C168.98 172.85 169.2 172.85 169.41 172.91C170.2 173.12 170.41 173.38 170.41 174.12C170.41 174.29 170.41 174.46 170.41 174.62C170.34 175.18 169.87 175.5 169.19 175.45C167.142 175.231 165.167 174.569 163.4 173.51C162.73 173.14 162.06 172.75 161.4 172.32C160.74 171.89 160.13 171.46 159.52 171.01L159.53 171Z" fill="currentColor"/>
<path d="M183.78 38.9999C181.571 37.6588 179.261 36.4919 176.87 35.5099L173.26 34.0999C172.658 33.8598 172.04 33.6626 171.41 33.5099L169.54 32.9799C167.038 32.2822 164.497 31.7345 161.93 31.3399C160.65 31.0999 159.34 31.0499 158.05 30.8999C156.756 30.7367 155.454 30.6432 154.15 30.6199C143.669 30.2526 133.212 31.8362 123.31 35.2899C116.103 37.7561 109.269 41.2017 103 45.5299C91.77 52.9999 83.41 64.2399 78.28 76.6699C75.6842 82.8954 74.0197 89.4693 73.34 96.1799C72.6119 102.868 73.1755 109.634 75 116.11C75.8359 118.967 76.9548 121.734 78.34 124.37C79.7657 126.985 81.4401 129.456 83.34 131.75C85.2776 134.003 87.4127 136.078 89.72 137.95C92.058 139.78 94.5356 141.425 97.13 142.87C98.77 143.87 100.51 144.61 102.23 145.42C103.95 146.23 105.76 146.88 107.58 147.42C111.204 148.644 114.91 149.61 118.67 150.31C126.235 151.661 133.896 152.4 141.58 152.52C146.37 152.6 145.76 153.29 141.66 153.97C134.778 154.912 127.793 154.815 120.94 153.68C112.922 152.479 105.139 150.04 97.87 146.45C94.2463 144.569 90.8193 142.331 87.64 139.77C82.8448 135.873 78.8808 131.053 75.983 125.596C73.0851 120.139 71.3124 114.155 70.77 108C69.9954 99.8691 70.8001 91.6652 73.14 83.8399C74.4973 79.1378 76.2953 74.5743 78.51 70.2099C80.7246 65.7785 83.3636 61.5722 86.39 57.6499C92.5538 49.7921 100.301 43.3186 109.13 38.6499L112.75 36.7799C113.96 36.1499 115.24 35.6799 116.48 35.1199C118.94 33.9699 121.54 33.1199 124.1 32.2499C125.37 31.7799 126.7 31.4999 128 31.1099L130 30.5799L131 30.3099L132 30.0999C134.66 29.5699 137.31 28.9599 140 28.6899C145.387 27.9534 150.833 27.7457 156.26 28.0699C158.969 28.2579 161.667 28.5917 164.34 29.0699L166.34 29.4399C167.015 29.5425 167.683 29.6861 168.34 29.8699L172.28 30.9699L173.49 31.3199L174.66 31.7699L177.01 32.6799C177.78 32.9899 178.58 33.2599 179.34 33.6199L181.6 34.7199C182.36 35.0699 183.09 35.4899 183.82 35.9099L186 37.1599L188.09 38.5499C188.79 39.0199 189.49 39.4699 190.09 39.9999C191.446 40.983 192.751 42.0343 194 43.1499C194.62 43.7199 195.28 44.2399 195.87 44.8299L197.64 46.6099C198.238 47.1973 198.805 47.8148 199.34 48.4599L200.99 50.3599L202.49 52.3599C203.012 52.9976 203.496 53.6654 203.94 54.3599C206.785 58.5952 208.92 63.2667 210.26 68.1899C211.606 73.1309 211.983 78.2857 211.37 83.3699C210.758 88.3953 209.539 93.3279 207.74 98.0599C205.923 102.761 203.553 107.229 200.68 111.37C198.47 114.55 196.069 117.592 193.49 120.48C190.93 123.36 188.27 126.11 185.63 128.85C182.99 131.59 180.37 134.31 177.95 137.18C175.51 139.987 173.416 143.075 171.71 146.38C170.262 149.245 169.343 152.348 169 155.54C168.92 156.28 168.92 157 168.88 157.69C168.88 158.03 168.88 158.37 168.88 158.69C168.88 159.01 168.88 159.34 168.94 159.69C168.94 160.32 169 160.93 169.03 161.5C169.06 162.07 169.19 162.62 169.27 163.14C169.35 163.66 169.41 164.14 169.48 164.63C169.55 165.12 169.68 165.54 169.78 165.96C169.98 166.81 170.12 167.58 170.29 168.26C170.69 169.63 170.97 170.72 171.16 171.64C171.373 172.407 171.543 173.184 171.67 173.97C171.76 174.6 171.92 175.41 171.92 175.8C171.92 176.47 171.29 175.68 170.2 173.64C168.564 170.454 167.421 167.039 166.81 163.51C166.15 159.974 166.15 156.346 166.81 152.81C167.531 149.23 168.868 145.803 170.76 142.68C174.51 136.44 179.63 131.35 184.54 126.26C189.569 121.312 194.184 115.961 198.34 110.26C200.346 107.411 202.112 104.401 203.62 101.26C205.103 98.0999 206.311 94.8177 207.23 91.4499L208.1 87.6499L208.73 83.7999C208.9 82.5099 208.93 81.2499 209.04 79.9699C209.15 78.6899 209.04 77.4199 208.98 76.1399C208.611 71.0017 207.253 65.9831 204.98 61.3599C200.214 52.0175 192.848 44.2524 183.77 38.9999H183.78Z" fill="currentColor"/>
<path d="M101 91.4499L108 81.8899L111.76 76.4899L111.97 76.1899C112.34 76.0099 112.7 75.8099 113.06 75.6199L113.61 75.3099L113.88 75.1499H113.94C114.31 74.0599 113.43 76.6399 113.52 76.3699C113.52 76.3699 113.45 76.4699 113.46 76.4899C113.568 77.2112 113.846 77.8965 114.27 78.4899C114.48 78.4899 114.38 78.8899 114.38 79.1499V80.0299C114.38 80.6099 114.38 81.1399 114.38 81.6799V83.9999C114.38 85.3199 114.38 86.6399 114.45 87.9999C114.51 90.2399 114.67 92.4799 114.86 94.6999C115.2 97.5446 115.39 100.405 115.43 103.27C115.43 105.06 112.63 103.01 112.37 99.6999C112.14 96.7799 111.97 93.8599 111.87 90.9199C111.87 89.4499 111.79 87.9799 111.79 86.4999V84.2799V83.1599V82.8799C111.79 82.7899 111.79 82.6799 111.79 82.6899V82.5499C111.834 82.3555 111.864 82.1584 111.88 81.9599C111.897 81.5608 111.94 81.1632 112.01 80.7699C112.09 80.6099 112.01 80.7699 111.94 80.8299L111.78 81.0699L111.46 81.5299L111.11 81.9999L104.68 90.9099L100.75 96.3699L99.75 97.7099L101.9 97.4199L105.77 96.8299C108.59 96.3699 111.32 95.7599 114.09 95.2099C114.7 95.0899 115.29 94.9499 115.91 94.8499C118.19 94.4499 118.91 94.5099 119.55 95.1399C119.697 95.2704 119.83 95.4144 119.95 95.5699C120.25 96.0799 119.39 96.6799 117.73 97.0899C115.28 97.7099 112.73 98.2399 110.16 98.7199L106.26 99.3999L102.2 100.04L94.04 101.27L100.93 91.4699L101 91.4499Z" fill="currentColor"/>
<path d="M152.33 90.4199L159.27 80.8699L163.03 75.4699L163.25 75.1599C163.61 74.9799 163.98 74.7899 164.34 74.5899L164.88 74.2799L165.15 74.1299H165.22C165.6 73.0299 164.72 75.6099 164.81 75.3499C164.81 75.3499 164.73 75.4599 164.74 75.4699C164.849 76.1927 165.13 76.8787 165.56 77.4699C165.77 77.4699 165.66 77.8699 165.67 78.1399L165.62 79.0099C165.62 79.5899 165.62 80.1199 165.62 80.6699V82.9999C165.62 84.3199 165.62 85.6399 165.69 86.9999C165.75 89.2399 165.91 91.4899 166.09 93.7099C166.435 96.5507 166.625 99.4083 166.66 102.27C166.66 104.06 163.87 102.01 163.61 98.7099C163.38 95.7899 163.2 92.8599 163.1 89.9199C163.1 88.4499 163.03 86.9799 163.02 85.4999V83.2799V82.1699V81.8899C163.011 81.8235 163.011 81.7562 163.02 81.6899V81.5499C163.06 81.3552 163.086 81.1581 163.1 80.9599C163.15 80.5699 163.15 80.1499 163.23 79.7699C163.31 79.6099 163.23 79.7699 163.17 79.8399L163.01 80.0699L162.68 80.5299L162.34 81.0099L156 89.8299L152.07 95.2899L151.07 96.6299L153.23 96.3499L157.1 95.7499C159.91 95.2899 162.65 94.6799 165.42 94.1399C166.02 94.0199 166.62 93.8799 167.23 93.7699C169.52 93.3699 170.28 93.4399 170.88 94.0699C171.026 94.2006 171.16 94.3445 171.28 94.4999C171.58 95.0099 170.71 95.5999 169.06 96.0199C166.61 96.6399 164.06 97.1699 161.49 97.6399L157.58 98.3199L153.58 98.9599L145.42 100.2L152.3 90.3899L152.33 90.4199Z" fill="currentColor"/>
<path d="M128.15 82.11C127.202 83.2375 126.529 84.569 126.182 86.0003C125.835 87.4316 125.824 88.9238 126.15 90.36C126.399 91.4219 126.821 92.4355 127.4 93.36C127.885 94.1769 128.5 94.9097 129.22 95.53C129.61 95.82 129.98 96.15 130.38 96.43C130.78 96.71 131.21 96.93 131.65 97.14C133.403 97.9644 135.403 98.0965 137.25 97.51C138.911 96.9421 140.342 95.8508 141.33 94.4C142.538 92.467 143.265 90.2722 143.45 88C143.56 87.3 144.25 87.32 144.9 88C145.294 88.4252 145.579 88.94 145.73 89.5C145.925 90.2238 145.925 90.9862 145.73 91.71L145.42 92.76L144.98 93.76C144.679 94.4283 144.317 95.0676 143.9 95.67C143.056 96.8889 141.983 97.9317 140.74 98.74C139.492 99.5722 138.073 100.113 136.588 100.323C135.103 100.532 133.589 100.405 132.16 99.95C130.531 99.3707 129.013 98.5186 127.67 97.43C126.303 96.3374 125.21 94.9402 124.48 93.35C123.706 91.631 123.327 89.7602 123.372 87.8755C123.417 85.9907 123.885 84.1401 124.74 82.46C125.846 80.4843 127.393 78.7904 129.26 77.51C130.66 76.4915 132.274 75.8073 133.98 75.51C135.744 75.2665 137.539 75.6184 139.08 76.51C141.384 77.8286 143.224 79.8262 144.35 82.23C144.615 82.7428 144.842 83.2742 145.03 83.82C145.66 85.9 145.45 86.68 144.79 87.15C144.645 87.2704 144.488 87.3744 144.32 87.46C143.76 87.66 143.32 86.9 142.92 85.65C142.313 83.7691 141.326 82.0332 140.02 80.55C139.396 79.8629 138.667 79.279 137.86 78.82C137.117 78.3934 136.285 78.1468 135.43 78.1C132.95 78.01 130.03 79.81 128.21 82.1L128.15 82.11Z" fill="currentColor"/>
<path d="M242.6 325C242.326 325.098 242.077 325.255 241.87 325.46C241.87 325.53 241.78 325.56 241.87 325.7C241.928 325.915 242.031 326.116 242.17 326.29C242.351 326.531 242.593 326.721 242.87 326.84C243.167 326.948 243.484 326.995 243.8 326.978C244.116 326.96 244.426 326.88 244.71 326.74C245.501 326.418 246.234 325.969 246.88 325.41C247.486 324.895 248.014 324.295 248.45 323.63C249.01 322.78 249.38 321.84 249.88 321.11C250.02 320.9 250.67 321.01 251.2 321.48C251.486 321.716 251.69 322.036 251.785 322.395C251.88 322.753 251.861 323.133 251.73 323.48C251.149 324.591 250.396 325.603 249.5 326.48C247.997 327.961 246.091 328.966 244.02 329.37C243.056 329.537 242.064 329.337 241.24 328.81C240.823 328.518 240.461 328.156 240.17 327.74C240.03 327.554 239.906 327.357 239.8 327.15C239.674 326.912 239.567 326.664 239.48 326.41C239.404 326.122 239.364 325.827 239.36 325.53C239.371 325.233 239.428 324.939 239.53 324.66C239.736 324.137 240.082 323.68 240.53 323.34C241.446 322.641 242.579 322.287 243.73 322.34C244.643 322.353 245.518 322.71 246.18 323.34C246.52 323.661 246.786 324.054 246.959 324.489C247.132 324.924 247.207 325.392 247.18 325.86C247.096 326.584 246.784 327.263 246.29 327.8C245.776 328.388 245.065 328.768 244.29 328.87H243.7C243.489 328.834 243.282 328.781 243.08 328.71C242.824 328.613 242.594 328.459 242.407 328.259C242.22 328.06 242.081 327.821 242 327.56C241.992 327.406 242.023 327.252 242.092 327.114C242.16 326.975 242.263 326.857 242.39 326.77C242.511 326.668 242.642 326.577 242.78 326.5C243.007 326.405 243.255 326.37 243.5 326.4C243.602 326.408 243.703 326.428 243.8 326.46C243.873 326.454 243.947 326.454 244.02 326.46C244.18 326.46 244.14 326.32 244.23 326.25C244.354 326.144 244.465 326.023 244.56 325.89C244.635 325.788 244.677 325.666 244.68 325.54C244.68 325.49 244.68 325.46 244.58 325.31C244.48 325.16 244.49 325.17 244.46 325.15C244.43 325.13 244.46 325.09 244.36 325.07C244.315 325.035 244.264 325.008 244.21 324.99C244.137 324.958 244.059 324.938 243.98 324.93C243.555 324.854 243.118 324.903 242.72 325.07L242.6 325Z" fill="currentColor"/>
<path d="M238.84 340.82C238.566 340.918 238.317 341.075 238.11 341.28C238.11 341.35 238.02 341.39 238.11 341.52C238.174 341.736 238.276 341.939 238.41 342.12C238.595 342.356 238.835 342.541 239.11 342.66C239.408 342.768 239.724 342.815 240.04 342.798C240.356 342.781 240.666 342.7 240.95 342.56C241.741 342.238 242.474 341.789 243.12 341.23C243.726 340.715 244.254 340.115 244.69 339.45C245.25 338.61 245.62 337.66 246.12 336.93C246.26 336.72 246.91 336.83 247.45 337.31C247.734 337.548 247.937 337.868 248.03 338.227C248.123 338.585 248.102 338.964 247.97 339.31C247.389 340.421 246.637 341.434 245.74 342.31C244.848 343.206 243.797 343.929 242.64 344.44C241.881 344.791 241.082 345.046 240.26 345.2C239.296 345.367 238.304 345.167 237.48 344.64C237.064 344.349 236.701 343.986 236.41 343.57C236.257 343.392 236.12 343.201 236 343C235.874 342.762 235.767 342.515 235.68 342.26C235.604 341.973 235.564 341.677 235.56 341.38C235.575 341.082 235.635 340.789 235.74 340.51C235.949 339.988 236.294 339.532 236.74 339.19C237.656 338.491 238.789 338.137 239.94 338.19C240.854 338.198 241.731 338.556 242.39 339.19C242.73 339.512 242.996 339.904 243.169 340.339C243.342 340.775 243.417 341.242 243.39 341.71C243.306 342.435 242.994 343.114 242.5 343.65C241.991 344.245 241.277 344.627 240.5 344.72H239.91C239.702 344.686 239.498 344.632 239.3 344.56C239.043 344.465 238.812 344.312 238.625 344.112C238.437 343.912 238.299 343.672 238.22 343.41C238.208 343.258 238.236 343.105 238.303 342.968C238.37 342.831 238.473 342.714 238.6 342.63C238.718 342.521 238.849 342.427 238.99 342.35C239.217 342.255 239.465 342.22 239.71 342.25C239.812 342.258 239.913 342.279 240.01 342.31C240.1 342.31 240.18 342.31 240.23 342.31C240.28 342.31 240.35 342.16 240.44 342.09C240.568 341.985 240.682 341.864 240.78 341.73C240.846 341.624 240.887 341.504 240.9 341.38C240.9 341.33 240.9 341.3 240.79 341.15C240.68 341 240.71 341.01 240.67 340.99C240.63 340.97 240.67 340.93 240.58 340.91C240.53 340.877 240.476 340.851 240.42 340.83C240.347 340.797 240.27 340.777 240.19 340.77C239.765 340.695 239.328 340.744 238.93 340.91L238.84 340.82Z" fill="currentColor"/>
<path d="M181.77 410.87C178.52 410.5 176.77 410.09 176.32 406.54C175.87 402.99 182.67 388.61 199.54 385.22C207.87 383.54 234.12 391.09 211.16 423.07C205.45 431.02 201.16 438.82 201.76 448.37C199.56 448.72 193.36 449.85 192.76 447.7C186.83 427.92 205.69 415.37 207.04 406.25C208.27 397.64 197.41 388 181.77 410.87Z" fill="currentColor"/>
<path d="M194.16 447.19C194.16 447.19 194.16 447.19 194.24 447.19L194.51 447.28L194.87 447.36L195.28 447.41C195.892 447.455 196.507 447.455 197.12 447.41C197.75 447.41 198.4 447.32 199.06 447.24L200.23 447.09C200.23 447.09 200.23 447.09 200.29 447.09V446.61L200.37 444.61C200.481 443.177 200.695 441.753 201.01 440.35C202.24 434.72 205.06 429.7 208.16 425.12L211.57 420.19C212.14 419.39 212.64 418.54 213.16 417.71C213.68 416.88 214.16 416.04 214.65 415.19C216.364 412.234 217.685 409.068 218.58 405.77C218.83 404.95 218.9 404.12 219.07 403.3L219.18 402.06C219.22 401.648 219.22 401.232 219.18 400.82C219.221 399.177 218.964 397.541 218.42 395.99C217.274 392.875 215.05 390.275 212.15 388.66C209.22 386.967 205.929 385.997 202.55 385.83C201.816 385.795 201.081 385.815 200.35 385.89C199.611 386.005 198.879 386.166 198.16 386.37C196.678 386.727 195.224 387.192 193.81 387.76C191.009 388.922 188.4 390.5 186.07 392.44C183.081 394.9 180.618 397.937 178.83 401.37C178.62 401.8 178.4 402.22 178.21 402.66C178.02 403.1 177.85 403.53 177.71 403.97C177.406 404.765 177.253 405.609 177.26 406.46C177.3 407.264 177.567 408.041 178.03 408.7C178.607 409.269 179.349 409.64 180.15 409.76C181.29 410.02 181.83 410.22 181.76 410.44C181.69 410.66 181.08 410.88 179.97 410.99C179.254 411.06 178.531 410.992 177.84 410.79C177.354 410.632 176.905 410.377 176.52 410.04C176.106 409.648 175.767 409.184 175.52 408.67C175.271 408.16 175.08 407.623 174.95 407.07L174.86 406.66V406.13V405.59C174.86 405.42 174.86 405.28 174.91 405.12C175.065 403.89 175.402 402.69 175.91 401.56C177.718 397.639 180.327 394.141 183.57 391.29C186.787 388.468 190.523 386.301 194.57 384.91L196.08 384.4L197.64 384.02L199.19 383.65C199.758 383.545 200.333 383.478 200.91 383.45C203.108 383.357 205.307 383.603 207.43 384.18C211.746 385.185 215.596 387.616 218.36 391.08C219.172 392.153 219.845 393.326 220.36 394.57C220.851 395.821 221.187 397.127 221.36 398.46C221.658 401.094 221.475 403.761 220.82 406.33C220.507 407.596 220.126 408.844 219.68 410.07C219.19 411.27 218.74 412.49 218.15 413.64C217.031 415.945 215.765 418.177 214.36 420.32C213.59 421.49 212.77 422.63 211.98 423.77C211.19 424.91 210.4 426 209.65 427.13C208.137 429.373 206.799 431.73 205.65 434.18C204.507 436.6 203.671 439.153 203.16 441.78C202.916 443.101 202.772 444.438 202.73 445.78V446.28V446.88V448.37C202.73 448.62 202.73 448.87 202.73 449.11L201.93 449.23L200.39 449.47C199.02 449.684 197.636 449.801 196.25 449.82C195.507 449.835 194.764 449.758 194.04 449.59C193.6 449.497 193.183 449.32 192.81 449.07C192.602 448.921 192.414 448.746 192.25 448.55C192.13 448.33 192.01 448.1 191.91 447.87C190.706 443.78 190.477 439.465 191.24 435.27C192.372 430.146 194.506 425.296 197.52 421C198.94 418.83 200.46 416.75 201.92 414.65C203.417 412.643 204.688 410.476 205.71 408.19C207.16 404.81 206.1 400.46 203.16 398.56C202.42 398.105 201.597 397.8 200.74 397.662C199.882 397.525 199.005 397.558 198.16 397.76C196.381 398.195 194.7 398.965 193.21 400.03C191.868 400.999 190.604 402.073 189.43 403.24C187.22 405.46 185.91 407.1 184.92 408.19C184.262 408.986 183.486 409.678 182.62 410.24C182.337 410.43 182.039 410.597 181.73 410.74C181.35 410.85 181.45 410.31 181.99 409.24C182.833 407.626 183.838 406.101 184.99 404.69C187.243 401.741 189.999 399.212 193.13 397.22C194.849 396.158 196.776 395.477 198.78 395.22C199.867 395.128 200.962 395.216 202.02 395.48C203.111 395.762 204.132 396.266 205.02 396.96C206.749 398.34 207.947 400.277 208.41 402.44C208.65 403.492 208.741 404.573 208.68 405.65C208.602 406.725 208.366 407.783 207.98 408.79C207.245 410.623 206.313 412.37 205.2 414C204.15 415.59 203.07 417.1 202.01 418.62C198.95 422.97 196.07 427.38 194.48 432.25C193.658 434.647 193.216 437.157 193.17 439.69C193.138 440.951 193.212 442.212 193.39 443.46C193.46 444.09 193.61 444.71 193.72 445.33C193.77 445.64 193.87 445.95 193.95 446.26L194.17 447.1L194.16 447.19Z" fill="currentColor"/>
<path d="M205.65 469.37C205.195 470.537 204.515 471.604 203.65 472.51C202.667 473.506 201.347 474.098 199.95 474.17C198.986 474.205 198.028 474.016 197.15 473.62C196.778 473.462 196.423 473.268 196.09 473.04C195.726 472.818 195.39 472.552 195.09 472.25L194.67 471.82L194.31 471.34C194.069 471.029 193.861 470.694 193.69 470.34C193.01 468.988 192.635 467.503 192.59 465.99C192.531 464.675 192.679 463.359 193.03 462.09C193.27 461.252 193.656 460.464 194.17 459.76C194.451 459.401 194.789 459.09 195.17 458.84C195.514 458.564 195.903 458.347 196.32 458.2C196.83 458 196.91 458.43 196.81 459.03C196.704 459.716 196.52 460.387 196.26 461.03C195.603 462.163 195.188 463.42 195.042 464.721C194.896 466.022 195.021 467.339 195.41 468.59C195.635 469.361 196.071 470.054 196.67 470.59C196.798 470.737 196.95 470.862 197.12 470.96C197.29 471.05 197.43 471.18 197.61 471.26C197.973 471.439 198.351 471.587 198.74 471.7C199.509 471.958 200.349 471.904 201.08 471.55C201.857 471.112 202.495 470.464 202.92 469.68C203.534 468.638 203.938 467.487 204.11 466.29C204.186 465.861 204.209 465.424 204.18 464.99C204.127 464.536 204.037 464.088 203.91 463.65C203.666 462.75 203.292 461.891 202.8 461.1C202.434 460.524 201.966 460.019 201.42 459.61C200.925 459.277 200.354 459.074 199.76 459.02C199.52 459.02 199.27 459.08 199.03 459.02C198.1 459.2 197.76 459.28 197.25 458.77C197.123 458.668 197.003 458.557 196.89 458.44C196.56 458.07 196.84 457.44 197.89 456.96C198.293 456.793 198.717 456.682 199.15 456.63H199.84C200.078 456.642 200.315 456.668 200.55 456.71C201.479 456.877 202.351 457.279 203.08 457.88C204.365 458.998 205.337 460.432 205.9 462.04C206.115 462.61 206.289 463.195 206.42 463.79C206.491 464.12 206.545 464.454 206.58 464.79C206.614 465.149 206.614 465.511 206.58 465.87C206.481 467.1 206.205 468.309 205.76 469.46L205.65 469.37Z" fill="currentColor"/>
<path d="M251.84 423.24C248.66 421.95 246.98 421.04 247.55 417.33C248.12 413.62 259 401 277 402.34C285.88 402.99 310.26 418 278.08 443.82C270.08 450.24 262.58 456.82 260.48 466.64C258.16 466.37 253.58 465.91 253.48 463.57C253.07 441.93 274.64 434.51 278.56 425.68C282.31 417.34 274.05 404.57 251.84 423.24Z" fill="currentColor"/>
<path d="M255.05 463.61C255.05 463.68 255.4 464 255.9 464.21C256.46 464.446 257.043 464.623 257.64 464.74L258.64 464.93L259.27 465.03C259.32 465.03 259.36 465.03 259.41 465.03L259.5 464.68V464.5V464.38L259.59 464.11L259.95 463.05C260.18 462.33 260.51 461.65 260.79 460.96C261.42 459.607 262.145 458.3 262.96 457.05C266.24 452.05 270.66 448.16 275.08 444.55C276.73 443.24 278.31 441.93 279.86 440.61L282.12 438.55C282.87 437.86 283.56 437.12 284.29 436.41C286.793 433.895 288.949 431.057 290.7 427.97C292.413 424.96 293.212 421.517 293 418.06C292.562 414.622 290.947 411.442 288.43 409.06C285.906 406.599 282.841 404.763 279.48 403.7C278.75 403.483 278.004 403.322 277.25 403.22C276.51 403.12 275.68 403.15 274.9 403.11H273.71L272.52 403.18C271.74 403.25 270.94 403.24 270.16 403.38C263.002 404.328 256.394 407.728 251.46 413C250.791 413.722 250.18 414.494 249.63 415.31C249.102 416.026 248.719 416.838 248.5 417.7C248.321 418.524 248.387 419.383 248.69 420.17C249.118 420.903 249.765 421.483 250.54 421.83C251.62 422.4 252.11 422.75 251.98 422.94C251.85 423.13 251.18 423.17 250.04 422.94C249.333 422.793 248.656 422.526 248.04 422.15C247.596 421.865 247.218 421.491 246.93 421.05C246.608 420.55 246.385 419.993 246.27 419.41C246.157 418.834 246.113 418.246 246.14 417.66C246.154 416.974 246.293 416.296 246.55 415.66C246.67 415.37 246.8 415.06 246.94 414.76L247.41 413.94C247.749 413.395 248.12 412.871 248.52 412.37C251.413 408.972 254.963 406.195 258.957 404.205C262.95 402.215 267.305 401.053 271.76 400.79L273.42 400.69C273.97 400.69 274.53 400.69 275.08 400.69C276.222 400.685 277.363 400.775 278.49 400.96C280.723 401.43 282.869 402.246 284.85 403.38C288.898 405.528 292.142 408.927 294.1 413.07C295.184 415.641 295.607 418.443 295.33 421.22C294.979 423.955 294.128 426.602 292.82 429.03C290.155 433.697 286.709 437.871 282.63 441.37C280.47 443.37 278.17 445.1 275.98 446.89C273.784 448.671 271.688 450.57 269.7 452.58C267.723 454.557 265.984 456.758 264.52 459.14C264.17 459.74 263.81 460.33 263.52 460.96C263.195 461.568 262.907 462.196 262.66 462.84C262.37 463.47 262.18 464.14 261.95 464.79L261.87 465.03L261.77 465.39L261.58 466.12L261.21 467.59L259.21 467.35L258.44 467.24L257.77 467.12C256.83 466.966 255.91 466.704 255.03 466.34C254.533 466.137 254.074 465.853 253.67 465.5C253.176 465.08 252.855 464.492 252.77 463.85C252.742 463.594 252.742 463.336 252.77 463.08V462.4C252.77 461.94 252.77 461.49 252.83 461.04C252.939 459.227 253.221 457.429 253.67 455.67C254.126 453.914 254.741 452.203 255.51 450.56C257.984 445.687 261.4 441.354 265.56 437.81C267.56 435.99 269.62 434.28 271.63 432.55C273.628 430.913 275.43 429.051 277 427C278.126 425.445 278.725 423.57 278.71 421.65C278.715 419.804 278.035 418.022 276.8 416.65C276.178 416.001 275.429 415.487 274.6 415.14C273.746 414.809 272.844 414.617 271.93 414.57C270.017 414.532 268.114 414.854 266.32 415.52C264.705 416.123 263.14 416.852 261.64 417.7C258.81 419.32 257.04 420.59 255.75 421.41C254.872 422.024 253.908 422.506 252.89 422.84C252.563 422.95 252.229 423.037 251.89 423.1C251.48 423.1 251.74 422.61 252.58 421.7C253.109 421.113 253.681 420.564 254.29 420.06C255 419.42 255.88 418.74 256.89 418C259.94 415.697 263.358 413.928 267 412.77C268.999 412.176 271.102 412.01 273.17 412.28C274.275 412.454 275.343 412.812 276.33 413.34C277.339 413.898 278.229 414.649 278.95 415.55C280.348 417.358 281.076 419.595 281.01 421.88C280.97 424.12 280.275 426.3 279.01 428.15C277.815 429.819 276.436 431.348 274.9 432.71C273.44 434.04 271.95 435.29 270.5 436.54C266.18 440.23 262.01 444.03 259.14 448.69C257.688 450.987 256.595 453.493 255.9 456.12C255.71 456.77 255.61 457.44 255.46 458.12C255.31 458.8 255.24 459.46 255.18 460.12C255.12 460.78 255.04 461.47 255.05 462.12V463.12V463.37V463.48V463.61Z" fill="currentColor"/>
<path d="M259 489.54C258.147 490.56 257.069 491.368 255.85 491.9C254.513 492.461 253.01 492.479 251.66 491.95C250.749 491.609 249.916 491.089 249.21 490.42C248.904 490.107 248.62 489.772 248.36 489.42C248.142 489.035 247.945 488.637 247.77 488.23C247.639 487.824 247.535 487.41 247.46 486.99C247.404 486.579 247.377 486.165 247.38 485.75C247.426 484.186 247.812 482.65 248.51 481.25C249.1 480.034 249.843 478.898 250.72 477.87C251.003 477.541 251.307 477.23 251.63 476.94C251.939 476.621 252.293 476.348 252.68 476.13L253.26 475.8L253.89 475.56C254.308 475.407 254.746 475.312 255.19 475.28C255.75 475.22 255.72 475.65 255.45 476.2C255.289 476.508 255.109 476.805 254.91 477.09C254.718 477.423 254.475 477.723 254.19 477.98C251.941 479.736 250.354 482.204 249.69 484.98C249.506 485.778 249.571 486.614 249.876 487.374C250.182 488.134 250.714 488.782 251.4 489.23C252.077 489.774 252.922 490.068 253.79 490.06C254.705 489.982 255.569 489.606 256.25 488.99C257.208 488.173 257.993 487.174 258.56 486.05C259.026 485.194 259.363 484.274 259.56 483.32C259.778 482.359 259.879 481.375 259.86 480.39C259.86 479.672 259.717 478.962 259.44 478.3C259.248 477.751 258.85 477.299 258.33 477.04C258.16 476.91 257.89 476.93 257.68 476.86C256.76 476.75 256.36 476.76 256 476.13C255.92 475.99 255.81 475.86 255.74 475.72C255.51 475.28 255.96 474.72 257.13 474.55C257.597 474.489 258.071 474.513 258.53 474.62C258.784 474.661 259.033 474.731 259.27 474.83C259.51 474.95 259.74 475.08 259.98 475.22C260.823 475.827 261.447 476.69 261.76 477.68C262.257 479.337 262.36 481.087 262.06 482.79C261.893 484.033 261.557 485.248 261.06 486.4C260.558 487.57 259.884 488.659 259.06 489.63L259 489.54Z" fill="currentColor"/>
<path d="M264.68 204.45C263.97 206.07 263.48 208.84 262.03 209.97C259.76 211.74 257.23 207.12 256.72 205.4C256.39 204.32 253.93 204.99 254.25 206.06C255.16 209.06 257.95 212.75 261.53 212.06C265.11 211.37 265.82 207.41 267.03 204.69C267.58 203.44 265.1 203.51 264.68 204.45Z" fill="currentColor"/>
<path d="M247.292 223.29C245.757 223.224 243.44 223.767 241.965 222.856C239.655 221.431 242.102 217.493 243.196 216.418C243.879 215.734 242.326 213.745 241.647 214.416C239.747 216.309 238.119 220.151 240.161 223.148C242.203 226.145 245.521 225.377 248.105 225.504C249.29 225.557 248.186 223.335 247.292 223.29Z" fill="currentColor"/>
<path d="M244.22 203.71C243.38 205.19 242.39 208.55 240.61 209.04C238.27 209.7 236.52 205.32 236.19 203.62C235.98 202.54 233.51 203.17 233.73 204.28C234.32 207.33 236.73 211.28 240.33 210.86C243.93 210.44 245.08 206.57 246.57 203.94C247.22 202.78 244.73 202.82 244.22 203.71Z" fill="currentColor"/>
<path d="M246.88 202.78C247.127 200.96 247.073 199.112 246.72 197.31C246.574 196.658 246.384 196.016 246.15 195.39C245.839 194.31 245.338 193.294 244.67 192.39C243.947 191.53 243.037 190.846 242.01 190.39C241.067 189.971 240.04 189.776 239.01 189.82C237.764 189.94 236.549 190.279 235.42 190.82C235.06 190.97 234.68 190.48 234.67 189.76C234.669 189.31 234.809 188.871 235.068 188.504C235.328 188.137 235.696 187.859 236.12 187.71C237.795 187.177 239.588 187.132 241.288 187.58C242.988 188.028 244.525 188.95 245.72 190.24C246.422 190.994 247.02 191.838 247.5 192.75C247.965 193.613 248.34 194.521 248.62 195.46C249.199 197.493 249.439 199.608 249.33 201.72C249.303 202.363 249.236 203.005 249.13 203.64C249.044 204.274 248.917 204.902 248.75 205.52C248.258 207.386 247.543 209.185 246.62 210.88C246.24 211.52 245.92 212.18 245.62 212.83L244.44 214.7C244.268 214.973 244.078 215.233 243.87 215.48C243.08 216.4 242.7 216.58 242.08 216.32C241.932 216.269 241.788 216.205 241.65 216.13C241.23 215.86 241.25 215.23 241.65 214.53C242.35 213.53 242.95 212.43 243.65 211.4C243.937 210.86 244.237 210.32 244.55 209.78C244.86 209.25 245.07 208.66 245.35 208.11C246.089 206.437 246.581 204.665 246.81 202.85L246.88 202.78Z" fill="currentColor"/>
<path d="M256.91 191.64C255.91 190.7 255.91 190.14 256.18 189.81C256.613 189.206 257.173 188.705 257.821 188.342C258.469 187.979 259.189 187.763 259.93 187.71C261.113 187.685 262.288 187.921 263.37 188.4C265.132 189.091 266.747 190.109 268.13 191.4C268.539 191.802 268.927 192.226 269.29 192.67C269.711 193.147 270.049 193.691 270.29 194.28C270.29 194.42 270.43 194.52 270.39 194.7C270.24 195.18 269.63 195.14 269.17 195C269.06 195 268.89 195 268.88 194.93C268.78 194.58 267.88 194.71 267.8 194.45C267.412 193.923 266.918 193.484 266.35 193.16C266.136 193 265.936 192.822 265.75 192.63C265.51 192.38 265.3 192.09 265.03 191.85C264.555 191.466 264.043 191.131 263.5 190.85C262.636 190.392 261.692 190.103 260.72 190C259.894 189.9 259.06 190.091 258.36 190.54C258.044 190.766 257.755 191.028 257.5 191.32C257.314 191.446 257.117 191.553 256.91 191.64Z" fill="currentColor"/>
<path d="M245.05 243.34C246.22 242.62 247.96 244.13 249 244.68C249.528 244.827 250.092 244.77 250.58 244.52C250.69 244.52 251.68 244.05 251.32 243.86C250.195 243.076 248.933 242.51 247.6 242.19C246.04 242.064 244.483 242.458 243.17 243.31C242.73 243.58 242.91 243.73 243.31 243.81C243.925 243.835 244.532 243.671 245.05 243.34Z" fill="currentColor"/>
<path d="M346.34 147.43C352.78 148.5 358.34 152.79 357.97 159.8C357.91 161.08 360.83 160.54 360.88 159.48C361.25 151.76 355.23 146.93 348.09 145.75C347.09 145.58 344.67 147.15 346.34 147.43Z" fill="currentColor"/>
<path d="M351.09 141.36C357.33 137.54 369.82 146.97 366.29 154.12C365.54 155.64 368.47 155.77 369.08 154.53C371.4 149.83 367.73 144.69 364.18 141.78C360.18 138.51 354.48 136.62 349.76 139.5C348.1 140.5 349.62 142.25 351.09 141.36Z" fill="currentColor"/>
</svg>
