<svg  viewBox="0 0 520 520" fill="none" xmlns="http://www.w3.org/2000/svg">
<path d="M203.311 163.82L197.311 164.56L195.821 164.75L194.331 164.99L191.331 165.48C189.331 165.82 187.331 166.12 185.391 166.48L179.501 167.72C171.669 169.365 163.979 171.622 156.501 174.47C151.116 176.569 145.965 179.224 141.131 182.39L139.611 183.49C139.111 183.86 138.611 184.26 138.171 184.64L137.851 184.92C137.761 184.97 137.781 185.06 137.791 185.15V185.28L137.851 185.69L137.991 186.61C138.411 189.1 138.991 191.61 139.521 194.16C140.651 199.22 141.861 204.28 143.091 209.33L150.591 239.63C152.841 248.63 155.111 257.63 157.341 266.49C158.761 272.21 160.201 277.94 161.481 283.71C162.131 286.6 162.731 289.49 163.251 292.42C163.817 295.359 164.195 298.332 164.381 301.32C164.433 302.054 164.358 302.791 164.161 303.5C164.001 303.98 163.841 304.15 163.691 304.08C163.371 303.92 163.161 302.96 162.641 301.5C160.99 296.579 159.608 291.571 158.501 286.5C155.961 274.81 153.071 263.15 150.221 251.5C147.371 239.85 144.471 228.09 141.691 216.29C140.001 209.23 138.281 202.03 136.551 194.78C136.131 192.96 135.731 191.13 135.351 189.29C135.171 188.35 134.971 187.44 134.831 186.46L134.721 185.74C134.721 185.43 134.671 184.99 134.641 184.62V184.04C134.641 183.94 134.641 183.83 134.641 183.75L134.841 183.54C135.121 183.26 135.371 182.99 135.681 182.72L136.041 182.38L136.321 182.13L136.891 181.67C137.258 181.35 137.642 181.049 138.041 180.77C138.821 180.2 139.591 179.61 140.401 179.11C141.991 178.04 143.651 177.11 145.301 176.2C152.657 172.421 160.38 169.405 168.351 167.2C172.351 166.2 176.291 165.08 180.351 164.31C182.351 163.9 184.351 163.41 186.351 163.08L192.421 162.08C194.901 161.62 197.421 161.32 199.901 161.01C202.381 160.7 204.901 160.36 207.401 160.1L214.931 159.44L218.681 159.11C219.941 158.99 221.201 158.96 222.451 158.88L233.851 158.28C237.58 158.023 241.269 157.352 244.851 156.28C252.032 154.096 259.022 151.327 265.751 148C276.311 142.94 286.431 137.42 297.291 133C299.681 132 302.031 131.12 304.511 130.31C307.75 129.189 311.078 128.346 314.461 127.79C315.993 127.506 317.565 127.523 319.091 127.84C319.577 127.924 320.055 128.048 320.521 128.21C321.011 128.48 320.311 128.88 318.661 129.38L311.121 131.5C301.321 134.34 291.721 138.75 282.061 143.5C272.401 148.25 262.671 153.35 252.191 157.29C248.264 158.794 244.216 159.962 240.091 160.78C237.988 161.183 235.859 161.441 233.721 161.55L227.611 161.88C223.561 162.11 219.491 162.25 215.451 162.67C211.411 163.09 207.351 163.31 203.341 163.9L203.311 163.82Z" fill="#221F1F"/>
<path d="M194.499 158.92C192.499 159.2 190.579 159.6 188.619 159.92C186.659 160.24 184.689 160.58 182.749 161L176.929 162.33C175.929 162.55 174.929 162.75 174.019 163L171.149 163.81C163.462 165.833 155.982 168.575 148.809 172C147.479 172.57 146.249 173.32 144.969 174C143.689 174.68 142.469 175.43 141.239 176.17C138.803 177.65 136.489 179.322 134.319 181.17C134.078 181.363 133.847 181.57 133.629 181.79L133.259 182.13C133.169 182.18 133.259 182.28 133.259 182.41L133.369 183.23C133.579 184.42 133.869 185.71 134.109 186.94C134.679 189.44 135.239 191.94 135.859 194.44C137.059 199.44 138.319 204.44 139.589 209.44C142.116 219.44 144.699 229.413 147.339 239.36C149.659 248.2 152.079 257.07 154.469 265.83C157.529 277.07 160.739 288.34 163.399 299.69C165.039 306.77 160.549 298.41 157.079 285.44C150.939 262.44 144.769 239.44 138.969 216.17C137.219 209.17 135.429 202.09 133.639 194.94C132.749 191.36 131.879 187.77 131.139 184.1C131.049 183.62 130.999 183.1 130.919 182.6L130.789 181.51V181.36L130.879 181.26L131.079 181.05L131.469 180.63L132.099 180.02C132.269 179.85 132.449 179.7 132.629 179.54L133.709 178.61L135.939 176.87L138.259 175.29C145.171 170.938 152.572 167.417 160.309 164.8C167.99 162.161 175.842 160.046 183.809 158.47C188.729 157.6 193.619 156.62 198.579 156.06C201.049 155.76 203.519 155.36 205.999 155.12L213.439 154.46C217.189 154.05 220.959 153.92 224.739 153.73L230.389 153.46C231.389 153.46 232.259 153.36 233.169 153.3C234.079 153.24 234.989 153.1 235.889 152.9C239.527 152.146 243.084 151.041 246.509 149.6C249.959 148.2 253.339 146.6 256.699 145C267.129 139.93 277.219 134.55 288.009 130.4C290.379 129.47 292.729 128.63 295.169 127.83C298.374 126.769 301.649 125.93 304.969 125.32C306.458 125.012 307.986 124.932 309.499 125.08C309.965 125.123 310.429 125.19 310.889 125.28C311.889 125.67 308.109 126.5 301.519 128.34C291.539 131.339 281.837 135.194 272.519 139.86L257.999 146.89C253.094 149.351 248.049 151.522 242.889 153.39C240.926 154.07 238.922 154.628 236.889 155.06C236.369 155.16 235.889 155.27 235.329 155.35L233.749 155.57C232.679 155.66 231.579 155.72 230.599 155.77L218.539 156.37C214.539 156.67 210.539 157.08 206.539 157.37C202.539 157.66 198.539 158.37 194.539 158.92H194.499Z" fill="#221F1F"/>
<path d="M136.25 212.42L142.77 234.8L145.23 242.94L153.49 271.75C154.71 276.01 155.98 280.28 157.23 284.5C158.84 289.92 160.55 295.35 161.72 300.89C162.43 304.35 159.11 300.58 157.37 294.34C154.26 283.26 151.07 272.18 148.06 260.95C146.25 254.23 144.06 247.33 142.06 240.5C139.86 233 137.653 225.493 135.44 217.98C134.107 213.353 132.773 208.726 131.44 204.1L128.44 193.56C127.44 190.03 126.44 186.56 125.64 182.97C125.455 182.173 125.325 181.364 125.25 180.55C125.462 180.142 125.724 179.763 126.03 179.42L126.72 178.6C127.66 177.541 128.662 176.54 129.72 175.6C131.808 173.681 134.075 171.966 136.49 170.48C137.54 169.8 138.61 169.2 139.73 168.62C143.93 166.54 145.46 166.34 146.59 166.62C146.846 166.661 147.097 166.728 147.34 166.82C147.62 166.98 147.34 167.32 146.65 167.76C145.96 168.2 144.77 168.76 143.3 169.48C138.826 171.592 134.689 174.351 131.02 177.67C130.12 178.52 129.23 179.4 128.42 180.33L127.84 181.03L127.7 181.21L127.93 182.36C128.49 184.83 129.19 187.36 129.93 189.89C132.03 197.4 134.23 204.89 136.45 212.46L136.25 212.42Z" fill="#221F1F"/>
<path d="M173 307.85C175.099 305.526 176.847 302.909 178.19 300.08C178.491 299.381 178.755 298.667 178.98 297.94C179.23 297.22 179.31 296.46 179.49 295.72C179.612 294.968 179.689 294.21 179.72 293.45C179.797 292.723 179.774 291.99 179.65 291.27C179.548 290.306 179.204 289.385 178.65 288.59C178.443 288.291 178.159 288.053 177.828 287.904C177.497 287.754 177.131 287.697 176.77 287.74C176.384 287.785 176.007 287.886 175.65 288.04C175.578 288.052 175.511 288.087 175.46 288.14L175.33 288.21L174.93 288.63C174.326 289.415 173.772 290.236 173.27 291.09C172.18 292.87 171.07 294.7 169.91 296.49C167.594 300.075 165.038 303.5 162.26 306.74L160.41 308.89L158.5 310.99C157.87 311.7 157.2 312.36 156.5 313.05L155.5 314.05C155.2 314.39 154.9 314.68 154.63 315.05C151.81 318.57 150.23 323.36 146.63 326.98C145.47 328.07 145.18 327.37 145.53 325.98C146.072 323.954 146.882 322.01 147.94 320.2C149.136 317.987 150.472 315.852 151.94 313.81C152.358 313.273 152.806 312.759 153.28 312.27L154.56 310.97C155.41 310.12 156.25 309.27 157.06 308.38C160.362 304.869 163.428 301.144 166.24 297.23C167.94 294.88 169.45 292.35 171 289.72C171.38 289.07 171.79 288.41 172.24 287.72C172.488 287.372 172.755 287.038 173.04 286.72C173.2 286.55 173.35 286.38 173.54 286.21C173.778 286.031 174.025 285.864 174.28 285.71C175.133 285.29 176.069 285.064 177.02 285.05C178.067 285.069 179.073 285.459 179.86 286.15C180.624 286.838 181.207 287.704 181.56 288.67C181.888 289.542 182.103 290.453 182.2 291.38C182.248 291.835 182.271 292.292 182.27 292.75C182.27 293.19 182.21 293.62 182.18 294.06L182.09 295.37C182.09 295.8 181.93 296.22 181.86 296.65C181.149 300.048 179.709 303.252 177.64 306.04C175.25 309.48 172.24 312.32 169.96 315.54C169.087 316.722 168.364 318.009 167.81 319.37C167.686 319.695 167.585 320.03 167.51 320.37C167.394 320.694 167.31 321.029 167.26 321.37C167.172 322.093 167.122 322.821 167.11 323.55C167.11 326.64 167 329.75 166.71 332.84C166.2 337.6 165.45 342.42 163.04 346.84C162.523 347.807 161.928 348.73 161.26 349.6C160.687 350.262 160.072 350.886 159.42 351.47C158.948 351.83 158.458 352.163 157.95 352.47C157.346 352.823 156.642 352.964 155.95 352.87C155.711 352.853 155.475 352.803 155.25 352.72C154.96 352.57 155.11 352.19 155.58 351.67C155.878 351.367 156.192 351.08 156.52 350.81C156.87 350.43 157.29 350.02 157.77 349.59C159.125 348.169 160.252 346.546 161.11 344.78C161.968 342.925 162.638 340.989 163.11 339C163.572 336.933 163.906 334.839 164.11 332.73C164.31 330.6 164.42 328.43 164.46 326.24V323.79C164.459 322.874 164.513 321.959 164.62 321.05C164.943 319.188 165.622 317.405 166.62 315.8C168.47 312.65 170.84 310.23 172.9 307.72L173 307.85Z" fill="#221F1F"/>
<path d="M132.689 354.54C134.466 348.086 135.901 341.544 136.989 334.94C137.379 332.54 137.569 330.12 137.789 327.71C138.559 319.03 139.669 310.4 141.189 301.82C141.879 298.02 142.579 294.19 143.489 290.44C144.039 288.001 144.744 285.599 145.599 283.25C146.411 280.755 147.81 278.491 149.679 276.65C151.209 275.59 151.179 276.48 150.679 277.65C150.179 278.82 149.679 281.01 148.679 283.49C146.972 288.071 145.654 292.787 144.739 297.59C143.739 302.45 142.889 307.37 142.089 312.33C141.619 315.33 141.259 318.33 140.969 321.42C140.839 322.96 140.709 324.5 140.569 326.04C140.429 327.58 140.339 329.14 140.179 330.7C139.36 337.497 138.088 344.232 136.369 350.86C135.369 354.93 134.259 358.97 133.149 363.01C132.299 366.01 131.509 369.13 130.509 372.18C129.509 375.23 128.399 378.18 127.179 381.12C125.279 385.65 123.259 390.04 120.939 394.33C120.419 395.27 119.939 396.2 119.389 397.13C117.389 400.58 116.449 401.53 115.389 401.85C115.161 401.942 114.923 402.009 114.679 402.05C113.999 402.05 114.539 400.48 115.939 397.95C120.341 390.281 124.085 382.252 127.129 373.95C128.249 370.8 129.129 367.63 130.019 364.32C130.909 361.01 131.819 357.76 132.659 354.48L132.689 354.54Z" fill="#221F1F"/>
<path d="M146.092 397.41C146.582 394.72 147.012 392 147.382 389.27C147.512 388.27 147.552 387.27 147.682 386.27C148.152 382.75 148.622 379.27 149.032 375.67C149.212 374.1 149.302 372.51 149.392 370.93C149.522 368.93 149.392 366.86 150.272 364.75C150.582 364.06 151.272 364.5 151.952 365.19C152.333 365.537 152.633 365.962 152.831 366.437C153.03 366.913 153.122 367.425 153.102 367.94C152.682 371.89 152.302 376.03 151.522 380.13C151.072 382.58 151.002 385.18 150.692 387.71C150.362 390.49 149.972 393.28 149.522 396.05C149.242 397.756 148.942 399.463 148.622 401.17C148.142 403.75 147.542 406.32 146.912 408.87C146.497 410.88 145.972 412.866 145.342 414.82C145.172 415.25 145.032 415.69 144.842 416.12C144.072 417.71 143.472 418.07 142.592 417.85C142.388 417.813 142.187 417.76 141.992 417.69C141.382 417.39 141.342 416.58 141.722 415.57C142.846 412.266 143.768 408.896 144.482 405.48C145.062 402.83 145.592 400.13 146.012 397.41H146.092Z" fill="#221F1F"/>
<path d="M139.079 380.7C137.71 380.225 136.374 379.661 135.079 379.01C134.585 378.811 134.101 378.588 133.629 378.34C131.995 377.386 130.486 376.23 129.139 374.9C128.829 374.63 128.549 374.3 128.229 374.02C127.909 373.74 127.619 373.43 127.329 373.11L126.759 372.52C126.579 372.3 126.409 372.07 126.239 371.84C125.902 371.377 125.686 370.837 125.609 370.27C125.609 369.9 126.359 369.67 127.209 369.59C128.059 369.51 128.889 369.5 129.139 369.86C130.152 371.283 131.279 372.62 132.509 373.86C133.397 374.645 134.412 375.274 135.509 375.72C136.682 376.333 137.891 376.874 139.129 377.34C139.903 377.63 140.69 377.881 141.489 378.09C142.694 378.442 143.93 378.68 145.179 378.8C146.143 378.828 147.106 378.772 148.059 378.63C148.269 378.63 148.479 378.54 148.689 378.53C149.469 378.53 149.689 378.71 149.889 379.53C149.944 379.723 149.984 379.921 150.009 380.12C150.066 380.417 150.009 380.725 149.85 380.982C149.69 381.239 149.441 381.428 149.149 381.51C147.272 382.004 145.309 382.079 143.399 381.73C141.95 381.502 140.52 381.168 139.119 380.73L139.079 380.7Z" fill="#221F1F"/>
<path d="M136.213 395C137.053 392.3 137.913 389.61 138.703 386.94L139.163 385.35C139.188 385.234 139.188 385.115 139.163 385C139.163 384.88 139.093 384.74 138.973 384.71C138.853 384.68 138.603 384.91 138.503 385.12L138.363 385.48L138.143 386.13L137.833 387.13C137.013 389.79 136.243 392.51 135.453 395.22C134.873 397.22 134.303 399.22 133.673 401.22C133.061 403.266 132.316 405.27 131.443 407.22C131.015 408.194 130.456 409.106 129.783 409.93C129.539 410.198 129.268 410.44 128.973 410.65C128.515 410.962 127.976 411.132 127.423 411.14C127.101 411.138 126.782 411.077 126.483 410.96L125.933 410.66C125.56 410.419 125.241 410.106 124.993 409.74C124.58 409.102 124.358 408.359 124.353 407.6C124.355 407.029 124.411 406.46 124.523 405.9C124.735 404.97 124.995 404.052 125.303 403.15L125.653 401.86L126.053 400.52C126.326 399.633 126.616 398.753 126.923 397.88C127.543 396.14 128.203 394.45 128.823 392.76C129.443 391.07 130.043 389.4 130.523 387.71C131.003 386.02 131.333 384.3 131.683 382.51C131.853 381.63 132.013 380.76 132.113 379.91C132.173 379.499 132.21 379.085 132.223 378.67C132.248 378.362 132.228 378.052 132.163 377.75C132.163 377.75 132.083 377.75 132.283 377.68C132.355 377.649 132.422 377.609 132.483 377.56L132.613 377.49L132.713 377.39H132.763C132.765 377.373 132.765 377.356 132.763 377.34C132.757 377.4 132.757 377.46 132.763 377.52C132.78 377.637 132.803 377.754 132.833 377.87C132.851 377.928 132.874 377.985 132.903 378.04C132.619 378.23 132.36 378.455 132.133 378.71C131.662 379.31 131.296 379.987 131.053 380.71C129.893 383.6 128.973 386.71 127.993 389.78C127.013 392.85 126.003 395.92 124.903 399L124.343 400.41C124.133 400.9 123.993 401.27 123.603 402.05C123.446 402.393 123.269 402.727 123.073 403.05L122.793 403.54L122.483 403.96C122.383 404.1 122.283 404.25 122.173 404.38L121.843 404.71C121.627 404.92 121.397 405.114 121.153 405.29C120.768 405.562 120.316 405.722 119.847 405.752C119.377 405.782 118.908 405.681 118.493 405.46C118.136 405.17 117.841 404.812 117.624 404.407C117.408 404.002 117.275 403.557 117.233 403.1C117.09 401.932 117.121 400.749 117.323 399.59L117.433 398.91L117.543 398.31C117.623 397.91 117.703 397.51 117.793 397.12C118.161 395.557 118.622 394.018 119.173 392.51C119.703 390.975 120.372 389.492 121.173 388.08C121.438 387.578 121.819 387.147 122.283 386.82C122.442 386.713 122.623 386.645 122.813 386.62C122.963 386.62 123.023 386.62 123.043 386.74C123.063 386.86 122.933 387.19 122.903 387.53C122.873 387.87 122.793 388.32 122.713 388.87C122.453 391.04 121.713 394.93 120.923 399.27L120.843 399.72V399.93L121.023 399.52C121.193 399.15 121.353 398.75 121.513 398.37C122.143 396.8 122.723 395.16 123.293 393.51L126.623 383.44C127.184 381.668 127.851 379.931 128.623 378.24C128.744 377.982 128.881 377.731 129.033 377.49C129.215 377.191 129.43 376.912 129.673 376.66C130.076 376.212 130.532 375.816 131.033 375.48C131.516 375.137 132.09 374.946 132.683 374.93H133.043C133.185 374.954 133.325 374.987 133.463 375.03C133.732 375.111 133.983 375.243 134.203 375.42C134.534 375.686 134.795 376.029 134.963 376.42C135.14 376.816 135.251 377.238 135.293 377.67C135.293 378.01 135.293 378.29 135.293 378.56C135.173 380.451 134.888 382.328 134.443 384.17C134.263 385.02 134.073 385.94 133.843 386.84C133.613 387.74 133.363 388.63 133.083 389.51C132.283 391.99 131.333 394.4 130.443 396.79C130.003 397.98 129.573 399.18 129.183 400.38C128.996 400.98 128.816 401.58 128.643 402.18L128.133 404.07C127.943 404.74 127.753 405.32 127.603 405.89C127.464 406.399 127.383 406.922 127.363 407.45C127.36 407.615 127.381 407.78 127.423 407.94C127.423 408.02 127.423 408.07 127.503 408.07C127.583 408.07 127.503 408.07 127.573 408.12C127.483 408.33 127.763 407.65 127.373 408.59C127.367 408.613 127.367 408.637 127.373 408.66C127.352 408.449 127.28 408.246 127.163 408.07C127.163 408.07 127.163 408.07 127.253 407.99C127.587 407.633 127.867 407.229 128.083 406.79C128.37 406.264 128.631 405.723 128.863 405.17C129.343 404.03 129.773 402.84 130.183 401.64C131.983 396.34 133.373 390.83 135.093 385.36L135.503 384.11C135.673 383.59 135.873 383.04 136.063 382.52C136.375 381.595 136.831 380.724 137.413 379.94C137.843 379.351 138.443 378.908 139.133 378.67C139.525 378.54 139.942 378.499 140.353 378.55C140.773 378.603 141.165 378.789 141.473 379.08C142.035 379.64 142.42 380.353 142.583 381.13C142.672 381.534 142.723 381.946 142.733 382.36C142.757 382.828 142.734 383.297 142.663 383.76C142.593 384.27 142.463 384.76 142.343 385.34L141.953 386.84L141.353 388.91L138.283 398.91C137.793 400.58 137.283 402.25 136.883 403.91C136.673 404.74 136.473 405.58 136.293 406.42L136.133 407.2L136.023 407.88C135.969 408.21 135.939 408.545 135.933 408.88C135.903 409.224 135.968 409.57 136.123 409.88C136.181 409.945 136.251 409.999 136.33 410.037C136.409 410.075 136.495 410.097 136.582 410.102C136.67 410.106 136.757 410.094 136.84 410.064C136.922 410.034 136.998 409.989 137.063 409.93C137.337 409.717 137.562 409.448 137.723 409.14C138.056 408.503 138.321 407.832 138.513 407.14C138.873 405.91 139.153 404.6 139.513 403.33C140.563 398.23 141.353 392.94 142.513 387.78C142.733 386.78 142.973 385.78 143.253 384.78C143.393 384.28 143.543 383.78 143.723 383.26C143.909 382.686 144.168 382.138 144.493 381.63C144.63 381.443 144.792 381.275 144.973 381.13C145.136 381.015 145.319 380.93 145.513 380.88C145.646 380.842 145.784 380.825 145.923 380.83C146.189 380.829 146.453 380.882 146.698 380.985C146.944 381.088 147.166 381.24 147.353 381.43C147.814 381.978 148.106 382.648 148.193 383.36C148.358 384.438 148.411 385.53 148.353 386.62C148.087 390.693 147.6 394.749 146.893 398.77C146.613 400.52 146.343 402.24 146.063 404.01C144.983 410.56 144.633 412.49 144.063 413.73C143.999 413.867 143.978 414.02 144.003 414.17C144.003 414.31 144.223 414.42 144.353 414.47C144.483 414.52 144.683 414.73 144.233 414.97C144.054 415.027 143.861 415.027 143.683 414.97C143.451 414.902 143.243 414.77 143.083 414.59C142.829 414.279 142.645 413.918 142.543 413.53C142.161 411.595 142.123 409.608 142.433 407.66C142.843 404.02 143.433 400.4 143.973 396.76C144.582 393.199 144.989 389.606 145.193 386C145.228 385.243 145.178 384.485 145.043 383.74C145.043 383.61 144.953 383.55 145.043 383.51C145.437 383.374 145.784 383.127 146.043 382.8C146.034 382.826 146.034 382.854 146.043 382.88C146.043 382.88 146.043 382.99 146.043 383.07C146.038 383.11 146.038 383.15 146.043 383.19C145.763 381.31 145.963 382.68 145.903 382.27C145.898 382.293 145.898 382.317 145.903 382.34C145.91 382.388 145.931 382.433 145.963 382.47C145.963 382.52 146.013 382.47 146.073 382.62C146.178 382.783 146.31 382.929 146.463 383.05C146.593 383.11 146.853 383.38 147.083 383.54C146.939 383.828 146.816 384.125 146.713 384.43C146.583 384.81 146.453 385.23 146.333 385.65C146.093 386.5 145.873 387.4 145.673 388.3C144.863 391.93 144.223 395.67 143.553 399.44C143.293 400.84 143.053 402.23 142.753 403.69L142.623 404.26L142.493 404.81L142.243 405.81C142.073 406.51 141.903 407.23 141.693 407.96L141.583 408.35L141.423 408.85L141.093 409.85C140.867 410.476 140.61 411.09 140.323 411.69C139.875 412.653 139.243 413.519 138.463 414.24C138.154 414.49 137.819 414.705 137.463 414.88C137.096 415.027 136.714 415.127 136.323 415.18C136.104 415.22 135.881 415.22 135.663 415.18C135.428 415.173 135.196 415.133 134.973 415.06C134.572 414.926 134.202 414.716 133.883 414.44C133.317 413.904 132.932 413.204 132.783 412.44C132.573 411.301 132.55 410.136 132.713 408.99C132.793 408.32 132.893 407.64 133.023 406.99L133.213 405.99L133.333 405.45C133.483 404.73 133.653 404.02 133.833 403.31C134.543 400.48 135.363 397.73 136.183 394.99L136.213 395Z" fill="#221F1F"/>
<path d="M344.921 219.07C343.854 211.737 342.694 204.403 341.441 197.07C340.971 194.4 340.441 191.75 339.941 189.07C338.261 179.69 336.471 170.31 334.311 161.07C333.821 159.02 333.311 156.97 332.761 154.92C332.211 152.87 331.591 150.86 331.001 148.85C329.371 143.73 327.581 138.64 325.741 133.66C325.211 132.09 326.041 131.93 327.321 132.93C328.146 133.606 328.873 134.393 329.481 135.27C330.306 136.457 330.962 137.752 331.431 139.12L332.151 141.12L332.781 143.12L334.021 147.12C334.751 149.81 335.531 152.49 336.181 155.19C337.514 160.597 338.674 166.047 339.661 171.54C340.881 178.11 342.371 184.88 343.661 191.59C344.994 198.977 346.224 206.377 347.351 213.79C348.017 218.35 348.684 222.913 349.351 227.48C349.861 230.94 350.351 234.41 350.771 237.87L351.461 243.06C351.701 244.76 351.991 246.45 352.361 248.12C353.501 253.32 355.361 258.22 357.061 263.31C357.431 264.43 357.811 265.53 358.141 266.68C359.311 271 359.231 272.54 358.521 273.58C358.379 273.827 358.211 274.059 358.021 274.27C357.391 274.74 356.731 273.07 355.881 270.08C354.591 265.63 352.831 261.08 351.331 256.31C350.581 253.91 349.891 251.45 349.331 248.94C349.031 247.68 348.801 246.41 348.581 245.13L348.291 243.2L348.031 241.34C347.031 233.94 346.031 226.51 344.851 219.12L344.921 219.07Z" fill="#221F1F"/>
<path d="M353.6 286.1C352.276 285.099 350.871 284.21 349.4 283.44C347.824 282.503 346.329 281.436 344.93 280.25C342.13 277.887 339.738 275.079 337.85 271.94C337.154 270.779 336.549 269.565 336.04 268.31C335.467 266.966 335.168 265.521 335.16 264.06C335.168 263.679 335.219 263.3 335.31 262.93C335.363 262.72 335.436 262.515 335.53 262.32L335.68 262.01L335.83 261.78C336.252 261.1 336.841 260.539 337.54 260.15C338.261 259.809 339.054 259.651 339.85 259.69C340.533 259.75 341.205 259.898 341.85 260.13C344.037 261.07 346.062 262.349 347.85 263.92C349.62 265.39 351.28 266.92 352.91 268.5L355.33 270.84C356.077 271.596 356.883 272.291 357.74 272.92C359.33 273.92 361.16 274.82 362.91 275.76C364.66 276.7 366.44 277.64 368.17 278.64C370.432 279.898 372.609 281.301 374.69 282.84L376.22 284.1C376.71 284.54 377.22 285.02 377.66 285.48C378.1 285.94 378.53 286.48 378.95 287.04L379.5 287.93C379.697 288.219 379.859 288.531 379.98 288.86C380.64 290.58 379.81 290.4 378.7 289.54C377.59 288.68 375.7 287.44 373.57 285.71C369.52 282.68 365.218 280.004 360.71 277.71C359.57 277.08 358.44 276.48 357.26 275.79C356.98 275.63 356.66 275.42 356.36 275.24C356.036 275.03 355.725 274.8 355.43 274.55C354.87 274.08 354.43 273.62 353.9 273.16C352 271.32 350.21 269.47 348.33 267.71C347.216 266.642 346.041 265.641 344.81 264.71C343.646 263.804 342.355 263.073 340.98 262.54C340.422 262.318 339.818 262.236 339.22 262.3C338.989 262.339 338.768 262.427 338.573 262.558C338.378 262.689 338.214 262.86 338.09 263.06C337.52 263.67 337.75 265.25 338.18 266.6C339.316 269.763 341.074 272.667 343.35 275.14C345.616 277.684 348.281 279.842 351.24 281.53C351.7 281.77 352.15 282.02 352.66 282.33C353.16 282.606 353.644 282.91 354.11 283.24C355.036 283.901 355.908 284.633 356.72 285.43C358.286 287.023 359.671 288.783 360.85 290.68C362.65 293.49 364.14 296.44 365.77 299.24C367.264 302.068 369.19 304.646 371.48 306.88C375.083 310.166 379.405 312.563 384.1 313.88C385.1 314.19 386.1 314.32 387.17 314.53C391.05 315.05 392.28 314.85 393.17 315.53C393.396 315.657 393.61 315.805 393.81 315.97C394.04 316.23 393.76 316.5 393 316.77C392.522 316.928 392.035 317.055 391.54 317.15C390.94 317.21 390.23 317.26 389.43 317.28C387.035 317.234 384.656 316.864 382.36 316.18C380.038 315.44 377.81 314.433 375.72 313.18C373.595 311.931 371.605 310.467 369.78 308.81C368.834 307.958 367.958 307.032 367.16 306.04C366.38 305.04 365.67 304.04 365 303.04C363 299.97 361.42 296.81 359.67 293.85C358.814 292.394 357.879 290.985 356.87 289.63C355.872 288.343 354.743 287.163 353.5 286.11L353.6 286.1Z" fill="#221F1F"/>
<path d="M390.592 285C392.574 287.876 394.717 290.637 397.012 293.27C399.362 295.85 401.862 298.39 404.362 300.9C406.182 302.73 408.082 304.5 409.912 306.32C416.392 312.747 422.915 319.143 429.482 325.51C432.402 328.33 435.392 331.1 438.352 333.82C442.152 337.33 446.072 340.72 449.632 344.51C450.752 345.7 450.092 346.03 448.632 345.57C446.434 344.743 444.429 343.473 442.742 341.84C435.022 334.64 427.402 327.34 419.932 319.74C415.462 315.2 410.582 310.74 405.932 306.13C403.385 303.61 400.852 301.067 398.332 298.5C397.092 297.19 395.832 295.93 394.632 294.5C393.432 293.07 392.312 291.71 391.202 290.28C388.512 286.74 386.022 283.08 383.572 279.41C379.862 273.84 376.322 268.15 372.502 262.76C369.62 258.613 366.399 254.713 362.872 251.1C362.092 250.32 361.302 249.61 360.482 248.88C358.972 247.53 357.902 246.78 357.212 246.15C356.666 245.739 356.222 245.209 355.912 244.6C355.781 244.377 355.677 244.138 355.602 243.89C355.532 243.55 355.922 243.47 356.732 243.65C357.918 243.995 359.038 244.54 360.042 245.26C363.896 248.121 367.323 251.515 370.222 255.34C373.222 259.11 375.962 263.1 378.652 267.11C382.652 273.11 386.472 279.11 390.652 284.92L390.592 285Z" fill="#221F1F"/>
<path d="M417.432 352.29C416.122 350.07 414.732 347.92 413.252 345.8C412.712 345.03 412.092 344.32 411.542 343.55C409.602 340.86 407.542 338.18 405.542 335.55C404.612 334.39 403.622 333.27 402.622 332.19C401.259 330.863 400.021 329.413 398.922 327.86C398.282 326.86 401.212 326.3 402.662 327.93C405.266 330.829 407.691 333.885 409.922 337.08C411.252 339.02 412.922 340.85 414.302 342.8C415.872 344.93 417.362 347.13 418.772 349.38L421.302 353.54C422.582 355.62 423.832 357.72 425.302 359.63C426.426 361.073 427.678 362.412 429.042 363.63L429.942 364.41C431.032 365.41 431.292 365.8 431.082 366.57C431.082 366.74 431.002 366.93 430.942 367.09C430.712 367.61 429.942 367.56 428.942 366.9C426.026 364.745 423.537 362.066 421.602 359C420.102 356.78 418.762 354.49 417.382 352.29H417.432Z" fill="#221F1F"/>
<path d="M425.191 332.8C423.951 333.966 422.612 335.023 421.191 335.96C420.681 336.31 420.191 336.68 419.641 336.96C417.695 338.02 415.586 338.747 413.401 339.11C412.41 339.283 411.406 339.37 410.401 339.37C409.052 339.477 407.711 339.078 406.641 338.25C406.301 337.98 406.751 337.44 407.341 336.99C407.623 336.771 407.928 336.584 408.251 336.43C408.495 336.287 408.783 336.237 409.061 336.29C411.043 336.724 413.099 336.679 415.061 336.16C416.394 335.783 417.655 335.185 418.791 334.39C420.125 333.589 421.383 332.669 422.551 331.64C423.265 331.023 423.933 330.354 424.551 329.64C425.517 328.582 426.292 327.364 426.841 326.04C427.023 325.603 427.117 325.134 427.117 324.66C427.117 324.186 427.023 323.717 426.841 323.28C426.807 323.21 426.767 323.143 426.721 323.08C426.671 323.02 426.611 322.97 426.571 322.91C426.241 322.5 426.151 322.31 426.371 321.58C426.421 321.42 426.461 321.25 426.511 321.09C426.546 320.961 426.617 320.846 426.717 320.757C426.816 320.668 426.939 320.61 427.071 320.59C427.262 320.56 427.458 320.572 427.645 320.625C427.832 320.679 428.004 320.773 428.151 320.9C428.784 321.374 429.259 322.03 429.511 322.78C429.624 323.145 429.704 323.52 429.751 323.9C429.776 324.26 429.776 324.62 429.751 324.98C429.592 326.278 429.17 327.531 428.511 328.66C427.612 330.193 426.512 331.599 425.241 332.84L425.191 332.8Z" fill="#221F1F"/>
<path d="M436.191 353.24C434.894 351.651 433.749 349.943 432.771 348.14C431.771 346.45 430.891 344.76 429.961 343.09C429.031 341.42 428.121 339.78 427.121 338.26C426.662 337.535 426.143 336.85 425.571 336.21C425.455 336.073 425.328 335.946 425.191 335.83C425.095 335.734 424.987 335.651 424.871 335.58C424.811 335.52 424.801 335.58 424.791 335.53C424.803 335.448 424.824 335.368 424.851 335.29C424.862 335.23 424.862 335.169 424.851 335.11C424.856 335.063 424.856 335.016 424.851 334.97L425.341 335.08C425.375 335.103 425.412 335.12 425.451 335.13H425.531C425.531 335.13 425.531 335.13 425.531 335.21C425.519 335.269 425.519 335.33 425.531 335.39C425.558 335.793 425.642 336.19 425.781 336.57C426.296 337.952 426.967 339.27 427.781 340.5C428.611 341.81 429.521 343.09 430.441 344.36C432.081 346.63 433.811 348.77 435.611 351.05C436.6 352.262 437.411 353.609 438.021 355.05C438.202 355.517 438.31 356.01 438.341 356.51C438.365 356.845 438.338 357.182 438.261 357.51C438.153 357.877 437.969 358.217 437.721 358.51C437.485 358.795 437.188 359.024 436.851 359.18L436.401 359.37C436.273 359.408 436.143 359.438 436.011 359.46C435.444 359.605 434.849 359.605 434.281 359.46C433.425 359.142 432.648 358.644 432.001 358C431.435 357.483 430.897 356.936 430.391 356.36C429.391 355.24 428.541 354.08 427.701 352.91C426.031 350.56 424.501 348.16 422.981 345.76L420.981 342.59L420.471 341.82L420.211 341.45L419.981 341.14C419.796 340.885 419.577 340.656 419.331 340.46C419.222 340.354 419.079 340.29 418.927 340.279C418.775 340.269 418.625 340.311 418.501 340.4C418.295 340.622 418.168 340.907 418.141 341.21C418.127 341.356 418.127 341.503 418.141 341.65C418.141 341.85 418.141 342.13 418.141 342.39C418.18 342.946 418.263 343.497 418.391 344.04C419.211 347.004 420.49 349.821 422.181 352.39C423.833 355.006 425.753 357.443 427.911 359.66C429.261 360.99 428.601 361.51 426.761 360.97C423.912 359.859 421.494 357.865 419.861 355.28C417.884 352.389 416.369 349.207 415.371 345.85C415.098 344.934 414.917 343.992 414.831 343.04C414.831 342.79 414.831 342.56 414.781 342.29V341.45L414.921 340.26C414.991 339.88 415.121 339.52 415.211 339.14C415.301 338.76 415.521 338.48 415.681 338.14C415.868 337.859 416.086 337.601 416.331 337.37C416.817 336.899 417.448 336.607 418.121 336.54C418.453 336.494 418.79 336.494 419.121 336.54C419.46 336.623 419.794 336.727 420.121 336.85C420.421 337.03 420.721 337.26 421.021 337.46C421.324 337.698 421.602 337.966 421.851 338.26C422.296 338.699 422.692 339.185 423.031 339.71L423.741 340.78L425.061 342.88L427.651 347.04C429.304 349.766 431.156 352.366 433.191 354.82C433.712 355.437 434.322 355.973 435.001 356.41C435.081 356.455 435.164 356.492 435.251 356.52C435.317 356.535 435.385 356.535 435.451 356.52C435.451 356.52 435.591 356.52 435.601 356.52L435.651 356.59C435.771 356.84 435.981 356.91 435.761 356.81C435.761 356.81 435.761 356.81 435.631 356.81H435.481V356.74C435.47 356.608 435.446 356.477 435.411 356.35C435.277 355.972 435.11 355.608 434.911 355.26C434.448 354.451 433.919 353.682 433.331 352.96C430.68 349.839 428.191 346.584 425.871 343.21C424.961 341.844 424.152 340.414 423.451 338.93C423.067 338.114 422.785 337.254 422.611 336.37C422.514 335.824 422.514 335.265 422.611 334.72C422.719 334.005 423.073 333.351 423.611 332.87L423.801 332.71H423.921C424.282 332.559 424.671 332.488 425.061 332.5C425.246 332.508 425.43 332.531 425.611 332.57C425.761 332.609 425.908 332.659 426.051 332.72C426.308 332.816 426.55 332.947 426.771 333.11C426.973 333.232 427.161 333.376 427.331 333.54C427.936 334.085 428.482 334.691 428.961 335.35C429.834 336.556 430.642 337.808 431.381 339.1C432.851 341.61 434.181 344.16 435.601 346.62C436.324 347.899 437.111 349.141 437.961 350.34C438.347 350.882 438.79 351.381 439.281 351.83L439.591 352.05C439.661 352.05 439.761 352.14 439.781 352.13C439.801 352.12 439.781 352.13 439.781 352.19L439.901 352.43C439.811 352.3 439.631 352.33 439.671 352.29C439.682 352.237 439.682 352.183 439.671 352.13C439.667 351.919 439.633 351.711 439.571 351.51C439.433 350.983 439.246 350.471 439.011 349.98C438.518 348.914 437.968 347.876 437.361 346.87C435.271 343.38 432.881 340 430.621 336.49C430.061 335.6 429.511 334.71 428.991 333.75C428.702 333.237 428.47 332.694 428.301 332.13C428.249 331.927 428.215 331.719 428.201 331.51C428.209 331.329 428.243 331.151 428.301 330.98C428.335 330.879 428.379 330.782 428.431 330.69C428.632 330.246 428.987 329.89 429.431 329.69C429.898 329.508 430.415 329.508 430.881 329.69C431.203 329.823 431.505 329.998 431.781 330.21C432.236 330.569 432.654 330.97 433.031 331.41C433.727 332.219 434.372 333.07 434.961 333.96C435.411 334.62 435.841 335.29 436.251 335.96L436.871 336.96C437.081 337.28 437.311 337.67 437.501 337.96C438.271 339.36 438.941 340.74 439.651 342.09C440.324 343.416 441.078 344.698 441.911 345.93C442.244 346.45 442.659 346.913 443.141 347.3C443.192 347.34 443.25 347.37 443.311 347.39C443.311 347.34 443.251 347.65 443.251 347.66C443.251 347.67 443.251 347.82 443.251 347.74C443.233 347.676 443.206 347.616 443.171 347.56C443.146 347.511 443.112 347.467 443.071 347.43C443.071 347.43 443.131 347.33 443.191 347.26L443.441 346.94L443.541 347.16C443.541 347.16 443.541 347.16 443.471 347.16C443.406 347.135 443.339 347.115 443.271 347.1C443.281 347.03 443.281 346.959 443.271 346.89C443.214 346.651 443.13 346.42 443.021 346.2C442.751 345.648 442.447 345.114 442.111 344.6C440.761 342.6 439.691 341.19 439.111 340.12C438.598 339.367 438.336 338.471 438.361 337.56C438.349 337.239 438.414 336.92 438.551 336.63C438.841 336.39 439.111 336.5 439.781 337.09C440.836 338.061 441.818 339.107 442.721 340.22C443.591 341.258 444.399 342.347 445.141 343.48C445.571 344.14 445.93 344.844 446.211 345.58C446.391 346.077 446.489 346.601 446.501 347.13C446.516 347.306 446.516 347.483 446.501 347.66C446.501 347.85 446.421 348.05 446.361 348.24C446.198 348.668 445.946 349.056 445.621 349.38L445.921 349.02C445.785 349.227 445.638 349.428 445.481 349.62C445.269 349.857 445.023 350.063 444.751 350.23C444.414 350.443 444.036 350.583 443.641 350.64C443.256 350.691 442.865 350.664 442.491 350.56C442.188 350.488 441.898 350.37 441.631 350.21C441.426 350.094 441.232 349.96 441.051 349.81C440.742 349.568 440.458 349.297 440.201 349C439.389 348.041 438.675 347.002 438.071 345.9C436.901 343.9 435.931 341.75 434.921 339.84C434.791 339.6 434.671 339.37 434.541 339.16L434.131 338.49L433.231 337.05C432.641 336.12 432.031 335.21 431.401 334.39C431.091 333.993 430.757 333.616 430.401 333.26C430.265 333.112 430.118 332.975 429.961 332.85C429.891 332.78 429.841 332.76 429.791 332.71H429.741L429.791 332.6C430.014 332.23 430.119 331.801 430.091 331.37C430.151 331.482 430.232 331.58 430.331 331.66C430.43 331.761 430.545 331.846 430.671 331.91C430.833 332.032 431.007 332.136 431.191 332.22L429.511 331.47C429.587 331.515 429.673 331.543 429.761 331.55C429.84 331.57 429.922 331.57 430.001 331.55H430.461C430.619 331.536 430.776 331.513 430.931 331.48L431.151 331.41L431.301 331.36V331.42C431.301 331.42 431.301 331.54 431.381 331.63C431.461 331.72 431.461 331.81 431.521 331.92C432.395 333.537 433.359 335.103 434.411 336.61L437.651 341.47C438.731 343.13 439.801 344.79 440.801 346.58C441.321 347.509 441.789 348.468 442.201 349.45C442.439 350.03 442.616 350.633 442.731 351.25C442.816 351.661 442.846 352.081 442.821 352.5C442.789 352.797 442.732 353.092 442.651 353.38C442.515 353.737 442.33 354.074 442.101 354.38L442.041 354.46L441.961 354.53C441.687 354.765 441.393 354.976 441.081 355.16C440.695 355.322 440.288 355.43 439.871 355.48C439.498 355.477 439.125 355.434 438.761 355.35C438.491 355.25 438.221 355.14 437.961 355.02C437.281 354.613 436.67 354.1 436.151 353.5L436.191 353.24Z" fill="#221F1F"/>
<path d="M355.1 259.44L353.21 252.62C352.98 251.79 352.69 250.98 352.48 250.14C351.7 247.21 350.97 244.25 350.3 241.28C350.03 239.95 349.67 238.64 349.41 237.28C349.25 236.43 349.01 235.59 348.93 234.7C348.88 234.25 348.84 233.81 348.81 233.37C348.78 232.93 348.88 232.44 348.94 231.98C349 231.52 349.5 231.59 349.94 232.07C350.485 232.656 350.835 233.397 350.94 234.19C351.34 237.47 352.16 240.88 352.82 244.32C353.23 246.39 353.93 248.47 354.51 250.55L356.44 257.4L357.64 261.62C358.23 263.76 358.83 265.91 359.42 268.03C359.89 269.68 360.42 271.28 360.84 272.95C360.92 273.32 361.02 273.68 361.1 274.06C361.227 274.563 361.258 275.086 361.19 275.6C361.17 275.742 361.119 275.878 361.041 275.999C360.964 276.12 360.861 276.222 360.74 276.3C360.645 276.386 360.537 276.457 360.42 276.51C360.05 276.63 359.68 276.09 359.49 275.16C358.79 272.36 357.87 269.32 357.02 266.27L355.02 259.44H355.1Z" fill="#221F1F"/>
<path d="M107.412 281.9L112.982 279.8C113.662 279.55 114.312 279.23 114.982 278.98L122.172 276.4C123.232 276.01 124.272 275.56 125.292 275.09C126.568 274.421 127.908 273.882 129.292 273.48C129.712 273.38 129.942 273.96 129.832 274.66C129.782 275.052 129.637 275.426 129.408 275.749C129.18 276.071 128.876 276.333 128.522 276.51C125.815 277.685 123.036 278.687 120.202 279.51C118.492 280 116.832 280.81 115.142 281.51L109.562 283.65L106.132 285C104.412 285.7 102.682 286.38 101.012 287.16C99.7222 287.78 98.5222 288.52 97.3222 289.23C97.0522 289.38 96.8122 289.56 96.5522 289.71C95.5522 290.28 95.3322 290.27 94.7122 289.91C94.5722 289.82 94.4222 289.75 94.2922 289.66C94.1879 289.592 94.1108 289.49 94.0742 289.371C94.0377 289.252 94.044 289.125 94.0922 289.01C94.1521 288.843 94.24 288.687 94.3522 288.55C94.4882 288.374 94.6462 288.216 94.8222 288.08C96.9972 286.52 99.3463 285.217 101.822 284.2C103.652 283.39 105.522 282.65 107.372 281.89L107.412 281.9Z" fill="#221F1F"/>
<path d="M111 306.05C113.073 308.003 115.153 309.946 117.24 311.88C118.01 312.58 118.82 313.23 119.58 313.94C122.27 316.42 124.94 318.94 127.66 321.38C128.87 322.47 130.13 323.51 131.38 324.53C133.05 325.748 134.631 327.085 136.11 328.53C136.99 329.48 134.25 330.21 132.4 328.68C129.14 325.97 125.98 323.15 122.96 320.11C121.15 318.3 119.08 316.64 117.14 314.89L110.79 309.05L106.91 305.43L101 300C99.4799 298.59 97.8999 297.3 96.3899 295.88C96.0499 295.57 95.7199 295.27 95.3899 294.94C94.2099 293.68 93.9599 293.04 94.3099 292.36C94.374 292.207 94.4617 292.065 94.5699 291.94C94.9699 291.63 95.5699 291.87 96.3899 292.66C99.0099 295.01 101.88 297.58 104.68 300.19L111 306V306.05Z" fill="#221F1F"/>
<path d="M108.52 308C110.58 309.89 112.65 311.78 114.74 313.64L117.07 315.64C119.76 318.05 122.43 320.47 125.14 322.84C126.35 323.84 127.6 324.9 128.84 325.84C130.49 327.044 132.063 328.35 133.55 329.75C134.45 330.67 131.89 331.25 130.06 329.75C126.82 327.13 123.67 324.4 120.63 321.48C118.82 319.73 116.76 318.12 114.83 316.42L108.5 310.77L104.63 307.26L98.8003 302C97.2803 300.64 95.7303 299.37 94.2403 298C93.9103 297.7 93.5803 297.4 93.2403 297.08C92.0703 295.85 91.8203 295.23 92.1103 294.59C92.1649 294.453 92.239 294.325 92.3303 294.21C92.6803 293.91 93.2003 294.21 94.0503 294.97L102.25 302.35L108.53 308.01L108.52 308Z" fill="#221F1F"/>
<path d="M107.531 308.71C109.591 310.55 111.661 312.39 113.751 314.2L116.081 316.13C118.761 318.47 121.431 320.82 124.141 323.13C125.351 324.13 126.601 325.13 127.841 326.08C129.492 327.239 131.066 328.505 132.551 329.87C133.441 330.76 130.911 331.39 129.081 329.96C125.841 327.42 122.691 324.77 119.661 321.96C117.851 320.26 115.791 318.7 113.861 317.05L107.531 311.56L103.671 308.14L97.8411 302.94C96.3311 301.61 94.8411 300.38 93.3011 299.02C92.9711 298.73 92.6411 298.43 92.3011 298.12C91.1411 296.91 90.8811 296.29 91.1811 295.66C91.2318 295.521 91.3063 295.393 91.4011 295.28C91.7511 294.99 92.2611 295.28 93.1011 296.02L101.271 303.2L107.541 308.71H107.531Z" fill="#221F1F"/>
<path d="M176.842 193.55C174.219 194.092 171.636 194.813 169.112 195.71C166.584 196.64 164.116 197.726 161.722 198.96C159.972 199.86 158.292 200.9 156.642 201.96L155.892 202.44L155.742 202.54V202.7V202.79V202.96L155.932 203.6L156.302 204.87L157.812 209.95L160.812 220.12C161.712 223.12 162.692 226.12 163.672 229.12C164.922 232.91 166.302 236.69 167.262 240.58C167.862 243 164.702 240.69 163.262 236.3C160.762 228.53 158.392 220.71 156.262 212.76C155.612 210.39 154.882 207.99 154.122 205.57L153.552 203.77L153.112 202.37L153.002 201.99L152.942 201.8C152.942 201.8 152.862 201.66 152.942 201.64L153.572 201.16L154.212 200.7L154.752 200.33L155.552 199.8C156.102 199.45 156.642 199.11 157.192 198.8C162.034 195.914 167.236 193.678 172.662 192.15C176.039 191.201 179.503 190.598 183.002 190.35C188.172 189.93 193.372 189.84 198.492 189.58C202.401 189.408 206.297 189.014 210.162 188.4C210.982 188.23 211.802 188.08 212.612 187.87C213.422 187.66 213.982 187.53 214.472 187.37C214.722 187.29 214.952 187.23 215.162 187.18C215.372 187.13 215.532 187.05 215.702 187.01C215.98 186.931 216.264 186.877 216.552 186.85C216.777 186.815 217.006 186.815 217.232 186.85C217.446 186.861 217.66 186.885 217.872 186.92C218.162 187.02 218.122 187.33 217.682 187.92C217.572 188.05 217.442 188.2 217.282 188.36L216.722 188.75C216.512 188.89 216.282 189.03 216.022 189.18C215.762 189.33 215.492 189.42 215.192 189.54C213.449 190.208 211.638 190.681 209.792 190.95C207.962 191.27 206.122 191.45 204.272 191.62C200.572 191.93 196.852 192.06 193.142 192.23C190.382 192.35 187.632 192.48 184.882 192.66C182.195 192.809 179.522 193.144 176.882 193.66L176.842 193.55Z" fill="#221F1F"/>
<path d="M202.661 230.05C207.35 229.449 211.993 228.537 216.561 227.32C218.136 226.827 219.657 226.177 221.101 225.38C221.391 225.2 221.701 225.03 221.981 224.84L222.781 224.22L223.441 223.52C223.521 223.42 223.641 223.21 223.671 223.18L223.771 223.06V222.89L223.671 222.4L223.431 221.27L222.941 219.02L220.941 210.02C220.341 207.36 219.661 204.7 218.941 202.08C218.041 198.73 217.051 195.34 216.331 192.02C216.281 191.864 216.281 191.696 216.331 191.54C216.353 191.483 216.383 191.429 216.421 191.38L216.511 191.31C216.621 191.24 216.651 191.21 216.621 191.24C216.591 191.27 216.571 191.24 216.621 191.24H216.711H216.941C217.169 191.317 217.378 191.443 217.551 191.61C218.738 192.739 219.572 194.187 219.951 195.78C221.761 202.68 223.321 209.61 224.661 216.67C224.861 217.72 225.091 218.78 225.321 219.85L225.681 221.45L225.861 222.25L226.001 222.85C226.069 223.064 226.11 223.286 226.121 223.51L225.421 224.64C225.252 224.913 225.051 225.165 224.821 225.39C224.409 225.862 223.946 226.288 223.441 226.66C222.961 227.03 222.441 227.32 221.941 227.66C221.441 228 220.941 228.21 220.371 228.43C218.076 229.369 215.699 230.096 213.271 230.6C210.881 231.14 208.491 231.6 206.101 231.94L197.301 233.32C192.879 233.952 188.498 234.843 184.181 235.99C180.936 236.886 177.832 238.232 174.961 239.99C174.341 240.37 173.801 240.82 173.211 241.23C171.141 242.88 170.671 243.51 169.761 243.58C169.563 243.613 169.362 243.634 169.161 243.64C168.871 243.64 168.821 243.3 169.011 242.76C169.139 242.414 169.296 242.079 169.481 241.76C169.771 241.361 170.082 240.977 170.411 240.61C172.795 238.295 175.635 236.504 178.751 235.35C181.835 234.168 185.008 233.235 188.241 232.56C193.021 231.51 197.841 230.82 202.601 230.05H202.661Z" fill="#221F1F"/>
<path d="M293.52 269.72C291.777 270.205 290.069 270.81 288.41 271.53C287.58 271.89 286.75 272.28 285.91 272.68C285.218 273.087 284.46 273.369 283.67 273.51C283.508 273.514 283.347 273.497 283.19 273.46C283.107 273.445 283.028 273.414 282.957 273.367C282.886 273.321 282.826 273.26 282.78 273.19L282.17 272.4L280.5 267.4L279.09 263.04C278.35 260.67 277.55 258.31 276.89 255.91C276.34 253.91 275.8 251.91 275.35 249.85C275.11 248.85 274.91 247.85 274.7 246.79L274.42 245.24L274.34 244.84L274.26 244.28L274.09 243.16C274.115 242.783 274.182 242.411 274.29 242.05C274.593 241.789 274.964 241.619 275.36 241.56C275.8 241.48 276.3 241.44 276.73 241.39L277.59 241.32C278.74 241.22 279.87 241.12 281 241C283.24 240.799 285.46 240.421 287.64 239.87C288.517 239.629 289.365 239.294 290.17 238.87L292.68 237.42C294.37 236.42 296.09 235.51 297.83 234.66C300.087 233.525 302.427 232.562 304.83 231.78C307.256 230.973 309.793 230.551 312.35 230.53C313.96 230.53 313.69 231.18 312.44 231.83C310.51 232.75 308.502 233.496 306.44 234.06C301.753 235.536 297.253 237.549 293.03 240.06L291.35 241C290.708 241.333 290.039 241.611 289.35 241.83C288.074 242.232 286.77 242.543 285.45 242.76C282.87 243.19 280.3 243.39 277.76 243.56L276.95 243.61H276.72C276.637 243.595 276.553 243.595 276.47 243.61C276.46 243.686 276.46 243.763 276.47 243.84L276.53 244.3V244.42V244.64L276.61 245.09C276.73 245.7 276.83 246.31 276.97 246.92C277.23 248.15 277.53 249.37 277.83 250.59C278.46 253.04 279.17 255.48 279.9 257.9C280.54 260.08 281.23 262.24 281.9 264.41L283.9 270.41L284 270.75C284.1 270.81 284.22 270.75 284.33 270.68L284.65 270.54L285.31 270.22C286.31 269.72 287.4 269.22 288.47 268.81C290.466 268.003 292.522 267.354 294.62 266.87C295.62 266.63 296.73 266.44 297.79 266.29C298.85 266.14 299.94 266.07 300.96 265.95C304.086 265.667 307.175 265.067 310.18 264.16C313.11 263.22 316.07 261.91 318.1 259.76C318.276 259.577 318.436 259.379 318.58 259.17C318.68 259.04 318.8 258.89 318.71 258.71L318.35 257.08C318.08 255.89 317.81 254.7 317.55 253.52C317 251.15 316.46 248.79 315.92 246.42C315.68 245.42 315.44 244.36 315.2 243.31C314.36 239.39 314.26 238.11 314.72 237.15C314.802 236.925 314.909 236.71 315.04 236.51C315.45 236.04 316.17 237.51 316.9 240.4C317.98 244.61 318.99 248.95 319.96 253.4C320.2 254.51 320.45 255.61 320.69 256.73L321.11 258.73L321.16 259.14C321.16 259.27 321.23 259.42 321.16 259.53C321.041 259.783 320.904 260.027 320.75 260.26C320.617 260.476 320.47 260.683 320.31 260.88C320.2 261.01 320.09 261.16 319.97 261.28C318.202 263.102 316.064 264.524 313.7 265.45C310.396 266.795 306.93 267.699 303.39 268.14C301.66 268.37 299.84 268.52 298.27 268.71C296.648 268.93 295.044 269.264 293.47 269.71L293.52 269.72Z" fill="#221F1F"/>
<path d="M290.88 334.75C286.39 336.33 281.88 337.92 277.37 339.42C272.86 340.92 268.18 342.22 263.53 343.36C260.14 344.19 256.75 345.03 253.32 345.68C241.225 348.116 228.89 349.146 216.56 348.75C211.069 348.59 205.606 347.92 200.24 346.75C196.772 346.009 193.39 344.909 190.15 343.47C186.874 342.014 183.862 340.024 181.24 337.58C179.62 336.02 180.47 335.67 182.35 336.23C185.156 337.237 187.898 338.416 190.56 339.76C196.742 342.604 203.363 344.376 210.14 345C213.582 345.406 217.043 345.636 220.51 345.69C223.99 345.75 227.51 345.69 231.01 345.53C239.613 344.959 248.157 343.698 256.56 341.76C261.2 340.76 265.82 339.62 270.38 338.3C274.94 336.98 279.43 335.4 283.95 333.83L300.58 327.88C308.97 324.88 317.43 321.88 325.81 318.98C332.33 316.75 338.69 314.44 345.32 312.6C346.78 312.2 348.21 311.81 349.73 311.49C351.745 310.987 353.825 310.784 355.9 310.89C356.434 310.897 356.96 311.021 357.442 311.252C357.924 311.484 358.35 311.817 358.69 312.23C358.915 312.512 359.022 312.87 358.99 313.23C358.93 313.42 358.75 313.45 358.57 313.47C358.39 313.49 358.15 313.47 357.79 313.47C356.41 313.51 355.035 313.66 353.68 313.92C350.73 314.484 347.812 315.205 344.94 316.08C341.99 316.95 339.02 317.9 336.03 318.88C330.03 320.88 324.03 322.95 317.95 325.1L290.95 334.83L290.88 334.75Z" fill="#221F1F"/>
<path d="M177.501 254.61C177.702 254.943 177.832 255.314 177.882 255.699C177.932 256.085 177.901 256.477 177.791 256.85C177.737 257.055 177.714 257.267 177.721 257.48C177.724 257.507 177.735 257.534 177.753 257.555C177.771 257.576 177.794 257.592 177.821 257.6C178.138 257.583 178.438 257.455 178.671 257.24C179.421 256.64 180.131 255.68 181.051 254.78C181.482 254.342 181.974 253.968 182.511 253.67C182.844 253.49 183.206 253.371 183.581 253.32C183.913 253.27 184.25 253.27 184.581 253.32C185.211 253.4 185.731 253.56 186.201 253.66L186.891 253.79C187.087 253.811 187.285 253.811 187.481 253.79C188.195 253.698 188.879 253.445 189.481 253.05C190.211 252.63 190.961 252.15 191.791 251.69C192.237 251.449 192.702 251.245 193.181 251.08C193.449 250.991 193.723 250.921 194.001 250.87C194.154 250.859 194.308 250.859 194.461 250.87H194.691H194.851C195.69 250.882 196.528 250.839 197.361 250.74C199.261 250.569 201.089 249.93 202.681 248.88C202.821 248.8 202.941 248.67 203.101 248.65C203.531 248.59 203.951 249.11 203.921 249.65C203.921 249.78 203.921 249.98 203.861 250.02C203.201 250.42 202.991 251.45 202.161 251.76C200.657 252.394 199.088 252.86 197.481 253.15C196.842 253.235 196.196 253.265 195.551 253.24L194.941 253.19H194.471C194.19 253.171 193.908 253.209 193.641 253.3C193.223 253.449 192.819 253.633 192.431 253.85C191.851 254.15 191.121 254.61 190.191 255.1C189.669 255.386 189.115 255.611 188.541 255.77C188.188 255.876 187.82 255.923 187.451 255.91C187.115 255.904 186.78 255.867 186.451 255.8C185.211 255.57 184.021 255.11 183.451 255.43C182.563 255.979 181.758 256.652 181.061 257.43C180.652 257.836 180.207 258.204 179.731 258.53C179.218 258.904 178.606 259.12 177.971 259.15C177.627 259.178 177.283 259.097 176.988 258.917C176.693 258.737 176.463 258.469 176.331 258.15C176.244 257.868 176.223 257.57 176.271 257.28C176.296 257.101 176.333 256.924 176.381 256.75C176.477 256.429 176.594 256.115 176.731 255.81C177.001 255.43 177.211 255.13 177.501 254.61Z" fill="#221F1F"/>
<path d="M180.322 265.91C180.436 266.12 180.584 266.309 180.762 266.47C180.842 266.47 180.892 266.57 180.962 266.57H181.052C181.122 266.57 181.102 266.52 181.172 266.45C181.242 266.38 181.172 266.45 181.232 266.39C181.298 266.379 181.366 266.379 181.432 266.39C182.093 266.377 182.748 266.259 183.372 266.04L183.842 265.87H183.902C183.982 266.08 183.742 265.42 184.072 266.33C184.031 266.196 183.98 266.066 183.922 265.94L184.052 265.83C184.282 265.63 184.552 265.36 184.822 265.09C185.316 264.584 185.848 264.116 186.412 263.69L186.692 263.51C186.821 263.426 186.958 263.355 187.102 263.3C187.373 263.129 187.682 263.026 188.002 263C188.404 263.034 188.802 263.104 189.192 263.21C190.372 263.47 191.482 263.91 192.132 263.65C193.147 263.406 194.128 263.036 195.052 262.55C195.632 262.26 196.222 261.95 196.832 261.61C197.414 261.246 198.034 260.947 198.682 260.72C198.737 260.695 198.794 260.675 198.852 260.66C198.926 260.669 198.997 260.693 199.062 260.73C199.237 260.791 199.385 260.914 199.477 261.076C199.569 261.238 199.599 261.427 199.562 261.61C199.562 261.7 199.562 261.84 199.512 261.87C199.062 262.11 199.032 262.99 198.582 263.22C197.722 263.62 196.972 264.22 196.062 264.81C195.693 265.024 195.3 265.195 194.892 265.32C194.346 265.462 193.791 265.569 193.232 265.64C193.042 265.64 192.682 265.73 192.232 265.78H192.042H191.742C191.557 265.771 191.374 265.751 191.192 265.72C190.854 265.665 190.52 265.588 190.192 265.49C189.552 265.31 188.852 265.08 188.192 264.96C188.075 264.95 187.958 264.95 187.842 264.96C187.824 264.952 187.806 264.948 187.787 264.948C187.768 264.948 187.749 264.952 187.732 264.96C187.452 265.145 187.188 265.352 186.942 265.58C186.372 266.08 185.852 266.58 185.182 267.12C185.102 267.19 184.992 267.26 184.892 267.33C184.761 267.401 184.623 267.462 184.482 267.51C184.292 267.57 184.112 267.63 183.932 267.67C183.603 267.754 183.269 267.817 182.932 267.86C182.391 267.93 181.843 267.93 181.302 267.86C180.982 267.822 180.674 267.713 180.402 267.54C180.27 267.44 180.161 267.314 180.082 267.169C180.003 267.024 179.955 266.864 179.942 266.7C179.937 266.528 179.971 266.357 180.042 266.2C180.126 266.095 180.22 265.998 180.322 265.91Z" fill="#221F1F"/>
<path d="M197.662 312.15C197.576 311.949 197.562 311.724 197.625 311.514C197.687 311.304 197.82 311.122 198.002 311C198.209 310.842 198.457 310.749 198.717 310.731C198.976 310.713 199.235 310.772 199.462 310.9C200.03 311.224 200.549 311.628 201.002 312.1L201.142 312.24H201.202C201.202 312.24 201.202 312.24 201.312 312.17C202.184 311.596 202.966 310.895 203.632 310.09C203.946 309.693 204.308 309.336 204.712 309.03L205.092 308.72C205.252 308.6 205.462 308.43 205.652 308.31C206.011 308.07 206.422 307.919 206.852 307.87C207.253 307.825 207.655 307.94 207.972 308.19C208.287 308.444 208.508 308.796 208.602 309.19C208.663 309.426 208.706 309.667 208.732 309.91V310L208.642 309.93L208.262 309.68L207.882 309.43L207.692 309.31C207.692 309.02 207.512 311.49 207.582 310.44C207.596 310.391 207.596 310.339 207.582 310.29C207.541 310.22 207.508 310.146 207.482 310.07C207.452 309.973 207.412 309.879 207.362 309.79C207.323 309.696 207.276 309.606 207.222 309.52C207.122 309.34 207.162 309.4 207.162 309.39H207.262L207.872 309.01C209.399 308.019 211.063 307.257 212.812 306.75C213.29 306.623 213.778 306.543 214.272 306.51C214.531 306.495 214.792 306.495 215.052 306.51H215.662C216.406 306.543 217.152 306.483 217.882 306.33C218.7 306.129 219.467 305.757 220.132 305.24L222.312 303.51C222.432 303.41 222.552 303.26 222.712 303.23C223.162 303.13 223.632 303.61 223.712 304.23C223.712 304.37 223.782 304.57 223.712 304.61C223.142 305.09 223.252 306.17 222.592 306.61C221.932 307.05 221.362 307.51 220.652 307.95C219.925 308.411 219.128 308.749 218.292 308.95C217.637 309.103 216.963 309.157 216.292 309.11C215.886 309.089 215.482 309.042 215.082 308.97C214.786 308.906 214.484 308.876 214.182 308.88C213.033 308.994 211.918 309.334 210.902 309.88C210.502 310.07 210.092 310.3 209.662 310.55L208.252 311.4L208.062 311.5H207.982C207.866 311.543 207.745 311.567 207.622 311.57C207.622 311.77 207.062 311.06 206.802 310.8V310.68C206.802 310.63 206.802 310.56 206.722 310.55C206.67 310.532 206.613 310.532 206.562 310.55L206.352 310.72C205.592 311.44 204.622 312.14 203.752 312.84C203.302 313.178 202.824 313.476 202.322 313.73C202.192 313.801 202.059 313.865 201.922 313.92L201.332 314.11H201.052H200.912C200.912 314.11 200.852 314.16 200.852 314.06H200.782C200.598 314.041 200.424 313.968 200.282 313.85C200.136 313.737 200.002 313.609 199.882 313.47L199.642 313.22L199.292 312.84C199.119 312.654 198.928 312.487 198.722 312.34C198.626 312.262 198.518 312.201 198.402 312.16C198.381 312.119 198.354 312.082 198.322 312.05C198.252 311.9 198.052 311.82 197.662 312.15Z" fill="#221F1F"/>
<path d="M283.071 165.07C283.581 166.07 283.611 166.72 283.711 166.73C283.811 166.74 283.791 166.84 284.221 166.85C284.42 166.846 284.617 166.822 284.811 166.78L284.991 166.71L285.201 166.59C285.945 166.025 286.641 165.399 287.281 164.72C287.938 164.056 288.65 163.451 289.411 162.91C289.86 162.605 290.347 162.363 290.861 162.19C291.103 162.11 291.351 162.047 291.601 162L292.261 161.86C293.771 161.52 295.261 161.21 296.741 160.94C298.221 160.67 299.661 160.37 301.061 159.94C301.879 159.721 302.68 159.447 303.461 159.12C304.186 158.795 304.879 158.404 305.531 157.95C305.641 157.87 305.721 157.75 305.861 157.74C306.221 157.74 306.671 158.19 306.711 158.74C306.711 158.86 306.711 159.05 306.711 159.09C306.171 159.47 306.071 160.46 305.381 160.76C304.121 161.3 302.901 161.94 301.611 162.37C301.098 162.533 300.573 162.657 300.041 162.74C299.371 162.84 298.681 162.87 298.041 162.95L294.641 163.46C293.811 163.6 292.891 163.73 291.951 163.95C291.758 163.986 291.567 164.036 291.381 164.1C291.194 164.179 291.014 164.273 290.841 164.38C290.45 164.624 290.079 164.898 289.731 165.2C288.991 165.83 288.281 166.55 287.521 167.2C287.138 167.532 286.727 167.83 286.291 168.09C286.057 168.225 285.809 168.336 285.551 168.42L285.111 168.52H284.771C284.316 168.558 283.858 168.51 283.421 168.38C282.953 168.242 282.558 167.926 282.321 167.5C282.166 167.191 282.107 166.843 282.151 166.5C282.169 166.361 282.199 166.224 282.241 166.09C282.435 165.69 282.719 165.341 283.071 165.07Z" fill="#221F1F"/>
<path d="M285 176.5C285.182 176.909 285.389 177.306 285.62 177.69C285.688 177.849 285.745 178.013 285.79 178.18C285.809 178.301 285.836 178.422 285.87 178.54C285.876 178.604 285.896 178.665 285.93 178.72C286.09 178.72 286.08 178.72 286.24 178.6C286.564 178.362 286.863 178.091 287.13 177.79C287.809 177.001 288.544 176.263 289.33 175.58C289.585 175.387 289.856 175.217 290.14 175.07C290.458 174.919 290.794 174.808 291.14 174.74C291.768 174.624 292.412 174.624 293.04 174.74C294.19 174.98 295.04 175.37 295.81 175.42C296.9 175.56 298.26 174.69 299.62 173.75C300.381 173.201 301.203 172.742 302.07 172.38C302.929 172.042 303.816 171.778 304.72 171.59C305.72 171.36 306.72 171.24 307.72 171.05C308.72 170.86 309.52 170.65 310.37 170.44C310.52 170.44 310.65 170.34 310.81 170.39C311.048 170.484 311.241 170.666 311.349 170.899C311.457 171.132 311.472 171.397 311.39 171.64C311.39 171.77 311.34 171.98 311.27 172C310.57 172.26 310.17 173.32 309.36 173.47C307.941 173.705 306.541 174.039 305.17 174.47L303.64 174.85C302.996 174.976 302.367 175.163 301.76 175.41C301.42 175.52 300.42 176.28 298.76 177.08C298.312 177.295 297.847 177.472 297.37 177.61C296.786 177.763 296.179 177.807 295.58 177.74C294.566 177.552 293.564 177.305 292.58 177C292.212 176.92 291.833 176.903 291.46 176.95C291.309 176.977 291.161 177.021 291.02 177.08C290.856 177.161 290.699 177.254 290.55 177.36C289.893 177.885 289.269 178.45 288.68 179.05C288.387 179.339 288.076 179.609 287.75 179.86C287.591 179.985 287.424 180.098 287.25 180.2L286.98 180.35C286.9 180.35 286.74 180.43 286.63 180.47C286.31 180.593 285.965 180.635 285.625 180.593C285.285 180.552 284.96 180.427 284.68 180.23C284.499 180.067 284.359 179.866 284.27 179.64C284.23 179.419 284.213 179.194 284.22 178.97C284.203 178.804 284.203 178.636 284.22 178.47V178.26V177.94C284.373 177.41 284.639 176.918 285 176.5Z" fill="#221F1F"/>
<path d="M289.25 285.61C289.6 285.333 289.996 285.119 290.42 284.98C290.707 284.868 291.012 284.814 291.32 284.82C293.25 284.69 295.03 283.45 297.1 282.42C298.992 281.379 301.177 280.999 303.31 281.34L303.65 281.39H303.85C303.983 281.41 304.117 281.41 304.25 281.39C304.533 281.355 304.807 281.27 305.06 281.14C305.704 280.789 306.302 280.359 306.84 279.86C307.516 279.255 308.234 278.701 308.99 278.2C309.438 277.949 309.915 277.754 310.41 277.62C310.817 277.493 311.227 277.373 311.64 277.26C312.64 277.04 313.58 276.89 314.48 276.65C315.321 276.458 316.144 276.194 316.94 275.86C317.058 275.777 317.196 275.725 317.34 275.71C317.74 275.71 318.12 276.3 318.06 276.88C318.06 277.01 318.06 277.21 317.98 277.24C317.33 277.55 317.06 278.61 316.27 278.84C314.83 279.26 313.43 279.71 312.11 280.07C311.84 280.13 311.58 280.18 311.31 280.22L310.58 280.33C310.009 280.428 309.468 280.657 309 281C308.8 281.127 308.44 281.397 307.92 281.81C307.224 282.385 306.446 282.85 305.61 283.19C305.016 283.41 304.38 283.492 303.75 283.43L302.9 283.29C302.68 283.29 302.46 283.19 302.23 283.18C301.246 283.113 300.26 283.264 299.34 283.62C297.4 284.32 295.51 285.54 293.77 286.05C292.732 286.39 291.624 286.463 290.55 286.26C290.087 286.109 289.649 285.89 289.25 285.61Z" fill="#221F1F"/>
<path d="M292.859 296.28C293.388 296.15 293.903 295.973 294.399 295.75C294.939 295.55 295.399 294.83 295.959 294.25C296.239 293.93 296.509 293.6 296.829 293.25C297.006 293.06 297.193 292.88 297.389 292.71C297.509 292.6 297.64 292.502 297.779 292.42C297.9 292.342 298.027 292.275 298.159 292.22C298.57 291.999 299.012 291.84 299.469 291.75C300.034 291.64 300.618 291.685 301.159 291.88C301.595 292.061 302.003 292.303 302.369 292.6C302.606 292.782 302.865 292.933 303.139 293.05C304.145 293.295 305.205 293.186 306.139 292.74C307.29 292.279 308.406 291.738 309.479 291.12L311.479 290.01C312.142 289.591 312.854 289.255 313.599 289.01C313.727 288.948 313.867 288.913 314.009 288.91C314.409 288.97 314.609 289.45 314.509 289.91C314.509 290.01 314.509 290.18 314.429 290.2C313.899 290.4 313.829 291.33 313.329 291.59C312.361 292.111 311.426 292.692 310.529 293.33C310.14 293.567 309.732 293.771 309.309 293.94C308.759 294.16 308.179 294.32 307.599 294.5C307.409 294.57 307.029 294.7 306.499 294.86C305.82 295.062 305.118 295.18 304.409 295.21C303.422 295.253 302.444 295.002 301.599 294.49C301.169 294.22 300.819 293.94 300.599 293.82C300.385 293.696 300.132 293.657 299.889 293.71C299.542 293.771 299.205 293.882 298.889 294.04C298.76 294.082 298.641 294.15 298.539 294.24C298.419 294.33 298.279 294.47 298.149 294.59C297.609 295.13 297.079 295.71 296.529 296.18C296.015 296.573 295.427 296.859 294.799 297.02C294.471 297.104 294.127 297.104 293.799 297.02C293.414 296.882 293.084 296.622 292.859 296.28Z" fill="#221F1F"/>
<path d="M243.43 167.05C244.642 170.06 245.645 173.151 246.43 176.3C249.32 187.21 251.75 198.3 253.74 209.4C255.45 218.97 256.68 228.63 257.87 238.28C258.87 246.59 259.6 254.89 261.13 263.05C261.89 267.136 262.793 271.186 263.84 275.2C264.95 279.2 266.13 283.2 267.58 287.06C269.267 291.658 271.21 296.158 273.4 300.54C275.52 304.709 277.857 308.764 280.4 312.69C280.85 313.35 281.33 314.02 281.69 314.69C282.69 316.45 282.53 317.11 281.42 316.07C281.125 315.844 280.86 315.582 280.63 315.29C280.11 314.54 279.63 313.84 279.07 313.17L277.54 311.17C277.03 310.5 276.54 309.82 276 309.1C275.46 308.38 275 307.59 274.55 306.74C272.78 303.61 271.15 300.4 269.55 297.16C267.95 293.92 266.55 290.59 265.36 287.16C264.87 285.8 264.36 284.45 263.95 283.07C263.54 281.69 263.06 280.32 262.7 278.93L261.98 276.26L261.35 273.58C260.91 271.79 260.56 269.99 260.18 268.19C259.68 265.73 258.28 258.69 257.27 249.39C256.26 240.09 254.9 228.72 253.18 217.6C252.3 212.05 251.41 206.6 250.47 201.44C249.53 196.28 248.56 191.59 247.72 187.51C246.07 179.34 244.72 173.82 244.66 173.28C244.38 171.57 244 169.82 243.43 167.05Z" fill="#221F1F"/>
<path d="M281.76 340C277.67 341.48 273.54 343 269.33 344.2C265.12 345.4 260.9 346.57 256.64 347.56C253.53 348.29 250.42 349 247.28 349.56C241.74 350.56 236.16 351.34 230.55 351.8C224.937 352.29 219.297 352.39 213.67 352.1C208.66 351.88 203.68 351.211 198.79 350.1C195.656 349.351 192.599 348.31 189.66 346.99C186.692 345.667 183.949 343.889 181.53 341.72C180.02 340.36 180.63 340.16 182.24 340.81C182.712 340.997 183.173 341.21 183.62 341.45C184.16 341.68 184.75 341.94 185.37 342.26C185.99 342.58 186.67 342.91 187.37 343.26C188.07 343.61 188.82 344.03 189.62 344.39C191 345.11 192.46 345.67 193.91 346.26C195.36 346.85 196.91 347.26 198.41 347.67C201.466 348.495 204.577 349.1 207.72 349.48C210.89 349.874 214.077 350.108 217.27 350.18C220.47 350.28 223.69 350.24 226.92 350.08C234.822 349.612 242.676 348.529 250.41 346.84C258.98 345.128 267.426 342.842 275.69 340C280.77 338.23 285.82 336.33 290.87 334.43L313.78 325.78C319.68 323.55 325.43 321.27 331.3 319.13L335.16 317.72C340.03 316.06 341.65 315.72 342.87 315.95C343.144 315.979 343.415 316.032 343.68 316.11C344.27 316.39 342.38 317.33 338.86 318.61C328.43 322.43 317.47 326.61 306.45 330.8C298.27 333.92 290.05 337.06 281.79 340.11L281.76 340Z" fill="#221F1F"/>
<path d="M113.641 293.29C113.431 293.323 113.216 293.312 113.009 293.259C112.803 293.206 112.61 293.111 112.441 292.98C112.347 292.862 112.282 292.723 112.253 292.576C112.223 292.428 112.229 292.275 112.271 292.13C112.408 291.657 112.683 291.235 113.061 290.92C113.363 290.658 113.7 290.44 114.061 290.27C114.702 289.989 115.373 289.785 116.061 289.66C117.191 289.44 118.311 289.43 119.301 289.22C120.139 289.021 120.946 288.712 121.701 288.3L124.201 287.01C124.711 286.75 125.201 286.52 125.801 286.27L126.601 285.93L127.021 285.77L127.471 285.69C127.571 285.69 127.671 285.63 127.781 285.69C128.071 285.81 128.181 286.3 128.081 286.69C128.081 286.78 128.081 286.93 128.011 286.95C127.601 287.04 127.511 287.89 127.131 287.95C126.418 288.211 125.745 288.572 125.131 289.02C124.861 289.182 124.577 289.32 124.281 289.43C123.891 289.58 123.481 289.68 123.081 289.83C122.681 289.98 122.081 290.29 121.021 290.67C119.806 291.039 118.556 291.284 117.291 291.4C116.254 291.494 115.24 291.761 114.291 292.19C114.181 292.29 114.031 292.35 114.001 292.43L113.911 292.52C113.911 292.52 113.911 292.58 113.911 292.6C113.911 292.62 113.911 292.77 113.911 292.78C113.789 292.931 113.698 293.104 113.641 293.29Z" fill="#221F1F"/>
<path d="M120.23 299.31C119.51 298.5 119.53 298.15 119.66 298C120.089 297.508 120.617 297.112 121.21 296.84C121.69 296.649 122.185 296.498 122.69 296.39C123.53 296.15 124.35 295.94 125.17 295.77C125.41 295.71 125.66 295.68 125.89 295.62C126.114 295.552 126.335 295.472 126.55 295.38C126.55 295.38 126.62 295.31 126.67 295.38C126.84 295.686 126.926 296.03 126.92 296.38C126.92 296.47 126.92 296.62 126.92 296.62C126.75 296.68 126.73 297.38 126.54 297.39C126.19 297.475 125.853 297.61 125.54 297.79C125.411 297.845 125.271 297.872 125.13 297.87C124.95 297.87 124.76 297.82 124.59 297.87C123.797 297.986 123.019 298.191 122.27 298.48C121.849 298.628 121.443 298.819 121.06 299.05C120.77 299.24 120.62 299.37 120.6 299.38C120.58 299.39 120.41 299.32 120.23 299.31Z" fill="#221F1F"/>
<path d="M66.001 310.28L56.351 310.5C55.181 310.5 54.011 310.63 52.841 310.65L40.441 310.79C38.601 310.79 36.761 310.92 34.941 311.03C32.6154 311.263 30.2766 311.336 27.941 311.25C26.481 311.15 28.241 308.76 30.941 308.64C35.701 308.42 40.471 308.34 45.291 308.47C48.171 308.55 51.161 308.32 54.101 308.24L63.801 307.98L69.801 307.79C72.801 307.67 75.801 307.56 78.801 307.34C81.111 307.16 83.371 306.83 85.641 306.52L87.121 306.29C89.001 306.07 89.481 306.09 90.041 306.66C90.1688 306.779 90.289 306.906 90.401 307.04C90.721 307.48 90.011 308.04 88.571 308.4C84.3451 309.224 80.0628 309.725 75.761 309.9C72.521 310.1 69.271 310.21 66.031 310.34L66.001 310.28Z" fill="#221F1F"/>
<path d="M466.001 307.91L455.551 308.05C454.281 308.05 453.011 308.16 451.741 308.18L438.301 308.3C436.301 308.3 434.301 308.42 432.351 308.54C429.822 308.775 427.28 308.855 424.741 308.78C423.161 308.68 425.071 306.29 427.991 306.16C433.171 305.93 438.351 305.84 443.571 305.98C446.701 306.06 449.951 305.84 453.141 305.77L463.681 305.58L470.161 305.46C473.431 305.38 476.721 305.33 479.971 305.18C482.491 305.06 484.971 304.8 487.461 304.6C488.001 304.6 488.541 304.49 489.101 304.46C491.151 304.35 491.801 304.46 492.251 305.11C492.364 305.24 492.465 305.38 492.551 305.53C492.751 306.02 491.921 306.46 490.421 306.66C485.961 307.26 481.261 307.49 476.551 307.66L466.001 308V307.91Z" fill="#221F1F"/>
<path d="M111.111 159.78C106.111 160 102.681 167.33 103.631 171.78C103.921 173.1 106.821 172.35 106.531 171C106.279 169.188 106.597 167.343 107.441 165.72C108.011 164.43 109.191 161.98 110.841 161.91C112.491 161.84 113.081 159.73 111.111 159.81V159.78Z" fill="#221F1F"/>
<path d="M104.621 155.83C100.461 158.52 97.1315 162.76 96.4815 167.77C96.3415 168.77 99.2515 168.28 99.3715 167.37C99.6978 165.174 100.492 163.073 101.699 161.21C102.907 159.347 104.5 157.765 106.371 156.57C108.011 155.57 105.471 155.27 104.611 155.83H104.621Z" fill="#221F1F"/>
<path d="M347.869 109.59C351.239 109.28 353.869 113.19 354.159 116.17C354.259 117.35 357.159 116.68 357.049 115.39C356.669 111.05 352.589 107.25 348.179 107.66C346.629 107.8 345.879 109.77 347.869 109.59Z" fill="#221F1F"/>
<path d="M356.302 103.28C360.982 102.51 361.872 111.87 362.582 114.91C362.862 116.13 365.762 115.38 365.472 114.13C364.402 109.48 363.402 100.21 356.602 101.33C355.092 101.58 354.322 103.61 356.302 103.33V103.28Z" fill="#221F1F"/>
<path d="M292.411 361.32C290.21 360.924 287.94 361.229 285.921 362.19C283.881 363.26 282.157 364.846 280.921 366.79C279.981 368.267 279.206 369.843 278.611 371.49C278.351 372.23 278.101 372.97 277.871 373.72C277.641 374.47 277.451 375.23 277.321 376.01C277.191 376.79 277.011 377.56 276.941 378.35L276.811 379.47V379.92V380.15C276.811 380.22 276.811 380.35 276.871 380.34C277.023 380.335 277.173 380.314 277.321 380.28H277.551L277.931 380.2L279.141 379.91C280.751 379.53 282.391 379.19 284.051 378.91C287.001 378.421 289.994 378.247 292.981 378.39C294.92 378.5 296.84 378.835 298.701 379.39C300.583 379.95 302.346 380.852 303.901 382.05C304.901 382.83 304.271 383.26 303.111 383.26C301.5 383.223 299.905 382.923 298.391 382.37C295.015 381.282 291.455 380.877 287.921 381.18C286.096 381.299 284.279 381.526 282.481 381.86C281.571 382.02 280.661 382.2 279.741 382.4L278.361 382.7C277.577 382.921 276.773 383.065 275.961 383.13C275.59 383.132 275.225 383.039 274.901 382.86C274.831 382.81 274.721 382.75 274.691 382.66V382.34L274.631 381.69L274.511 380.42L274.441 379.79C274.415 379.587 274.415 379.382 274.441 379.18C274.511 378.58 274.571 377.98 274.641 377.38C274.711 376.78 274.831 376.18 274.931 375.58C275.355 373.168 276.074 370.817 277.071 368.58C278.182 366.073 279.803 363.826 281.831 361.98C283.918 360.096 286.553 358.929 289.351 358.65C289.776 358.598 290.203 358.572 290.631 358.57L291.901 358.65H292.531L293.151 358.76L294.391 359C296.021 359.426 297.576 360.101 299.001 361C301.12 362.416 302.86 364.328 304.071 366.57C305.256 368.753 306.067 371.119 306.471 373.57C306.551 374.17 306.661 374.76 306.721 375.35C306.781 375.94 306.821 376.26 306.831 376.57V377.03C306.831 377.09 306.831 377.22 306.891 377.21C306.972 377.187 307.049 377.153 307.121 377.11C307.421 376.96 307.701 376.83 307.981 376.72C309.272 376.291 310.621 376.059 311.981 376.03C312.854 375.998 313.728 376.052 314.591 376.19C315.73 376.362 316.826 376.749 317.821 377.33C318.307 377.602 318.666 378.055 318.821 378.59C318.899 378.793 318.953 379.004 318.981 379.22C318.981 379.86 317.711 379.58 315.761 379.09C314.069 378.66 312.308 378.572 310.581 378.83C310.156 378.899 309.735 378.993 309.321 379.11L308.681 379.3C308.215 379.448 307.758 379.622 307.311 379.82C307 380.036 306.637 380.166 306.259 380.195C305.881 380.225 305.502 380.154 305.161 379.99C305.112 379.927 305.069 379.86 305.031 379.79C304.871 380.02 304.981 379.86 304.951 379.91V379.86V379.81L304.901 379.7L304.681 379.26L304.241 378.38C304.241 377.69 304.241 376.95 304.171 376.27C304.171 375.84 304.171 375.59 304.081 375.27C303.981 374.62 303.911 373.97 303.761 373.33C303.5 372.053 303.118 370.804 302.621 369.6C301.742 367.476 300.371 365.591 298.621 364.1C296.861 362.669 294.746 361.742 292.501 361.42L292.411 361.32Z" fill="#221F1F"/>
<path d="M321.41 375.86C321.498 375.308 321.614 374.76 321.76 374.22C321.9 373.68 321.99 373.13 322.18 372.59C322.518 371.507 322.936 370.451 323.43 369.43C324.393 367.309 325.826 365.436 327.62 363.95C327.925 363.659 328.261 363.401 328.62 363.18L329.71 362.47L331 362L331.61 361.75C331.816 361.685 332.026 361.635 332.24 361.6C335.184 360.964 338.255 361.316 340.98 362.6C342.289 363.173 343.544 363.863 344.73 364.66C345.936 365.512 346.988 366.563 347.84 367.77C349.276 369.863 350.316 372.202 350.91 374.67C351.741 377.73 352.005 380.915 351.69 384.07C351.57 385.07 350.88 384.87 350.24 384.07C349.373 382.883 348.873 381.468 348.8 380C348.35 374.11 346.74 368.15 341.39 365.47C341.008 365.251 340.614 365.054 340.21 364.88C339.821 364.674 339.417 364.5 339 364.36C338.172 364.072 337.312 363.884 336.44 363.8C335.583 363.69 334.716 363.69 333.86 363.8L332.61 364.09C332.2 364.19 331.82 364.41 331.42 364.55C329.691 365.381 328.203 366.641 327.1 368.21C325.98 369.873 325.129 371.702 324.58 373.63C324.291 374.699 324.068 375.784 323.91 376.88C323.85 377.43 323.73 377.97 323.7 378.53L323.62 379.84C323.62 380 323.56 380.18 323.62 380.33C323.68 380.48 324.09 380.48 324.34 380.48H324.8L325.53 380.41C326.53 380.31 327.53 380.22 328.53 380.16C333.643 379.906 338.764 380.47 343.7 381.83C344.35 382.03 345 382.18 345.64 382.43C348.04 383.31 348.64 383.87 348.87 384.73C348.929 384.922 348.966 385.12 348.98 385.32C348.98 385.93 347.86 385.87 346.17 385.32C341.084 383.568 335.739 382.689 330.36 382.72C328.99 382.72 327.63 382.85 326.22 383L325.14 383.11H324.8H324.27C323.937 383.138 323.602 383.138 323.27 383.11C322.647 383.088 322.052 382.847 321.59 382.43C321.385 382.227 321.222 381.985 321.11 381.72C321.027 381.422 320.967 381.117 320.93 380.81L321.07 377.94L321.36 375.77L321.41 375.86Z" fill="#221F1F"/>
<path d="M277.362 384.07C277.232 384.137 277.099 384.197 276.962 384.25L276.652 384.39L276.032 384.66L274.792 385.2L272.312 386.25L267.312 388.34C266.102 388.85 264.922 389.42 263.702 389.91C259.392 391.61 255.062 393.24 250.622 394.68C249.622 394.99 248.622 395.31 247.622 395.61C247.112 395.76 246.622 395.89 246.082 396.02C245.527 396.162 244.962 396.262 244.392 396.32C244.016 396.392 243.628 396.367 243.264 396.249C242.901 396.13 242.573 395.92 242.312 395.64C242.182 395.48 242.072 395.31 241.952 395.14C241.85 394.975 241.757 394.805 241.672 394.63C241.531 394.338 241.417 394.033 241.332 393.72C241.161 393.118 241.077 392.495 241.082 391.87C241.102 390.699 241.364 389.544 241.852 388.48C242.222 387.68 242.852 388.08 243.232 388.92C243.689 389.919 243.957 390.994 244.022 392.09C244.026 392.429 244.076 392.765 244.172 393.09C244.215 393.229 244.265 393.366 244.322 393.5C244.777 393.454 245.228 393.377 245.672 393.27C246.672 393.06 247.672 392.77 248.672 392.47C250.672 391.87 252.782 391.2 254.872 390.54C257.872 389.54 260.942 388.17 263.972 386.91C267.292 385.53 270.622 384.13 273.922 382.68L276.992 381.32C278.064 380.882 279.167 380.525 280.292 380.25C283.672 379.456 287.162 379.247 290.612 379.63C293.253 379.85 295.864 380.346 298.402 381.11C298.952 381.29 299.512 381.45 300.062 381.65C302.062 382.48 302.612 382.99 302.712 383.81C302.726 383.996 302.726 384.184 302.712 384.37C302.642 384.94 301.712 384.98 300.242 384.48C295.984 382.932 291.493 382.124 286.962 382.09C285.283 382.099 283.608 382.273 281.962 382.61C280.345 382.92 278.773 383.43 277.282 384.13L277.362 384.07Z" fill="#221F1F"/>
<path d="M346.512 389.69L345.252 390.23L344.532 390.54L343.102 391.18C342.102 391.62 341.202 392.07 340.252 392.53C338.352 393.456 336.469 394.413 334.602 395.4C333.232 396.12 331.902 396.92 330.532 397.64C325.712 400.2 320.902 402.8 316.032 405.33C313.852 406.44 311.722 407.62 309.422 408.62C309.042 408.78 308.682 408.93 308.242 409.07C307.685 409.272 307.092 409.353 306.502 409.31C306.221 409.248 305.958 409.127 305.728 408.955C305.499 408.782 305.309 408.562 305.172 408.31C305.012 408.054 304.872 407.786 304.752 407.51C304.654 407.283 304.574 407.049 304.512 406.81C304.098 405.085 304.274 403.272 305.012 401.66C305.432 400.71 306.012 401.14 306.392 402.09C306.801 403.261 307.092 404.471 307.262 405.7C307.281 405.829 307.311 405.956 307.352 406.08C307.346 406.136 307.346 406.193 307.352 406.25V406.36H307.412L307.892 406.2C309.212 405.71 310.632 405.04 312.022 404.36L320.482 400.15C323.902 398.47 327.292 396.4 330.722 394.55C334.502 392.55 338.322 390.55 342.242 388.7L344.192 387.83L345.192 387.45L346.102 387.12L346.332 387.05C346.372 387.036 346.409 387.016 346.442 386.99C346.449 386.974 346.453 386.957 346.453 386.94C346.453 386.923 346.449 386.905 346.442 386.89C346.322 386.799 346.191 386.725 346.052 386.67C345.574 386.481 345.087 386.317 344.592 386.18L344.202 386.07L343.522 385.9L342.072 385.57C340.142 385.16 338.192 384.82 336.252 384.57C333.264 384.229 330.25 384.179 327.252 384.42C326.602 384.47 325.982 384.57 325.342 384.65C322.972 384.97 322.292 385.07 321.572 384.54C321.398 384.439 321.234 384.321 321.082 384.19C320.642 383.79 321.512 382.89 323.422 382.39C326.259 381.732 329.174 381.476 332.082 381.63C335.015 381.759 337.935 382.093 340.822 382.63C341.822 382.8 342.742 383 343.692 383.22L345.452 383.64C346.372 383.88 347.272 384.14 348.092 384.43C348.798 384.633 349.457 384.973 350.032 385.43C350.356 385.718 350.577 386.104 350.662 386.53C350.679 386.659 350.679 386.79 350.662 386.92C350.669 386.99 350.669 387.06 350.662 387.13C350.649 387.281 350.605 387.427 350.532 387.56L350.412 387.81L350.122 388.12C350.03 388.234 349.922 388.335 349.802 388.42L349.232 388.71C348.232 389.05 347.382 389.4 346.512 389.77V389.69Z" fill="#221F1F"/>
<path opacity="0.2" d="M159.27 205.19C159.27 205.19 169.27 232.43 169.27 237.19C169.27 241.95 172.2 230.29 199.72 228.4C199.72 228.4 211.45 227.66 213.5 224.6C215.55 221.54 208.22 195.77 208.22 195.77C200.72 197.57 172.34 193 159.27 205.19Z" fill="#221F1F"/>
<path opacity="0.2" d="M279.551 245.68C279.551 245.68 284.681 268.55 286.121 268.14C287.561 267.73 290.761 265.66 301.121 264.8C311.481 263.94 313.701 259.4 313.701 259.4L309.001 238.2C308.161 235.7 293.471 242.68 291.541 243.44C287.721 244.934 283.653 245.694 279.551 245.68Z" fill="#221F1F"/>
<path opacity="0.2" d="M277 379.34C277 379.34 279.43 363.66 287.36 362.65C295.29 361.64 300.36 366 301.89 380.25C301.89 380.25 295.71 377.14 289.44 377.43C285.245 377.697 281.082 378.336 277 379.34Z" fill="#221F1F"/>
<path opacity="0.2" d="M323.691 380.62C323.691 380.62 324.981 365.27 335.351 365.27C341.961 365.27 346.241 370.27 347.531 382.47C347.531 382.47 341.471 379.13 335.201 379.18C331.326 379.268 327.469 379.75 323.691 380.62Z" fill="#221F1F"/>
<path d="M183.853 214.18C185.16 212.151 186.317 210.028 187.313 207.83C187.413 207.56 187.493 207.3 187.563 207.05C187.599 206.929 187.626 206.805 187.643 206.68V206.47C187.643 206.38 187.643 206.18 187.513 206.17C187.454 206.15 187.391 206.15 187.333 206.17C187.211 206.236 187.1 206.321 187.003 206.42C186.583 206.808 186.192 207.225 185.833 207.67C184.723 209.01 183.743 210.53 182.663 211.99C181.715 213.316 180.694 214.588 179.603 215.8C179.031 216.441 178.39 217.018 177.693 217.52C177.305 217.791 176.885 218.013 176.443 218.18C175.861 218.389 175.229 218.413 174.633 218.25C174.49 218.204 174.353 218.144 174.223 218.07C174.08 218.02 173.952 217.934 173.853 217.82C173.648 217.601 173.512 217.326 173.463 217.03C173.418 216.725 173.418 216.415 173.463 216.11L173.583 215.66C173.613 215.548 173.65 215.438 173.693 215.33C173.999 214.552 174.367 213.799 174.793 213.08C175.583 211.66 176.423 210.31 177.203 208.94C177.914 207.763 178.51 206.521 178.983 205.23C179.203 204.692 179.282 204.107 179.213 203.53C179.155 203.368 179.037 203.236 178.883 203.16C178.692 203.09 178.483 203.09 178.293 203.16C177.531 203.396 176.83 203.8 176.243 204.34C175.58 204.894 174.961 205.499 174.393 206.15C173.22 207.414 172.228 208.834 171.443 210.37C171.233 210.84 171.103 211.02 170.943 210.98C170.783 210.94 170.653 210.63 170.633 210.09C170.724 208.361 171.381 206.709 172.503 205.39C173.112 204.628 173.781 203.916 174.503 203.26C175.285 202.537 176.185 201.952 177.163 201.53C177.832 201.231 178.583 201.167 179.293 201.35C179.732 201.473 180.125 201.724 180.423 202.07L180.623 202.31L180.793 202.59C180.921 202.792 181 203.022 181.023 203.26C181.118 203.884 181.081 204.521 180.913 205.13C180.784 205.635 180.617 206.13 180.413 206.61C179.627 208.336 178.725 210.006 177.713 211.61C177.233 212.4 176.713 213.18 176.313 213.97C176.083 214.36 175.873 214.75 175.673 215.13C175.583 215.33 175.483 215.52 175.403 215.71C175.323 215.9 175.323 215.9 175.293 215.99L175.213 216.18C175.213 216.32 175.103 216.52 175.273 216.59C175.349 216.606 175.427 216.606 175.503 216.59C175.549 216.596 175.596 216.596 175.643 216.59C175.736 216.572 175.827 216.542 175.913 216.5C176.811 216.031 177.603 215.385 178.243 214.6C179.69 212.883 181.048 211.094 182.313 209.24C183.053 208.24 183.793 207.24 184.643 206.24C185.078 205.708 185.568 205.222 186.103 204.79C186.485 204.489 186.924 204.268 187.393 204.14C187.836 204.058 188.294 204.128 188.693 204.34C188.988 204.689 189.198 205.102 189.309 205.546C189.42 205.989 189.428 206.453 189.333 206.9C189.221 207.586 189.029 208.257 188.763 208.9C188.265 210.081 187.694 211.23 187.053 212.34C186.293 213.69 185.503 215.01 184.773 216.34C184.405 216.989 184.072 217.656 183.773 218.34C183.643 218.666 183.532 219 183.443 219.34C183.398 219.534 183.398 219.736 183.443 219.93C183.753 220.48 184.523 220.33 185.443 219.66C186.306 218.962 187.082 218.163 187.753 217.28C189.193 215.5 190.473 213.56 191.883 211.7C192.443 210.98 193.003 210.26 193.643 209.57C194.292 208.82 195.089 208.21 195.983 207.78C196.537 207.541 197.15 207.475 197.743 207.59L198.163 207.73L198.463 207.81C198.844 207.93 199.174 208.172 199.403 208.5C199.73 209.072 199.84 209.743 199.713 210.39C199.651 210.871 199.548 211.346 199.403 211.81L198.743 214.06C198.333 215.42 198.173 216.25 198.043 216.81C197.965 217.241 197.816 217.657 197.603 218.04C197.503 218.21 197.463 218.42 197.373 218.56C197.283 218.7 196.903 218.71 196.563 218.12C196.164 217.243 196.055 216.262 196.253 215.32C196.523 213.6 197.153 212.03 197.473 210.6C197.545 210.315 197.582 210.023 197.583 209.73C197.592 209.697 197.592 209.663 197.583 209.63L197.803 209.55C198.053 209.44 197.953 209.43 197.873 209.6C197.793 209.77 197.753 209.92 197.693 209.85H197.613L197.323 209.75C197.293 209.757 197.262 209.757 197.233 209.75H197.143C196.963 209.763 196.788 209.818 196.633 209.91C196.064 210.241 195.554 210.663 195.123 211.16C194.586 211.728 194.082 212.325 193.613 212.95C192.613 214.23 191.693 215.61 190.683 216.95C189.921 217.996 189.1 218.998 188.223 219.95C187.738 220.482 187.198 220.961 186.613 221.38C186.453 221.5 186.286 221.61 186.113 221.71C185.932 221.821 185.741 221.915 185.543 221.99C185.333 222.092 185.111 222.169 184.883 222.22C184.725 222.26 184.564 222.29 184.403 222.31H184.003H183.553C183.413 222.31 183.273 222.22 183.133 222.18L182.723 222.05L182.343 221.84C182.223 221.77 182.093 221.7 181.983 221.62L181.783 221.25C181.641 221.002 181.543 220.731 181.493 220.45C181.453 220.154 181.453 219.855 181.493 219.56C181.517 219.279 181.568 219.001 181.643 218.73C181.745 218.39 181.865 218.056 182.003 217.73C182.533 216.531 183.141 215.369 183.823 214.25L183.853 214.18Z" fill="#221F1F"/>
<path d="M295.649 257.18L294.379 253.68C294.159 253.12 293.939 252.56 293.699 252.03C293.595 251.764 293.471 251.507 293.329 251.26C293.279 251.16 293.159 251.07 293.059 251.15C292.988 251.23 292.931 251.321 292.889 251.42L292.829 251.56C292.829 251.7 292.749 251.83 292.699 252.02C292.649 252.21 292.639 252.33 292.609 252.45C292.579 252.57 292.609 252.77 292.609 252.92C292.609 253.62 292.739 254.41 292.819 255.21C292.946 256.077 292.966 256.957 292.879 257.83C292.825 258.101 292.741 258.366 292.629 258.62L292.399 259.02C292.299 259.13 292.179 259.23 292.069 259.34C291.958 259.447 291.82 259.523 291.669 259.56C291.529 259.56 291.399 259.71 291.239 259.69H290.789H290.569H290.399L289.779 259.56C289.561 259.479 289.347 259.385 289.139 259.28C288.757 259.043 288.419 258.742 288.139 258.39C287.704 257.754 287.366 257.056 287.139 256.32C286.633 254.585 286.216 252.826 285.889 251.05C285.749 250.59 286.009 250.46 286.509 250.79C287.18 251.357 287.664 252.113 287.899 252.96C288.169 253.84 288.419 254.71 288.729 255.5C288.924 256.227 289.265 256.907 289.729 257.5C289.819 257.63 289.919 257.66 290.009 257.74C290.099 257.82 290.129 257.83 290.309 257.85L290.679 257.93H290.779C290.779 257.93 290.849 257.93 290.869 257.93C290.879 257.901 290.879 257.869 290.869 257.84C290.876 257.783 290.876 257.726 290.869 257.67C290.911 257.288 290.911 256.902 290.869 256.52C290.819 255.52 290.549 254.38 290.469 253.11C290.435 252.754 290.435 252.396 290.469 252.04C290.52 251.703 290.59 251.369 290.679 251.04C290.838 250.182 291.262 249.395 291.889 248.79C292.056 248.654 292.252 248.558 292.462 248.509C292.671 248.461 292.89 248.461 293.099 248.51C293.518 248.625 293.894 248.862 294.179 249.19C294.507 249.557 294.789 249.964 295.019 250.4C295.149 250.63 295.209 250.77 295.279 250.92L295.489 251.37C296.019 252.55 296.489 253.74 296.889 254.91C297.159 255.63 297.429 256.34 297.709 257.04C297.849 257.39 297.999 257.73 298.159 258.04C298.233 258.227 298.334 258.402 298.459 258.56C298.505 258.623 298.573 258.666 298.649 258.68C298.729 258.68 298.779 258.62 298.839 258.59C298.899 258.56 299.149 258.51 299.249 258.4L299.479 258.23C299.557 258.147 299.631 258.06 299.699 257.97C299.853 257.781 299.981 257.573 300.079 257.35C300.499 256.34 300.756 255.27 300.839 254.18C301.049 252.42 300.959 250.64 301.219 248.8C301.269 248.392 301.343 247.988 301.439 247.59C301.549 247.036 301.766 246.509 302.079 246.04C302.28 245.789 302.571 245.627 302.889 245.59C303.022 245.576 303.156 245.576 303.289 245.59C303.679 245.66 303.719 246.31 303.589 247.27C303.389 248.72 303.399 250.27 303.249 251.91C303.173 253.67 302.926 255.418 302.509 257.13C302.287 257.908 301.932 258.643 301.459 259.3C301.309 259.48 301.179 259.66 301.009 259.83L300.719 260.06L300.339 260.34C300.072 260.499 299.791 260.633 299.499 260.74C299.236 260.867 298.966 260.977 298.689 261.07C298.443 261.093 298.195 261.066 297.959 260.99C297.702 260.899 297.464 260.76 297.259 260.58C296.84 260.158 296.501 259.663 296.259 259.12C295.929 258.46 295.699 257.88 295.459 257.28L295.649 257.18Z" fill="#221F1F"/>
<path d="M285.451 372.82C285.241 372.34 285.291 372.17 285.391 372.06L286.451 370.93C286.761 370.62 287.111 370.33 287.451 370.02L288.311 369.22C288.597 368.946 288.905 368.695 289.231 368.47C289.421 368.33 289.631 368.22 289.831 368.09C290.031 367.96 290.211 367.85 290.411 367.74C290.411 367.74 290.481 367.69 290.521 367.69C290.561 367.69 290.731 367.84 290.741 368C290.751 368.16 290.741 368.09 290.741 368.1C290.741 368.11 290.611 368.47 290.471 368.57C290.218 368.768 289.989 368.997 289.791 369.25C289.706 369.343 289.609 369.424 289.501 369.49C289.361 369.58 289.211 369.65 289.071 369.75C288.471 370.244 287.897 370.768 287.351 371.32C286.611 372.05 285.841 372.72 285.791 372.74C285.681 372.78 285.567 372.807 285.451 372.82Z" fill="#221F1F"/>
<path d="M289.2 372.81C289.04 372.38 289.09 372.24 289.2 372.16C289.49 371.89 289.79 371.63 290.1 371.39C290.41 371.15 290.66 371.02 290.94 370.82L292.34 369.82L292.77 369.53L293.16 369.23C293.16 369.23 293.16 369.18 293.23 369.23C293.3 369.28 293.45 369.38 293.5 369.54C293.55 369.7 293.5 369.63 293.5 369.64C293.5 369.65 293.5 370 293.36 370.08C293.168 370.24 292.987 370.414 292.82 370.6C292.749 370.668 292.668 370.725 292.58 370.77L292.22 370.94C291.92 371.11 289.53 372.82 289.46 372.85C289.372 372.845 289.285 372.832 289.2 372.81Z" fill="#221F1F"/>
<path d="M330.472 373C330.352 372.58 330.472 372.4 330.582 372.28C331.032 371.87 331.482 371.47 331.952 371.08C332.422 370.69 332.792 370.46 333.212 370.15C333.933 369.591 334.688 369.077 335.472 368.61L336.182 368.23L336.902 367.93C336.952 367.93 336.982 367.93 337.032 367.93C337.108 367.966 337.17 368.028 337.206 368.104C337.242 368.181 337.252 368.267 337.232 368.35C337.052 368.45 337.042 368.76 336.872 368.88C336.702 369 336.262 369.33 335.972 369.57C335.852 369.66 335.722 369.73 335.592 369.81C335.462 369.89 335.222 369.95 335.052 370.04C334.271 370.494 333.517 370.991 332.792 371.53C331.792 372.23 330.872 372.91 330.792 372.94C330.687 372.968 330.58 372.988 330.472 373Z" fill="#221F1F"/>
<path d="M332.492 374.14C332.559 373.927 332.683 373.736 332.852 373.59C333.392 373.06 333.942 372.59 334.512 372.07C335.082 371.55 335.512 371.27 336.052 370.89C336.945 370.216 337.9 369.627 338.902 369.13C339.202 368.98 339.512 368.85 339.812 368.72C340.105 368.588 340.41 368.485 340.722 368.41H340.882C340.912 368.408 340.941 368.415 340.968 368.43C340.994 368.444 341.015 368.466 341.03 368.491C341.044 368.517 341.051 368.547 341.05 368.577C341.049 368.606 341.039 368.635 341.022 368.66C341.029 368.686 341.029 368.714 341.022 368.74C340.792 368.81 340.672 369.06 340.442 369.15C340.005 369.308 339.583 369.505 339.182 369.74L338.692 369.99C338.472 370.09 338.252 370.17 338.032 370.28C337.05 370.807 336.108 371.406 335.212 372.07C334.012 372.94 332.942 373.88 332.882 373.92C332.757 374.001 332.626 374.074 332.492 374.14Z" fill="#221F1F"/>
</svg>
