<svg viewBox="0 0 79 73" fill="none" xmlns="http://www.w3.org/2000/svg">
<path d="M68.2901 41.2142L68.9201 40.3942C69.1758 40.0771 69.4097 39.743 69.6201 39.3942C70.0224 38.7186 70.3574 38.0052 70.6201 37.2642C70.7637 36.4998 70.749 35.7141 70.577 34.9556C70.405 34.1971 70.0793 33.4819 69.6201 32.8542C69.1499 32.1943 68.6247 31.5755 68.0501 31.0042C67.7801 30.7342 67.6401 30.6142 67.4401 30.4242L66.8701 29.9342C66.1101 29.2942 65.3601 28.7242 64.6001 28.1742C61.6001 26.0142 58.6001 24.1742 55.6001 22.2942C53.4301 20.9342 51.3701 19.4542 49.2801 18.0942C47.4301 16.8842 45.6101 15.6542 43.9701 14.3542C43.5601 14.0342 43.1701 13.7042 42.8001 13.3542L42.2601 12.8542L41.9001 12.5042C41.5941 12.2488 41.3857 11.8955 41.3101 11.5042C41.3101 11.0542 41.7101 10.8042 42.0801 10.6142L42.2301 10.5342L42.4401 10.4342L43.1401 10.1242C43.5901 9.91417 44.1401 9.71417 44.6001 9.51417C46.6001 8.72417 48.7101 8.02417 50.8401 7.41417C54.6198 6.34754 58.4788 5.58511 62.3801 5.13417C64.8601 4.83417 67.3801 4.54417 69.8401 4.36417L73.5901 4.10417C74.2174 4.08155 74.8422 4.01471 75.4601 3.90417C76.0901 3.82417 76.7201 3.77417 77.3501 3.70417C78.9301 3.51417 78.7801 3.11417 77.4801 2.32417C76.589 1.78456 75.6637 1.30354 74.7101 0.88417C73.3985 0.383666 72.0131 0.103225 70.6101 0.0541704C67.906 -0.0537823 65.1979 -0.000354275 62.5001 0.21417C59.8139 0.494074 57.1437 0.911287 54.5001 1.46417C51.8604 1.99428 49.2502 2.66186 46.6801 3.46417C45.3901 3.87417 44.1001 4.31417 42.8201 4.82417L41.8201 5.20417L40.8201 5.64417C39.9072 6.05854 39.0161 6.51913 38.1501 7.02417C37.0578 7.66634 36.25 8.69927 35.8901 9.91417C35.5974 11.1551 35.7681 12.4602 36.3701 13.5842C36.6952 14.1615 37.0736 14.7072 37.5001 15.2142C37.7001 15.4742 37.9301 15.7442 38.1401 15.9842L38.6301 16.5042C39.2701 17.1642 39.9201 17.7542 40.5701 18.3142C43.0911 20.4401 45.7393 22.4105 48.5001 24.2142L57.4001 30.0042C58.8501 31.0042 60.2801 31.9442 61.6101 33.0042C62.2801 33.5142 62.9201 34.0042 63.5001 34.5642L63.9001 34.9242L64.1101 35.1242C64.2475 35.2683 64.3744 35.4221 64.4901 35.5842C64.6495 35.7812 64.7281 36.0314 64.7101 36.2842C64.627 36.5185 64.5126 36.7405 64.3701 36.9442L64.1601 37.2342L63.9901 37.4642L63.7601 37.7342C63.4201 38.0842 63.1201 38.4542 62.7601 38.7942C61.2799 40.1928 59.6654 41.4422 57.9401 42.5242C52.461 45.8948 46.6083 48.6165 40.5001 50.6342C35.7606 52.1527 30.9313 53.3751 26.0401 54.2942C24.9701 54.5142 23.9001 54.6642 22.8301 54.9042C21.4164 55.2831 20.0679 55.8731 18.8301 56.6542C18.1372 57.2003 17.6249 57.9426 17.3601 58.7842C17.221 59.1263 17.1041 59.477 17.0101 59.8342C16.9401 60.3842 17.3501 60.7542 18.2101 61.0742C19.3941 61.5009 20.6553 61.6713 21.9101 61.5742L23.6601 61.4942H24.5301L25.3901 61.3542C26.5301 61.1542 27.6701 60.9342 28.8201 60.6842C31.1001 60.1942 33.3901 59.6042 35.6801 58.9342C40.3349 57.559 44.8975 55.889 49.3401 53.9342C52.7429 52.4628 56.0436 50.7657 59.2201 48.8542C60.8655 47.8571 62.4515 46.7653 63.9701 45.5842C65.5979 44.3383 67.0925 42.9275 68.4301 41.3742L68.2901 41.2142Z" fill="#231F20"/>
<path d="M10.5001 63.5142C9.68007 63.2275 8.87007 62.8942 8.07007 62.5142L7.76007 62.3842L7.61007 62.3142H7.55007H7.41007C7.2978 62.3032 7.18711 62.2797 7.08007 62.2442C6.96313 62.2198 6.84914 62.1829 6.74006 62.1342C6.68359 62.122 6.63163 62.0943 6.59006 62.0542C6.59006 62.0542 6.59006 61.9542 6.59006 61.9142C6.65442 61.8403 6.70521 61.7557 6.74006 61.6642C6.7906 61.4883 6.85757 61.3175 6.94007 61.1542C6.94007 61.1542 6.99006 61.0442 7.02006 60.9942L7.14007 60.8342L7.31006 60.6142L7.99006 59.7642L10.8001 56.3142C11.6401 55.3142 12.5901 54.3842 13.5301 53.4542C14.1824 52.8979 14.7635 52.2631 15.2601 51.5642C15.7645 50.817 16.2092 50.0313 16.5901 49.2142C16.8001 48.6542 16.3501 48.4942 15.5901 48.4842C15.1684 48.4831 14.7473 48.5131 14.3301 48.5742C13.8321 48.6123 13.3431 48.727 12.8801 48.9142C12.4833 49.0739 12.1046 49.275 11.7501 49.5142L10.7501 50.2942C10.1101 50.8142 9.46007 51.3542 8.83007 51.9142C7.5223 53.0273 6.3205 54.2592 5.24006 55.5942C4.92823 56.018 4.59444 56.4252 4.24006 56.8142L3.68007 57.3842L2.78007 58.2542C2.15538 58.8694 1.57084 59.524 1.03007 60.2142C0.55777 60.8018 0.216791 61.4837 0.0300655 62.2142C-0.0105387 62.5128 -0.0105387 62.8155 0.0300655 63.1142C0.076423 63.4232 0.22416 63.7082 0.450064 63.9242L0.990065 64.6342C1.23006 64.8542 1.54006 65.0642 1.81006 65.2842C2.75006 65.8742 3.81007 66.3942 4.71007 66.9142L5.29007 67.1842L5.78007 67.4142C6.10007 67.5642 6.44007 67.7042 6.78007 67.8442C8.15007 68.4442 9.56007 68.9342 10.9601 69.4242C13.1025 70.1161 15.287 70.6705 17.5001 71.0842C19.2603 71.5312 21.0472 71.8653 22.8501 72.0842C23.2664 72.1091 23.6838 72.1091 24.1001 72.0842C24.3898 72.0992 24.6795 72.0545 24.9513 71.953C25.223 71.8516 25.4711 71.6954 25.6801 71.4942C25.9884 71.0368 26.1035 70.476 26.0001 69.9342C25.9908 69.5993 25.9608 69.2653 25.9101 68.9342C25.8442 68.4591 25.6375 68.0147 25.3167 67.6582C24.9959 67.3017 24.5756 67.0495 24.1101 66.9342C22.8201 66.6342 21.6201 66.4742 20.3501 66.1942C19.0801 65.9142 17.7901 65.6942 16.4701 65.3442C14.4455 64.843 12.4602 64.1946 10.5301 63.4042L10.5001 63.5142Z" fill="#231F20"/>
</svg>
