<svg  viewBox="0 0 135 114" fill="none" xmlns="http://www.w3.org/2000/svg">
<path d="M107.118 43.2211C107.166 43.7618 107.031 44.3031 106.734 44.7575C106.799 44.6768 106.645 44.8459 106.638 44.8612C106.695 44.7575 106.638 44.8382 106.699 44.8266C106.914 44.7806 106.991 44.8727 107.183 44.9035L107.214 44.9534C107.182 44.907 107.154 44.8582 107.129 44.8074C107.103 44.7623 107.081 44.7147 107.064 44.6653C107.029 44.5808 107.022 44.4771 106.979 44.3964C106.937 44.3158 106.979 44.5885 106.979 44.4809C107.002 44.262 106.979 44.0354 106.979 43.8164L107.022 43.609C107.022 43.7089 107.022 43.6782 107.022 43.609C107.049 43.4631 107.075 43.3171 107.114 43.1711C107.143 43.0498 107.181 42.9305 107.225 42.8139C107.171 42.9714 107.267 42.6948 107.225 42.8139C107.225 42.7755 107.279 42.7409 107.294 42.7025C107.248 42.8446 107.264 42.764 107.202 42.8062C107.12 42.863 107.027 42.9019 106.929 42.9205C106.831 42.939 106.731 42.9367 106.634 42.9138C106.515 42.9138 106.422 42.7563 106.595 42.9637C106.777 43.1406 107.021 43.2396 107.275 43.2396C107.529 43.2396 107.773 43.1406 107.955 42.9637C108.13 42.7807 108.228 42.5371 108.228 42.2838C108.228 42.0305 108.13 41.787 107.955 41.604C107.79 41.3729 107.561 41.1957 107.296 41.0946C107.031 40.9934 106.741 40.9729 106.465 41.0355C106.214 41.1341 105.989 41.2894 105.809 41.4894C105.628 41.6893 105.496 41.9284 105.424 42.1878C105.077 43.0389 104.969 43.9687 105.113 44.8766C105.355 46.0635 106.457 47.3003 107.709 46.4783C108.677 45.8445 109.134 44.3503 109.038 43.2479C109.033 42.9948 108.931 42.7534 108.752 42.5744C108.573 42.3953 108.331 42.2926 108.078 42.2877C107.824 42.2897 107.581 42.3915 107.401 42.5712C107.222 42.7508 107.12 42.9939 107.118 43.2479V43.2211Z" fill="#231F20"/>
<path d="M58.1177 29.2211C58.1659 29.7618 58.0306 30.3031 57.7336 30.7575C57.7989 30.6768 57.6452 30.8459 57.6376 30.8612C57.6952 30.7575 57.6376 30.8382 57.699 30.8266C57.9141 30.7806 57.9909 30.8727 58.183 30.9035L58.2137 30.9534C58.1819 30.907 58.1536 30.8582 58.1292 30.8074C58.1029 30.7623 58.081 30.7147 58.0639 30.6653C58.0294 30.5808 58.0217 30.4771 57.9794 30.3964C57.9372 30.3158 57.9794 30.5885 57.9794 30.4809C58.0025 30.262 57.9794 30.0354 57.9794 29.8164L58.0217 29.609C58.0217 29.7089 58.0217 29.6782 58.0217 29.609C58.0486 29.4631 58.0754 29.3171 58.1139 29.1711C58.1434 29.0498 58.1806 28.9305 58.2252 28.8139C58.1715 28.9714 58.2675 28.6948 58.2252 28.8139C58.2252 28.7755 58.279 28.7409 58.2944 28.7025C58.2483 28.8446 58.2637 28.764 58.2022 28.8062C58.1203 28.863 58.0273 28.9019 57.9294 28.9205C57.8315 28.939 57.7307 28.9367 57.6337 28.9138C57.5146 28.9138 57.4225 28.7563 57.5953 28.9637C57.7774 29.1406 58.0213 29.2396 58.2752 29.2396C58.5291 29.2396 58.773 29.1406 58.9551 28.9637C59.1302 28.7807 59.228 28.5371 59.228 28.2838C59.228 28.0305 59.1302 27.787 58.9551 27.604C58.7903 27.3729 58.5609 27.1957 58.2958 27.0946C58.0306 26.9934 57.7415 26.9729 57.4647 27.0355C57.214 27.1341 56.9895 27.2894 56.8089 27.4894C56.6283 27.6893 56.4965 27.9284 56.4238 28.1878C56.0766 29.0389 55.969 29.9687 56.1126 30.8766C56.3546 32.0635 57.457 33.3003 58.7092 32.4783C59.6772 31.8445 60.1343 30.3503 60.0382 29.2479C60.0333 28.9948 59.9306 28.7534 59.7516 28.5744C59.5725 28.3953 59.3311 28.2926 59.078 28.2877C58.8239 28.2897 58.5808 28.3915 58.4012 28.5712C58.2215 28.7508 58.1197 28.9939 58.1177 29.2479V29.2211Z" fill="#231F20"/>
<path d="M66.1177 77.2211C66.1659 77.7618 66.0306 78.3031 65.7336 78.7575C65.7989 78.6768 65.6452 78.8459 65.6376 78.8612C65.6952 78.7575 65.6376 78.8382 65.699 78.8266C65.9141 78.7806 65.9909 78.8727 66.183 78.9035L66.2137 78.9534C66.1819 78.907 66.1536 78.8582 66.1292 78.8074C66.1029 78.7623 66.081 78.7147 66.0639 78.6653C66.0294 78.5808 66.0217 78.4771 65.9794 78.3964C65.9372 78.3158 65.9794 78.5885 65.9794 78.4809C66.0025 78.262 65.9794 78.0354 65.9794 77.8164L66.0217 77.609C66.0217 77.7089 66.0217 77.6782 66.0217 77.609C66.0486 77.4631 66.0754 77.3171 66.1139 77.1711C66.1434 77.0498 66.1806 76.9305 66.2252 76.8139C66.1715 76.9714 66.2675 76.6948 66.2252 76.8139C66.2252 76.7755 66.279 76.7409 66.2944 76.7025C66.2483 76.8446 66.2637 76.764 66.2022 76.8062C66.1203 76.863 66.0273 76.9019 65.9294 76.9205C65.8315 76.939 65.7307 76.9367 65.6337 76.9138C65.5146 76.9138 65.4225 76.7563 65.5953 76.9637C65.7774 77.1406 66.0213 77.2396 66.2752 77.2396C66.5291 77.2396 66.773 77.1406 66.9551 76.9637C67.1302 76.7807 67.228 76.5371 67.228 76.2838C67.228 76.0305 67.1302 75.787 66.9551 75.604C66.7903 75.3729 66.5609 75.1957 66.2958 75.0946C66.0306 74.9934 65.7415 74.9729 65.4647 75.0355C65.214 75.1341 64.9895 75.2894 64.8089 75.4894C64.6283 75.6893 64.4965 75.9284 64.4238 76.1878C64.0766 77.0389 63.969 77.9687 64.1126 78.8766C64.3546 80.0635 65.457 81.3003 66.7092 80.4783C67.6772 79.8445 68.1343 78.3503 68.0382 77.2479C68.0333 76.9948 67.9306 76.7534 67.7516 76.5744C67.5725 76.3953 67.3311 76.2926 67.078 76.2877C66.8239 76.2897 66.5808 76.3915 66.4012 76.5712C66.2215 76.7508 66.1197 76.9939 66.1177 77.2479V77.2211Z" fill="#231F20"/>
<path d="M33.1177 59.2211C33.1659 59.7618 33.0306 60.3031 32.7336 60.7575C32.7989 60.6768 32.6452 60.8459 32.6376 60.8612C32.6952 60.7575 32.6376 60.8382 32.699 60.8266C32.9141 60.7806 32.9909 60.8727 33.183 60.9035L33.2137 60.9534C33.1819 60.907 33.1536 60.8582 33.1292 60.8074C33.1029 60.7623 33.081 60.7147 33.0639 60.6653C33.0294 60.5808 33.0217 60.4771 32.9794 60.3964C32.9372 60.3158 32.9794 60.5885 32.9794 60.4809C33.0025 60.262 32.9794 60.0354 32.9794 59.8164L33.0217 59.609C33.0217 59.7089 33.0217 59.6782 33.0217 59.609C33.0486 59.4631 33.0754 59.3171 33.1139 59.1711C33.1434 59.0498 33.1806 58.9305 33.2252 58.8139C33.1715 58.9714 33.2675 58.6948 33.2252 58.8139C33.2252 58.7755 33.279 58.7409 33.2944 58.7025C33.2483 58.8446 33.2637 58.764 33.2022 58.8062C33.1203 58.863 33.0273 58.9019 32.9294 58.9205C32.8315 58.939 32.7307 58.9367 32.6337 58.9138C32.5146 58.9138 32.4225 58.7563 32.5953 58.9637C32.7774 59.1406 33.0213 59.2396 33.2752 59.2396C33.5291 59.2396 33.773 59.1406 33.9551 58.9637C34.1302 58.7807 34.228 58.5371 34.228 58.2838C34.228 58.0305 34.1302 57.787 33.9551 57.604C33.7903 57.3729 33.5609 57.1957 33.2958 57.0946C33.0306 56.9934 32.7415 56.9729 32.4647 57.0355C32.214 57.1341 31.9895 57.2894 31.8089 57.4894C31.6283 57.6893 31.4965 57.9284 31.4238 58.1878C31.0766 59.0389 30.969 59.9687 31.1126 60.8766C31.3546 62.0635 32.457 63.3003 33.7092 62.4783C34.6772 61.8445 35.1343 60.3503 35.0382 59.2479C35.0333 58.9948 34.9306 58.7534 34.7516 58.5744C34.5725 58.3953 34.3311 58.2926 34.078 58.2877C33.8239 58.2897 33.5808 58.3915 33.4012 58.5712C33.2215 58.7508 33.1197 58.9939 33.1177 59.2479V59.2211Z" fill="#231F20"/>
<path d="M17.5915 60.0829C18.3663 63.8611 19.1092 67.6553 19.8203 71.4654C20.0909 72.8504 20.4252 74.2195 20.6322 75.6204C21.3327 80.5714 21.8421 85.5543 22.1127 90.569C22.3037 92.7818 22.2878 95.0265 22.3515 97.2234C22.3515 98.6402 22.3515 100.089 22.2082 101.506C22.0856 102.937 21.8352 104.354 21.46 105.74C21.2371 106.6 20.7277 106.377 20.2342 105.565C19.5785 104.431 19.2172 103.15 19.1835 101.84L18.9129 97.7169C18.7377 96.3319 18.5786 94.9628 18.4512 93.5937C18.3238 92.2246 18.1806 90.8237 18.085 89.4387C17.9895 88.0537 17.8462 86.6368 17.7348 85.2359C17.3226 81.7898 16.679 78.3753 15.8085 75.0155C15.0126 71.2744 14.2166 67.5014 13.4206 63.7444C12.8952 61.436 12.3858 59.1118 11.8286 56.8034C10.969 53.317 10.2367 49.7669 9.2178 46.3124C8.50141 43.6219 7.62583 41.027 6.82985 38.3525C6.67065 37.7635 6.4637 37.1904 6.35226 36.5855C6.24082 35.9805 6.2249 35.5348 6.20898 35.1208C6.21758 34.7693 6.27656 34.4209 6.3841 34.0861C6.53367 33.5753 6.85398 33.1314 7.29152 32.8284C7.47087 32.6749 7.66255 32.5365 7.86463 32.4145C8.48549 32.0961 9.32923 32.8921 10.2048 34.3726C11.2396 36.6173 12.0197 38.9734 12.8793 41.3773C13.2614 42.5872 13.6594 43.7971 14.0574 45.007L15.0285 48.7481C15.9836 52.4892 16.8433 56.2621 17.7189 60.051L17.5915 60.0829Z" fill="#231F20"/>
<path d="M37.0291 21.6369C27.8487 24.6556 18.9305 28.4198 10.3637 32.8921L9.26523 33.513C9.12168 33.5884 8.9834 33.6735 8.85133 33.7677C8.75581 33.8791 8.51701 33.9428 8.58069 34.102L8.75581 34.5477C8.88316 34.8502 8.75581 34.6432 9.18564 35.9009C11.0642 42.2688 12.4651 48.4774 13.8183 54.7816C15.1714 61.0858 16.3654 67.374 17.4639 73.6941C18.419 79.3138 19.3901 84.9493 20.3453 90.5212C21.4915 97.6851 22.7333 104.96 22.2079 112.379C22.0487 114.703 20.6159 114.337 19.215 112.49C17.2742 109.782 16.008 106.649 15.5217 103.352C13.3884 89.0248 10.0931 74.8722 7.68919 60.3694C6.90913 56.2144 5.92211 52.0753 4.77589 47.9521C4.17095 45.9144 3.58192 43.8289 2.9133 41.823C2.5949 40.8201 2.29243 39.7853 1.92628 38.8142L1.36909 37.2222C1.08254 36.3307 0.700465 35.5029 0.397991 34.6592L0.159197 32.717L0 31.3956L0.318393 31.4912V31.3479V31.1887L0.397991 30.8862C0.437187 30.6758 0.518404 30.4755 0.636786 30.2972C1.23561 29.5408 1.95661 28.8897 2.77002 28.3709C3.62968 27.8137 4.50526 27.2565 5.38084 26.7789L7.11608 25.6646C9.36075 24.4069 11.6373 23.2448 13.9297 22.1304C18.4986 19.9017 23.1631 17.8799 27.8753 16.0013C33.6701 13.7089 39.5762 11.6712 45.5461 9.85636C54.5891 7.15792 63.786 5.00489 73.0871 3.4089C76.6849 2.77211 80.2509 2.10349 83.8329 1.51446C87.415 0.890281 91.029 0.465104 94.6582 0.240888C96.2502 0.14537 97.8422 0.00209365 99.4341 0.00209365C100.708 -0.0157206 101.982 0.0801778 103.239 0.288648C104.11 0.427037 104.963 0.656476 105.786 0.973192C106.369 1.19336 106.901 1.52795 107.352 1.95721C107.803 2.38647 108.164 2.90172 108.413 3.47258C108.7 3.9523 108.94 4.4588 109.129 4.98494C109.527 6.65651 107.06 7.81864 102.889 8.47135C90.5828 10.1907 77.9108 11.3687 65.1591 14.0432C55.6588 15.9985 46.3028 18.5994 37.1565 21.8279L37.0291 21.6369Z" fill="#231F20"/>
<path d="M92.6035 94.3102C87.0635 95.1221 81.4598 96.1569 76.0152 97.4941C74.0094 97.9877 72.0672 98.6881 70.0772 99.2135C66.5431 100.073 63.0089 101.044 59.4906 102.031C55.9724 103.018 52.4223 103.989 48.9518 105.215C45.8475 106.218 42.8228 107.46 39.8617 108.733C36.0415 110.425 32.1109 111.856 28.0971 113.016C26.8235 113.366 26.7121 112.713 27.3489 111.519C28.3136 109.684 29.6793 108.09 31.3447 106.855L34.067 105.04L35.4201 104.133L36.8688 103.4C38.7792 102.413 40.7373 101.506 42.6954 100.614C46.645 98.8262 50.708 97.2999 54.858 96.0454C59.8886 94.6923 64.8715 92.5431 69.9658 90.9989C75.5695 89.3274 81.2687 87.9105 86.9998 86.6847C90.534 85.9206 94.1 85.2997 97.666 84.6947C103.079 83.8032 108.555 83.246 114.047 82.8481L120.415 82.259C121.498 82.1476 122.596 82.1317 123.695 82.0521C124.793 81.9725 125.891 82.0521 127.022 82.275C128.023 82.3544 129.018 82.5034 129.999 82.7207C131.416 82.9635 132.736 83.6039 133.804 84.5674C134.129 84.9362 134.364 85.3754 134.491 85.8505C134.618 86.3256 134.634 86.8236 134.536 87.3056C134.502 87.8065 134.416 88.3025 134.281 88.7861C134.143 89.1486 133.93 89.4778 133.655 89.7522C133.381 90.0265 133.052 90.2398 132.689 90.3781C131.829 90.7475 130.903 90.9371 129.967 90.9352C128.375 90.9352 126.783 91.0944 125.064 91.2536C123.369 91.4771 121.663 91.6046 119.953 91.6357C116.483 91.8108 112.869 92.0655 109.208 92.4476C103.763 92.9093 98.1913 93.562 92.6513 94.5331L92.6035 94.3102Z" fill="#231F20"/>
<path d="M94.8494 25.8407C95.3161 25.1212 95.7352 24.3719 96.1041 23.5975C96.4404 22.901 96.6757 22.16 96.8029 21.397C96.8329 21.2207 96.8184 21.0808 96.8395 20.925C96.8322 20.7948 96.8157 20.6653 96.7903 20.5374C96.7727 20.4331 96.7379 20.3324 96.6874 20.2395C96.6375 20.1282 96.572 20.0245 96.493 19.9315C96.3294 19.7343 96.1201 19.5801 95.8834 19.4823C95.6467 19.3845 95.3897 19.346 95.1347 19.3702C94.192 19.3964 93.0542 19.9555 91.9803 20.5585C90.0021 21.7354 88.1667 23.1379 86.5109 24.7382C84.8625 26.3766 83.4084 28.2001 82.1773 30.1724C81.0478 31.9484 80.033 33.795 79.1391 35.7009C78.5492 36.9086 78.0604 38.1664 77.4944 39.3947L75.7735 43.0535C75.4317 43.8032 75.1274 43.6249 74.9812 42.8085C74.7872 41.5372 74.8682 40.2388 75.2186 39.0013C77.0619 33.6593 79.5947 28.4569 83.6614 24.1371C84.9284 22.8524 86.1931 21.6773 87.5803 20.5561C88.9524 19.3316 90.4832 18.2982 92.1312 17.4841C93.1419 17.0074 94.2444 16.7582 95.3612 16.7539C96.017 16.7789 96.6589 16.9503 97.24 17.2555C97.808 17.5551 98.2986 17.9831 98.6729 18.5057C98.8659 18.779 99.0293 19.0722 99.1603 19.3803C99.2752 19.6808 99.3562 19.9933 99.402 20.3119L99.4553 20.7717L99.4465 21.21C99.4376 21.4944 99.4076 21.7777 99.3569 22.0577C99.1622 23.0808 98.8289 24.0726 98.3661 25.0054C97.2897 27.1605 95.9406 29.1678 94.3523 30.9778C92.009 33.717 89.2876 36.0345 86.6268 38.3183C84.5425 40.0848 82.5117 41.8274 80.3665 43.4681C79.8991 43.8281 79.4468 44.1963 78.9546 44.5411C78.3071 44.9864 77.6158 45.364 76.8915 45.6681C76.5218 45.8033 76.127 45.8561 75.7349 45.8227C75.5998 45.8122 75.466 45.7893 75.335 45.7546C75.1697 45.7264 75.2462 45.5031 75.4921 45.1547C75.8494 44.6276 76.2687 44.1454 76.741 43.7186C77.1934 43.3175 77.6042 42.8708 78.0744 42.4947L79.46 41.3183L82.2464 38.9734C84.1078 37.3558 85.9694 35.7053 87.7449 33.9796C89.0589 32.7085 90.319 31.3677 91.5345 30.0303C92.7504 28.7284 93.8418 27.3152 94.7944 25.8093L94.8494 25.8407Z" fill="#231F20" stroke="black" stroke-width="2"/>
<path d="M105.937 71.1912C106.761 71.4293 107.6 71.6134 108.448 71.742C109.212 71.862 109.989 71.8725 110.756 71.7732C110.934 71.7508 111.063 71.6964 111.218 71.6714C111.341 71.6267 111.46 71.5734 111.575 71.512C111.67 71.4649 111.756 71.4025 111.831 71.3272C111.923 71.2471 112.003 71.1545 112.069 71.0519C112.21 70.8381 112.297 70.5932 112.322 70.3383C112.347 70.0834 112.31 69.8263 112.213 69.5892C111.914 68.6946 111.049 67.7676 110.161 66.9145C108.462 65.3622 106.587 64.012 104.576 62.8909C102.53 61.7881 100.363 60.9248 98.1191 60.3181C96.092 59.7517 94.0305 59.3155 91.9474 59.0123C90.6206 58.7976 89.275 58.6943 87.9355 58.5086L83.935 57.9217C83.1183 57.8118 83.2008 57.4689 83.9398 57.0924C85.1004 56.5384 86.3665 56.2396 87.6525 56.2164C93.2994 56.4326 99.0125 57.3491 104.325 59.9896C105.922 60.8299 107.413 61.6998 108.888 62.7026C110.458 63.661 111.891 64.8267 113.147 66.1681C113.897 66.9972 114.455 67.9802 114.782 69.0478C114.948 69.6827 114.97 70.3467 114.847 70.9913C114.724 71.6219 114.457 72.2154 114.065 72.7251C113.86 72.989 113.626 73.2304 113.37 73.445C113.115 73.642 112.84 73.8102 112.548 73.9463L112.123 74.1306L111.701 74.2491C111.426 74.323 111.147 74.3765 110.864 74.409C109.828 74.5192 108.782 74.4875 107.756 74.3149C105.381 73.9092 103.069 73.1997 100.876 72.2041C97.5756 70.7551 94.5689 68.822 91.612 66.9372C89.3174 65.4542 87.061 64.0155 84.8691 62.4378C84.3891 62.0948 83.9057 61.7686 83.433 61.3974C82.8192 60.9067 82.2574 60.3545 81.7565 59.7494C81.5199 59.4347 81.355 59.0722 81.2733 58.6872C81.2443 58.5549 81.2274 58.4202 81.2227 58.2848C81.2018 58.1184 81.4377 58.1269 81.8423 58.2613C82.4504 58.4505 83.0334 58.712 83.5788 59.0404C84.0938 59.3572 84.6403 59.621 85.1365 59.9619L86.664 60.9472L89.7157 62.9346C91.8033 64.2474 93.9225 65.5507 96.0886 66.75C97.686 67.6393 99.3344 68.4568 100.967 69.2326C102.565 70.019 104.234 70.6541 105.951 71.1294L105.937 71.1912Z" fill="#231F20" stroke="black" stroke-width="2"/>
<path d="M32.7496 41.9674C32.2461 41.6339 31.7594 41.269 31.2926 40.8752C30.8703 40.5221 30.4898 40.1143 30.1629 39.6644C30.087 39.5606 30.0484 39.4681 29.9844 39.375C29.9449 39.2906 29.9108 39.2042 29.8823 39.1165C29.8573 39.0459 29.8432 38.973 29.8405 38.9009C29.8314 38.8173 29.8335 38.7345 29.8469 38.6549C29.873 38.4871 29.9392 38.3346 30.0397 38.2106C30.1402 38.0867 30.272 37.995 30.4236 37.9435C30.963 37.7131 31.7906 37.7692 32.5969 37.8698C34.1042 38.097 35.6067 38.5047 37.0743 39.0845C38.5504 39.6906 39.9791 40.4647 41.3321 41.3914C42.5622 42.2205 43.7515 43.1244 44.8924 44.0974C45.6286 44.7079 46.3247 45.3766 47.0543 46.0063L49.2474 47.8731C49.6907 48.2585 49.8024 48.0658 49.6114 47.5104C49.2952 46.6543 48.8151 45.8531 48.2037 45.161C45.3784 42.2601 42.2118 39.6282 38.477 37.9573C37.334 37.4755 36.2288 37.0624 35.0728 36.7156C33.8906 36.2994 32.6832 36.0459 31.4831 35.9619C30.7547 35.9248 30.0507 36.0557 29.4206 36.3456C29.0598 36.5332 28.7559 36.8099 28.5309 37.1555C28.3114 37.4941 28.1785 37.8938 28.1427 38.3228C28.1255 38.5465 28.1317 38.775 28.161 39.0045C28.197 39.225 28.2559 39.4441 28.3367 39.6579L28.4606 39.9632L28.6123 40.2384C28.7124 40.4163 28.8241 40.5879 28.9464 40.7519C29.3983 41.349 29.9179 41.8899 30.4905 42.3596C31.8176 43.4427 33.2487 44.3607 34.7485 45.0912C36.9842 46.2124 39.2916 46.9674 41.5536 47.717C43.318 48.2899 45.0443 48.8617 46.8008 49.339C47.1844 49.4446 47.5622 49.5593 47.9547 49.6488C48.4681 49.7612 48.9836 49.8193 49.4931 49.8222C49.7465 49.811 49.9863 49.741 50.1959 49.6171C50.2684 49.575 50.3361 49.5255 50.3982 49.4692C50.4818 49.4081 50.364 49.2866 50.109 49.1304C49.7315 48.8901 49.3341 48.6945 48.9254 48.5479C48.5365 48.4123 48.1558 48.237 47.7653 48.122L46.5916 47.7397L44.2385 46.9844C42.6494 46.4474 41.0492 45.8896 39.4723 45.2616C38.3073 44.8007 37.1493 44.2815 36.0175 43.7528C34.8974 43.2466 33.8102 42.6374 32.77 41.9331L32.7496 41.9674Z" fill="#231F20" stroke="black" stroke-width="2"/>
<path d="M43.1511 85.1038C42.7362 85.6045 42.2888 86.0726 41.8118 86.505C41.3838 86.8975 40.9005 87.2175 40.3766 87.4552C40.2557 87.5107 40.151 87.5241 40.0429 87.5687C39.9468 87.5861 39.8492 87.5962 39.7507 87.5987C39.6711 87.6033 39.5902 87.5936 39.5114 87.5699C39.4193 87.55 39.3292 87.5163 39.2438 87.4699C39.0635 87.3746 38.904 87.2353 38.7791 87.064C38.6542 86.8928 38.5677 86.6947 38.527 86.4871C38.3309 85.7307 38.4765 84.7236 38.6684 83.7595C39.0698 81.9719 39.6674 80.2579 40.4493 78.6517C41.2605 77.0447 42.2502 75.5595 43.3986 74.2256C44.4279 73.0077 45.5346 71.8687 46.7118 70.8155C47.4524 70.1294 48.2525 69.515 49.0134 68.8443L51.2722 66.8185C51.7376 66.4121 51.539 66.2013 50.9139 66.2306C49.9483 66.3029 49.0259 66.5994 48.209 67.0999C44.7582 69.5238 41.566 72.4726 39.3634 76.487C38.7215 77.7267 38.1585 78.945 37.6625 80.2515C37.0882 81.5642 36.6887 82.9695 36.4747 84.429C36.3599 85.32 36.4309 86.2436 36.6827 87.1349C36.8504 87.6534 37.1211 88.1346 37.4749 88.5435C37.8217 88.9429 38.2439 89.2577 38.7079 89.4628C38.9501 89.5679 39.1998 89.6458 39.453 89.6952C39.697 89.7331 39.942 89.742 40.1833 89.7216L40.5287 89.6819L40.8443 89.5966C41.0484 89.5387 41.2469 89.4643 41.4382 89.3737C42.1353 89.0358 42.7779 88.5929 43.3484 88.0572C44.6645 86.814 45.8114 85.3798 46.7607 83.79C48.211 81.4322 49.2695 78.8482 50.3174 76.3186C51.122 74.3411 51.9214 72.4105 52.6209 70.407C52.7752 69.9699 52.9387 69.5435 53.0763 69.0894C53.2512 68.4936 53.3672 67.8749 53.4222 67.2431C53.4359 66.9241 53.384 66.5999 53.2704 66.2932C53.2319 66.1873 53.1848 66.0847 53.1297 65.9865C53.0716 65.8597 52.9272 65.9606 52.7308 66.2189C52.4303 66.5979 52.1766 67.0184 51.9751 67.4712C51.7876 67.9036 51.5577 68.311 51.3924 68.7531L50.856 70.0681L49.7925 72.7088C49.045 74.4819 48.2737 76.2611 47.4283 77.9851C46.8069 79.2599 46.1228 80.5042 45.431 81.7123C44.7649 82.9144 43.9898 84.037 43.1159 85.0656L43.1511 85.1038Z" fill="#231F20" stroke="black" stroke-width="2"/>
<path d="M70.8292 58.004C70.5363 59.2723 69.8577 60.427 68.8806 61.3198C67.8992 62.1894 66.6551 62.7318 65.3311 62.8672L64.6998 62.9733H64.0412C63.6049 63.022 63.1635 63.0041 62.733 62.9202C61.2543 62.5606 59.9258 61.7704 58.9273 60.6566C58.6747 60.413 58.4507 60.1431 58.2594 59.852C58.0473 59.5767 57.8664 59.2803 57.7197 58.9678C57.4411 58.3801 57.2472 57.7583 57.1433 57.1197L57.0519 56.2355C57.0519 55.9526 57.0519 55.6696 57.0519 55.3955C57.0455 55.1171 57.067 54.8388 57.1159 54.5643C57.1434 54.2916 57.1985 54.0221 57.2806 53.7597C57.4527 53.0958 57.7629 52.4728 58.1923 51.9285C58.6216 51.3843 59.1612 50.9303 59.7781 50.5942C60.1348 50.3732 60.1714 50.5412 60.0708 50.9214C60.0159 51.1159 59.9336 51.3635 59.8329 51.6199C59.7323 51.8763 59.6683 52.2212 59.5219 52.5041C59.1066 53.4406 59.0388 54.487 59.3298 55.4663C59.7937 56.2694 60.3005 57.0485 60.8484 57.8006C61.181 58.2505 61.6466 58.5926 62.1841 58.7821C62.7161 58.9098 63.2574 58.9984 63.8033 59.0473L64.2699 59.1092L64.7456 59.065C65.0559 59.0678 65.3646 59.023 65.6604 58.9324C66.1545 58.7667 66.5724 58.438 66.8405 58.004C67.2765 57.2655 67.483 56.4213 67.4352 55.5724C67.3571 54.1971 66.7992 52.888 65.8525 51.8586C65.5354 51.5387 65.1169 51.3302 64.6632 51.2662C64.5014 51.2456 64.3368 51.2568 64.1796 51.2994C64.0223 51.342 63.8757 51.4149 63.7484 51.5138C63.6478 51.5934 63.5746 51.6995 63.474 51.7879C63.3653 51.8307 63.2516 51.8604 63.1355 51.8763C62.9797 51.8462 62.8289 51.7956 62.6872 51.726C62.3118 51.5684 61.9633 51.3567 61.6535 51.0982C61.4613 50.9656 61.2692 50.8506 61.1046 50.718C60.9653 50.6106 60.8505 50.4767 60.767 50.3246C60.6836 50.1725 60.6335 50.0054 60.6197 49.8338C60.5596 49.3397 60.6758 48.8406 60.949 48.419C61.2352 48.0627 61.5892 47.7626 61.9919 47.5348C62.453 47.3091 62.9464 47.1512 63.4557 47.0662C64.5387 46.898 65.649 47.0522 66.6393 47.5083C67.5083 47.909 68.274 48.492 68.8806 49.2148C69.4152 49.8432 69.8528 50.5431 70.1797 51.2927C70.6494 52.3238 70.937 53.4237 71.0305 54.5467C71.0305 54.8296 71.0305 55.1037 71.0305 55.3867C71.0305 55.6696 71.0762 55.9437 71.0305 56.2709C71.0318 56.8649 70.9705 57.4574 70.8475 58.0393L70.8292 58.004Z" fill="#231F20"/>
</svg>
