<svg viewBox="0 0 520 520" fill="none" xmlns="http://www.w3.org/2000/svg">
<path opacity="0.3" d="M456.009 327.12C456.009 327.12 466.229 329.91 471.499 339.65C476.769 349.39 462.379 383.67 448.959 396.39C436.629 408.06 428.999 409.06 428.999 409.06C428.999 409.06 416.679 401.54 415.949 395.23C415.219 388.92 418.019 401.97 432.429 385.85C446.839 369.72 456.009 344.42 456.009 335.77V327.13V327.12Z" fill="#231F20"/>
<path d="M489.819 365.15C487.899 362.19 485.879 359.28 483.769 356.43C483.009 355.38 482.179 354.39 481.409 353.36C478.719 349.68 475.879 346.11 472.829 342.72C471.499 341.2 470.029 339.79 468.589 338.4C467.619 337.56 466.659 336.69 465.689 335.87L464.239 334.6C463.749 334.19 463.229 333.84 462.719 333.44C462.089 332.95 462.229 332.87 462.929 333.04C463.279 333.12 463.769 333.27 464.359 333.47C464.949 333.67 465.559 334.02 466.229 334.41C468.509 335.9 470.429 337.79 472.379 339.62C473.329 340.56 474.249 341.53 475.179 342.5C476.089 343.48 476.959 344.51 477.829 345.53C479.879 348 482.149 350.45 484.209 353C486.459 355.82 488.569 358.75 490.649 361.7C491.899 363.53 493.149 365.37 494.359 367.23C496.199 370.05 497.949 372.94 499.649 375.81C500.289 376.94 500.959 378.04 501.639 379.13L503.539 382.49C503.819 382.98 504.109 383.46 504.309 384.01C505.109 385.99 505.189 386.69 504.849 387.32C504.769 387.46 504.709 387.64 504.609 387.74C504.299 388.08 503.609 387.44 502.769 386.16C501.529 384.26 500.349 382.28 499.169 380.26C497.919 378.27 496.699 376.24 495.469 374.2C494.579 372.67 493.629 371.17 492.679 369.66C491.749 368.14 490.759 366.66 489.759 365.18L489.809 365.14L489.819 365.15Z" fill="#231F20"/>
<path d="M386.421 320.21C386.421 320.21 389.241 321.34 390.841 323.88C391.911 325.59 380.281 325.48 380.281 325.48L386.421 320.21Z" fill="#231F20"/>
<path d="M379.311 308.33C379.311 308.45 379.501 310.99 380.531 311.55C381.561 312.11 383.541 315.19 383.541 315.19L372.531 317.19C372.531 317.19 377.801 311.26 378.041 309.94C378.281 308.62 379.311 308.32 379.311 308.32V308.33Z" fill="#231F20"/>
<path opacity="0.3" d="M305.378 226.81C295.168 226.81 286.898 235.08 286.898 245.29C286.898 255.5 295.168 263.76 305.378 263.76C315.588 263.76 323.848 255.49 323.848 245.29C323.848 235.09 315.578 226.81 305.378 226.81ZM305.378 254.95C300.488 254.95 296.518 250.98 296.518 246.09C296.518 241.2 300.488 237.24 305.378 237.24C310.268 237.24 314.228 241.2 314.228 246.09C314.228 250.98 310.268 254.95 305.378 254.95Z" fill="#231F20"/>
<path d="M293.991 258.79C295.001 259.62 296.091 260.35 297.311 260.9C297.921 261.17 298.521 261.5 299.171 261.68C299.811 261.9 300.441 262.14 301.101 262.26C303.721 262.89 306.481 262.93 309.121 262.34C311.051 261.89 312.841 261.02 314.501 259.99C315.981 259.09 317.261 257.89 318.401 256.58C319.511 255.24 320.381 253.7 321.061 252.07C322.371 248.75 322.591 245.07 321.621 241.63C320.751 238.58 318.741 235.87 316.301 233.86C314.721 232.57 312.931 231.53 311.021 230.83C309.131 230.09 307.171 229.55 305.151 229.25C303.911 229.02 304.001 228 305.261 227.08C305.891 226.62 306.831 226.16 307.981 226.04C309.141 225.83 310.481 225.99 311.861 226.42C314.251 227.31 316.481 228.57 318.491 230.15C320.471 231.76 322.151 233.74 323.481 235.94C324.811 238.15 325.611 240.67 325.981 243.22L326.151 245.15C326.151 245.79 326.101 246.43 326.071 247.07C326.071 247.71 325.951 248.34 325.821 248.96C325.691 249.58 325.611 250.21 325.421 250.81C324.611 253.69 323.291 256.51 321.391 258.93C319.511 261.36 317.041 263.35 314.281 264.64C311.251 266.06 307.901 266.72 304.601 266.63C301.291 266.54 298.041 265.69 295.121 264.22C291.511 262.36 288.461 259.44 286.561 255.89C285.061 253.24 284.281 250.21 284.101 247.19C283.951 244.16 284.551 241.11 285.711 238.34C287.551 234.05 290.771 230.37 294.951 228.14C295.871 227.66 296.791 227.21 297.801 226.87C298.731 226.58 299.521 226.37 300.201 226.3C300.871 226.2 301.421 226.18 301.881 226.25C302.791 226.33 303.321 226.68 303.721 227.2C303.901 227.44 304.141 227.68 304.231 227.92C304.391 228.33 304.111 228.71 303.511 229.03C303.211 229.19 302.841 229.33 302.391 229.5C301.951 229.65 301.441 229.8 300.871 229.98C297.511 230.97 294.421 232.85 292.121 235.45C289.821 238.03 288.341 241.39 288.081 244.85C287.641 249.98 289.871 255.45 294.021 258.71L293.961 258.79H293.991Z" fill="#231F20"/>
<path d="M307.75 239.23V217.05C307.75 213.99 303 213.99 303 217.05V239.23C303 242.29 307.75 242.29 307.75 239.23Z" fill="#231F20"/>
<path d="M307.75 275.4V253.33C307.75 250.27 303 250.27 303 253.33V275.4C303 278.46 307.75 278.46 307.75 275.4Z" fill="#231F20"/>
<path d="M260.342 248.47H298.912C301.972 248.47 301.972 243.72 298.912 243.72H260.342C257.282 243.72 257.282 248.47 260.342 248.47Z" fill="#231F20"/>
<path d="M312.229 248.47H339.189C342.249 248.47 342.249 243.72 339.189 243.72H312.229C309.169 243.72 309.169 248.47 312.229 248.47Z" fill="#231F20"/>
<path d="M307.75 195.66V176.02C307.75 172.96 303 172.96 303 176.02V195.66C303 198.72 307.75 198.72 307.75 195.66Z" fill="#231F20"/>
<path d="M360.932 248.47H379.042C382.102 248.47 382.102 243.72 379.042 243.72H360.932C357.872 243.72 357.872 248.47 360.932 248.47Z" fill="#231F20"/>
<path d="M302.199 295.27V316.32C302.199 319.38 306.949 319.38 306.949 316.32V295.27C306.949 292.21 302.199 292.21 302.199 295.27Z" fill="#231F20"/>
<path opacity="0.3" d="M172.3 261.71C159.01 279.43 140.78 257.15 132.23 232.61C126.69 216.71 129.47 201.98 131.55 193.95C134.57 182.28 148.78 181.25 148.78 181.25C148.78 181.25 141.76 205.26 150.73 229.79C159.7 254.33 172.3 261.71 172.3 261.71Z" fill="#231F20"/>
<path d="M459.23 450.09C459.23 450.09 461.34 436.54 434.05 411.5C433.3 410.82 430.73 409.05 430.73 409.05L443.33 424.71L455.26 445.56L459.23 450.08V450.09Z" fill="#231F20"/>
<path d="M352.109 307.12C352.109 307.12 371.869 296.06 378.039 304.16L375.589 304.81C375.589 304.81 359.889 305.64 359.589 306.51C359.289 307.38 352.119 307.12 352.119 307.12H352.109Z" fill="#231F20"/>
<path d="M449.709 357.81C449.119 359.18 448.549 360.56 447.869 361.88C447.219 363.22 446.569 364.56 445.869 365.87C445.369 366.83 444.979 367.85 444.439 368.79C442.599 372.14 440.559 375.38 438.479 378.57C437.539 379.98 436.609 381.4 435.639 382.77C434.419 384.55 433.049 386.26 431.269 387.57C430.719 387.98 430.749 387.88 430.899 387.27C430.969 386.97 431.069 386.53 431.169 385.99C431.299 385.48 431.509 384.94 431.799 384.4C432.069 383.94 432.289 383.43 432.529 382.95C432.769 382.47 433.069 382.03 433.339 381.57C433.919 380.68 434.409 379.72 434.959 378.8C435.549 377.91 436.139 377.02 436.709 376.1C437.279 375.19 437.909 374.3 438.479 373.38C439.169 372.28 439.819 371.13 440.409 369.93C440.979 368.73 441.559 367.52 442.129 366.32L443.989 362.35L445.759 358.33C446.459 356.67 447.179 355.01 447.789 353.32C448.759 350.77 449.649 348.17 450.289 345.55C450.549 344.53 450.669 343.5 450.829 342.48C450.949 341.46 451.039 340.45 451.189 339.45C451.229 339.01 451.219 338.58 451.269 338.15C451.309 337.75 451.369 337.41 451.419 337.13C451.449 336.86 451.489 336.65 451.579 336.46C451.779 336.09 452.029 335.86 452.369 335.64C452.529 335.54 452.679 335.41 452.819 335.35C453.069 335.24 453.299 335.35 453.549 335.65C453.799 335.96 454.109 336.49 454.219 337.2C454.439 339.21 454.589 341.32 454.219 343.33C453.909 345.35 453.389 347.32 452.839 349.29C451.959 352.18 450.929 355.03 449.809 357.82L449.729 357.79L449.709 357.81Z" fill="#231F20"/>
<path d="M449.449 335.34C449.099 334.5 452.859 325.56 454.219 327.35C458.369 332.81 453.759 343.32 453.759 343.32L449.449 335.34Z" fill="#231F20"/>
<path d="M426.908 370.47C425.808 371.03 412.618 389.38 415.798 393.34C420.718 399.46 433.158 383.67 433.158 383.67L426.908 370.47Z" fill="#231F20"/>
<path d="M271.641 176.69C271.641 176.69 281.601 176.32 283.501 177.58C285.401 178.85 283.501 180.86 283.501 180.86L273.901 178.77L271.641 176.68V176.69Z" fill="#231F20"/>
<path d="M281.898 197.14C281.898 197.14 290.178 193.15 293.758 194.09C296.598 194.84 294.888 197.38 294.888 197.38L281.898 197.13V197.14Z" fill="#231F20"/>
<path d="M150.089 230.43C149.769 228.85 149.429 227.28 149.179 225.69C148.889 224.11 148.629 222.53 148.389 220.94C148.189 219.79 147.939 218.64 147.809 217.48C147.289 213.38 147.049 209.25 147.039 205.12C146.989 203.29 147.079 201.45 147.079 199.63C147.139 198.46 147.169 197.29 147.309 196.12C147.389 195.54 147.529 194.96 147.709 194.4C147.909 193.84 148.109 193.29 148.319 192.72C148.589 192.03 148.639 192.14 148.839 192.79C148.939 193.11 149.099 193.57 149.309 194.12C149.399 194.39 149.539 194.69 149.609 194.99C149.669 195.29 149.709 195.61 149.709 195.93C149.679 200.53 149.729 205.09 149.809 209.78C149.849 212.58 150.409 215.46 150.859 218.29C151.129 219.84 151.399 221.4 151.699 222.95C152.049 224.49 152.329 226.05 152.719 227.58C152.949 228.53 153.189 229.47 153.389 230.43L154.099 233.27C154.829 236.13 155.679 238.99 156.599 241.78C157.359 243.94 158.229 246 159.089 248.08C159.279 248.54 159.469 248.98 159.629 249.46C160.229 251.22 160.299 251.84 160.129 252.35C160.089 252.47 160.069 252.61 160.019 252.69C159.869 252.95 159.349 252.35 158.579 251.18C158.299 250.74 158.019 250.31 157.729 249.87C157.449 249.42 157.229 248.95 156.979 248.49C156.499 247.56 155.979 246.62 155.539 245.65C154.609 243.72 153.729 241.73 152.929 239.71C152.379 238.19 151.879 236.65 151.379 235.11C150.919 233.55 150.429 232.01 150.009 230.44L150.089 230.42V230.43Z" fill="#231F20"/>
<path d="M161.178 269.13C161.178 269.13 98.4181 289.72 79.2681 317.57C79.2681 317.57 76.4181 321.48 77.4081 325C78.0881 327.4 84.7481 312.9 108.058 298.55C131.368 284.2 161.178 269.13 161.178 269.13Z" fill="#231F20"/>
<path d="M82.6698 325.48C82.6998 327.14 79.1098 330.35 78.2298 341.67C77.1998 354.94 82.0398 364.4 82.0398 364.4L82.6698 325.48Z" fill="#231F20"/>
<path d="M155.179 192.37C153.989 190.51 151.019 179.4 148.819 182.7C144.259 189.54 145.809 202.8 145.959 202.47L155.179 192.37Z" fill="#231F20"/>
<path d="M156.922 245.14C156.922 245.14 167.482 264.73 171.242 263.17C175.652 261.34 166.602 240.08 166.602 240.08L156.922 245.14Z" fill="#231F20"/>
<path d="M267.759 278.37C268.619 276.78 269.269 274.67 269.479 272.77C269.709 270.83 269.549 268.81 269.089 266.8C268.169 262.77 266.119 258.84 263.779 255.07C261.439 251.28 258.749 247.62 256.089 243.85C254.759 241.95 253.459 240.01 252.269 237.91C251.099 235.81 249.979 233.55 249.559 230.79C249.459 230.3 249.449 229.77 249.449 229.24C249.419 228.72 249.499 228.17 249.589 227.63C249.759 226.55 250.199 225.47 250.779 224.54C252.009 222.66 253.549 221.49 255.139 220.5C258.339 218.57 261.709 217.51 265.059 216.69C270.989 215.3 276.929 214.7 282.839 214.25C288.759 213.83 294.659 213.63 300.539 213.47C306.419 213.31 312.289 213.22 318.129 212.98C321.049 212.86 323.959 212.69 326.849 212.49C329.729 212.27 332.619 211.95 335.319 211.29C336.499 210.99 337.679 210.61 338.579 210.06C339.029 209.8 339.419 209.46 339.589 209.19C339.759 208.93 339.849 208.6 339.759 208.29C339.679 207.8 338.769 206.94 337.759 206.38C336.749 205.78 335.589 205.29 334.409 204.86C329.649 203.16 324.539 202.18 319.489 201.35C312.979 200.32 306.369 199.68 299.769 199.18C293.169 198.69 286.539 198.4 279.989 198.37C277.959 198.39 277.079 198.29 277.089 197.98C277.109 197.68 278.069 197.17 279.819 196.66C283.309 195.58 289.889 194.72 297.619 195.17C304.459 195.56 311.279 196.23 318.089 197.25C321.489 197.77 324.889 198.38 328.279 199.16C331.679 199.98 335.059 200.86 338.479 202.51C339.339 202.94 340.199 203.43 341.079 204.12C341.519 204.46 341.959 204.88 342.379 205.4C342.839 205.97 343.269 206.78 343.429 207.56C343.599 208.37 343.539 209.2 343.299 209.98C343.039 210.73 342.549 211.53 342.099 211.99C341.159 213 340.169 213.53 339.229 213.98C337.359 214.83 335.569 215.26 333.799 215.63C332.029 215.99 330.289 216.24 328.549 216.44C326.809 216.64 325.079 216.81 323.359 216.91C321.629 217 319.909 217.07 318.189 217.12C314.749 217.22 311.319 217.27 307.899 217.3C299.709 217.39 291.379 217.57 283.079 218.22C278.929 218.55 274.789 219 270.739 219.7C266.699 220.42 262.669 221.34 259.139 222.96C258.179 223.41 257.249 223.9 256.429 224.49C255.599 225.06 254.859 225.74 254.349 226.39C253.889 227.09 253.509 227.8 253.449 228.66C253.379 229.51 253.429 230.44 253.719 231.41C254.229 233.34 255.239 235.31 256.379 237.22C257.519 239.13 258.809 241.01 260.109 242.89C262.709 246.66 265.499 250.38 267.919 254.42C270.329 258.44 272.489 262.81 273.279 267.69C273.779 270.66 273.599 273.88 272.709 276.76C272.279 278.21 271.709 279.65 270.859 281.02C270.429 281.71 269.919 282.38 269.239 282.97C268.569 283.56 267.719 284.07 266.759 284.3C265.799 284.54 264.799 284.47 263.919 284.23C263.059 283.97 262.279 283.6 261.599 283.16C260.219 282.28 259.139 281.2 258.139 280.09C256.129 277.88 254.559 275.39 253.029 273.01C248.479 265.84 243.339 259 237.359 253C234.359 250.02 231.199 247.19 227.799 244.71C224.399 242.23 220.799 240.05 217.029 238.27C211.169 235.48 204.889 233.79 198.559 233.31C192.219 232.83 185.849 233.59 179.779 235.4C179.109 235.61 178.449 235.82 177.789 236.02C177.129 236.24 176.489 236.51 175.839 236.75C174.529 237.21 173.279 237.81 171.979 238.36C167.209 240.5 164.309 242.4 162.119 243.5C159.959 244.65 158.559 245.12 157.329 245.41C156.769 245.54 156.089 245.79 155.729 245.83C155.119 245.89 155.609 245.17 156.929 243.62C158.229 242.05 160.659 240.01 164.109 237.87C169.249 234.75 174.909 232.15 180.989 230.64C187.039 229.04 193.489 228.56 199.879 229.15C206.259 229.82 212.579 231.56 218.419 234.31C221.369 235.63 224.149 237.27 226.879 238.98C229.549 240.77 232.169 242.65 234.599 244.74C241.909 250.86 248.089 258.15 253.449 265.89C254.139 266.85 254.779 267.83 255.419 268.82L257.329 271.76C258.499 273.63 259.759 275.43 261.129 276.99C261.809 277.78 262.529 278.47 263.239 279.05C263.939 279.64 264.659 280.04 265.149 280.15C265.649 280.26 265.819 280.24 266.259 279.98C266.689 279.71 267.219 279.06 267.659 278.28L267.759 278.31V278.37Z" fill="#231F20"/>
<path d="M287.851 184.27C287.441 183.98 287.041 183.67 286.591 183.43L285.921 183.04L285.211 182.71C284.291 182.25 283.181 181.86 282.151 181.51C281.381 181.26 280.591 181.13 279.811 180.92C277.071 180.17 274.161 179.81 271.211 179.53C269.901 179.42 268.571 179.41 267.271 179.42C266.431 179.45 265.591 179.43 264.741 179.39C264.321 179.36 263.901 179.36 263.471 179.26C263.051 179.15 262.631 179.03 262.201 178.91C261.671 178.74 261.741 178.48 262.191 178.04C262.411 177.82 262.731 177.54 263.111 177.25C263.301 177.11 263.511 176.94 263.731 176.83C263.951 176.74 264.181 176.67 264.431 176.64L265.731 176.48L266.381 176.4H267.031C267.901 176.37 268.771 176.38 269.641 176.4C271.381 176.46 273.141 176.57 274.911 176.91C277.011 177.29 279.271 177.39 281.431 177.93C282.621 178.22 283.781 178.58 284.921 178.99C285.481 179.18 286.061 179.42 286.641 179.67C287.221 179.89 287.781 180.2 288.331 180.49C289.681 181.25 290.971 182.15 292.061 183.28C293.791 184.92 294.961 187.08 295.761 189.26C296.351 190.97 296.871 192.69 297.101 194.47C297.161 194.86 297.201 195.25 297.181 195.64C297.161 196.37 297.051 196.85 296.811 197.17C296.601 197.49 296.261 197.65 295.801 197.76C295.591 197.81 295.401 197.88 295.211 197.9C294.631 197.97 293.951 197.35 293.711 196.4L293.431 195.36C293.341 195.01 293.221 194.68 293.171 194.34C293.111 194 293.021 193.67 292.941 193.34C292.871 193.01 292.791 192.68 292.691 192.36C292.531 191.71 292.321 191.09 292.101 190.49C291.961 190.2 291.901 189.88 291.781 189.58L291.421 188.7C290.631 187.01 289.491 185.42 287.801 184.33L287.841 184.26L287.851 184.27Z" fill="#231F20"/>
<path d="M277.75 169.85C276.55 168.52 275.01 167.55 273.19 166.84C272.52 166.58 271.8 166.44 271.09 166.23C268.6 165.46 265.94 164.94 263.27 164.6C262.08 164.45 260.87 164.42 259.68 164.38L257.38 164.32C257 164.29 256.61 164.31 256.23 164.21C255.85 164.1 255.47 163.99 255.08 163.87C254.6 163.71 254.67 163.49 255.08 163.11C255.28 162.92 255.58 162.67 255.93 162.4C256.11 162.27 256.3 162.11 256.5 162.02C256.7 161.95 256.92 161.9 257.14 161.88C260.31 161.57 263.52 161.71 266.73 162.33C268.64 162.72 270.68 162.82 272.66 163.31C274.8 163.83 277.09 164.67 278.97 166.09C280.15 166.93 281.16 167.98 282.04 169.09C283.36 170.79 284.28 172.71 285.13 174.58C285.79 176.03 286.56 177.42 287.04 178.91C287.15 179.24 287.29 179.55 287.34 179.89C287.45 180.53 287.45 180.96 287.33 181.29C287.18 181.63 286.95 181.86 286.63 182.07C286.48 182.17 286.35 182.28 286.22 182.35C285.99 182.47 285.74 182.42 285.44 182.26C285.14 182.1 284.76 181.83 284.52 181.43L283.91 180.56C283.71 180.27 283.57 179.96 283.39 179.67L282.9 178.78C282.73 178.49 282.57 178.19 282.45 177.89C281.91 176.69 281.42 175.47 280.83 174.35C279.99 172.65 278.94 171.19 277.7 169.93L277.76 169.86L277.75 169.85Z" fill="#231F20"/>
<path d="M219.41 156.4C212.15 158.41 205.01 160.94 198.11 164.06C196.85 164.62 195.61 165.22 194.38 165.86C193.15 166.48 191.92 167.11 190.7 167.75C182.03 172.16 173.7 177.33 166.2 183.54C162.87 186.28 159.73 189.31 156.93 192.52C155.1 194.56 153.51 196.8 151.87 198.97C150.29 201.2 148.8 203.46 147.22 205.73C146.62 206.39 146.29 206.66 146.18 206.58C146.06 206.5 146.11 206.06 146.1 205.24C146.08 204.41 146.19 203.27 146.47 201.94C146.75 200.6 147.36 199.17 148.2 197.71C148.55 197.05 148.98 196.46 149.37 195.83C149.78 195.21 150.15 194.56 150.62 194C151.53 192.84 152.41 191.65 153.38 190.55L154.82 188.88L156.33 187.28C157.32 186.19 158.4 185.2 159.44 184.18C163.67 180.12 168.4 176.66 173.31 173.51C179.2 169.78 185.3 165.86 191.69 162.72C195.18 160.96 198.77 159.41 202.38 157.91C206.02 156.49 209.67 155.1 213.4 153.95C217.98 152.5 222.63 151.26 227.32 150.23C234.44 148.73 241.72 147.81 248.95 147.51L251.06 147.44C251.77 147.42 252.44 147.36 253.21 147.41L254.34 147.45L255.46 147.61C256.22 147.69 256.94 147.94 257.67 148.12C260.57 149.06 263.12 150.88 265.12 153.03C266.01 153.97 266.85 154.92 267.54 156.01C268.84 158 269.46 159.4 269.79 160.44C270.11 161.48 270.14 162.15 269.99 162.78C269.93 163.07 269.9 163.41 269.8 163.61C269.47 164.29 268.13 162.87 266.1 160.34C265.38 159.38 264.61 158.48 263.83 157.62C263.04 156.77 262.28 155.91 261.43 155.18C259.76 153.69 257.92 152.58 255.96 152.03L255.22 151.82C254.97 151.76 254.71 151.74 254.46 151.7C253.96 151.59 253.44 151.58 252.91 151.56C252.44 151.51 251.73 151.56 251.13 151.57L249.25 151.62C246.74 151.72 244.22 151.89 241.71 152.16C237.97 152.55 234.23 153.09 230.52 153.84C226.8 154.54 223.11 155.47 219.46 156.49L219.42 156.39L219.41 156.4Z" fill="#231F20"/>
<path d="M149.71 216.77C150.92 222.61 152.51 228.41 154.49 234.05C155.21 236.11 156.1 238.11 156.92 240.12C158.37 243.67 159.98 247.16 161.88 250.44C163.78 253.69 165.92 256.94 168.75 259.05C169.06 259.29 169.38 259.47 169.71 259.67L170.2 259.92C170.37 260.01 170.41 260.01 170.53 260.06C170.73 260.13 170.93 260.19 171.14 260.2C171.35 260.2 171.55 260.07 171.66 259.9C171.78 259.73 171.86 259.53 171.91 259.33C171.94 259.21 171.95 259.16 171.98 259.02C172.02 258.84 172.04 258.65 172.07 258.46C172.16 257.69 172.19 256.87 172.19 256.06C172.16 251.81 171.23 247.49 170.77 243.18C170.73 241.8 171.01 241.86 172.01 242.8C172.51 243.27 173.07 244.01 173.63 244.93C173.9 245.4 174.2 245.91 174.43 246.47C174.65 247.04 174.83 247.65 174.97 248.29C175.45 250.58 175.82 252.89 175.97 255.31C176.04 256.53 176.07 257.76 175.87 259.11C175.82 259.49 175.79 259.68 175.63 260.36C175.57 260.63 175.46 260.89 175.37 261.15C175.29 261.42 175.18 261.66 175.05 261.89C174.57 262.85 173.8 263.59 172.84 263.96C171.87 264.31 170.81 264.15 169.78 263.83L169.01 263.57C168.72 263.5 168.63 263.41 168.45 263.33C168.12 263.17 167.8 263.01 167.51 262.83C166.31 262.11 165.31 261.27 164.4 260.38C162.61 258.59 161.2 256.62 159.95 254.6C157.04 249.73 154.38 244.61 152.29 239.34C150.01 233.55 148.19 227.61 146.72 221.59C145.82 217.88 145.07 214.14 144.48 210.38C143.59 204.67 143.11 198.85 143.45 193.04C143.59 190.88 143.83 188.73 144.34 186.58C144.61 185.51 144.96 184.43 145.44 183.39C145.69 182.87 145.97 182.36 146.3 181.86C146.45 181.6 146.65 181.37 146.83 181.13C147.04 180.82 147.37 180.53 147.65 180.23C147.88 180.02 148.12 179.83 148.4 179.68C149.77 178.97 151.41 179.54 152.64 180.53C154.42 182.09 154.78 183.44 154.95 184.37C155.14 185.29 154.97 185.88 154.7 186.38C154.59 186.6 154.51 186.86 154.41 186.99C154.24 187.21 153.97 186.99 153.47 186.5C153.19 186.27 152.95 185.95 152.66 185.58C152.39 185.21 151.99 184.83 151.64 184.43C151.4 184.13 151.14 183.86 150.88 183.63C150.75 183.51 150.62 183.41 150.48 183.33C150.36 183.24 150.35 183.27 150.29 183.24C150.1 183.18 149.89 183.22 149.82 183.4C149.89 183.34 149.42 184.04 149.18 184.53C148.93 185.09 148.69 185.66 148.49 186.28C148.08 187.51 147.8 188.86 147.61 190.26C147.24 193.06 147.2 196.05 147.36 199.05C147.67 204.92 148.53 210.89 149.83 216.76L149.73 216.79L149.71 216.77Z" fill="#231F20"/>
<path d="M23.5216 278.46C23.8916 277.71 24.3216 276.98 24.7516 276.25C25.1816 275.52 25.6016 274.78 26.0616 274.12L28.7816 270.06L31.5016 266C32.3916 264.64 33.4416 263.39 34.4016 262.07L37.3516 258.18L38.8216 256.24C39.3216 255.6 39.8616 254.99 40.3816 254.37C42.4916 251.89 44.5716 249.4 46.7016 246.95L51.5116 241.72L53.9116 239.1C54.7416 238.25 55.5916 237.43 56.4416 236.61C68.3516 224.92 81.3816 214.46 95.1816 205.18C101.352 201.14 107.572 197.08 114.002 193.56L117.082 191.82C118.112 191.25 119.172 190.73 120.222 190.18C122.332 189.12 124.422 188.03 126.612 187.12C128.792 186.19 130.922 185.18 133.202 184.47L136.572 183.37C137.132 183.19 137.732 183.1 138.312 182.97C138.902 182.86 139.472 182.7 140.062 182.63C141.532 182.41 142.172 182.37 142.162 182.48C142.162 182.6 141.502 182.93 140.432 183.63C138.262 184.97 134.512 187.64 129.762 189.97L126.612 191.54C125.562 192.07 124.542 192.67 123.512 193.23C121.452 194.37 119.342 195.4 117.312 196.61C115.282 197.8 113.192 198.9 111.192 200.16C109.182 201.4 107.172 202.64 105.142 203.84C97.1416 208.87 89.3016 214.24 81.6516 219.95C72.5416 226.84 63.8816 235.04 55.7916 243.45C46.8716 252.68 38.7616 262.71 31.7116 273.43L30.0616 275.89L29.2416 277.12L28.5116 278.37L27.7816 279.62L27.1116 280.91L26.4416 282.2L25.8316 283.53C24.1916 287.07 22.8416 290.76 21.6816 294.52C18.2316 305.94 16.3016 317.92 15.2316 329.78C14.4316 339.02 14.3116 348.13 14.4016 357.29C14.4216 359.31 14.5016 361.28 14.5116 363.31C14.5216 367.08 14.5316 369.56 14.3516 371.31C14.1216 373.06 13.8216 374.08 13.3816 374.91C13.1816 375.29 12.9916 375.79 12.8116 376.01C12.4916 376.39 12.1516 375.82 11.7616 374.45C11.3816 373.08 10.9016 370.93 10.7316 368.14C10.0416 359.87 9.99164 351.35 10.2616 342.71C10.5516 334.07 11.2716 325.3 12.5216 316.56C13.4416 310.07 14.6916 303.58 16.3916 297.17C17.2716 293.97 18.2116 290.78 19.3816 287.64C20.5416 284.5 21.8216 281.38 23.4216 278.38L23.5216 278.42V278.46Z" fill="#231F20"/>
<path d="M130.249 287.44C127.719 288.81 125.169 290.16 122.689 291.62L118.949 293.78L115.279 296.05C114.389 296.61 113.499 297.17 112.639 297.76C111.779 298.36 110.919 298.96 110.039 299.54C106.909 301.53 103.919 303.69 100.889 305.82C97.9392 308.06 94.9692 310.26 92.1692 312.69C89.5992 314.75 87.2892 317.11 84.9292 319.36C83.4892 320.88 82.1192 322.46 80.6392 323.94C79.8892 324.67 79.2092 325.47 78.4692 326.21C77.7492 326.97 76.9192 327.64 76.1392 328.36C75.1292 329.22 75.0092 328.91 75.3292 327.74C75.4892 327.15 75.7392 326.33 76.0892 325.36C76.4692 324.41 77.0192 323.39 77.7392 322.38C83.2692 315.57 89.8392 309.69 96.9692 304.58C101.219 301.5 105.529 298.16 109.959 295.17C112.399 293.53 114.909 291.98 117.389 290.41C119.929 288.92 122.419 287.37 124.989 285.94L129.719 283.29L134.499 280.74C139.319 278.16 144.279 275.79 149.119 273.34C152.909 271.49 156.509 269.42 160.259 267.59C161.089 267.19 161.879 266.75 162.729 266.38C165.919 265.09 167.049 264.97 168.109 265.59C168.349 265.73 168.639 265.85 168.819 266.02C169.409 266.58 168.379 267.72 166.229 269.03C163.039 270.97 159.679 272.72 156.219 274.41C152.769 276.1 149.279 277.82 145.769 279.53C143.179 280.83 140.589 282.13 137.989 283.43C135.429 284.8 132.819 286.09 130.299 287.52L130.249 287.44Z" fill="#231F20"/>
<path d="M79.3087 352.92C79.3087 350.42 79.3787 347.92 79.4987 345.42C79.5387 344.51 79.4787 343.6 79.5687 342.69C79.7787 339.49 80.2788 336.31 80.7988 333.15C81.0388 331.75 81.1787 330.33 81.4587 328.95C81.6287 328.06 81.7987 327.17 82.0587 326.29C82.3087 325.41 82.6688 324.56 83.0088 323.72C83.2388 323.2 83.4288 323.33 83.6188 323.86C83.7988 324.39 84.0887 325.34 84.0987 326.37C84.1187 330.01 83.5788 333.51 83.0788 337.12C82.9188 338.2 82.8687 339.31 82.8087 340.42C82.7787 341.54 82.7887 342.66 82.7387 343.77C82.6787 346.22 82.6187 348.67 82.6687 351.12L82.7188 353.39L82.8288 355.65C82.9488 357.93 83.0987 360.23 83.4487 362.48C83.7587 364.22 84.2088 365.89 84.6488 367.57C84.7488 367.94 84.8588 368.3 84.9088 368.68C85.1288 370.09 84.9887 370.59 84.3887 371.05C84.2487 371.16 84.1188 371.28 83.9788 371.36C83.5188 371.62 82.9387 371.15 82.4187 370.16C80.8787 367.22 80.1687 363.85 79.7687 360.48C79.4687 357.97 79.2688 355.44 79.2188 352.92H79.3087Z" fill="#231F20"/>
<path d="M280.77 292.79C279.32 292.27 277.86 291.63 276.42 290.65C275.71 290.14 274.97 289.57 274.32 288.79C273.5 287.84 272.96 286.56 272.78 285.32C272.76 284.81 272.78 284.29 272.92 283.8C272.99 283.55 273.1 283.32 273.23 283.1C273.34 282.87 273.5 282.66 273.66 282.46C273.81 282.25 273.99 282.07 274.19 281.89C274.37 281.7 274.58 281.54 274.81 281.4L275.47 280.95L276.06 280.64C277.37 280 278.58 279.63 279.79 279.29C282.2 278.61 284.57 278.23 286.94 277.88C289.7 277.47 292.44 277.04 295.19 276.79C304.88 275.92 314.54 275.6 324.19 275.26C328.47 275.11 332.77 274.88 337.01 274.68C339.73 274.54 342.46 274.4 345.19 274.26C346.55 274.19 347.92 274.17 349.28 274.2C350.65 274.22 352.01 274.2 353.38 274.51C354.24 274.77 354.62 274.96 354.6 275.12C354.59 275.29 354.18 275.49 353.49 275.97C352.1 276.96 349.48 278.12 346.35 278.38C340.79 278.72 335.24 279.06 329.68 279.27C324.12 279.45 318.55 279.58 312.95 279.69C306.25 279.82 299.33 280.59 292.58 281.39C289.46 281.77 286.33 282.2 283.31 282.82C281.81 283.13 280.3 283.47 278.95 283.95C278.61 284.07 278.29 284.2 277.98 284.33L277.65 284.49L277.44 284.62C277.16 284.79 276.92 285.11 277.01 285.46C277.06 285.71 277.16 285.95 277.3 286.17C277.36 286.24 277.51 286.47 277.66 286.62C277.79 286.79 277.99 286.95 278.15 287.11C279.65 288.33 281.79 289.13 283.92 289.74C286.07 290.34 288.32 290.77 290.58 291.1C297.45 292.07 304.51 292.37 311.46 292.32C316.87 292.27 322.17 291.85 327.51 291.46C328.69 291.37 329.83 291.25 331.02 291.17C333.22 291.03 334.68 291 335.71 291.14C336.23 291.22 336.64 291.34 336.98 291.49C337.32 291.66 337.6 291.87 337.85 292.09C338.08 292.29 338.37 292.47 338.51 292.64C338.74 292.93 338.41 293.22 337.63 293.64C336.85 294.07 335.61 294.36 334 294.57C324.43 295.77 314.25 296.31 303.96 296.05C300.14 295.95 296.3 295.73 292.44 295.29C288.58 294.83 284.7 294.24 280.77 292.92L280.79 292.82L280.77 292.79Z" fill="#231F20"/>
<path d="M343.459 320.33C349.379 320.86 355.429 320.51 361.109 318.86C363.189 318.26 365.159 317.39 367.069 316.46C368.759 315.64 370.359 314.67 371.819 313.57C373.249 312.46 374.589 311.18 375.379 309.77C375.769 309.08 375.999 308.36 375.989 307.79C375.989 307.65 375.959 307.52 375.949 307.39C375.889 307.28 375.899 307.14 375.819 307.04C375.759 306.93 375.709 306.81 375.599 306.71L375.469 306.55C375.469 306.55 375.379 306.48 375.329 306.45C374.949 306.13 374.079 305.91 373.219 305.82C372.339 305.72 371.389 305.74 370.439 305.78C367.039 305.98 363.579 306.84 360.199 307.64C358.019 308.18 355.859 308.82 353.689 309.43L350.419 310.34L348.779 310.78C348.219 310.9 347.659 311 347.079 311.05C345.589 311.05 345.799 311.07 346.759 310.17C347.689 309.19 349.549 307.81 352.019 306.86C354.199 306.02 356.409 305.22 358.649 304.49C360.889 303.77 363.159 303.07 365.539 302.67C367.919 302.25 370.319 301.9 372.999 302.04C373.339 302.06 373.669 302.08 374.029 302.14C374.369 302.18 374.739 302.25 375.109 302.34C375.839 302.51 376.659 302.78 377.489 303.37C377.929 303.67 378.239 304.02 378.539 304.37C378.829 304.74 379.089 305.17 379.279 305.6C379.679 306.5 379.749 307.46 379.699 308.32C379.449 310.35 378.559 311.88 377.599 313.18C376.619 314.48 375.499 315.6 374.319 316.6C371.919 318.58 369.249 320.09 366.479 321.26C360.369 323.76 353.809 324.72 347.359 324.64C345.359 324.59 343.429 324.5 341.389 324.24C339.359 323.95 337.369 323.44 335.449 322.65C334.719 322.35 334.009 322 333.319 321.59C332.979 321.39 332.629 321.16 332.299 320.93C331.989 320.72 331.669 320.48 331.359 320.24C330.119 319.26 328.959 318.09 328.109 316.65C327.249 315.23 326.749 313.49 326.829 311.79C326.909 310.09 327.459 308.5 328.209 307.11C329.369 304.92 330.939 303.15 332.559 301.5C334.199 299.86 335.959 298.38 337.809 297.03C338.609 296.41 339.409 295.85 340.259 295.29C343.519 293.42 344.739 293.18 345.839 293.55C346.079 293.62 346.359 293.64 346.519 293.71C346.999 293.86 346.099 295.34 343.989 296.95C343.209 297.55 342.469 298.22 341.679 298.81C340.889 299.4 340.119 300.01 339.349 300.63C337.829 301.88 336.329 303.16 335.009 304.54C333.699 305.92 332.489 307.39 331.739 308.89C330.969 310.4 330.719 311.81 331.019 313.03C331.229 313.95 331.749 314.88 332.569 315.76C332.979 316.2 333.439 316.62 333.959 317.02C334.209 317.22 334.509 317.43 334.789 317.62C335.039 317.79 335.299 317.95 335.569 318.11C336.669 318.73 337.959 319.22 339.289 319.58C340.649 319.94 341.969 320.17 343.449 320.25V320.35L343.459 320.33Z" fill="#231F20"/>
<path d="M358.179 332.51C362.129 331.91 366.059 330.85 369.799 329.31C371.159 328.75 372.449 328.03 373.749 327.36C376.049 326.19 378.269 324.83 380.179 323.22C381.129 322.42 381.999 321.53 382.659 320.61C383.009 320.16 383.249 319.69 383.429 319.24C383.569 318.8 383.619 318.41 383.549 318.08C383.409 317.53 382.649 316.84 381.819 316.59C380.959 316.32 379.909 316.37 378.869 316.59C377.519 316.89 376.179 317.48 374.869 318.12C374.539 318.28 374.209 318.44 373.889 318.62C373.549 318.76 373.209 318.92 372.869 319.07L371.839 319.54C371.489 319.69 371.109 319.8 370.739 319.93C369.759 320.18 369.869 320.13 370.249 319.27C370.609 318.39 371.379 316.76 372.939 315.69C374.359 314.82 375.869 314.02 377.609 313.48C378.039 313.34 378.489 313.22 378.969 313.14C379.429 313.03 379.929 312.99 380.439 312.96C380.929 312.9 381.499 312.99 382.029 313.02C382.579 313.14 383.149 313.24 383.689 313.48C384.239 313.73 384.769 313.99 385.229 314.39C385.469 314.59 385.699 314.73 385.919 314.99C386.139 315.25 386.359 315.51 386.559 315.79C386.739 316.1 386.899 316.43 387.039 316.76C387.149 317.1 387.229 317.45 387.299 317.8C387.379 318.49 387.359 319.17 387.229 319.76C386.679 322.12 385.399 323.53 384.119 324.75C381.019 327.55 377.679 329.87 374.069 331.64C370.109 333.55 365.949 334.94 361.689 335.85C359.069 336.41 356.399 336.77 353.729 336.93C351.709 337.05 349.659 337.07 347.559 336.77C345.479 336.47 343.419 335.86 341.539 334.82C340.069 334.05 338.719 332.99 337.619 331.66C336.509 330.35 335.719 328.71 335.409 326.97C335.349 326.59 335.309 326.21 335.269 325.83C335.209 325.45 335.199 325.06 335.239 324.68C335.299 323.96 335.409 323.38 335.589 322.93C335.749 322.47 335.879 322.1 336.079 321.83C336.489 321.29 336.869 321.05 337.319 320.92C337.529 320.86 337.739 320.77 337.919 320.77C338.519 320.75 338.629 321.9 338.719 323.51C338.809 325.91 339.499 327.92 340.889 329.44C341.569 330.21 342.389 330.91 343.389 331.42C344.369 331.95 345.459 332.38 346.629 332.62C348.369 333.02 350.149 333.09 352.209 333.02C354.199 332.96 356.209 332.74 358.189 332.4L358.209 332.5L358.179 332.51Z" fill="#231F20"/>
<path d="M365.712 342.3C369.382 341.42 373.042 340.23 376.542 338.73C377.822 338.18 379.022 337.48 380.242 336.86C382.382 335.74 384.482 334.51 386.252 333.02C388.022 331.56 389.472 329.72 389.492 327.93C389.492 327.73 389.442 327.53 389.422 327.33C389.402 327.14 389.272 326.89 389.262 326.81C389.192 326.55 388.932 326.37 388.672 326.31C388.522 326.27 388.492 326.28 388.222 326.24C387.992 326.24 387.772 326.19 387.532 326.22C387.052 326.22 386.552 326.29 386.052 326.36C384.762 326.58 383.482 327.01 382.252 327.52C381.012 328.03 379.872 328.67 378.602 329.22C378.142 329.32 377.882 329.32 377.802 329.22C377.722 329.11 377.782 328.87 377.862 328.36C377.932 327.83 378.212 327.27 378.602 326.58C379.032 325.95 379.662 325.35 380.452 324.91C381.862 324.13 383.352 323.52 384.972 323.11C385.772 322.9 386.622 322.76 387.542 322.73C387.762 322.71 388.022 322.73 388.262 322.73C388.512 322.73 388.712 322.74 389.062 322.81C389.452 322.89 389.842 322.91 390.142 323.08C390.452 323.24 390.822 323.31 391.082 323.55C391.652 323.95 392.112 324.48 392.442 325.11C392.512 325.28 392.582 325.45 392.652 325.62L392.792 325.99C392.902 326.23 392.922 326.51 392.992 326.77C393.042 327.04 393.102 327.3 393.122 327.57V328.38C393.142 328.93 392.992 329.43 392.902 329.95C392.772 330.45 392.582 330.9 392.382 331.36C392.142 331.76 391.912 332.18 391.642 332.55C391.102 333.28 390.522 333.91 389.902 334.47C388.422 335.8 386.892 336.92 385.312 337.97C383.732 339.01 382.112 339.94 380.442 340.73C376.772 342.46 373.002 343.86 369.142 344.98C366.762 345.66 364.352 346.24 361.862 346.6C360.922 346.73 359.922 346.82 358.922 346.79C357.972 346.76 357.022 346.69 356.072 346.57C354.182 346.33 352.272 345.95 350.452 345.19C349.052 344.59 347.682 343.79 346.552 342.68C345.422 341.6 344.562 340.28 343.902 338.93C343.622 338.33 343.342 337.75 343.122 337.13C342.372 334.83 342.432 334.07 343.062 333.38C343.192 333.23 343.312 333.04 343.442 332.94C343.842 332.6 344.682 333.38 345.312 334.9C346.292 337.13 347.422 339.23 348.992 340.55C349.772 341.16 350.682 341.65 351.712 342C352.732 342.36 353.832 342.69 355.002 342.88C355.862 343.03 356.762 343.13 357.662 343.19C358.112 343.22 358.572 343.24 359.032 343.25C359.442 343.25 359.802 343.25 360.242 343.2C361.962 343.05 363.852 342.65 365.682 342.18L365.712 342.26V342.3Z" fill="#231F20"/>
<path d="M385.399 347.55C387.679 347.29 389.989 346.93 392.269 346.39C393.109 346.2 393.909 345.88 394.739 345.67C397.679 344.91 400.599 344.01 403.469 342.95C404.749 342.49 405.989 341.92 407.199 341.32C407.589 341.13 407.969 340.92 408.349 340.72L409.529 340.18C409.929 340.02 410.319 339.82 410.739 339.7C411.169 339.59 411.599 339.47 412.029 339.36C412.579 339.23 412.649 339.48 412.459 340.07C412.369 340.37 412.209 340.77 411.999 341.22C411.889 341.44 411.779 341.69 411.629 341.9C411.469 342.09 411.289 342.28 411.079 342.44L409.959 343.26C409.579 343.52 409.169 343.73 408.779 343.95C407.979 344.39 407.169 344.8 406.339 345.19C405.509 345.57 404.679 345.95 403.819 346.26C402.949 346.56 402.079 346.83 401.179 347.07C399.049 347.64 396.969 348.57 394.799 349.19C392.419 349.87 389.999 350.42 387.549 350.82C386.039 351.05 384.509 351.21 382.969 351.31C380.639 351.46 378.279 351.35 375.949 351.03C374.139 350.79 372.309 350.41 370.579 349.59C370.209 349.4 369.819 349.24 369.489 348.97C369.169 348.73 368.919 348.52 368.729 348.32C368.539 348.13 368.439 347.9 368.359 347.72C368.209 347.35 368.219 347.05 368.329 346.7C368.379 346.54 368.419 346.38 368.489 346.25C368.729 345.83 369.459 345.91 370.369 346.23C372.999 347.22 375.659 347.62 378.619 347.82C380.799 347.93 383.089 347.8 385.379 347.47L385.399 347.56V347.55Z" fill="#231F20"/>
<path d="M363.679 247.39C366.749 252.09 370.189 256.42 374.309 260.18C378.389 263.96 382.959 267.25 387.779 270.25C391.289 272.45 394.969 274.43 398.599 276.56C401.789 278.44 404.999 280.35 408.129 282.4C411.259 284.45 414.309 286.67 417.259 288.99C420.229 291.3 422.979 293.87 425.699 296.47C426.999 297.83 428.359 299.13 429.579 300.56L431.449 302.67L433.219 304.86C437.379 310.06 441.059 315.66 444.239 321.42C446.309 325.11 448.179 328.91 449.879 332.78C450.759 334.71 451.439 336.71 452.189 338.68C452.569 339.66 452.899 340.67 453.209 341.68C453.509 342.69 453.709 343.74 453.919 344.78C454.139 346.09 454.169 346.68 454.019 346.69C453.859 346.7 453.489 346.15 452.779 345.24C451.249 343.43 449.029 339.97 447.089 335.64C443.729 327.92 439.769 320.49 435.069 313.57C433.949 311.8 432.639 310.17 431.429 308.46C430.109 306.84 428.859 305.16 427.439 303.62C424.699 300.45 421.749 297.45 418.539 294.71C410.919 288.03 401.549 282.98 392.429 277.67C387.419 274.74 382.379 271.7 377.669 268.12C375.289 266.36 373.049 264.41 370.879 262.39C368.769 260.3 366.699 258.16 364.889 255.81C360.319 250.12 356.709 243.8 353.469 237.4C352.239 234.98 351.069 232.52 349.899 230.09C349.319 228.88 348.739 227.66 348.129 226.49C347.519 225.33 346.879 224.15 346.159 223.23C345.979 223 345.889 222.92 345.729 222.78C345.589 222.65 345.409 222.57 345.229 222.53C344.849 222.52 344.489 222.71 344.189 222.94C343.389 223.56 342.659 224.64 342.139 225.75C341.069 228.02 340.549 230.61 340.359 233.18C340.079 237.2 340.609 241.24 341.769 245.05C342.929 248.87 344.679 252.48 346.909 255.78C347.389 256.52 347.909 257.21 348.439 257.9C348.949 258.6 349.539 259.25 350.089 259.94C354.469 264.82 355.999 266.29 356.579 267.86C356.719 268.21 356.959 268.61 357.019 268.86C357.109 269.27 356.559 269.13 355.399 268.58C354.809 268.32 354.099 267.91 353.309 267.34C352.509 266.78 351.579 266.11 350.629 265.24C345.029 260.11 340.459 253.26 338.279 245.41C337.169 241.5 336.679 237.37 336.919 233.2C337.049 231.11 337.369 229.02 337.999 226.93C338.319 225.89 338.689 224.85 339.229 223.82C339.769 222.8 340.369 221.77 341.349 220.81C341.509 220.63 341.729 220.46 341.929 220.29C342.209 220.09 342.479 219.81 342.809 219.68L343.769 219.22C344.099 219.1 344.439 219.05 344.779 218.96L345.029 218.9L345.089 218.88C345.109 218.93 345.129 218.89 345.149 218.9H345.279C345.449 218.9 345.629 218.87 345.799 218.89C346.139 218.97 346.479 219.04 346.789 219.19C347.439 219.44 347.999 219.89 348.519 220.38C348.579 220.44 348.649 220.5 348.729 220.55L348.879 220.72L349.119 220.99C349.289 221.18 349.399 221.34 349.549 221.52C349.839 221.87 350.039 222.21 350.269 222.56C350.699 223.24 351.089 223.91 351.459 224.58C352.929 227.23 354.149 229.84 355.429 232.43C357.969 237.6 360.659 242.62 363.779 247.33L363.699 247.4L363.679 247.39Z" fill="#231F20"/>
<path d="M425.139 370.8C424.739 369.92 424.269 369.07 423.859 368.19C423.399 367.33 422.949 366.47 422.459 365.63C422.089 365.02 421.649 364.46 421.269 363.85C419.969 361.69 418.549 359.57 416.999 357.54C416.319 356.63 415.519 355.82 414.769 354.98C413.769 353.93 412.689 352.96 412.139 351.47C411.999 350.98 412.179 350.89 412.789 350.83C413.449 350.73 414.459 350.74 415.189 351.21C417.629 353.03 419.579 355.37 421.239 357.96C422.219 359.52 423.539 360.9 424.609 362.44C425.779 364.14 426.859 365.9 427.849 367.72C428.449 368.84 429.009 369.98 429.559 371.12C430.379 372.86 431.119 374.63 431.859 376.38C432.449 377.73 433.129 379.02 433.729 380.37C433.859 380.67 433.969 380.96 434.049 381.28C434.369 382.44 434.109 382.92 433.499 383.37C433.349 383.47 433.219 383.59 433.069 383.67C432.589 383.93 431.959 383.61 431.349 382.92C430.539 381.86 429.879 380.74 429.279 379.59C428.659 378.45 428.059 377.29 427.549 376.1C427.159 375.22 426.779 374.33 426.359 373.45C425.969 372.56 425.529 371.7 425.079 370.83L425.159 370.78L425.139 370.8Z" fill="#231F20"/>
<path d="M428.661 386.41C432.751 382.29 436.331 377.44 439.471 372.36C440.621 370.5 441.621 368.55 442.671 366.63C446.371 359.86 449.611 352.76 451.871 345.37C452.851 342.09 453.581 338.71 453.881 335.39C454.051 333.27 454.031 331.11 453.541 329.22C453.411 328.76 453.291 328.29 453.131 327.89C452.991 327.61 453.051 327.63 452.881 327.54C452.691 327.5 452.241 327.57 451.801 327.73C451.361 327.9 450.921 328.17 450.521 328.49C450.021 328.89 449.801 329.08 449.701 329.01C449.611 328.94 449.631 328.58 449.851 327.96C450.101 327.35 450.411 326.45 451.461 325.5L451.571 325.41C451.591 325.34 451.641 325.35 451.681 325.31L451.951 325.17C452.121 325.07 452.351 325 452.591 324.94C452.811 324.87 453.131 324.87 453.411 324.86C453.721 324.9 454.061 324.94 454.361 325.09C455.011 325.35 455.491 325.84 455.821 326.3L455.951 326.48L456.031 326.61L456.181 326.87C456.281 327.04 456.391 327.22 456.471 327.41C457.051 328.72 457.241 330.03 457.381 331.29C457.511 332.56 457.511 333.79 457.451 335C457.321 337.42 456.991 339.77 456.451 342.06C455.371 346.63 453.811 351.02 451.941 355.27C449.701 360.35 447.461 365.65 444.711 370.61C441.681 376.05 438.251 381.29 434.171 386.08C431.631 388.99 428.841 391.76 425.491 393.92C424.221 394.73 422.851 395.44 421.361 395.92C419.881 396.4 418.261 396.66 416.641 396.49C415.871 396.39 414.951 396.24 414.121 395.73C413.301 395.23 412.671 394.44 412.311 393.62C411.621 391.95 411.691 390.33 411.841 388.83C412.111 386.48 412.731 384.3 413.451 382.16C414.171 380.02 415.061 377.97 416.101 375.97C416.561 375.09 417.011 374.23 417.551 373.37C419.531 370.18 420.971 369.62 422.051 369.64C422.311 369.65 422.611 369.64 422.791 369.7C423.101 369.82 423.041 370.2 422.811 370.8C422.561 371.4 422.181 372.31 421.561 373.39C419.671 376.57 418.101 380.17 416.821 383.77C416.201 385.57 415.681 387.42 415.481 389.15C415.381 390.01 415.361 390.85 415.481 391.48C415.601 392.14 415.821 392.41 415.961 392.5C416.031 392.67 417.421 392.93 418.491 392.73C419.621 392.57 420.821 392.16 421.991 391.55C424.341 390.31 426.571 388.44 428.601 386.36L428.671 386.42L428.661 386.41Z" fill="#231F20"/>
<path d="M491.228 366.74C489.078 363.04 486.698 359.47 484.228 355.95C483.318 354.68 482.278 353.5 481.358 352.23C478.038 347.82 474.558 343.5 470.818 339.4C470.018 338.47 469.118 337.61 468.248 336.74C467.358 335.88 466.508 335 465.588 334.2C464.408 333.17 463.248 332.11 462.108 331.02C461.528 330.49 460.928 329.98 460.408 329.39C459.888 328.79 459.368 328.18 458.868 327.57C458.248 326.79 458.608 326.55 459.618 326.65C460.128 326.7 460.798 326.82 461.578 327.02C461.958 327.13 462.388 327.23 462.778 327.42C463.158 327.61 463.548 327.85 463.918 328.12C466.528 330.1 468.958 332.3 471.248 334.64C472.418 335.78 473.528 336.99 474.618 338.22C475.718 339.44 476.758 340.71 477.758 342.03C478.968 343.59 480.278 345.11 481.548 346.67L483.498 348.99C484.118 349.79 484.738 350.59 485.348 351.38C488.038 354.89 490.488 358.58 492.878 362.29C494.288 364.62 495.728 366.92 497.028 369.31C497.528 370.21 498.048 371.1 498.538 372.01L499.948 374.76C500.918 376.58 501.738 378.46 502.658 380.29C503.998 383.17 505.508 385.91 506.658 388.85C506.908 389.5 507.218 390.11 507.408 390.78C507.588 391.4 507.718 391.93 507.808 392.37C507.888 392.82 507.898 393.2 507.898 393.51C507.898 394.14 507.778 394.54 507.568 394.89C507.478 395.05 507.398 395.25 507.308 395.35C507.008 395.7 506.248 394.84 505.198 393.24C504.878 392.62 504.518 392.02 504.228 391.39C503.898 390.77 503.568 390.15 503.228 389.53C502.558 388.29 502.038 386.98 501.368 385.72C500.718 384.45 500.138 383.14 499.478 381.87C498.818 380.59 498.168 379.31 497.508 378.02C495.418 374.27 493.478 370.41 491.158 366.77L491.238 366.72L491.228 366.74Z" fill="#231F20"/>
<path d="M444.359 430.13C443.439 428.65 442.509 427.17 441.509 425.74C440.549 424.28 439.489 422.89 438.449 421.49C437.699 420.45 436.769 419.58 435.989 418.57C435.299 417.68 434.549 416.85 433.809 416C433.069 415.15 432.339 414.3 431.549 413.5C430.769 412.69 430.009 411.85 429.209 411.06L426.749 408.74C426.029 408.04 425.219 407.45 424.439 406.82C423.649 406.21 422.869 405.57 422.039 405.03C419.959 403.55 417.809 402.17 415.979 400.26C415.399 399.68 415.619 399.52 416.419 399.5C416.819 399.5 417.389 399.51 418.049 399.57C418.379 399.6 418.739 399.64 419.109 399.7C419.299 399.73 419.469 399.78 419.679 399.8C419.849 399.88 420.019 399.95 420.189 400.04C421.389 400.67 422.529 401.38 423.679 402.1C424.809 402.85 425.849 403.71 426.909 404.56C427.429 404.99 427.959 405.41 428.479 405.85L429.969 407.23C430.959 408.15 431.939 409.1 432.829 410.13C433.949 411.31 435.079 412.51 436.219 413.72C436.789 414.33 437.379 414.91 437.939 415.53C438.479 416.16 439.029 416.79 439.569 417.42C440.769 418.79 441.819 420.28 442.929 421.71C443.979 423.19 445.039 424.67 446.039 426.18L447.849 428.99L449.579 431.84C450.469 433.27 451.249 434.77 452.099 436.22C452.909 437.69 453.719 439.16 454.519 440.62C455.139 441.76 455.799 442.86 456.469 443.96C457.129 445.06 457.749 446.18 458.369 447.3C458.649 447.79 458.939 448.27 459.179 448.78C460.079 450.69 460.079 451.43 459.499 452.19C459.359 452.37 459.239 452.57 459.089 452.7C458.579 453.15 457.709 452.61 456.789 451.36C455.499 449.47 454.249 447.5 453.089 445.47C452.509 444.45 451.939 443.42 451.379 442.38C450.809 441.35 450.229 440.31 449.659 439.27C448.819 437.72 447.909 436.21 447.059 434.67C446.129 433.18 445.269 431.63 444.289 430.17L444.359 430.12V430.13Z" fill="#231F20"/>
<path d="M130.409 236.41C129.199 232.81 128.219 229.14 127.539 225.42C127.279 224.06 126.959 222.72 126.779 221.35C126.169 216.52 126.019 211.63 126.449 206.79C126.509 205.72 126.679 204.64 126.759 203.57C126.939 202.5 127.059 201.43 127.289 200.39C127.539 199.04 127.869 197.69 128.249 196.37C128.739 195.07 129.369 193.83 130.079 192.65C130.519 191.91 130.699 192.13 130.809 192.93C130.859 193.33 130.909 193.88 130.929 194.52C130.949 195.16 131.019 195.91 130.929 196.65C130.379 199.24 130.039 201.84 129.779 204.46C129.449 207.08 129.299 209.74 129.239 212.44C129.159 215.68 129.749 219.02 130.349 222.27C131.009 225.86 131.889 229.42 132.969 232.92C133.629 235.08 134.409 237.21 135.249 239.3C136.559 242.46 138.019 245.59 139.799 248.49C141.179 250.74 142.869 252.71 144.529 254.66C144.889 255.1 145.299 255.46 145.669 255.9C147.059 257.46 147.389 258.04 147.119 259C147.059 259.22 147.029 259.46 146.939 259.65C146.669 260.28 145.589 260.1 144.249 259.05C142.309 257.48 140.479 255.66 138.959 253.59C137.429 251.53 136.079 249.31 134.869 247.03C133.069 243.64 131.599 240.07 130.299 236.47L130.379 236.43L130.409 236.41Z" fill="#231F20"/>
<path d="M136.062 210.72C136.402 210.4 136.752 210.08 137.092 209.77C137.212 209.66 137.312 209.51 137.442 209.4C137.892 209.01 138.402 208.67 138.882 208.32C139.102 208.16 139.292 207.98 139.482 207.8C139.722 207.57 139.962 207.3 140.332 207.21C140.442 207.18 140.582 207.42 140.662 207.69C140.742 207.97 140.802 208.27 140.682 208.4C140.252 208.84 139.802 209.29 139.242 209.65C138.912 209.87 138.662 210.21 138.382 210.49C138.072 210.8 137.752 211.12 137.432 211.43C137.242 211.63 137.052 211.82 136.872 212.03C136.612 212.35 136.302 212.64 136.082 212.99C135.912 213.26 135.802 213.56 135.662 213.83C135.632 213.89 135.612 213.95 135.572 214.01C135.442 214.22 135.332 214.24 135.042 214.17L134.842 214.12C134.632 214.05 134.512 213.87 134.512 213.64C134.532 213.3 134.582 212.96 134.672 212.64C134.772 212.32 134.952 212.06 135.122 211.78C135.362 211.37 135.702 211.03 136.022 210.69L136.052 210.71L136.062 210.72Z" fill="#231F20"/>
<path d="M139.371 221.14C139.581 220.93 139.841 220.76 140.071 220.57C140.151 220.5 140.221 220.41 140.301 220.35C140.611 220.13 140.931 219.9 141.231 219.68C141.361 219.58 141.481 219.46 141.601 219.34C141.751 219.19 141.881 219.02 142.091 218.94C142.221 218.89 142.551 219.5 142.411 219.69C142.151 220.02 141.871 220.32 141.511 220.56C141.291 220.7 141.161 220.94 140.991 221.13C140.801 221.33 140.611 221.54 140.411 221.75C140.291 221.87 140.161 222 140.051 222.13C139.871 222.33 139.691 222.52 139.551 222.74C139.441 222.91 139.401 223.13 139.331 223.32C139.311 223.36 139.301 223.4 139.271 223.44C139.171 223.57 139.071 223.57 138.811 223.44L138.631 223.35C138.441 223.24 138.321 223.09 138.311 222.93C138.261 222.45 138.521 222.13 138.741 221.8C138.921 221.56 139.131 221.34 139.331 221.12L139.351 221.14H139.371Z" fill="#231F20"/>
<path d="M142.661 240.3C142.931 239.96 143.201 239.62 143.501 239.3C143.601 239.18 143.671 239.04 143.781 238.93C144.181 238.54 144.601 238.17 145.001 237.79C145.171 237.62 145.321 237.43 145.451 237.23C145.621 236.98 145.751 236.68 146.081 236.57C146.281 236.5 147.191 237.63 147.021 237.9C146.691 238.38 146.321 238.82 145.811 239.18C145.501 239.39 145.371 239.75 145.151 240.04C144.911 240.36 144.661 240.68 144.421 240.99C144.271 241.19 144.121 241.39 143.991 241.6C143.781 241.91 143.581 242.23 143.431 242.57C143.321 242.84 143.301 243.14 143.241 243.42C143.231 243.48 143.231 243.55 143.211 243.61C143.131 243.83 143.001 243.85 142.571 243.74L142.281 243.66C141.961 243.56 141.731 243.36 141.691 243.15C141.591 242.52 141.691 241.92 141.931 241.39C142.121 241 142.371 240.64 142.611 240.27L142.651 240.29L142.661 240.3Z" fill="#231F20"/>
<path d="M456.412 386.11C457.302 384.83 458.272 383.6 459.072 382.24L460.312 380.24L461.442 378.16C461.712 377.65 461.972 377.14 462.222 376.62C462.452 376.09 462.682 375.56 462.932 375.04C464.732 371.39 466.282 367.58 467.662 363.7C468.302 361.99 468.742 360.2 469.232 358.45C469.512 357.32 469.852 356.2 470.182 355.08C470.502 353.95 470.852 352.84 471.352 351.75C471.652 351.07 471.752 351.19 471.892 351.86C471.972 352.28 472.072 352.75 472.162 353.24C472.242 353.8 472.252 354.45 472.182 355.13C472.022 356.33 471.872 357.54 471.672 358.73C471.412 359.91 471.092 361.08 470.792 362.25C470.132 364.58 469.422 366.91 468.452 369.17C467.312 371.87 466.312 374.74 465.052 377.47C464.342 378.96 463.572 380.42 462.782 381.87C461.922 383.28 461.152 384.75 460.182 386.1C459.602 386.94 459.062 387.8 458.442 388.61L456.572 391.03C455.602 392.23 454.532 393.35 453.512 394.5C452.382 395.55 451.332 396.69 450.192 397.7C449.292 398.48 448.442 399.3 447.572 400.11L444.782 402.31C444.372 402.65 443.952 402.93 443.492 403.2C443.282 403.32 443.082 403.43 442.902 403.53C442.712 403.61 442.532 403.67 442.372 403.73C442.042 403.84 441.772 403.91 441.522 403.94C441.042 404 440.702 403.91 440.362 403.7C440.202 403.6 440.032 403.53 439.912 403.42C439.532 403.07 439.982 402.27 440.952 401.25C444.022 398.59 447.252 396.08 450.222 393.13C451.382 392.1 452.352 390.88 453.422 389.75C453.962 389.18 454.402 388.54 454.902 387.93C455.372 387.31 455.902 386.72 456.332 386.07L456.402 386.11H456.412Z" fill="#231F20"/>
<path d="M439.981 391.59C439.841 391.23 439.701 390.86 439.571 390.5C439.521 390.37 439.421 390.27 439.381 390.14C439.241 389.66 439.171 389.14 439.031 388.68C438.971 388.47 438.881 388.28 438.781 388.1C438.651 387.86 438.481 387.65 438.511 387.33C438.511 387.14 439.661 386.83 439.871 387.05C440.211 387.46 440.511 387.89 440.621 388.43C440.681 388.76 440.971 388.97 441.101 389.26C441.251 389.58 441.411 389.9 441.571 390.22C441.671 390.42 441.771 390.62 441.881 390.81C442.051 391.09 442.201 391.4 442.411 391.66C442.581 391.85 442.841 391.97 443.021 392.15C443.061 392.19 443.111 392.22 443.151 392.26C443.271 392.43 443.211 392.57 442.901 392.89L442.691 393.11C442.451 393.34 442.171 393.46 441.951 393.43C441.641 393.38 441.331 393.3 441.101 393.16C440.881 393.01 440.691 392.83 440.521 392.63C440.281 392.33 440.131 391.96 439.941 391.62L439.981 391.59Z" fill="#231F20"/>
<path d="M448.552 377.37C448.512 377.17 448.472 376.98 448.422 376.78C448.402 376.71 448.362 376.65 448.342 376.58C448.282 376.33 448.242 376.07 448.162 375.83C448.132 375.72 448.072 375.63 448.022 375.53C447.952 375.41 447.842 375.3 447.862 375.14C447.862 375.04 448.512 374.82 448.622 374.95C448.792 375.18 448.932 375.43 448.982 375.73C449.012 375.91 449.142 376.04 449.222 376.2C449.302 376.38 449.382 376.56 449.452 376.74C449.502 376.85 449.532 376.97 449.572 377.08C449.632 377.25 449.682 377.43 449.762 377.59C449.832 377.71 449.942 377.81 450.022 377.92C450.042 377.94 450.062 377.96 450.082 377.99C450.142 378.09 450.102 378.15 449.932 378.27L449.812 378.35C449.672 378.43 449.532 378.46 449.442 378.41C449.172 378.27 448.992 378.08 448.832 377.86C448.722 377.7 448.612 377.54 448.522 377.36H448.542L448.552 377.37Z" fill="#231F20"/>
<path d="M455.152 360.27C455.072 360 455.062 359.71 455.012 359.43C454.992 359.33 454.932 359.25 454.922 359.15C454.882 358.79 454.862 358.42 454.812 358.08C454.792 357.93 454.732 357.79 454.672 357.65C454.592 357.48 454.462 357.32 454.532 357.09C454.562 356.95 455.602 356.73 455.732 356.9C455.942 357.21 456.102 357.54 456.122 357.94C456.122 358.18 456.312 358.36 456.402 358.56C456.502 358.79 456.602 359.02 456.682 359.26C456.732 359.41 456.772 359.56 456.832 359.71C456.922 359.93 456.992 360.16 457.142 360.35C457.262 360.49 457.472 360.57 457.592 360.7C457.622 360.73 457.662 360.75 457.692 360.78C457.772 360.9 457.692 361.01 457.342 361.28L457.102 361.46C456.832 361.66 456.552 361.76 456.382 361.73C456.142 361.68 455.912 361.62 455.762 361.5C455.622 361.37 455.522 361.22 455.432 361.05C455.302 360.81 455.212 360.54 455.112 360.29L455.152 360.27Z" fill="#231F20"/>
<path d="M351.562 177.52C359.322 177.52 367.172 177.52 374.902 178.3C375.342 178.34 375.782 178.39 376.222 178.45C375.592 178.37 376.782 178.54 377.012 178.58C377.292 178.63 377.572 178.7 377.852 178.77C377.952 178.79 378.052 178.85 378.152 178.87C378.522 178.92 377.642 178.6 377.972 178.8C377.902 178.76 376.672 177.33 377.092 177.16C377.072 177.16 377.092 177.48 377.092 177.5C377.052 178.03 377.092 178.58 377.092 179.12C377.102 184.07 377.092 189.03 377.052 193.98C377.002 199.78 377.052 205.62 376.622 211.41C376.532 212.62 377.722 213.66 378.872 213.66C380.162 213.66 381.032 212.63 381.122 211.41C381.512 206.2 381.492 200.95 381.542 195.73C381.592 190.34 381.602 184.95 381.592 179.56C381.592 178.6 381.762 177.42 381.492 176.47C381.002 174.75 379.042 174.35 377.522 174.12C372.692 173.38 367.742 173.3 362.862 173.17C359.102 173.07 355.332 173.01 351.562 173.01C348.662 173.01 348.662 177.51 351.562 177.51V177.52Z" fill="#231F20"/>
<path d="M261.009 316.02C253.249 316.02 245.399 316.02 237.669 315.24C237.229 315.2 236.789 315.15 236.349 315.09C236.979 315.17 235.789 315 235.559 314.96C235.279 314.91 234.999 314.84 234.719 314.77C234.619 314.75 234.519 314.69 234.419 314.67C234.049 314.62 234.929 314.94 234.599 314.74C234.669 314.78 235.899 316.21 235.479 316.38C235.499 316.38 235.479 316.06 235.479 316.04C235.519 315.51 235.479 314.96 235.479 314.42C235.469 309.47 235.479 304.51 235.519 299.56C235.569 293.76 235.519 287.92 235.949 282.13C236.039 280.92 234.849 279.88 233.699 279.88C232.409 279.88 231.539 280.91 231.449 282.13C231.059 287.34 231.079 292.59 231.029 297.81C230.979 303.03 230.969 308.59 230.979 313.98C230.979 314.94 230.809 316.12 231.079 317.07C231.569 318.79 233.529 319.19 235.049 319.42C239.879 320.16 244.829 320.24 249.709 320.37C253.469 320.47 257.239 320.53 261.009 320.53C263.909 320.53 263.909 316.03 261.009 316.03V316.02Z" fill="#231F20"/>
<g opacity="0.4">
<path d="M354.921 185.19C359.361 185.19 363.821 185.23 368.241 185.55C368.791 185.59 369.341 185.64 369.881 185.69C370.011 185.7 370.141 185.72 370.261 185.74C370.221 185.74 369.891 185.68 370.181 185.73C370.411 185.77 370.641 185.8 370.861 185.85C370.971 185.88 371.101 185.93 371.221 185.95C371.471 185.98 370.851 185.74 371.031 185.87C370.801 185.71 370.231 185.2 370.361 184.63C370.331 184.77 370.361 184.97 370.361 185.11C370.361 187.67 370.361 190.24 370.351 192.8C370.331 196.24 370.351 199.7 370.101 203.12C369.951 205.21 373.201 205.2 373.351 203.12C373.791 197.14 373.641 191.09 373.621 185.11C373.621 184.26 373.451 183.5 372.631 183.04C371.811 182.58 370.671 182.53 369.751 182.43C366.901 182.13 364.021 182.08 361.151 182.01C359.071 181.97 356.991 181.94 354.911 181.94C352.831 181.94 352.821 185.19 354.911 185.19H354.921Z" fill="#231F20"/>
</g>
<g opacity="0.4">
<path d="M258.589 309.27C254.189 309.27 249.769 309.23 245.379 308.92C244.839 308.88 244.289 308.83 243.749 308.78C243.619 308.77 243.499 308.75 243.369 308.74C243.409 308.74 243.739 308.8 243.449 308.75C243.219 308.71 242.999 308.68 242.769 308.63C242.659 308.6 242.529 308.55 242.419 308.53C242.169 308.5 242.789 308.74 242.609 308.61C242.839 308.77 243.409 309.28 243.279 309.86C243.309 309.72 243.279 309.53 243.279 309.38C243.279 306.84 243.279 304.3 243.289 301.75C243.309 298.34 243.289 294.92 243.539 291.52C243.689 289.43 240.439 289.44 240.289 291.52C239.849 297.44 240.009 303.44 240.029 309.38C240.029 310.22 240.199 310.99 241.019 311.44C241.839 311.89 242.959 311.95 243.889 312.05C246.719 312.35 249.569 312.4 252.409 312.46C254.469 312.5 256.529 312.53 258.589 312.53C260.679 312.53 260.679 309.28 258.589 309.28V309.27Z" fill="#231F20"/>
</g>
<path opacity="0.3" d="M150.731 93.7899C151.491 89.9599 155.701 90.9199 156.831 93.3399C158.661 97.2499 154.661 98.9099 151.941 95.5799C151.591 95.1499 150.651 94.1899 150.731 93.7899Z" fill="#231F20"/>
<path d="M475.661 177.82C472.201 174.46 476.031 170.73 479.301 171.19C484.591 171.93 483.621 177.19 478.331 177.77C477.651 177.85 476.021 178.18 475.661 177.82Z" fill="#231F20"/>
<path d="M137.212 329.91C137.972 326.08 142.182 327.04 143.312 329.46C145.142 333.37 141.142 335.03 138.422 331.7C138.072 331.27 137.132 330.31 137.212 329.91Z" fill="#231F20"/>
<path d="M114.481 152.51C117.701 156.49 113.191 159.94 109.801 159.04C104.321 157.59 106.011 152.17 111.661 152.23C112.391 152.23 114.141 152.09 114.481 152.51Z" fill="#231F20"/>
<path opacity="0.5" d="M236.009 111.07C240.149 113.64 237.169 118.14 233.839 118.4C228.459 118.81 228.289 113.41 233.379 111.7C234.039 111.48 235.569 110.8 235.999 111.07H236.009Z" fill="#231F20"/>
<path d="M175.24 72.3501C172.75 74.3801 170.58 71.5501 171.14 69.4201C172.05 65.9801 175.45 67.0401 175.41 70.5801C175.41 71.0401 176.76 71.1001 175.23 72.3501H175.24Z" fill="#231F20"/>
<path d="M359.24 124.42C356.75 126.45 354.58 123.62 355.14 121.49C356.05 118.05 359.45 119.11 359.41 122.65C359.41 123.11 360.76 123.17 359.23 124.42H359.24Z" fill="#231F20"/>
<path opacity="0.3" d="M466.06 191.64C466.52 195.83 461.85 196.2 459.9 194.06C456.76 190.61 460.36 187.61 464.23 190.18C464.73 190.51 465.77 189.07 466.06 191.64Z" fill="#231F20"/>
<path opacity="0.3" d="M327.752 366.46C327.752 368.67 325.962 370.46 323.752 370.46C312.262 370.48 327.742 354.9 327.752 366.46Z" fill="#231F20"/>
<path opacity="0.5" d="M410.97 89.7499C411.35 94.4799 403.18 93.4199 404.56 88.8499C405.55 85.5799 410.71 86.5299 410.97 89.7499Z" fill="#231F20"/>
</svg>
