<svg viewBox="0 0 68 68" fill="none" xmlns="http://www.w3.org/2000/svg">
<path d="M25.39 6.84004C24.82 7.18004 24.17 7.64004 23.39 8.13004C23.01 8.37004 22.6 8.62004 22.15 8.86004L21.45 9.22004C21.19 9.35004 20.97 9.43004 20.61 9.58004C19.9314 9.84372 19.208 9.97278 18.48 9.96004C18.1143 9.94533 17.7501 9.90524 17.39 9.84004L16.64 9.68004C15.75 9.46004 14.96 9.21004 14.17 8.98004C13.02 8.67004 11.88 8.50004 10.79 8.21004C8.31002 7.64004 8.47002 7.47004 7.44002 7.40004C7.33146 7.38733 7.22145 7.39673 7.11662 7.42767C7.01178 7.4586 6.9143 7.51043 6.83002 7.58004C6.75784 7.65104 6.70243 7.73727 6.66783 7.83242C6.63323 7.92758 6.62031 8.02926 6.63002 8.13004C6.65891 8.5612 6.81948 8.97309 7.09002 9.31004C7.21103 9.48872 7.35568 9.65019 7.52002 9.79004L7.65002 9.90004L7.86002 10.09L8.31002 10.45C8.98403 10.9456 9.69626 11.387 10.44 11.77C12.38 12.77 14.5 13.57 16.44 14.47C16.91 14.7 16.98 15.47 16.16 16.23C15.6488 16.6654 15.0469 16.981 14.3981 17.154C13.7493 17.3271 13.0701 17.353 12.41 17.23C11.128 16.9483 9.87814 16.5362 8.68002 16C8.07002 15.73 7.47002 15.43 6.87002 15.1C6.27002 14.77 5.73002 14.44 5.00002 14C4.62767 13.7465 4.29129 13.4437 4.00002 13.1C3.59002 12.68 3.16002 12.29 2.80002 11.86C2.44002 11.43 2.00002 11 1.70002 10.55L1.07002 9.15004C0.943495 8.69283 0.843331 8.22873 0.770024 7.76004C0.755044 7.53696 0.755044 7.31312 0.770024 7.09004C0.760988 6.87547 0.777774 6.6606 0.820023 6.45004C0.902593 5.56875 1.27951 4.74094 1.89002 4.10004C2.64176 3.37391 3.59808 2.89575 4.63002 2.73004C5.78454 2.54369 6.95978 2.52349 8.12002 2.67004C9.47002 2.85004 10.29 3.03004 11.02 3.18004C11.75 3.33004 12.51 3.53004 13.23 3.73004L15.55 4.40004C16.32 4.59004 17.08 4.78004 17.76 4.91004L18.1 4.98004C18.1797 4.98967 18.2603 4.98967 18.34 4.98004C18.521 4.98788 18.7008 4.94641 18.86 4.86004C19.4734 4.56639 20.0534 4.20766 20.59 3.79004C21.37 3.25004 22.2 2.61004 23.19 2.02004C23.7243 1.70325 24.2827 1.42907 24.86 1.20004C25.5319 0.916154 26.2238 0.682187 26.93 0.50004C29 4.01437e-05 31 4.01735e-05 32.47 1.21004C32.8143 1.53595 33.0892 1.92803 33.2782 2.36279C33.4672 2.79754 33.5665 3.26599 33.57 3.74004C33.5878 4.6915 33.4144 5.63684 33.06 6.52004C32.7757 7.26173 32.4416 7.98338 32.06 8.68004L31.41 9.75004L30.85 10.59C30.1275 11.6634 29.3074 12.6677 28.4 13.59C28.0122 13.9996 27.6016 14.3869 27.17 14.75C25.49 16.06 24.58 15.86 23.57 14.82C23.325 14.5873 23.0977 14.3366 22.89 14.07C22.5936 13.5931 22.4678 13.0298 22.5332 12.4721C22.5986 11.9144 22.8513 11.3954 23.25 11C24.4828 9.70449 25.6318 8.33171 26.69 6.89004C26.7869 6.76567 26.8707 6.63162 26.94 6.49004H26.89C26.89 6.49004 26.89 6.49004 26.89 6.41004C26.8675 6.40161 26.8426 6.40161 26.82 6.41004C26.3608 6.58331 25.9243 6.81165 25.52 7.09004L25.39 6.84004Z" fill="#231F20"/>
<path d="M37.7403 52.8601C38.3821 52.9867 39.0113 53.1708 39.6203 53.4101C40.0446 53.5827 40.4586 53.7797 40.8603 54.0001C41.6303 54.4101 42.2803 54.8201 42.8603 55.2001C42.9638 55.2676 43.0609 55.3446 43.1503 55.4301C43.2073 55.482 43.2759 55.5197 43.3503 55.5401C43.4253 55.5621 43.5041 55.5681 43.5816 55.5577C43.6591 55.5474 43.7336 55.521 43.8003 55.4801C43.9385 55.3995 44.0661 55.3021 44.1803 55.1901L44.8103 54.6701C45.2304 54.3113 45.6712 53.9774 46.1303 53.6701C47.3649 52.8151 48.6813 52.0848 50.0603 51.4901C51.1636 50.9986 52.3628 50.7595 53.5703 50.7901C54.09 50.8057 54.6036 50.907 55.0903 51.0901C55.6201 51.2993 56.0857 51.6442 56.4403 52.0901C56.6006 52.3299 56.7443 52.5805 56.8703 52.8401C56.9632 53.0934 57.0334 53.3544 57.0803 53.6201C57.0854 54.091 57.035 54.5609 56.9303 55.0201C56.6964 56.0177 56.294 56.968 55.7403 57.8301C55.4303 58.3401 55.0203 58.8301 54.6603 59.3801C54.3003 59.9301 53.8903 60.3801 53.4603 60.8701C53.0303 61.3601 53.0503 61.3801 52.8803 61.6001L52.4103 62.2101C52.0903 62.6201 51.7603 63.0201 51.4103 63.4201C50.689 64.1731 49.91 64.8686 49.0803 65.5001C48.5803 65.8801 48.2003 65.5001 48.0303 64.6901C47.8096 63.6023 47.9068 62.4741 48.3103 61.4401C48.8203 60.5201 49.3803 59.6501 49.9003 58.7701C49.9603 58.7001 49.9603 58.7701 50.0703 58.6901C50.2508 58.5836 50.4129 58.4485 50.5503 58.2901C50.669 58.1556 50.7536 57.9946 50.7971 57.8206C50.8407 57.6465 50.8417 57.4646 50.8003 57.2901C50.7003 56.9601 50.2903 57.0901 49.9403 57.2901C49.761 57.394 49.5874 57.5075 49.4203 57.6301L48.2903 58.4401C47.6903 58.8601 47.4203 59.1201 46.2903 59.9001C45.3595 60.5656 44.2191 60.8711 43.0803 60.7601C42.5211 60.6903 41.9753 60.5387 41.4603 60.3101C40.9503 60.0701 40.4603 59.7901 40.2103 59.6401C39.6003 59.3001 39.0303 58.9801 38.4903 58.7301C38.0286 58.4909 37.5378 58.3127 37.0303 58.2001C36.5809 58.1151 36.1196 58.1151 35.6703 58.2001C35.2448 58.2563 34.8432 58.4293 34.5103 58.7001C34.3586 58.8469 34.2626 59.042 34.2389 59.2518C34.2152 59.4616 34.2652 59.6731 34.3803 59.8501C34.6883 60.3961 35.1241 60.8593 35.6503 61.2001C35.8999 61.3615 36.1605 61.5052 36.4303 61.6301C36.8403 61.8501 37.2903 62.0201 37.7203 62.2001C38.6103 62.5201 39.5103 62.7801 40.4203 63.0101C40.8271 63.076 41.2283 63.1729 41.6203 63.3001C43.0503 63.8301 43.4503 64.2401 43.5403 65.4601C43.5403 65.7301 43.6103 65.9901 43.6103 66.2401C43.6103 67.0401 42.7503 67.7301 41.3703 67.7301C40.3586 67.7767 39.3459 67.6619 38.3703 67.3901C37.3391 67.1322 36.3346 66.7773 35.3703 66.3301C34.8903 66.0901 34.3703 65.8601 33.9303 65.5701C33.1903 65.1501 32.3903 64.5701 31.6403 64.0201L30.6403 63.0901C30.3103 62.7801 30.0403 62.4501 29.7303 62.0901C29.2344 61.4982 28.8514 60.8203 28.6003 60.0901L28.3603 59.3301C28.2335 58.3078 28.3891 57.2702 28.8103 56.3301C29.0405 55.8642 29.3258 55.4278 29.6603 55.0301C30.0226 54.654 30.425 54.3187 30.8603 54.0301C31.8327 53.4641 32.8946 53.0685 34.0003 52.8601C35.2228 52.5721 36.4896 52.5246 37.7303 52.7201L37.7403 52.8601Z" fill="#231F20"/>
<path d="M62.4797 28.1401L61.1497 29.1401L60.2797 29.7901C59.8694 30.0836 59.4264 30.3285 58.9597 30.5201C58.1824 30.775 57.3676 30.8967 56.5497 30.8801C55.899 30.8548 55.2524 30.7644 54.6197 30.6101C53.6333 30.3477 52.6673 30.0135 51.7297 29.6101C50.8451 29.2941 49.9437 29.027 49.0297 28.8101C48.6297 28.6801 48.2297 28.5801 47.8397 28.4801L47.3397 28.3701L47.1197 28.3001C46.7994 28.1855 46.4553 28.1546 46.1197 28.2101C45.9306 28.234 45.7583 28.3309 45.6397 28.4801C45.5423 28.6278 45.4965 28.8036 45.5097 28.9801C45.5276 29.3757 45.652 29.7592 45.8697 30.0901C46.1868 30.4815 46.565 30.8192 46.9897 31.0901C47.6014 31.4873 48.2513 31.8223 48.9297 32.0901C50.9424 32.6913 52.8838 33.5094 54.7197 34.5301C55.3097 34.9301 55.0497 35.2301 54.3697 35.5301C53.4258 35.9747 52.4096 36.2457 51.3697 36.3301C48.9117 36.4569 46.4634 35.9362 44.2697 34.8201L43.7997 34.5501L43.1897 34.1401L42.5997 33.7301L42.0697 33.1501L41.5597 32.5701L41.1697 31.9101L40.7797 31.2701L40.5497 30.5801C40.1904 29.7793 40.0404 28.9004 40.1139 28.0258C40.1873 27.1512 40.4818 26.3097 40.9697 25.5801C42.2497 23.9501 44.3497 23.4701 46.5697 23.5801C47.1197 23.5801 47.7097 23.6701 48.0997 23.7301L49.2197 23.8901C49.9241 24.0101 50.6217 24.167 51.3097 24.3601C51.9397 24.5501 52.5497 24.7401 53.1997 24.9801C53.8497 25.2201 54.2897 25.4001 54.7797 25.5601C55.2262 25.7111 55.6844 25.8248 56.1497 25.9001C56.2928 25.9106 56.4366 25.9106 56.5797 25.9001C56.7089 25.9198 56.8404 25.9198 56.9697 25.9001C57.0686 25.8746 57.163 25.8341 57.2497 25.7801L57.3897 25.6801L57.6297 25.5001C58.9397 24.5001 60.3097 23.2101 61.9197 22.0801C62.6311 21.5598 63.4257 21.1641 64.2697 20.9101L64.7297 20.8301C64.9161 20.8149 65.1033 20.8149 65.2897 20.8301C65.5176 20.8452 65.7427 20.8889 65.9597 20.9601C66.1998 21.0367 66.426 21.1515 66.6297 21.3001C67.2348 21.7603 67.6366 22.4383 67.7497 23.1901C67.7497 23.4301 67.8197 23.7201 67.8397 23.8801V24.4001C67.8792 24.8711 67.8557 25.3453 67.7697 25.8101C67.5876 26.6744 67.2487 27.498 66.7697 28.2401C66.1397 29.2401 65.5197 30.2401 64.8897 31.0801C64.2597 31.9201 63.5697 32.7801 62.8897 33.5801C62.5797 33.9301 62.3097 34.2901 61.9697 34.5801C60.7197 35.7801 60.0397 35.8301 58.8697 35.0701C58.6005 34.9073 58.3401 34.7304 58.0897 34.5401C57.7019 34.1777 57.4634 33.6836 57.4209 33.1546C57.3784 32.6256 57.5348 32.0998 57.8597 31.6801C58.8597 30.0701 59.8597 28.5301 60.8597 27.1001C61.3997 26.4501 61.8597 25.8001 62.2397 25.2901C62.3511 25.127 62.4513 24.9566 62.5397 24.7801L62.7397 24.8301L63.0097 24.9001H62.9497H62.6597C62.5197 24.9001 62.5597 24.9001 62.5597 24.9001C62.5652 24.8502 62.5652 24.7999 62.5597 24.7501V24.5101V24.2701C62.6697 24.2701 62.8997 24.2701 63.0597 24.1801C63.8488 24.1467 64.6077 23.8669 65.2297 23.3801C65.2067 23.4787 65.2067 23.5814 65.2297 23.6801C65.1957 23.8652 65.1957 24.055 65.2297 24.2401C65.2574 24.5 65.3179 24.7553 65.4097 25.0001C65.4908 25.3118 65.5978 25.6162 65.7297 25.9101C65.7297 26.0301 65.7297 26.0201 65.7297 26.0201L65.5297 26.1101C65.0547 26.367 64.603 26.6648 64.1797 27.0001C63.6697 27.3801 63.1797 27.8101 62.5997 28.2601L62.4797 28.1401Z" fill="#231F20"/>
</svg>
