<svg  viewBox="0 0 103 118" fill="none" xmlns="http://www.w3.org/2000/svg">
<path d="M46.0984 90.385C46.0144 90.8242 45.4546 90.7991 44.6419 90.6436C44.2919 90.5248 43.9905 90.2943 43.7839 89.9878C43.7518 89.6567 43.7455 89.3236 43.7651 88.9915C43.9172 88.4486 44.1542 87.933 44.4671 87.4639C44.7221 87.1302 44.9319 86.7241 45.1589 86.3942C45.3859 86.0643 45.6265 85.7825 45.7662 85.5997C46.363 84.8611 47.0753 84.224 47.8756 83.713C49.5129 82.7024 51.2913 81.9408 53.1525 81.4533C53.5857 81.3519 54.0328 81.3236 54.4754 81.3694L58.8878 81.5578C59.1406 81.6044 59.4013 81.5819 59.6424 81.4927C60.4744 81.4499 61.3067 81.569 62.0933 81.8432C62.6377 82.0202 63.1859 82.2252 63.6223 82.3952C63.9257 82.5405 64.2159 82.7118 64.4897 82.9072C65.0091 83.3297 65.5051 83.7803 65.9754 84.2569C66.4447 84.7019 66.8847 85.177 67.2924 85.679C67.3971 85.822 67.5863 85.9037 67.564 86.1635C67.5061 86.799 67.8365 86.9761 68.088 87.2564C68.4133 87.6694 68.6722 88.1307 68.8555 88.6235C68.9142 88.9331 68.9106 89.2512 68.8449 89.5594C68.8202 89.8552 68.1408 90.217 68.0469 90.2081C67.717 90.1951 67.5498 90.5456 67.3059 90.7494C67.2246 90.8235 67.1384 90.8922 67.048 90.955C66.5462 90.8883 66.0535 90.765 65.5793 90.5875C65.098 90.4638 64.6234 90.3152 64.1574 90.1425L63.7363 89.8206C63.4239 89.6165 63.1012 89.4286 62.7694 89.2577L62.232 88.9728L61.7138 88.778L61.0838 88.5482C60.9129 88.4746 60.7628 88.3598 60.6469 88.2142C60.2395 88.0738 59.8178 87.9794 59.3894 87.9327C58.9656 87.8693 58.5387 87.8287 58.1105 87.811C57.596 87.7872 57.0971 87.6273 56.6647 87.3477C56.6226 87.3155 56.5735 87.2939 56.5213 87.2848C56.4692 87.2756 56.4156 87.2791 56.3651 87.2949L55.0413 87.2648L54.3657 87.2266L53.6793 87.2683C53.4478 87.2791 53.2182 87.3145 52.9943 87.3741L52.3303 87.584C52.2396 87.5877 52.1488 87.5856 52.0584 87.5775C51.9474 87.5593 51.8341 87.5624 51.7243 87.5864C50.6598 87.9117 49.6649 88.4315 48.7901 89.1196C48.5277 89.2746 48.2512 89.4047 47.9645 89.5081C47.686 89.6577 47.4253 89.8385 47.1875 90.047C47.1329 90.1185 46.9086 90.1484 46.6642 90.1882C46.4198 90.2279 46.1231 90.3032 46.0984 90.385Z" fill="#231F20"/>
<path d="M32.6343 72.629C32.4096 73.0252 32.0936 73.3621 31.7124 73.6115C31.3313 73.8609 30.8961 74.0157 30.443 74.063C30.1244 74.134 29.5257 73.7645 29.6486 73.4557C29.7499 72.8786 29.811 72.3211 29.9908 71.6907C30.1099 71.3365 30.2652 70.9954 30.4541 70.6729C30.758 69.9845 31.1021 69.3144 31.4845 68.6663C31.9396 67.9349 32.4362 67.2303 32.9719 66.5558L33.6582 65.6581L34.2524 64.9795C35.5061 63.5276 36.951 62.2524 38.5474 61.1887C41.8018 59.0138 45.3778 57.3639 49.1446 56.2996C49.9749 56.0522 50.8316 55.9043 51.6968 55.859C54.6756 55.7823 57.5731 55.6308 60.5211 55.6438C61.0207 55.6837 61.5235 55.6431 62.0103 55.5235C62.5697 55.4574 63.1351 55.4586 63.6943 55.5269C64.7381 55.6114 65.7765 55.7538 66.8045 55.9534C67.858 56.1557 68.8998 56.4142 69.9256 56.7281C70.5373 56.9187 71.1369 57.146 71.7214 57.4086C74.0973 58.6482 76.3166 60.1672 78.3322 61.9333C78.6601 62.1595 78.9172 62.4739 79.0739 62.8402C79.3444 63.6466 79.8378 64.3599 80.4971 64.8973C80.8644 65.3295 81.1998 65.7878 81.5006 66.2686C81.774 66.7671 81.9853 67.281 82.2424 67.8174C82.4024 68.3822 82.4898 68.965 82.5026 69.5519C82.5559 70.0584 81.8228 70.1777 81.6756 70.0903C81.234 69.8283 81.1355 70.3194 80.9019 70.4932C80.8239 70.5623 80.7348 70.6176 80.6384 70.6568C79.8248 70.1208 78.9849 69.6258 78.1218 69.1737C76.8316 68.5399 75.5745 67.9943 75.3437 67.8682C74.2647 67.2012 73.1521 66.5902 72.0103 66.0376C70.665 65.4328 69.264 64.9604 67.8271 64.6272C67.4007 64.4947 66.9926 64.3095 66.6121 64.076C65.5711 63.8228 64.511 63.6566 63.4425 63.5789C61.8939 63.4147 60.3258 63.4244 60.2099 63.4113C59.5895 63.3484 58.9663 63.3173 58.3427 63.3182C57.7034 63.2933 57.0709 63.1784 56.4637 62.977C56.2157 62.9111 55.956 62.9019 55.7039 62.95C54.6208 63.0661 53.548 63.1522 52.463 63.2543C51.3721 63.3119 50.2848 63.4261 49.2057 63.5965C48.6521 63.6811 48.1064 63.8112 47.5741 63.9855C47.0447 64.1347 46.5111 64.3058 45.9476 64.4666C45.7472 64.5114 45.5446 64.5455 45.3407 64.5691C45.0817 64.5897 44.8275 64.6502 44.587 64.7482C42.0814 65.6503 39.7489 66.9752 37.6908 68.6652C36.4947 69.4543 35.3802 70.3606 34.3639 71.3708C33.7465 71.731 33.167 72.1525 32.6343 72.629Z" fill="#231F20"/>
<path d="M12.75 47.9257C12.556 48.2459 12.3279 48.5443 12.0698 48.8155C11.8376 49.065 11.5809 49.2905 11.3036 49.4885C10.6994 49.8904 10.0386 50.1998 9.34308 50.4066C8.88378 50.5464 8.17857 50.0199 8.33689 49.5493C8.65307 48.6582 8.97953 47.7371 9.37187 46.8287C9.67825 46.291 10.019 45.7737 10.3921 45.28C10.6958 44.8827 11.0541 44.414 11.3731 43.8649C11.6922 43.3158 12.1748 42.8162 12.6275 42.3063C14.2421 40.3349 16.0005 38.4858 17.8884 36.7743C20.216 34.6305 22.8245 32.8135 25.6422 31.3731C31.342 28.5487 37.4288 26.5845 43.7044 25.5444C45.0945 25.3184 46.4996 25.1975 47.9079 25.1829C52.7301 25.1811 57.492 25.2088 62.2993 25.5228C63.0981 25.6613 63.9133 25.6775 64.717 25.571C65.6455 25.516 66.5772 25.5614 67.4959 25.7065C68.2108 25.825 69.0262 25.8945 69.8786 26.0803L72.5211 26.6906C75.2388 27.3763 77.8808 28.3332 80.4072 29.547C84.2297 31.6264 87.7906 34.1541 91.0147 37.0765C91.5325 37.4285 91.9577 37.9004 92.2541 38.4519C92.7926 39.6958 93.5832 40.8145 94.5761 41.7373C95.1374 42.4685 95.6969 43.1856 96.218 43.9365C96.7392 44.6873 97.1496 45.5171 97.5843 46.3151C97.9045 47.1762 98.1337 48.0686 98.2679 48.9775C98.4386 49.7751 97.42 49.8397 97.1915 49.6776C96.54 49.1796 96.4892 49.9212 96.1869 50.1684C96.0886 50.2655 95.9687 50.3377 95.837 50.3792C95.4207 50.0734 95.0372 49.7254 94.6924 49.3407L94.1891 48.8301L93.5376 48.3321L92.1819 47.2076L90.7051 46.192C90.2688 45.8752 89.8132 45.5858 89.341 45.3255C88.7718 45.0173 88.2195 44.6791 87.6862 44.3123C87.6386 44.2758 86.9105 43.8452 85.9253 43.0921C84.6524 42.2224 83.3271 41.4321 81.9569 40.7256C79.6569 39.5177 77.2442 38.5376 74.7534 37.7995C74.0176 37.5449 73.3062 37.2244 72.6281 36.842C72.5566 36.7873 71.836 36.6267 70.8323 36.3755C69.8285 36.1243 68.4725 35.9058 67.1388 35.6416C64.4491 35.1589 61.7272 34.916 61.5216 34.8721C60.4235 34.662 59.3558 34.6262 58.2731 34.4783C57.1658 34.3796 56.0741 34.1494 55.0213 33.7925C54.5865 33.6963 54.14 33.6646 53.6961 33.6983C49.8943 33.6711 46.094 33.8546 42.3125 34.248C41.3551 34.3973 40.3954 34.5825 39.4118 34.7495L36.5971 35.4677C36.2504 35.5425 35.8981 35.5753 35.5495 35.6361C35.1146 35.7026 34.6837 35.7935 34.259 35.9083C32.0458 36.608 29.8976 37.4204 27.8144 38.3453C26.7463 38.7876 25.7418 39.2784 24.683 39.7907C23.6243 40.303 22.6884 40.9345 21.7466 41.5739C21.357 41.8428 20.9513 42.0876 20.5318 42.3068C19.9688 42.6316 19.2754 42.9953 18.6433 43.4435C18.0112 43.8917 17.3313 44.3035 16.7917 44.6966C16.2521 45.0897 15.8583 45.5061 15.67 45.7523C15.1743 46.1253 14.6583 46.4704 14.1245 46.7862C13.6166 47.1017 13.1541 47.4851 12.75 47.9257Z" fill="#231F20"/>
<path d="M77.4014 55.2862C74.1573 60.3446 70.9132 65.403 67.7308 70.4984C66.6053 72.3798 65.6111 74.3222 64.4238 76.1667L51.9237 95.688C50.0426 98.5522 48.2448 101.501 46.4702 104.412C44.3532 108.348 41.7741 112.019 38.7923 115.339C38.5554 115.582 38.2595 115.757 37.9374 115.843C37.842 115.871 37.7411 115.868 37.6502 115.832C37.5593 115.797 37.4833 115.732 37.434 115.646C37.2539 115.112 37.1606 114.548 37.1578 113.976C37.011 111.937 37.3786 109.875 38.226 107.984C40.1403 104.055 42.0112 100.029 44.0258 96.0727L45.5595 93.0882L47.2709 90.2274C48.4195 88.3074 49.7071 86.4355 50.9638 84.6151C54.0001 80.1847 56.3581 75.1211 59.0606 70.3511C62.0329 65.1301 65.067 59.946 68.1349 54.6772L73.7436 45.049C76.5603 40.1723 79.5406 35.3586 82.1535 30.4299C83.1724 28.5023 84.0647 26.5339 84.9369 24.571L86.2283 21.5989C86.6844 20.612 87.17 19.6601 87.6632 18.6953C88.1565 17.7306 88.4585 17.0013 88.9395 16.1692C90.7665 13.1152 91.8589 12.4389 94.0067 12.8313C94.5132 12.8976 95.0135 12.9982 95.5045 13.1324C97.0086 13.6472 97.413 15.5514 96.6462 18.0674C95.5726 21.8662 94.1702 25.5716 92.4559 29.1389C90.705 32.7109 88.7672 36.2586 86.8202 39.7658C85.3526 42.3874 83.8355 44.9795 82.3185 47.5715L77.6932 55.3033L77.4014 55.2862Z" fill="#231F20"/>
<path d="M57.48 114.004C56.8731 114.019 56.2671 113.948 55.68 113.794L54.87 113.574C54.62 113.474 54.4 113.354 54.17 113.244L53.51 112.894C53.31 112.764 53.13 112.614 52.95 112.474C52.5494 112.187 52.1865 111.851 51.87 111.474C51.61 111.174 51.31 110.914 51.04 110.624C50.8051 110.303 50.5881 109.969 50.39 109.624C50.1319 108.989 49.9994 108.31 50 107.624C50.0193 107.283 50.0866 106.946 50.2 106.624C50.3244 106.317 50.4715 106.019 50.64 105.734C51.4207 104.65 52.5811 103.9 53.89 103.634C54.3578 103.514 54.8318 103.421 55.31 103.354C55.7515 103.302 56.1955 103.275 56.64 103.274C57.233 103.219 57.8308 103.298 58.3896 103.504C58.9484 103.71 59.4542 104.038 59.87 104.464C60.14 104.754 59.63 105.324 59.03 105.864C58.43 106.404 57.86 106.984 57.54 106.994C56.9491 106.978 56.3583 107.031 55.78 107.154H55.57C55.5 107.154 55.4 107.154 55.41 107.154C55.3714 107.123 55.3273 107.099 55.28 107.084C55.129 107.018 54.9641 106.991 54.8 107.004C54.6919 107.001 54.5869 107.04 54.5068 107.113C54.4267 107.185 54.3777 107.286 54.37 107.394C54.3914 107.584 54.4602 107.767 54.57 107.924C54.6356 108.032 54.7091 108.136 54.79 108.234C54.79 108.234 54.9 108.344 55 108.414L55.27 108.614C55.4337 108.746 55.6156 108.854 55.81 108.934C55.9679 109.026 56.1404 109.09 56.32 109.124C56.6614 109.203 57.0204 109.146 57.32 108.964C57.4229 108.899 57.5114 108.814 57.5798 108.714C57.6483 108.614 57.6952 108.501 57.7178 108.381C57.7403 108.262 57.7379 108.139 57.7108 108.021C57.6836 107.903 57.6323 107.791 57.56 107.694C57.1326 107.347 56.5892 107.175 56.04 107.214C55.9038 107.229 55.7662 107.229 55.63 107.214C55.15 106.984 55.15 106.504 55.42 105.104L55.6 104.104C55.6475 103.642 55.8318 103.205 56.1293 102.849C56.4269 102.492 56.8241 102.233 57.27 102.104C57.5944 102.01 57.934 101.979 58.27 102.014C58.6071 102.065 58.941 102.135 59.27 102.224C59.9908 102.436 60.6681 102.774 61.27 103.224C61.5923 103.511 61.8932 103.822 62.17 104.154C62.4883 104.498 62.7333 104.902 62.89 105.344C62.99 105.574 63.08 105.794 63.16 106.024C63.24 106.254 63.27 106.524 63.32 106.784C63.4171 107.295 63.444 107.816 63.4 108.334C63.2766 109.93 62.5294 111.414 61.32 112.464C60.2744 113.44 58.9265 114.029 57.5 114.134L57.48 114.004Z" fill="#231F20"/>
</svg>
