<svg width="587" height="523" viewBox="0 0 587 523" fill="none" xmlns="http://www.w3.org/2000/svg">
<rect x="174" width="231.571" height="205.571" rx="30" fill="#5E25FF"/>
<path d="M267.21 115.488C268.154 116.189 268.822 116.857 269.213 117.491C269.604 118.124 269.8 118.873 269.8 119.736C269.8 120.815 269.442 121.826 268.728 122.77C268.026 123.728 267.042 124.564 265.774 125.279C264.52 126.007 263.063 126.573 261.405 126.978C259.759 127.383 257.986 127.585 256.085 127.585C251.378 127.585 247.872 126.594 245.566 124.611C243.273 122.642 242.127 119.621 242.127 115.549C242.127 113.863 242.248 112.009 242.491 109.986C242.747 107.963 243.104 105.873 243.563 103.715L248.721 104.726C247.818 108.812 247.366 112.265 247.366 115.083C247.366 117.403 248.054 119.075 249.429 120.1C250.805 121.139 253.043 121.658 256.145 121.658C258.451 121.658 260.333 121.368 261.789 120.788C263.259 120.208 263.994 119.46 263.994 118.543C263.994 118.124 263.751 117.754 263.266 117.43C262.78 117.12 261.924 116.816 260.697 116.52C259.483 116.223 257.77 115.886 255.559 115.508L256.408 109.399H271.802V115.286H267.21V115.488ZM283.029 104.463C283.029 105.704 283.137 106.688 283.353 107.417C283.569 108.131 284.007 108.644 284.668 108.954C285.329 109.251 286.32 109.399 287.641 109.399H288.552V115.286H287.581C285.868 115.286 284.358 114.881 283.05 114.072C281.741 113.249 280.824 112.123 280.298 110.694H280.096C279.584 112.123 278.626 113.249 277.224 114.072C275.835 114.881 274.297 115.286 272.611 115.286H271.823C271.526 115.286 271.317 115.05 271.195 114.578C271.061 114.106 270.993 113.357 270.993 112.332C270.993 111.294 271.061 110.545 271.195 110.087C271.317 109.628 271.526 109.399 271.823 109.399H272.611C273.987 109.399 275.019 109.244 275.706 108.934C276.394 108.624 276.853 108.111 277.082 107.396C277.311 106.668 277.426 105.691 277.426 104.463V101.085H283.029V104.463ZM274.634 93.7825L278.114 90.2829L281.634 93.7825L278.114 97.2821L274.634 93.7825ZM288.572 109.399C289.529 109.399 290.318 109.21 290.939 108.833C291.559 108.442 292.126 107.848 292.638 107.053C293.164 106.257 293.73 105.252 294.337 104.038C295.457 101.867 296.562 100.235 297.655 99.1431C298.747 98.0373 300.177 97.4844 301.943 97.4844C303.683 97.4844 305.126 98.0575 306.272 99.2038C307.418 100.337 308.443 101.894 309.347 103.877C310.17 105.63 311.012 106.992 311.876 107.963C312.752 108.92 313.905 109.399 315.335 109.399H315.355V115.286H315.335C313.662 115.286 312.287 114.827 311.208 113.91C310.129 112.993 309.354 111.766 308.882 110.229L308.679 110.249C308.261 111.921 307.486 113.216 306.353 114.133C305.22 115.036 303.872 115.488 302.307 115.488C300.756 115.488 299.374 115.144 298.16 114.456C296.947 113.755 295.955 112.791 295.187 111.564C294.351 112.818 293.44 113.755 292.456 114.375C291.471 114.982 290.177 115.286 288.572 115.286C288.275 115.286 288.066 115.056 287.945 114.598C287.81 114.126 287.743 113.371 287.743 112.332C287.743 111.294 287.81 110.545 287.945 110.087C288.066 109.628 288.275 109.399 288.572 109.399ZM298.019 107.619C298.788 108.266 299.516 108.765 300.204 109.116C300.905 109.453 301.613 109.622 302.328 109.622C303.083 109.622 303.69 109.379 304.148 108.893C304.607 108.408 304.836 107.774 304.836 106.992C304.836 106.102 304.553 105.266 303.986 104.484C303.433 103.688 302.732 103.29 301.883 103.29C301.06 103.29 300.399 103.607 299.9 104.241C299.401 104.875 298.916 105.691 298.444 106.688L298.019 107.619ZM324.923 98.0912C325.328 99.696 325.645 101.2 325.874 102.602C326.103 103.991 326.218 105.212 326.218 106.264C326.218 112.278 322.86 115.286 316.144 115.286H315.355C314.802 115.286 314.526 114.301 314.526 112.332C314.526 110.377 314.802 109.399 315.355 109.399H316.144C317.735 109.399 318.895 109.089 319.623 108.469C320.365 107.848 320.736 106.891 320.736 105.596C320.736 104.976 320.635 104.146 320.432 103.108C320.244 102.056 319.987 100.869 319.664 99.5477L324.923 98.0912ZM310.763 122.224L314.242 118.725L317.762 122.224L314.242 125.724L310.763 122.224ZM317.823 122.224L321.302 118.725L324.822 122.224L321.302 125.724L317.823 122.224ZM336.008 115.286H330.425V86.9047H336.008V115.286Z" fill="white"/>
<rect x="421" y="363" width="166" height="160" rx="20" fill="#2596FF"/>
<path d="M488.742 427.137C489.38 427.611 489.831 428.062 490.096 428.49C490.36 428.919 490.492 429.424 490.492 430.008C490.492 430.737 490.251 431.421 489.768 432.059C489.294 432.706 488.628 433.271 487.771 433.754C486.924 434.246 485.939 434.629 484.818 434.902C483.706 435.176 482.508 435.312 481.223 435.312C478.042 435.312 475.672 434.643 474.113 433.303C472.564 431.972 471.789 429.93 471.789 427.178C471.789 426.038 471.871 424.785 472.035 423.418C472.208 422.051 472.45 420.638 472.76 419.18L476.246 419.863C475.635 422.625 475.33 424.958 475.33 426.863C475.33 428.431 475.795 429.561 476.725 430.254C477.654 430.956 479.167 431.307 481.264 431.307C482.822 431.307 484.094 431.111 485.078 430.719C486.072 430.327 486.568 429.821 486.568 429.201C486.568 428.919 486.404 428.668 486.076 428.449C485.748 428.24 485.169 428.035 484.34 427.834C483.52 427.633 482.362 427.406 480.867 427.15L481.441 423.021H491.846V427H488.742V427.137ZM499.434 419.686C499.434 420.524 499.507 421.189 499.652 421.682C499.798 422.165 500.094 422.511 500.541 422.721C500.988 422.921 501.658 423.021 502.551 423.021H503.166V427H502.51C501.352 427 500.331 426.727 499.447 426.18C498.563 425.624 497.943 424.863 497.588 423.896H497.451C497.105 424.863 496.458 425.624 495.51 426.18C494.571 426.727 493.532 427 492.393 427H491.859C491.659 427 491.518 426.84 491.436 426.521C491.344 426.202 491.299 425.697 491.299 425.004C491.299 424.302 491.344 423.796 491.436 423.486C491.518 423.176 491.659 423.021 491.859 423.021H492.393C493.322 423.021 494.02 422.917 494.484 422.707C494.949 422.497 495.259 422.151 495.414 421.668C495.569 421.176 495.646 420.515 495.646 419.686V417.402H499.434V419.686ZM493.76 412.467L496.111 410.102L498.49 412.467L496.111 414.832L493.76 412.467ZM503.18 423.021C503.827 423.021 504.36 422.894 504.779 422.639C505.199 422.374 505.581 421.973 505.928 421.436C506.283 420.898 506.666 420.219 507.076 419.398C507.833 417.931 508.58 416.828 509.318 416.09C510.057 415.342 511.023 414.969 512.217 414.969C513.393 414.969 514.368 415.356 515.143 416.131C515.917 416.896 516.61 417.949 517.221 419.289C517.777 420.474 518.346 421.395 518.93 422.051C519.522 422.698 520.301 423.021 521.268 423.021H521.281V427H521.268C520.137 427 519.208 426.69 518.479 426.07C517.749 425.451 517.225 424.621 516.906 423.582L516.77 423.596C516.487 424.726 515.963 425.601 515.197 426.221C514.432 426.831 513.52 427.137 512.463 427.137C511.415 427.137 510.48 426.904 509.66 426.439C508.84 425.965 508.17 425.314 507.65 424.484C507.085 425.332 506.47 425.965 505.805 426.385C505.139 426.795 504.264 427 503.18 427C502.979 427 502.838 426.845 502.756 426.535C502.665 426.216 502.619 425.706 502.619 425.004C502.619 424.302 502.665 423.796 502.756 423.486C502.838 423.176 502.979 423.021 503.18 423.021ZM509.564 421.818C510.084 422.256 510.576 422.593 511.041 422.83C511.515 423.058 511.993 423.172 512.477 423.172C512.987 423.172 513.397 423.008 513.707 422.68C514.017 422.352 514.172 421.923 514.172 421.395C514.172 420.793 513.98 420.228 513.598 419.699C513.224 419.161 512.75 418.893 512.176 418.893C511.62 418.893 511.173 419.107 510.836 419.535C510.499 419.964 510.171 420.515 509.852 421.189L509.564 421.818ZM527.748 415.379C528.021 416.464 528.236 417.48 528.391 418.428C528.546 419.367 528.623 420.191 528.623 420.902C528.623 424.967 526.354 427 521.814 427H521.281C520.908 427 520.721 426.335 520.721 425.004C520.721 423.682 520.908 423.021 521.281 423.021H521.814C522.89 423.021 523.674 422.812 524.166 422.393C524.667 421.973 524.918 421.326 524.918 420.451C524.918 420.032 524.85 419.471 524.713 418.77C524.585 418.059 524.412 417.257 524.193 416.363L527.748 415.379ZM518.178 431.689L520.529 429.324L522.908 431.689L520.529 434.055L518.178 431.689ZM522.949 431.689L525.301 429.324L527.68 431.689L525.301 434.055L522.949 431.689ZM535.24 427H531.467V407.818H535.24V427ZM480.074 476.137C480.712 476.611 481.163 477.062 481.428 477.49C481.692 477.919 481.824 478.424 481.824 479.008C481.824 479.737 481.583 480.421 481.1 481.059C480.626 481.706 479.96 482.271 479.104 482.754C478.256 483.246 477.271 483.629 476.15 483.902C475.038 484.176 473.84 484.312 472.555 484.312C469.374 484.312 467.004 483.643 465.445 482.303C463.896 480.972 463.121 478.93 463.121 476.178C463.121 475.038 463.203 473.785 463.367 472.418C463.54 471.051 463.782 469.638 464.092 468.18L467.578 468.863C466.967 471.625 466.662 473.958 466.662 475.863C466.662 477.431 467.127 478.561 468.057 479.254C468.986 479.956 470.499 480.307 472.596 480.307C474.154 480.307 475.426 480.111 476.41 479.719C477.404 479.327 477.9 478.821 477.9 478.201C477.9 477.919 477.736 477.668 477.408 477.449C477.08 477.24 476.501 477.035 475.672 476.834C474.852 476.633 473.694 476.406 472.199 476.15L472.773 472.021H483.178V476H480.074V476.137ZM492.393 471.816C491.9 473.329 491.094 474.405 489.973 475.043C488.861 475.681 487.252 476 485.146 476H483.191C482.991 476 482.85 475.85 482.768 475.549C482.676 475.239 482.631 474.729 482.631 474.018C482.631 473.298 482.676 472.787 482.768 472.486C482.85 472.176 482.991 472.021 483.191 472.021H485.051C486.691 472.021 487.904 471.844 488.688 471.488C489.471 471.133 489.863 470.609 489.863 469.916C489.863 469.506 489.649 469.018 489.221 468.453C488.792 467.879 488.1 467.186 487.143 466.375C486.186 465.555 484.91 464.575 483.314 463.436L483.602 460.113C487.266 458.354 491.267 457.023 495.605 456.121L496.152 460.072C494.302 460.492 492.725 460.883 491.422 461.248C490.128 461.613 488.952 461.991 487.895 462.383V462.465C488.87 463.221 489.672 463.887 490.301 464.461C490.939 465.026 491.495 465.596 491.969 466.17C492.452 466.735 492.935 467.405 493.418 468.18C494.001 469.155 494.539 469.925 495.031 470.49C495.533 471.046 496.07 471.443 496.645 471.68C497.219 471.908 497.907 472.021 498.709 472.021H498.723V476H498.709C497.214 476 495.984 475.676 495.018 475.029C494.051 474.373 493.222 473.302 492.529 471.816H492.393ZM505.189 464.379C505.463 465.464 505.677 466.48 505.832 467.428C505.987 468.367 506.064 469.191 506.064 469.902C506.064 473.967 503.795 476 499.256 476H498.723C498.349 476 498.162 475.335 498.162 474.004C498.162 472.682 498.349 472.021 498.723 472.021H499.256C500.331 472.021 501.115 471.812 501.607 471.393C502.109 470.973 502.359 470.326 502.359 469.451C502.359 469.032 502.291 468.471 502.154 467.77C502.027 467.059 501.854 466.257 501.635 465.363L505.189 464.379ZM495.619 480.689L497.971 478.324L500.35 480.689L497.971 483.055L495.619 480.689ZM500.391 480.689L502.742 478.324L505.121 480.689L502.742 483.055L500.391 480.689ZM511.383 460.852L513.734 458.486L516.113 460.852L513.734 463.217L511.383 460.852ZM511.957 466.949L515.512 465.719L516.469 468.672C516.751 469.538 517.048 470.217 517.357 470.709C517.667 471.192 518.068 471.534 518.561 471.734C519.053 471.926 519.704 472.021 520.516 472.021H520.543V476H520.516C519.796 476 519.139 475.863 518.547 475.59C517.954 475.307 517.471 474.915 517.098 474.414L516.961 474.455C516.979 476.615 516.245 478.42 514.76 479.869C513.283 481.318 511.155 482.535 508.375 483.52L506.652 479.951C508.302 479.386 509.624 478.812 510.617 478.229C511.62 477.654 512.349 477.016 512.805 476.314C513.26 475.622 513.488 474.829 513.488 473.936C513.488 473.17 513.352 472.172 513.078 470.941C512.805 469.711 512.431 468.38 511.957 466.949ZM518.068 480.689L520.42 478.324L522.799 480.689L520.42 483.055L518.068 480.689ZM522.84 480.689L525.191 478.324L527.57 480.689L525.191 483.055L522.84 480.689ZM528.938 466.402V468.686C528.938 469.524 529.01 470.189 529.156 470.682C529.302 471.165 529.598 471.511 530.045 471.721C530.501 471.921 531.175 472.021 532.068 472.021H532.67V476H532.041C530.883 476 529.858 475.727 528.965 475.18C528.072 474.624 527.447 473.863 527.092 472.896H526.955C526.609 473.863 525.966 474.624 525.027 475.18C524.098 475.727 523.059 476 521.91 476H520.543C520.342 476 520.201 475.84 520.119 475.521C520.028 475.202 519.982 474.697 519.982 474.004C519.982 473.302 520.028 472.796 520.119 472.486C520.201 472.176 520.342 472.021 520.543 472.021H521.91C522.84 472.021 523.533 471.917 523.988 471.707C524.453 471.497 524.758 471.151 524.904 470.668C525.059 470.176 525.137 469.515 525.137 468.686V466.402H528.938ZM536.375 453.168L538.727 450.803L541.105 453.168L538.727 455.533L536.375 453.168ZM532.684 472.021H537.182C538.84 472.021 539.975 471.83 540.586 471.447C541.206 471.055 541.516 470.363 541.516 469.369C540.367 469.661 539.305 469.807 538.33 469.807C536.726 469.807 535.536 469.456 534.762 468.754C533.996 468.052 533.613 466.972 533.613 465.514C533.613 464.055 533.823 462.788 534.242 461.713C534.671 460.637 535.272 459.803 536.047 459.211C536.831 458.618 537.747 458.322 538.795 458.322C540.025 458.322 541.092 458.746 541.994 459.594C542.906 460.432 543.607 461.622 544.1 463.162C544.601 464.702 544.852 466.521 544.852 468.617C544.852 471.169 544.227 473.038 542.979 474.223C541.73 475.408 539.77 476 537.1 476H532.684C532.483 476 532.342 475.845 532.26 475.535C532.169 475.216 532.123 474.706 532.123 474.004C532.123 473.302 532.169 472.796 532.26 472.486C532.342 472.176 532.483 472.021 532.684 472.021ZM540.955 466.102C540.846 464.853 540.59 463.896 540.189 463.23C539.788 462.556 539.269 462.219 538.631 462.219C538.048 462.219 537.574 462.469 537.209 462.971C536.844 463.472 536.662 464.128 536.662 464.939C536.662 465.896 537.305 466.375 538.59 466.375C539.228 466.375 540.016 466.284 540.955 466.102Z" fill="white"/>
<rect x="210" y="363" width="160" height="160" rx="20" fill="#2596FF"/>
<path d="M274.742 427.137C275.38 427.611 275.831 428.062 276.096 428.49C276.36 428.919 276.492 429.424 276.492 430.008C276.492 430.737 276.251 431.421 275.768 432.059C275.294 432.706 274.628 433.271 273.771 433.754C272.924 434.246 271.939 434.629 270.818 434.902C269.706 435.176 268.508 435.312 267.223 435.312C264.042 435.312 261.672 434.643 260.113 433.303C258.564 431.972 257.789 429.93 257.789 427.178C257.789 426.038 257.871 424.785 258.035 423.418C258.208 422.051 258.45 420.638 258.76 419.18L262.246 419.863C261.635 422.625 261.33 424.958 261.33 426.863C261.33 428.431 261.795 429.561 262.725 430.254C263.654 430.956 265.167 431.307 267.264 431.307C268.822 431.307 270.094 431.111 271.078 430.719C272.072 430.327 272.568 429.821 272.568 429.201C272.568 428.919 272.404 428.668 272.076 428.449C271.748 428.24 271.169 428.035 270.34 427.834C269.52 427.633 268.362 427.406 266.867 427.15L267.441 423.021H277.846V427H274.742V427.137ZM285.434 419.686C285.434 420.524 285.507 421.189 285.652 421.682C285.798 422.165 286.094 422.511 286.541 422.721C286.988 422.921 287.658 423.021 288.551 423.021H289.166V427H288.51C287.352 427 286.331 426.727 285.447 426.18C284.563 425.624 283.943 424.863 283.588 423.896H283.451C283.105 424.863 282.458 425.624 281.51 426.18C280.571 426.727 279.532 427 278.393 427H277.859C277.659 427 277.518 426.84 277.436 426.521C277.344 426.202 277.299 425.697 277.299 425.004C277.299 424.302 277.344 423.796 277.436 423.486C277.518 423.176 277.659 423.021 277.859 423.021H278.393C279.322 423.021 280.02 422.917 280.484 422.707C280.949 422.497 281.259 422.151 281.414 421.668C281.569 421.176 281.646 420.515 281.646 419.686V417.402H285.434V419.686ZM279.76 412.467L282.111 410.102L284.49 412.467L282.111 414.832L279.76 412.467ZM289.18 423.021C289.827 423.021 290.36 422.894 290.779 422.639C291.199 422.374 291.581 421.973 291.928 421.436C292.283 420.898 292.666 420.219 293.076 419.398C293.833 417.931 294.58 416.828 295.318 416.09C296.057 415.342 297.023 414.969 298.217 414.969C299.393 414.969 300.368 415.356 301.143 416.131C301.917 416.896 302.61 417.949 303.221 419.289C303.777 420.474 304.346 421.395 304.93 422.051C305.522 422.698 306.301 423.021 307.268 423.021H307.281V427H307.268C306.137 427 305.208 426.69 304.479 426.07C303.749 425.451 303.225 424.621 302.906 423.582L302.77 423.596C302.487 424.726 301.963 425.601 301.197 426.221C300.432 426.831 299.52 427.137 298.463 427.137C297.415 427.137 296.48 426.904 295.66 426.439C294.84 425.965 294.17 425.314 293.65 424.484C293.085 425.332 292.47 425.965 291.805 426.385C291.139 426.795 290.264 427 289.18 427C288.979 427 288.838 426.845 288.756 426.535C288.665 426.216 288.619 425.706 288.619 425.004C288.619 424.302 288.665 423.796 288.756 423.486C288.838 423.176 288.979 423.021 289.18 423.021ZM295.564 421.818C296.084 422.256 296.576 422.593 297.041 422.83C297.515 423.058 297.993 423.172 298.477 423.172C298.987 423.172 299.397 423.008 299.707 422.68C300.017 422.352 300.172 421.923 300.172 421.395C300.172 420.793 299.98 420.228 299.598 419.699C299.224 419.161 298.75 418.893 298.176 418.893C297.62 418.893 297.173 419.107 296.836 419.535C296.499 419.964 296.171 420.515 295.852 421.189L295.564 421.818ZM313.748 415.379C314.021 416.464 314.236 417.48 314.391 418.428C314.546 419.367 314.623 420.191 314.623 420.902C314.623 424.967 312.354 427 307.814 427H307.281C306.908 427 306.721 426.335 306.721 425.004C306.721 423.682 306.908 423.021 307.281 423.021H307.814C308.89 423.021 309.674 422.812 310.166 422.393C310.667 421.973 310.918 421.326 310.918 420.451C310.918 420.032 310.85 419.471 310.713 418.77C310.585 418.059 310.412 417.257 310.193 416.363L313.748 415.379ZM304.178 431.689L306.529 429.324L308.908 431.689L306.529 434.055L304.178 431.689ZM308.949 431.689L311.301 429.324L313.68 431.689L311.301 434.055L308.949 431.689ZM321.24 427H317.467V407.818H321.24V427ZM266.061 464.188C266.27 464.999 266.439 465.819 266.566 466.648C266.694 467.478 266.758 468.234 266.758 468.918C266.758 470.677 266.375 472.076 265.609 473.115C264.844 474.145 263.622 474.883 261.945 475.33C260.277 475.777 258.085 476 255.369 476C252.662 476 250.47 475.777 248.793 475.33C247.125 474.883 245.908 474.15 245.143 473.129C244.377 472.099 243.994 470.718 243.994 468.986C243.994 468.312 244.058 467.555 244.186 466.717C244.322 465.869 244.491 465.026 244.691 464.188L248.068 464.939C247.941 465.559 247.827 466.202 247.727 466.867C247.626 467.533 247.576 468.084 247.576 468.521C247.576 469.497 247.818 470.235 248.301 470.736C248.784 471.238 249.595 471.579 250.734 471.762C251.874 471.935 253.419 472.021 255.369 472.021C257.338 472.021 258.887 471.93 260.018 471.748C261.157 471.557 261.964 471.206 262.438 470.695C262.921 470.185 263.162 469.442 263.162 468.467C263.162 468.011 263.117 467.464 263.025 466.826C262.934 466.179 262.82 465.55 262.684 464.939L266.061 464.188ZM250.611 463.736L252.963 461.371L255.342 463.736L252.963 466.102L250.611 463.736ZM255.383 463.736L257.734 461.371L260.113 463.736L257.734 466.102L255.383 463.736ZM269.41 456.818H273.211V469.273C273.211 470.276 273.452 470.987 273.936 471.406C274.419 471.816 275.253 472.021 276.438 472.021H276.451V476H276.438C274.214 476 272.486 475.444 271.256 474.332C270.025 473.211 269.41 471.552 269.41 469.355V456.818ZM281.332 468.973C281.332 470.54 282.494 471.324 284.818 471.324C285.511 471.324 286.327 471.265 287.266 471.146L289.645 470.832L290.055 474.701L285.42 475.248C283.579 475.485 281.915 475.672 280.43 475.809C278.944 475.936 277.791 476 276.971 476H276.451C276.251 476 276.109 475.845 276.027 475.535C275.936 475.216 275.891 474.706 275.891 474.004C275.891 473.302 275.936 472.796 276.027 472.486C276.109 472.176 276.251 472.021 276.451 472.021H276.807C277.189 472.021 277.586 472.017 277.996 472.008C278.415 471.99 278.798 471.967 279.145 471.939V471.707C278.169 471.06 277.682 469.998 277.682 468.521C277.682 467.346 277.969 466.293 278.543 465.363C279.117 464.434 279.906 463.704 280.908 463.176C281.92 462.638 283.064 462.369 284.34 462.369C286.254 462.369 287.899 462.971 289.275 464.174L287.566 467.086C286.454 466.53 285.383 466.252 284.354 466.252C283.469 466.252 282.745 466.503 282.18 467.004C281.615 467.505 281.332 468.161 281.332 468.973ZM292.885 457.516L296.453 456.518C296.882 457.657 297.242 458.787 297.533 459.908C297.834 461.029 298.094 462.273 298.312 463.641C298.54 465.008 298.755 466.635 298.955 468.521L295.223 468.986C295.013 466.68 294.717 464.593 294.334 462.725C293.951 460.847 293.468 459.111 292.885 457.516ZM303.932 456.818H307.732V469.273C307.732 470.294 307.979 471.01 308.471 471.42C308.963 471.821 309.729 472.021 310.768 472.021H310.781V476H310.768C307.505 476 305.549 474.578 304.902 471.734L304.889 471.406C303.667 472.974 302.072 474.132 300.104 474.879C298.135 475.626 295.564 476 292.393 476V472.021C294.37 472.021 296.07 471.88 297.492 471.598C298.923 471.315 300.154 470.873 301.184 470.271C302.214 469.67 303.13 468.886 303.932 467.92V456.818ZM310.795 476C310.613 476 310.476 475.868 310.385 475.604C310.285 475.33 310.234 474.797 310.234 474.004C310.234 473.202 310.285 472.673 310.385 472.418C310.476 472.154 310.613 472.021 310.795 472.021H312.477C312.549 471.894 312.622 471.775 312.695 471.666C312.768 471.557 312.846 471.443 312.928 471.324V456.818H316.715V464.529C316.715 465.295 316.637 465.992 316.482 466.621C316.337 467.25 316.145 467.861 315.908 468.453L316.031 468.549C317.234 467.081 318.447 465.951 319.668 465.158C320.898 464.356 322.115 463.955 323.318 463.955C324.321 463.955 325.201 464.188 325.957 464.652C326.723 465.117 327.32 465.769 327.748 466.607C328.176 467.446 328.391 468.43 328.391 469.561C328.391 471.557 327.661 473.129 326.203 474.277C324.745 475.426 322.516 476 319.518 476H310.795ZM316.688 472.021H320.406C321.208 472.021 321.951 471.958 322.635 471.83C323.318 471.702 323.865 471.475 324.275 471.146C324.695 470.818 324.904 470.358 324.904 469.766C324.904 469.228 324.695 468.777 324.275 468.412C323.865 468.038 323.341 467.852 322.703 467.852C321.956 467.852 321.094 468.139 320.119 468.713C319.144 469.287 318 470.39 316.688 472.021ZM335.008 476H331.234V456.818H335.008V476Z" fill="white"/>
<rect y="363" width="160" height="160" rx="20" fill="#2596FF"/>
<path d="M62.418 427.137C63.056 427.611 63.5072 428.062 63.7715 428.49C64.0358 428.919 64.168 429.424 64.168 430.008C64.168 430.737 63.9264 431.421 63.4434 432.059C62.9694 432.706 62.304 433.271 61.4473 433.754C60.5996 434.246 59.6152 434.629 58.4941 434.902C57.3822 435.176 56.1836 435.312 54.8984 435.312C51.7174 435.312 49.3477 434.643 47.7891 433.303C46.2396 431.972 45.4648 429.93 45.4648 427.178C45.4648 426.038 45.5469 424.785 45.7109 423.418C45.8841 422.051 46.1257 420.638 46.4355 419.18L49.9219 419.863C49.3112 422.625 49.0059 424.958 49.0059 426.863C49.0059 428.431 49.4707 429.561 50.4004 430.254C51.3301 430.956 52.8431 431.307 54.9395 431.307C56.498 431.307 57.7695 431.111 58.7539 430.719C59.7474 430.327 60.2441 429.821 60.2441 429.201C60.2441 428.919 60.0801 428.668 59.752 428.449C59.4238 428.24 58.8451 428.035 58.0156 427.834C57.1953 427.633 56.0378 427.406 54.543 427.15L55.1172 423.021H65.5215V427H62.418V427.137ZM67.0527 431.689L69.4043 429.324L71.7832 431.689L69.4043 434.055L67.0527 431.689ZM73.9707 415.379C74.2441 416.464 74.4538 417.48 74.5996 418.428C74.7546 419.367 74.832 420.191 74.832 420.902C74.832 422.908 74.2578 424.425 73.1094 425.455C71.9701 426.485 70.1973 427 67.791 427H65.5352C65.1615 427 64.9746 426.335 64.9746 425.004C64.9746 423.682 65.1615 423.021 65.5352 423.021H67.791C68.9941 423.021 69.8509 422.812 70.3613 422.393C70.8717 421.973 71.127 421.326 71.127 420.451C71.127 420.032 71.0632 419.471 70.9355 418.77C70.8079 418.059 70.6348 417.257 70.416 416.363L73.9707 415.379ZM77.498 407.818H81.2988V420.273C81.2988 421.276 81.5404 421.987 82.0234 422.406C82.5065 422.816 83.3405 423.021 84.5254 423.021H84.5391V427H84.5254C82.3014 427 80.5742 426.444 79.3438 425.332C78.1133 424.211 77.498 422.552 77.498 420.355V407.818ZM91.0059 415.379C91.2793 416.464 91.4935 417.48 91.6484 418.428C91.8034 419.367 91.8809 420.191 91.8809 420.902C91.8809 424.967 89.6113 427 85.0723 427H84.5391C84.1654 427 83.9785 426.335 83.9785 425.004C83.9785 423.682 84.1654 423.021 84.5391 423.021H85.0723C86.1478 423.021 86.9316 422.812 87.4238 422.393C87.9251 421.973 88.1758 421.326 88.1758 420.451C88.1758 420.032 88.1074 419.471 87.9707 418.77C87.8431 418.059 87.6699 417.257 87.4512 416.363L91.0059 415.379ZM81.4355 431.689L83.7871 429.324L86.166 431.689L83.7871 434.055L81.4355 431.689ZM86.207 431.689L88.5586 429.324L90.9375 431.689L88.5586 434.055L86.207 431.689ZM105.895 421.162C105.895 422.456 105.566 423.546 104.91 424.43C104.254 425.305 103.352 425.965 102.203 426.412C101.064 426.859 99.7559 427.082 98.2793 427.082C96.8574 427.082 95.3079 426.872 93.6309 426.453L94.5059 422.707C95.1895 422.853 95.832 422.962 96.4336 423.035C97.0352 423.099 97.6094 423.131 98.1562 423.131C99.4141 423.131 100.394 422.958 101.096 422.611C101.807 422.256 102.162 421.736 102.162 421.053C102.162 420.579 101.966 420 101.574 419.316C101.191 418.633 100.654 417.895 99.9609 417.102C99.2773 416.299 98.4798 415.497 97.5684 414.695L100.084 411.701C102.044 413.433 103.502 415.074 104.459 416.623C105.416 418.163 105.895 419.676 105.895 421.162ZM109.066 417.949L112.621 416.719C113.132 418.259 113.542 419.727 113.852 421.121C114.161 422.507 114.316 423.769 114.316 424.908C114.316 427.141 113.605 429.028 112.184 430.568C110.771 432.109 108.538 433.426 105.484 434.52L103.762 430.951C106.104 430.158 107.827 429.306 108.93 428.395C110.042 427.492 110.598 426.339 110.598 424.936C110.598 424.097 110.452 423.044 110.16 421.777C109.868 420.501 109.504 419.225 109.066 417.949ZM51.6445 469.943L53.9961 467.578L56.375 469.943L53.9961 472.309L51.6445 469.943ZM58.4531 466.963L61.9941 465.268C63.4342 468.521 64.1543 471.188 64.1543 473.266C64.1543 475.18 63.7396 476.802 62.9102 478.133C62.0898 479.464 60.9277 480.475 59.4238 481.168C57.9199 481.861 56.1426 482.207 54.0918 482.207C50.8197 482.207 48.3451 481.478 46.668 480.02C45 478.57 44.166 476.324 44.166 473.279C44.166 472.413 44.2344 471.452 44.3711 470.395C44.5078 469.328 44.7266 468.148 45.0273 466.854L48.6094 467.66C48.3086 469.082 48.1035 470.189 47.9941 470.982C47.8848 471.775 47.8301 472.464 47.8301 473.047C47.8301 474.888 48.3359 476.21 49.3477 477.012C50.3685 477.814 51.918 478.215 53.9961 478.215C56.1016 478.215 57.7057 477.85 58.8086 477.121C59.9115 476.401 60.4629 475.23 60.4629 473.607C60.4629 472.851 60.3125 471.976 60.0117 470.982C59.7109 469.989 59.1914 468.649 58.4531 466.963ZM75.8164 460.906L79.3848 469.26C79.7129 470.035 80.0228 470.622 80.3145 471.023C80.6152 471.415 80.9616 471.68 81.3535 471.816C81.7454 471.953 82.2422 472.021 82.8438 472.021H82.9668V476H82.8438C81.5495 476 80.4831 475.758 79.6445 475.275C78.806 474.783 78.1452 473.963 77.6621 472.814H77.5254C77.1061 473.863 76.3587 474.678 75.2832 475.262C74.2168 475.845 72.9909 476.137 71.6055 476.137C70.6393 476.137 69.6732 475.973 68.707 475.645C67.75 475.307 66.8385 474.806 65.9727 474.141L67.668 470.805C69.026 471.698 70.375 472.145 71.7148 472.145C72.4714 472.145 73.2096 472.003 73.9297 471.721C74.6589 471.429 75.2604 471.005 75.7344 470.449L72.2617 462.615L75.8164 460.906ZM93.4941 457.215L95.8594 454.85L98.2246 457.215L95.8594 459.58L93.4941 457.215ZM95.8867 461.699L98.2383 459.334L100.617 461.699L98.2383 464.064L95.8867 461.699ZM91.1152 461.699L93.4668 459.334L95.8457 461.699L93.4668 464.064L91.1152 461.699ZM103.762 472.637C103.543 473.712 103.137 474.542 102.545 475.125C101.952 475.708 101.114 476 100.029 476C98.8809 476 97.9967 475.722 97.377 475.166C96.7572 474.61 96.3424 473.89 96.1328 473.006H95.9961C95.5586 475.002 94.2871 476 92.1816 476C91.0514 476 90.181 475.736 89.5703 475.207C88.9688 474.678 88.5495 473.922 88.3125 472.938H88.1758C87.7839 473.858 87.1914 474.601 86.3984 475.166C85.6055 475.722 84.6393 476 83.5 476H82.9668C82.7754 476 82.6341 475.84 82.543 475.521C82.4518 475.202 82.4062 474.688 82.4062 473.977C82.4062 473.275 82.4518 472.773 82.543 472.473C82.625 472.172 82.7663 472.021 82.9668 472.021H83.5C84.5664 472.021 85.3411 471.789 85.8242 471.324C86.3073 470.85 86.599 470.103 86.6992 469.082L86.9453 466.32L90.7324 466.594L90.4453 469.875C90.3815 470.513 90.5182 471.033 90.8555 471.434C91.1927 471.826 91.7031 472.021 92.3867 472.021C93.0339 472.021 93.4941 471.839 93.7676 471.475C94.0501 471.101 94.2233 470.545 94.2871 469.807L94.5332 467.045L97.8281 467.264L97.623 470.039C97.5684 470.668 97.696 471.156 98.0059 471.502C98.3249 471.848 98.7988 472.021 99.4277 472.021C100.686 472.021 101.314 471.37 101.314 470.066C101.314 469.775 101.264 469.264 101.164 468.535C101.064 467.797 100.95 467.059 100.822 466.32L104.459 465.555L104.787 467.715C104.96 468.872 105.179 469.761 105.443 470.381C105.717 471.001 106.1 471.429 106.592 471.666C107.093 471.903 107.763 472.021 108.602 472.021H108.615V476H108.602C107.18 476 106.109 475.704 105.389 475.111C104.669 474.51 104.172 473.685 103.898 472.637H103.762ZM115.082 464.379C115.355 465.464 115.57 466.48 115.725 467.428C115.88 468.367 115.957 469.191 115.957 469.902C115.957 473.967 113.688 476 109.148 476H108.615C108.242 476 108.055 475.335 108.055 474.004C108.055 472.682 108.242 472.021 108.615 472.021H109.148C110.224 472.021 111.008 471.812 111.5 471.393C112.001 470.973 112.252 470.326 112.252 469.451C112.252 469.032 112.184 468.471 112.047 467.77C111.919 467.059 111.746 466.257 111.527 465.363L115.082 464.379ZM109.518 459.676L111.869 457.311L114.248 459.676L111.869 462.041L109.518 459.676Z" fill="white"/>
<path d="M288.286 209.571C288.286 208.743 288.957 208.071 289.786 208.071C290.614 208.071 291.286 208.743 291.286 209.571H288.286ZM291.286 209.571V260.286H288.286V209.571H291.286ZM313.786 282.786H480V285.786H313.786V282.786ZM505.5 308.286V359H502.5V308.286H505.5ZM480 282.786C494.083 282.786 505.5 294.202 505.5 308.286H502.5C502.5 295.859 492.426 285.786 480 285.786V282.786ZM291.286 260.286C291.286 272.712 301.359 282.786 313.786 282.786V285.786C299.702 285.786 288.286 274.369 288.286 260.286H291.286Z" fill="#95ACC1"/>
<path d="M288.286 209.571C288.286 208.743 288.957 208.071 289.786 208.071C290.614 208.071 291.286 208.743 291.286 209.571H288.286ZM291.286 209.571L291.286 260.286H288.286L288.286 209.571H291.286ZM265.786 285.786H104L104 282.786H265.786V285.786ZM81.5 308.286L81.5 359H78.5L78.5 308.286H81.5ZM104 285.786C91.5736 285.786 81.5 295.859 81.5 308.286H78.5C78.5 294.202 89.9167 282.786 104 282.786L104 285.786ZM291.286 260.286C291.286 274.369 279.869 285.786 265.786 285.786V282.786C278.212 282.786 288.286 272.712 288.286 260.286H291.286Z" fill="#95ACC1"/>
<path d="M288.286 209.571C288.286 208.743 288.957 208.071 289.786 208.071C290.614 208.071 291.286 208.743 291.286 209.571H288.286ZM291.286 209.571L291.286 359H288.286L288.286 209.571H291.286Z" fill="#95ACC1"/>
</svg>
