<svg  viewBox="0 0 587 502" fill="none" xmlns="http://www.w3.org/2000/svg">
<rect x="187" width="204" height="185" rx="30" fill="#6E56CF"/>
<path d="M265.575 105.202C266.789 105.89 267.645 106.558 268.144 107.205C268.643 107.866 268.893 108.655 268.893 109.572C268.893 110.961 268.292 112.222 267.092 113.354C265.905 114.501 264.301 115.404 262.278 116.065C260.255 116.739 257.989 117.077 255.481 117.077C250.923 117.077 247.538 116.133 245.326 114.245C243.128 112.357 242.029 109.45 242.029 105.526C242.029 103.975 242.15 102.222 242.393 100.266C242.636 98.2975 242.986 96.2342 243.445 94.0765L247.814 94.9261C246.911 99.0797 246.459 102.492 246.459 105.162C246.459 107.616 247.16 109.383 248.563 110.462C249.979 111.554 252.291 112.1 255.501 112.1C258.009 112.1 260.053 111.77 261.63 111.109C263.208 110.462 263.997 109.626 263.997 108.601C263.997 108.129 263.748 107.717 263.249 107.367C262.75 107.03 261.866 106.692 260.599 106.355C259.331 106.018 257.537 105.641 255.218 105.223L255.946 100.044H270.895V105H265.575V105.202ZM281.718 94.6226C281.718 95.9038 281.832 96.9489 282.062 97.7581C282.304 98.5538 282.776 99.1336 283.478 99.4978C284.179 99.8619 285.224 100.044 286.613 100.044H287.746V105H286.552C284.84 105 283.343 104.589 282.062 103.766C280.78 102.943 279.904 101.797 279.432 100.327H279.229C278.757 101.797 277.827 102.943 276.438 103.766C275.049 104.589 273.491 105 271.765 105H270.895C270.396 105 270.147 104.171 270.147 102.512C270.147 100.867 270.396 100.044 270.895 100.044H271.765C273.235 100.044 274.341 99.8619 275.083 99.4978C275.838 99.1202 276.344 98.5335 276.6 97.7379C276.856 96.9287 276.984 95.8903 276.984 94.6226V91.4669H281.718V94.6226ZM274.031 84.0227L277.227 80.8266L280.443 84.0227L277.227 87.2189L274.031 84.0227ZM287.766 100.044C288.804 100.044 289.661 99.8282 290.335 99.3966C291.009 98.9516 291.61 98.3178 292.135 97.4951C292.675 96.659 293.241 95.6476 293.835 94.4608C294.873 92.4109 295.918 90.8196 296.97 89.6868C298.036 88.554 299.452 87.9876 301.218 87.9876C302.971 87.9876 304.401 88.5742 305.507 89.7475C306.613 90.9208 307.597 92.4649 308.46 94.3799C309.256 96.0926 310.099 97.4681 310.989 98.5066C311.879 99.5315 313.079 100.044 314.589 100.044H314.61V105H314.589C312.89 105 311.494 104.521 310.402 103.564C309.31 102.593 308.528 101.332 308.056 99.781L307.853 99.8012C307.503 101.514 306.768 102.842 305.648 103.786C304.529 104.73 303.18 105.202 301.603 105.202C300.052 105.202 298.663 104.852 297.435 104.15C296.222 103.436 295.197 102.458 294.361 101.217C293.551 102.444 292.655 103.382 291.67 104.029C290.686 104.676 289.384 105 287.766 105C287.267 105 287.018 104.171 287.018 102.512C287.018 100.867 287.267 100.044 287.766 100.044ZM296.748 97.8592C297.584 98.6414 298.386 99.2415 299.155 99.6596C299.937 100.064 300.76 100.266 301.623 100.266C302.526 100.266 303.241 99.9833 303.767 99.4169C304.306 98.8504 304.576 98.102 304.576 97.1715C304.576 96.4972 304.428 95.8364 304.131 95.189C303.834 94.5282 303.43 93.9821 302.917 93.5505C302.405 93.1055 301.818 92.883 301.158 92.883C300.2 92.883 299.438 93.2538 298.872 93.9955C298.319 94.7238 297.786 95.6341 297.274 96.7264L296.748 97.8592ZM323.814 88.4124C324.205 89.9633 324.515 91.413 324.744 92.7616C324.974 94.1102 325.088 95.3037 325.088 96.3421C325.088 99.1741 324.299 101.325 322.721 102.795C321.157 104.265 318.75 105 315.5 105H314.63C314.131 105 313.881 104.171 313.881 102.512C313.881 100.867 314.131 100.044 314.63 100.044H315.5C317.266 100.044 318.534 99.7001 319.303 99.0123C320.085 98.311 320.476 97.2591 320.476 95.8566C320.476 95.1688 320.375 94.2922 320.173 93.2268C319.97 92.148 319.707 90.9477 319.384 89.6261L323.814 88.4124ZM310.422 112.06L313.618 108.864L316.835 112.06L313.618 115.256L310.422 112.06ZM317.502 112.06L320.678 108.864L323.895 112.06L320.678 115.256L317.502 112.06ZM334.535 105H329.822V77.2056H334.535V105Z" fill="#DBDBDB"/>
<rect x="421" y="342" width="166" height="160" rx="20" fill="#AB4ABA"/>
<path d="M478.898 430.637C479.901 431.092 480.603 431.544 481.004 431.99C481.405 432.437 481.605 432.993 481.605 433.658C481.605 434.57 481.214 435.395 480.43 436.133C479.646 436.871 478.584 437.454 477.244 437.883C475.904 438.311 474.396 438.525 472.719 438.525C469.738 438.525 467.528 437.91 466.088 436.68C464.657 435.458 463.941 433.572 463.941 431.02C463.941 430.053 464.023 428.928 464.188 427.643C464.352 426.357 464.589 424.981 464.898 423.514L467.359 423.992C467.059 425.387 466.831 426.672 466.676 427.848C466.521 429.014 466.443 430.008 466.443 430.828C466.443 432.569 466.931 433.822 467.906 434.588C468.891 435.354 470.495 435.736 472.719 435.736C474.542 435.736 476.023 435.499 477.162 435.025C478.301 434.551 478.871 433.932 478.871 433.166C478.871 432.811 478.698 432.505 478.352 432.25C478.005 431.995 477.385 431.744 476.492 431.498C475.608 431.252 474.355 430.969 472.732 430.65L473.115 427.725H482.973V430.5H478.898V430.637ZM491.846 426.098C491.645 427.647 490.971 428.768 489.822 429.461C488.674 430.154 486.974 430.5 484.723 430.5H482.973C482.818 430.5 482.704 430.395 482.631 430.186C482.558 429.967 482.521 429.611 482.521 429.119C482.521 428.618 482.558 428.262 482.631 428.053C482.704 427.834 482.818 427.725 482.973 427.725H484.668C486.518 427.725 487.881 427.497 488.756 427.041C489.631 426.585 490.068 425.943 490.068 425.113C490.068 424.639 489.85 424.092 489.412 423.473C488.975 422.844 488.259 422.096 487.266 421.23C486.281 420.365 484.955 419.344 483.287 418.168L483.506 415.639C485.183 414.873 486.979 414.171 488.893 413.533C490.807 412.895 492.803 412.344 494.881 411.879L495.291 414.627C493.34 415.092 491.645 415.538 490.205 415.967C488.765 416.395 487.489 416.828 486.377 417.266L486.363 417.375C487.557 418.268 488.537 419.052 489.303 419.727C490.077 420.392 490.729 421.039 491.258 421.668C491.796 422.297 492.301 422.999 492.775 423.773C493.377 424.776 493.928 425.569 494.43 426.152C494.94 426.727 495.505 427.132 496.125 427.369C496.745 427.606 497.515 427.725 498.436 427.725H498.449V430.5H498.436C496.804 430.5 495.492 430.163 494.498 429.488C493.514 428.814 492.675 427.684 491.982 426.098H491.846ZM504.424 419.672C504.688 420.674 504.893 421.618 505.039 422.502C505.194 423.386 505.271 424.179 505.271 424.881C505.271 426.704 504.77 428.098 503.768 429.064C502.774 430.021 501.215 430.5 499.092 430.5H498.449C498.148 430.5 497.998 430.035 497.998 429.105C497.998 428.185 498.148 427.725 498.449 427.725H499.092C500.377 427.725 501.298 427.469 501.854 426.959C502.41 426.449 502.688 425.683 502.688 424.662C502.688 424.152 502.619 423.532 502.482 422.803C502.346 422.064 502.168 421.249 501.949 420.355L504.424 419.672ZM495.865 435.34L497.834 433.371L499.816 435.34L497.834 437.322L495.865 435.34ZM500.637 435.34L502.605 433.371L504.588 435.34L502.605 437.322L500.637 435.34ZM511.273 415.898L513.242 413.93L515.211 415.898L513.242 417.881L511.273 415.898ZM511.889 422.188L514.377 421.312L515.279 424.088C515.571 424.99 515.895 425.71 516.25 426.248C516.615 426.777 517.075 427.155 517.631 427.383C518.187 427.611 518.911 427.725 519.805 427.725H519.818V430.5H519.805C518.036 430.5 516.738 429.912 515.908 428.736L515.771 428.777C515.926 431.02 515.325 432.847 513.967 434.26C512.618 435.682 510.526 436.908 507.691 437.938L506.516 435.436C508.995 434.57 510.763 433.649 511.82 432.674C512.887 431.708 513.42 430.523 513.42 429.119C513.42 428.317 513.283 427.314 513.01 426.111C512.745 424.908 512.372 423.6 511.889 422.188ZM517.904 435.34L519.873 433.371L521.855 435.34L519.873 437.322L517.904 435.34ZM522.676 435.34L524.645 433.371L526.627 435.34L524.645 437.322L522.676 435.34ZM527.857 421.777V423.746C527.857 424.648 527.944 425.396 528.117 425.988C528.29 426.572 528.628 427.009 529.129 427.301C529.63 427.583 530.368 427.725 531.344 427.725H532.219V430.5H531.316C530.159 430.5 529.152 430.222 528.295 429.666C527.447 429.11 526.873 428.322 526.572 427.301H526.436C526.144 428.322 525.529 429.11 524.59 429.666C523.651 430.222 522.598 430.5 521.432 430.5H519.832C519.531 430.5 519.381 430.035 519.381 429.105C519.381 428.185 519.531 427.725 519.832 427.725H521.432C522.489 427.725 523.286 427.579 523.824 427.287C524.362 426.995 524.722 426.558 524.904 425.975C525.096 425.382 525.191 424.639 525.191 423.746V421.777H527.857ZM536.457 408.83L538.426 406.861L540.395 408.83L538.426 410.812L536.457 408.83ZM532.219 427.725H536.867C538.654 427.725 539.902 427.465 540.613 426.945C541.324 426.417 541.68 425.523 541.68 424.266C540.422 424.576 539.255 424.73 538.18 424.73C535.172 424.73 533.668 423.409 533.668 420.766C533.668 419.444 533.868 418.286 534.27 417.293C534.671 416.299 535.231 415.525 535.951 414.969C536.68 414.413 537.523 414.135 538.48 414.135C539.62 414.135 540.604 414.531 541.434 415.324C542.272 416.117 542.919 417.238 543.375 418.688C543.831 420.137 544.059 421.85 544.059 423.828C544.059 426.134 543.466 427.825 542.281 428.9C541.096 429.967 539.223 430.5 536.662 430.5H532.219C531.918 430.5 531.768 430.035 531.768 429.105C531.768 428.185 531.918 427.725 532.219 427.725ZM541.324 421.914C541.215 420.31 540.9 419.066 540.381 418.182C539.87 417.298 539.201 416.855 538.371 416.855C537.642 416.855 537.04 417.188 536.566 417.854C536.102 418.519 535.869 419.371 535.869 420.41C535.869 421.668 536.689 422.297 538.33 422.297C539.15 422.297 540.148 422.169 541.324 421.914Z" fill="#DBDBDB"/>
<rect x="210" y="342" width="160" height="160" rx="20" fill="#AB4ABA"/>
<path d="M257.816 430.637C258.819 431.092 259.521 431.544 259.922 431.99C260.323 432.437 260.523 432.993 260.523 433.658C260.523 434.57 260.132 435.395 259.348 436.133C258.564 436.871 257.502 437.454 256.162 437.883C254.822 438.311 253.314 438.525 251.637 438.525C248.656 438.525 246.446 437.91 245.006 436.68C243.575 435.458 242.859 433.572 242.859 431.02C242.859 430.053 242.941 428.928 243.105 427.643C243.27 426.357 243.507 424.981 243.816 423.514L246.277 423.992C245.977 425.387 245.749 426.672 245.594 427.848C245.439 429.014 245.361 430.008 245.361 430.828C245.361 432.569 245.849 433.822 246.824 434.588C247.809 435.354 249.413 435.736 251.637 435.736C253.46 435.736 254.941 435.499 256.08 435.025C257.219 434.551 257.789 433.932 257.789 433.166C257.789 432.811 257.616 432.505 257.27 432.25C256.923 431.995 256.303 431.744 255.41 431.498C254.526 431.252 253.273 430.969 251.65 430.65L252.033 427.725H261.891V430.5H257.816V430.637ZM267.865 419.672C268.13 420.674 268.335 421.618 268.48 422.502C268.635 423.386 268.713 424.179 268.713 424.881C268.713 426.704 268.212 428.098 267.209 429.064C266.215 430.021 264.657 430.5 262.533 430.5H261.891C261.59 430.5 261.439 430.035 261.439 429.105C261.439 428.185 261.59 427.725 261.891 427.725H262.533C263.818 427.725 264.739 427.469 265.295 426.959C265.851 426.449 266.129 425.683 266.129 424.662C266.129 424.152 266.061 423.532 265.924 422.803C265.787 422.064 265.609 421.249 265.391 420.355L267.865 419.672ZM260.975 414.846L262.943 412.877L264.926 414.846L262.943 416.828L260.975 414.846ZM265.746 414.846L267.715 412.877L269.697 414.846L267.715 416.828L265.746 414.846ZM272.021 412.084H274.688V424.348C274.688 425.56 274.956 426.426 275.494 426.945C276.041 427.465 277.003 427.725 278.379 427.725H278.393V430.5H278.379C276.319 430.5 274.742 429.994 273.648 428.982C272.564 427.962 272.021 426.435 272.021 424.402V412.084ZM282.576 424.047C282.576 426.025 283.952 427.014 286.705 427.014C287.07 427.014 287.493 426.995 287.977 426.959C288.46 426.923 289.016 426.859 289.645 426.768L291.422 426.521L291.723 429.229L288.537 429.611C286.614 429.885 284.791 430.104 283.068 430.268C281.346 430.423 279.974 430.5 278.953 430.5H278.406C278.105 430.5 277.955 430.035 277.955 429.105C277.955 428.185 278.105 427.725 278.406 427.725H278.857C279.413 427.725 279.969 427.715 280.525 427.697C281.09 427.67 281.628 427.633 282.139 427.588V427.396C281.473 427.096 280.949 426.631 280.566 426.002C280.193 425.373 280.006 424.63 280.006 423.773C280.006 422.661 280.27 421.668 280.799 420.793C281.337 419.909 282.07 419.212 283 418.701C283.93 418.191 284.982 417.936 286.158 417.936C287.899 417.936 289.43 418.482 290.752 419.576L289.508 421.641C288.396 420.975 287.284 420.643 286.172 420.643C285.124 420.643 284.262 420.962 283.588 421.6C282.913 422.238 282.576 423.053 282.576 424.047ZM295.236 412.508L297.725 411.77C298.244 413.036 298.673 414.285 299.01 415.516C299.356 416.746 299.634 418.059 299.844 419.453C300.062 420.848 300.231 422.434 300.35 424.211L297.738 424.512C297.611 422.178 297.342 420.046 296.932 418.113C296.531 416.181 295.965 414.312 295.236 412.508ZM306.557 412.084H309.209V424.348C309.209 425.596 309.487 426.471 310.043 426.973C310.599 427.474 311.51 427.725 312.777 427.725H312.791V430.5H312.777C309.423 430.5 307.55 428.955 307.158 425.865L307.145 425.291C305.859 427.05 304.205 428.358 302.182 429.215C300.167 430.072 297.62 430.5 294.539 430.5V427.725C296.517 427.725 298.24 427.551 299.707 427.205C301.174 426.859 302.46 426.316 303.562 425.578C304.674 424.84 305.673 423.883 306.557 422.707V412.084ZM312.805 430.5C312.65 430.5 312.536 430.4 312.463 430.199C312.39 429.999 312.354 429.634 312.354 429.105C312.354 428.568 312.39 428.203 312.463 428.012C312.536 427.82 312.65 427.725 312.805 427.725H314.787C314.915 427.542 315.033 427.365 315.143 427.191C315.252 427.009 315.366 426.831 315.484 426.658V412.084H318.137V420.697C318.137 421.426 318.082 422.096 317.973 422.707C317.872 423.309 317.727 423.906 317.535 424.498L317.658 424.594C318.916 422.98 320.178 421.745 321.445 420.889C322.712 420.032 323.952 419.604 325.164 419.604C326.632 419.604 327.798 420.077 328.664 421.025C329.53 421.973 329.963 423.195 329.963 424.689C329.963 425.829 329.68 426.836 329.115 427.711C328.55 428.586 327.643 429.27 326.395 429.762C325.146 430.254 323.492 430.5 321.432 430.5H312.805ZM317.754 427.725H321.992C322.922 427.725 323.806 427.652 324.645 427.506C325.483 427.351 326.167 427.068 326.695 426.658C327.224 426.239 327.488 425.628 327.488 424.826C327.488 424.106 327.242 423.514 326.75 423.049C326.258 422.575 325.606 422.338 324.795 422.338C324.23 422.338 323.596 422.488 322.895 422.789C322.193 423.09 321.418 423.632 320.57 424.416C319.723 425.191 318.784 426.294 317.754 427.725ZM336.156 430.5H333.504V412.084H336.156V430.5Z" fill="#DBDBDB"/>
<rect y="342" width="160" height="160" rx="20" fill="#AB4ABA"/>
<path d="M61.6523 406.137C62.6549 406.592 63.3568 407.044 63.7578 407.49C64.1589 407.937 64.3594 408.493 64.3594 409.158C64.3594 410.07 63.9674 410.895 63.1836 411.633C62.3997 412.371 61.3379 412.954 59.998 413.383C58.6582 413.811 57.1497 414.025 55.4727 414.025C52.4922 414.025 50.2819 413.41 48.8418 412.18C47.4108 410.958 46.6953 409.072 46.6953 406.52C46.6953 405.553 46.7773 404.428 46.9414 403.143C47.1055 401.857 47.3424 400.481 47.6523 399.014L50.1133 399.492C49.8125 400.887 49.5846 402.172 49.4297 403.348C49.2747 404.514 49.1973 405.508 49.1973 406.328C49.1973 408.069 49.6849 409.322 50.6602 410.088C51.6445 410.854 53.2487 411.236 55.4727 411.236C57.2956 411.236 58.7767 410.999 59.916 410.525C61.0553 410.051 61.625 409.432 61.625 408.666C61.625 408.311 61.4518 408.005 61.1055 407.75C60.7591 407.495 60.1393 407.244 59.2461 406.998C58.362 406.752 57.1087 406.469 55.4863 406.15L55.8691 403.225H65.7266V406H61.6523V406.137ZM67.8047 410.84L69.7734 408.871L71.7422 410.84L69.7734 412.822L67.8047 410.84ZM73.8066 395.172C74.0618 396.174 74.2624 397.118 74.4082 398.002C74.5632 398.886 74.6406 399.679 74.6406 400.381C74.6406 402.204 74.1257 403.598 73.0957 404.564C72.0658 405.521 70.3704 406 68.0098 406H65.7266C65.4258 406 65.2754 405.535 65.2754 404.605C65.2754 403.685 65.4258 403.225 65.7266 403.225H68.0098C69.5319 403.225 70.5892 402.969 71.1816 402.459C71.7741 401.949 72.0703 401.183 72.0703 400.162C72.0703 399.652 71.9974 399.032 71.8516 398.303C71.7148 397.564 71.5371 396.749 71.3184 395.855L73.8066 395.172ZM77.9629 387.584H80.6289V399.848C80.6289 401.06 80.8978 401.926 81.4355 402.445C81.9824 402.965 82.944 403.225 84.3203 403.225H84.334V406H84.3203C82.2604 406 80.6836 405.494 79.5898 404.482C78.5052 403.462 77.9629 401.935 77.9629 399.902V387.584ZM90.3223 395.172C90.5866 396.174 90.7917 397.118 90.9375 398.002C91.0924 398.886 91.1699 399.679 91.1699 400.381C91.1699 402.204 90.6686 403.598 89.666 404.564C88.6725 405.521 87.1139 406 84.9902 406H84.3477C84.0469 406 83.8965 405.535 83.8965 404.605C83.8965 403.685 84.0469 403.225 84.3477 403.225H84.9902C86.2754 403.225 87.196 402.969 87.752 402.459C88.3079 401.949 88.5859 401.183 88.5859 400.162C88.5859 399.652 88.5176 399.032 88.3809 398.303C88.2441 397.564 88.0664 396.749 87.8477 395.855L90.3223 395.172ZM81.7637 410.84L83.7324 408.871L85.7148 410.84L83.7324 412.822L81.7637 410.84ZM86.5352 410.84L88.5039 408.871L90.4863 410.84L88.5039 412.822L86.5352 410.84ZM105.061 400.654C105.061 401.921 104.728 402.956 104.062 403.758C103.397 404.56 102.513 405.152 101.41 405.535C100.307 405.909 99.0996 406.096 97.7871 406.096C97.14 406.096 96.4655 406.05 95.7637 405.959C95.071 405.868 94.3555 405.727 93.6172 405.535L94.2324 402.924C94.8796 403.07 95.4902 403.179 96.0645 403.252C96.6478 403.316 97.2038 403.348 97.7324 403.348C99.1999 403.348 100.348 403.12 101.178 402.664C102.016 402.199 102.436 401.516 102.436 400.613C102.436 399.766 102.025 398.754 101.205 397.578C100.394 396.402 99.2591 395.167 97.8008 393.873L99.5781 391.768C101.401 393.39 102.768 394.935 103.68 396.402C104.6 397.861 105.061 399.278 105.061 400.654ZM108.971 397.688L111.459 396.812C111.969 398.326 112.37 399.734 112.662 401.037C112.963 402.331 113.113 403.503 113.113 404.551C113.113 406.592 112.443 408.32 111.104 409.732C109.773 411.154 107.663 412.389 104.773 413.438L103.598 410.936C105.995 410.097 107.745 409.195 108.848 408.229C109.951 407.262 110.502 406.059 110.502 404.619C110.502 403.781 110.361 402.746 110.078 401.516C109.805 400.285 109.436 399.009 108.971 397.688ZM52.2051 449.176L54.1738 447.207L56.1426 449.176L54.1738 451.158L52.2051 449.176ZM59.082 446.523L61.5566 445.348C62.2585 446.943 62.7734 448.365 63.1016 449.613C63.4388 450.862 63.6074 451.979 63.6074 452.963C63.6074 454.795 63.2155 456.317 62.4316 457.529C61.6569 458.751 60.5632 459.667 59.1504 460.277C57.7467 460.888 56.097 461.193 54.2012 461.193C51.2116 461.193 48.9193 460.528 47.3242 459.197C45.7292 457.876 44.9316 455.775 44.9316 452.895C44.9316 452.111 44.9954 451.217 45.123 450.215C45.2598 449.212 45.4694 448.041 45.752 446.701L48.2676 447.248C47.985 448.67 47.7845 449.796 47.666 450.625C47.5566 451.454 47.502 452.165 47.502 452.758C47.502 454.799 48.0579 456.253 49.1699 457.119C50.291 457.985 51.9453 458.418 54.1328 458.418C56.3112 458.418 58.002 458.017 59.2051 457.215C60.4173 456.413 61.0234 455.064 61.0234 453.168C61.0234 452.384 60.873 451.491 60.5723 450.488C60.2806 449.477 59.7839 448.155 59.082 446.523ZM74.9961 440.959L78.6465 449.504C78.9655 450.242 79.2891 450.807 79.6172 451.199C79.9544 451.591 80.3418 451.86 80.7793 452.006C81.2259 452.152 81.7637 452.225 82.3926 452.225H82.5703V455H82.3926C81.153 455 80.1139 454.763 79.2754 454.289C78.4368 453.806 77.7943 453.008 77.3477 451.896H77.2109C76.7734 452.926 76.0306 453.724 74.9824 454.289C73.9342 454.854 72.7676 455.137 71.4824 455.137C70.571 455.137 69.6549 454.977 68.7344 454.658C67.8138 454.33 66.9479 453.838 66.1367 453.182L67.4082 450.857C68.7389 451.86 70.1243 452.361 71.5645 452.361C72.4303 452.361 73.2598 452.174 74.0527 451.801C74.8548 451.418 75.5065 450.867 76.0078 450.146L72.4805 442.162L74.9961 440.959ZM93.6172 437.199L95.5723 435.23L97.5547 437.199L95.5723 439.168L93.6172 437.199ZM95.9961 441.492L97.9648 439.523L99.9473 441.492L97.9648 443.475L95.9961 441.492ZM91.2246 441.492L93.1934 439.523L95.1758 441.492L93.1934 443.475L91.2246 441.492ZM103.188 451.5C103.023 452.658 102.65 453.533 102.066 454.125C101.483 454.708 100.649 455 99.5645 455C98.4707 455 97.623 454.74 97.0215 454.221C96.4199 453.692 96.0189 452.99 95.8184 452.115H95.6816C95.2168 454.038 93.9772 455 91.9629 455C90.8509 455 89.9896 454.727 89.3789 454.18C88.7682 453.633 88.3626 452.863 88.1621 451.869H88.0254C87.6973 452.808 87.1139 453.564 86.2754 454.139C85.4368 454.713 84.416 455 83.2129 455H82.5703C82.2695 455 82.1191 454.531 82.1191 453.592C82.1191 452.68 82.2695 452.225 82.5703 452.225H83.2129C84.4707 452.225 85.3958 451.928 85.9883 451.336C86.5807 450.734 86.9499 449.768 87.0957 448.438L87.3145 446.182L89.9668 446.373L89.707 449.271C89.6068 450.201 89.7617 450.926 90.1719 451.445C90.5911 451.965 91.2337 452.225 92.0996 452.225C92.8835 452.225 93.4577 451.997 93.8223 451.541C94.1868 451.085 94.4147 450.37 94.5059 449.395L94.7383 446.852L97.1035 447.029L96.9121 449.477C96.8301 450.397 96.9896 451.085 97.3906 451.541C97.8008 451.997 98.3978 452.225 99.1816 452.225C100.704 452.225 101.465 451.377 101.465 449.682C101.465 449.317 101.419 448.802 101.328 448.137C101.246 447.462 101.137 446.774 101 446.072L103.57 445.553L103.898 447.795C104.072 448.925 104.322 449.814 104.65 450.461C104.988 451.099 105.448 451.555 106.031 451.828C106.624 452.092 107.389 452.225 108.328 452.225H108.355V455H108.328C106.861 455 105.721 454.695 104.91 454.084C104.108 453.464 103.579 452.603 103.324 451.5H103.188ZM114.33 444.172C114.594 445.174 114.799 446.118 114.945 447.002C115.1 447.886 115.178 448.679 115.178 449.381C115.178 451.204 114.676 452.598 113.674 453.564C112.68 454.521 111.122 455 108.998 455H108.355C108.055 455 107.904 454.535 107.904 453.605C107.904 452.685 108.055 452.225 108.355 452.225H108.998C110.283 452.225 111.204 451.969 111.76 451.459C112.316 450.949 112.594 450.183 112.594 449.162C112.594 448.652 112.525 448.032 112.389 447.303C112.252 446.564 112.074 445.749 111.855 444.855L114.33 444.172ZM109.627 439.154L111.596 437.186L113.564 439.154L111.596 441.137L109.627 439.154Z" fill="#DBDBDB"/>
<path d="M287.5 189C287.5 188.172 288.172 187.5 289 187.5C289.828 187.5 290.5 188.172 290.5 189H287.5ZM290.5 189V240H287.5V189H290.5ZM313 262.5H480V265.5H313V262.5ZM505.5 288V338H502.5V288H505.5ZM480 262.5C494.083 262.5 505.5 273.917 505.5 288H502.5C502.5 275.574 492.426 265.5 480 265.5V262.5ZM290.5 240C290.5 252.426 300.574 262.5 313 262.5V265.5C298.917 265.5 287.5 254.083 287.5 240H290.5Z" fill="#7F91A2"/>
<path d="M287.5 189C287.5 188.172 288.172 187.5 289 187.5C289.828 187.5 290.5 188.172 290.5 189H287.5ZM290.5 189L290.5 240H287.5L287.5 189H290.5ZM265 265.5H104L104 262.5H265V265.5ZM81.5 288L81.5 338H78.5L78.5 288H81.5ZM104 265.5C91.5736 265.5 81.5 275.574 81.5 288H78.5C78.5 273.917 89.9167 262.5 104 262.5L104 265.5ZM290.5 240C290.5 254.083 279.083 265.5 265 265.5V262.5C277.426 262.5 287.5 252.426 287.5 240H290.5Z" fill="#7F91A2"/>
<path d="M287.5 189C287.5 188.172 288.172 187.5 289 187.5C289.828 187.5 290.5 188.172 290.5 189H287.5ZM290.5 189L290.5 338H287.5L287.5 189H290.5Z" fill="#7F91A2"/>
</svg>
