<svg  viewBox="0 0 520 520" fill="none" xmlns="http://www.w3.org/2000/svg">
<path opacity="0.25" d="M258.889 333C259.329 333 253.069 336 253.069 336L229.349 335.69C228.909 335.69 235.679 333.01 235.679 333.01L258.889 333Z" fill="#221F1F"/>
<g opacity="0.25">
<path d="M237.21 144.67L218.38 229.72C215.26 243.9 212.26 258.2 210.01 272.62C209.46 276.22 208.9 279.82 208.4 283.43L206.71 295.62L206.34 298.32L206.25 298.99C206.25 299.04 206.25 299.11 206.25 299.15H206.76H208.12L213.12 299.23L218.57 299.31L229.46 299.47L316.56 300.47L360.12 300.91L381.9 301.07L392.8 301.13H400.99H404.51L405.68 300.83C406.062 300.68 406.405 300.444 406.68 300.14C407.256 299.501 407.698 298.753 407.98 297.94C408.19 297.46 408.23 297.31 408.33 297.06L408.57 296.38L409 295.04C409.53 293.26 410 291.52 410.44 289.78C411.32 286.29 412.11 282.78 412.88 279.34C414.4 272.34 415.8 265.42 417.16 258.45C419.827 244.496 422.353 230.526 424.74 216.54C427.11 202.54 429.35 188.54 431.3 174.45C432.25 167.39 433.19 160.36 433.74 153.14C433.81 152.24 433.86 151.33 433.9 150.4V148.99V148.26V147.44C433.882 146.575 433.73 145.718 433.45 144.9C433.311 144.514 433.1 144.158 432.83 143.85C432.77 143.77 432.66 143.72 432.61 143.64L432.32 143.51L431.75 143.27C431 142.95 430.18 142.58 429.48 142.27L428.07 142C424.33 141.31 420.79 141 417.21 140.69C402.94 139.58 388.77 139.18 374.58 138.78C360.39 138.38 346.21 138.21 332.02 138.05C303.66 137.736 275.303 137.643 246.95 137.77C239.02 137.77 239.05 143.49 246.95 143.42C275.277 143.333 303.61 143.423 331.95 143.69C346.11 143.85 360.27 144.07 374.42 144.43C388.57 144.79 402.73 145.23 416.73 146.32C420.21 146.61 423.73 146.94 426.97 147.54L428.16 147.77H428.25V148.27V149V150.24C428.25 151.08 428.17 151.94 428.11 152.8C427.58 159.72 426.65 166.75 425.71 173.74C423.77 187.74 421.53 201.74 419.18 215.66C416.83 229.58 414.31 243.55 411.61 257.43C410.26 264.37 408.87 271.3 407.36 278.19C406.6 281.63 405.82 285.07 404.96 288.45C404.53 290.14 404.09 291.83 403.59 293.45L403.21 294.64L403.02 295.21L402.88 295.57H400.96H392.82L381.94 295.52L360.17 295.35L316.63 294.92L229.54 293.92L212.73 293.67L214.04 284.3C214.54 280.71 215.04 277.14 215.64 273.57C217.86 259.3 220.82 245.17 223.95 230.99L242.78 145.99C244.08 139.77 238.54 138.56 237.21 144.67Z" fill="#232020"/>
</g>
<path d="M82.817 274.36C82.817 274.48 82.627 274.43 82.417 274.29C82.3234 274.216 82.2509 274.12 82.207 274.01C82.1966 273.93 82.1966 273.849 82.207 273.77C82.207 273.77 82.607 273.28 82.727 273.12C82.846 272.972 82.9838 272.841 83.137 272.73L84.037 271.99C84.1065 271.937 84.1801 271.89 84.257 271.85C84.5268 271.725 84.7736 271.556 84.987 271.35C85.0094 271.337 85.0289 271.319 85.0443 271.299C85.0598 271.278 85.0709 271.255 85.077 271.23C85.2992 270.988 85.5512 270.777 85.827 270.6C86.077 270.49 86.297 270.37 86.537 270.25C86.5544 270.242 86.5731 270.238 86.592 270.238C86.6109 270.238 86.6296 270.242 86.647 270.25C86.767 270.25 86.817 270.25 86.887 270.17C86.9803 270.11 87.0771 270.057 87.177 270.01C87.2433 269.999 87.3107 269.999 87.377 270.01C87.447 270.01 87.517 270.15 87.517 270.17C87.517 270.19 87.577 270.27 87.617 270.31V270.36C87.5249 270.599 87.4004 270.824 87.247 271.03C87.247 271.03 86.567 271.69 86.497 271.77C86.4579 271.808 86.4097 271.835 86.357 271.85C86.357 271.85 85.807 272.39 85.777 272.41C85.747 272.43 85.557 272.63 85.387 272.65H85.307C85.1065 272.823 84.8924 272.98 84.667 273.12C84.5593 273.197 84.4558 273.281 84.357 273.37C84.357 273.37 84.307 273.37 84.287 273.37H84.207C83.957 273.58 83.687 273.75 83.457 273.98C83.457 274.03 83.067 274.17 83.017 274.23C82.967 274.29 82.827 274.31 82.817 274.36Z" fill="#221F1F"/>
<path d="M87.0002 274.18C87.1102 274.18 87.0602 274.34 86.9102 274.55C86.8324 274.638 86.737 274.71 86.6301 274.76H86.4102C86.4102 274.76 85.9702 274.42 85.8202 274.32C85.6913 274.216 85.574 274.099 85.4702 273.97C85.2702 273.71 85.0501 273.45 84.8401 273.19C84.791 273.133 84.7505 273.069 84.7202 273C84.6197 272.761 84.4736 272.543 84.2902 272.36C84.2902 272.36 84.2902 272.29 84.1902 272.28C83.973 272.095 83.7842 271.88 83.6301 271.64C83.5501 271.42 83.4502 271.22 83.3502 271.01C83.3502 271.01 83.3502 270.96 83.3502 270.91C83.3601 270.871 83.3599 270.83 83.3493 270.792C83.3388 270.753 83.3184 270.718 83.2902 270.69C83.235 270.61 83.1912 270.522 83.1602 270.43C83.1602 270.43 83.1602 270.31 83.1602 270.25C83.1602 270.19 83.3002 270.12 83.3202 270.12C83.3402 270.12 83.4202 270.05 83.4602 270.01H83.5102C83.7264 270.081 83.9317 270.182 84.1202 270.31L84.7701 270.95C84.8051 270.986 84.8293 271.031 84.8401 271.08C84.8401 271.08 85.3202 271.55 85.3302 271.57C85.3402 271.59 85.5202 271.76 85.5402 271.92C85.5602 272.08 85.5402 271.92 85.5402 271.98C85.6879 272.156 85.8217 272.343 85.9402 272.54C86.008 272.634 86.0814 272.724 86.1602 272.81C86.1645 272.83 86.1645 272.85 86.1602 272.87C86.1548 272.896 86.1548 272.923 86.1602 272.95C86.3225 273.172 86.496 273.385 86.6802 273.59C86.6802 273.59 86.8402 273.94 86.9002 273.98C86.9602 274.02 87.0002 274.17 87.0002 274.18Z" fill="#221F1F"/>
<path d="M84.4975 275.16C84.4975 275.27 84.3975 275.32 84.1475 275.34C84.0297 275.33 83.9146 275.299 83.8075 275.25C83.7624 275.186 83.7223 275.119 83.6875 275.05C83.6875 275.05 83.6875 274.46 83.6875 274.27C83.6904 274.091 83.7139 273.913 83.7575 273.74C83.8375 273.39 83.9075 273.03 83.9875 272.68C84.007 272.602 84.0373 272.528 84.0775 272.46C84.2009 272.211 84.282 271.944 84.3175 271.67C84.3175 271.62 84.3175 271.58 84.3175 271.53C84.3339 271.222 84.3946 270.919 84.4975 270.63C84.6275 270.41 84.7175 270.19 84.8275 269.97C84.8275 269.97 84.8275 269.9 84.8875 269.87C84.9475 269.84 85.0075 269.75 85.0275 269.68C85.0581 269.578 85.1018 269.48 85.1575 269.39C85.2013 269.342 85.2518 269.302 85.3075 269.27C85.3075 269.27 85.4975 269.27 85.5075 269.27C85.5175 269.27 85.6175 269.27 85.6775 269.32H85.7375C85.8119 269.55 85.8589 269.788 85.8775 270.03C85.8775 270.03 85.7575 270.91 85.7575 271.03C85.748 271.08 85.7275 271.128 85.6975 271.17C85.6975 271.17 85.6075 271.89 85.6075 271.92C85.6075 271.95 85.6075 272.2 85.4475 272.32C85.2875 272.44 85.4475 272.32 85.4475 272.4C85.4008 272.641 85.3339 272.879 85.2475 273.11C85.2475 273.23 85.2475 273.36 85.1675 273.48V273.54C85.1675 273.54 85.1675 273.59 85.1675 273.62C85.0855 273.906 85.0188 274.196 84.9675 274.49C84.9675 274.56 84.7875 274.86 84.7775 274.94C84.7675 275.02 84.4775 275.12 84.4975 275.16Z" fill="#221F1F"/>
<path d="M87.5205 271.84C87.6105 271.78 87.6805 271.91 87.7305 272.16C87.7576 272.272 87.7576 272.388 87.7305 272.5C87.6877 272.566 87.6335 272.623 87.5705 272.67C87.5705 272.67 87.0305 272.77 86.8605 272.81C86.6978 272.83 86.5332 272.83 86.3705 272.81H85.3705C85.2974 272.819 85.2235 272.819 85.1505 272.81C84.9056 272.729 84.6483 272.692 84.3905 272.7C84.3488 272.683 84.3021 272.683 84.2605 272.7C83.9786 272.74 83.6924 272.74 83.4105 272.7C83.2005 272.61 82.9805 272.56 82.7605 272.49C82.7605 272.49 82.6905 272.49 82.6705 272.49C82.6484 272.458 82.6184 272.432 82.5834 272.414C82.5484 272.397 82.5096 272.388 82.4705 272.39C82.3715 272.373 82.2743 272.346 82.1805 272.31C82.1323 272.276 82.0886 272.235 82.0505 272.19C82.0352 272.157 82.0273 272.121 82.0273 272.085C82.0273 272.049 82.0352 272.013 82.0505 271.98C82.0505 271.98 82.0505 271.87 82.0505 271.8V271.74C82.249 271.628 82.4606 271.54 82.6805 271.48L83.5905 271.43C83.64 271.42 83.6909 271.42 83.7405 271.43C83.7405 271.43 84.4005 271.43 84.4305 271.43C84.5652 271.422 84.6996 271.45 84.8205 271.51C84.8463 271.519 84.8746 271.519 84.9005 271.51C85.1287 271.513 85.3563 271.537 85.5805 271.58C85.7005 271.58 85.8105 271.58 85.9305 271.58H85.9905H86.0705C86.3468 271.6 86.6242 271.6 86.9005 271.58C86.9605 271.58 87.2605 271.7 87.3305 271.69C87.4005 271.68 87.4805 271.87 87.5205 271.84Z" fill="#221F1F"/>
<path d="M94.7784 213.92C94.7784 214.03 94.5884 213.99 94.3784 213.85C94.2867 213.775 94.2146 213.679 94.1684 213.57C94.1574 213.49 94.1574 213.409 94.1684 213.33C94.1684 213.28 94.5584 212.84 94.6884 212.68C94.8098 212.532 94.9473 212.397 95.0984 212.28L95.9984 211.55C96.0653 211.494 96.1392 211.446 96.2184 211.41C96.4882 211.285 96.735 211.116 96.9484 210.91C96.9484 210.91 97.0284 210.85 97.0384 210.79C97.2579 210.546 97.5103 210.334 97.7884 210.16L98.4984 209.81C98.4984 209.81 98.4984 209.76 98.6084 209.81C98.7184 209.86 98.7784 209.81 98.8484 209.73C98.9394 209.667 99.0366 209.613 99.1384 209.57C99.2047 209.559 99.2721 209.559 99.3384 209.57C99.4084 209.57 99.4784 209.71 99.4684 209.73C99.4584 209.75 99.5384 209.83 99.5784 209.87V209.92C99.4842 210.158 99.3598 210.383 99.2084 210.59C99.2084 210.59 98.5284 211.24 98.4584 211.33C98.4155 211.368 98.364 211.395 98.3084 211.41L97.7384 211.97C97.6307 212.081 97.4965 212.164 97.3484 212.21C97.3484 212.21 97.2884 212.21 97.2684 212.26C97.0683 212.431 96.8542 212.584 96.6284 212.72C96.5206 212.801 96.4171 212.888 96.3184 212.98H96.2484H96.1584C95.9005 213.169 95.6534 213.373 95.4184 213.59C95.4184 213.59 95.0284 213.77 94.9684 213.84C94.9084 213.91 94.7884 213.87 94.7784 213.92Z" fill="#221F1F"/>
<path d="M98.9999 213.73C99.1099 213.73 99.0599 213.9 98.9099 214.11C98.8628 214.198 98.7849 214.266 98.691 214.301C98.597 214.336 98.4934 214.336 98.3999 214.3C98.3999 214.3 97.9599 213.97 97.8199 213.87C97.6886 213.765 97.571 213.644 97.4699 213.51L96.8299 212.74C96.7873 212.676 96.7505 212.609 96.7199 212.54C96.6131 212.307 96.4677 212.094 96.2899 211.91C96.2899 211.91 96.2899 211.84 96.1799 211.83C95.9684 211.638 95.7835 211.42 95.6299 211.18C95.5499 210.97 95.4399 210.76 95.3499 210.55C95.3499 210.55 95.3499 210.55 95.3499 210.46C95.3609 210.421 95.3612 210.38 95.3506 210.341C95.34 210.302 95.319 210.267 95.2899 210.24C95.2347 210.159 95.191 210.072 95.1599 209.98C95.1498 209.92 95.1498 209.859 95.1599 209.8C95.1752 209.767 95.1976 209.739 95.2252 209.717C95.2529 209.694 95.2852 209.678 95.3199 209.67C95.3799 209.67 95.4199 209.6 95.4599 209.56C95.6741 209.631 95.879 209.729 96.0699 209.85C96.0699 209.85 96.6499 210.44 96.7199 210.5C96.7549 210.536 96.7791 210.581 96.7899 210.63C96.7899 210.63 97.2699 211.09 97.2799 211.11C97.2899 211.13 97.4699 211.3 97.4899 211.46C97.4815 211.482 97.4815 211.507 97.4899 211.53C97.6345 211.708 97.768 211.895 97.8899 212.09C97.9577 212.184 98.0312 212.274 98.1099 212.36C98.1099 212.36 98.1099 212.36 98.1099 212.42C98.1099 212.48 98.1099 212.48 98.1099 212.49C98.2721 212.715 98.4457 212.932 98.6299 213.14C98.6799 213.14 98.7899 213.48 98.8399 213.53C98.8899 213.58 98.9399 213.72 98.9999 213.73Z" fill="#221F1F"/>
<path d="M96.4608 214.72C96.4608 214.83 96.3608 214.88 96.1108 214.89C95.993 214.888 95.877 214.861 95.7708 214.81C95.7228 214.746 95.6793 214.679 95.6408 214.61C95.6408 214.61 95.6408 214.02 95.6408 213.83C95.6381 213.65 95.6617 213.472 95.7108 213.3C95.7908 212.95 95.8608 212.59 95.9408 212.24C95.9517 212.158 95.9718 212.077 96.0008 212C96.1257 211.752 96.2069 211.485 96.2408 211.21C96.2508 211.188 96.2559 211.164 96.2559 211.14C96.2559 211.115 96.2508 211.092 96.2408 211.07C96.2573 210.766 96.3179 210.466 96.4208 210.18C96.5508 209.96 96.6408 209.73 96.7508 209.51C96.7508 209.51 96.7508 209.44 96.8108 209.42C96.8708 209.4 96.9208 209.3 96.9508 209.23C96.9796 209.127 97.0234 209.029 97.0808 208.94C97.0808 208.94 97.1708 208.86 97.2308 208.82C97.2908 208.78 97.4108 208.82 97.4308 208.82C97.4508 208.82 97.5408 208.82 97.6008 208.82H97.6608C97.736 209.05 97.783 209.288 97.8008 209.53C97.8008 209.53 97.6808 210.41 97.6808 210.53C97.6657 210.58 97.642 210.627 97.6108 210.67C97.6108 210.67 97.5308 211.39 97.5208 211.41C97.5108 211.43 97.5208 211.7 97.3708 211.82C97.2208 211.94 97.3708 211.87 97.3708 211.9C97.3181 212.14 97.2513 212.377 97.1708 212.61C97.1336 212.73 97.1069 212.854 97.0908 212.98V213.04C97.089 213.066 97.089 213.093 97.0908 213.12C97.0122 213.406 96.9488 213.696 96.9008 213.99C96.9008 214.06 96.7208 214.35 96.7108 214.43C96.7008 214.51 96.4408 214.67 96.4608 214.72Z" fill="#221F1F"/>
<path d="M99.47 211.4C99.57 211.34 99.64 211.47 99.69 211.72C99.7168 211.831 99.7168 211.948 99.69 212.06L99.53 212.22C99.53 212.22 98.99 212.33 98.82 212.37C98.6539 212.389 98.4861 212.389 98.32 212.37H97.32C97.247 212.379 97.173 212.379 97.1 212.37C96.8546 212.292 96.5972 212.258 96.34 212.27C96.2979 212.255 96.2521 212.255 96.21 212.27C95.9284 212.314 95.6416 212.314 95.36 212.27C95.15 212.18 94.93 212.13 94.71 212.06C94.71 212.06 94.64 212.06 94.61 212.06C94.58 212.06 94.48 211.96 94.41 211.95C94.3138 211.94 94.2195 211.916 94.13 211.88C94.0794 211.844 94.0354 211.8 94 211.75C94 211.75 94 211.56 94 211.55C94 211.54 94 211.43 94 211.37V211.31C94.1964 211.193 94.4086 211.106 94.63 211.05H95.54C95.5854 211.034 95.6346 211.034 95.68 211.05C95.68 211.05 96.35 211.05 96.38 211.05C96.41 211.05 96.64 211.05 96.77 211.13C96.9 211.21 96.77 211.13 96.85 211.13C97.0782 211.141 97.3053 211.168 97.53 211.21C97.65 211.21 97.76 211.21 97.88 211.21H97.94H98.02C98.2965 211.224 98.5735 211.224 98.85 211.21C98.91 211.21 99.21 211.33 99.28 211.32C99.35 211.31 99.44 211.43 99.47 211.4Z" fill="#221F1F"/>
<path d="M186.157 176.44C186.157 176.56 185.967 176.51 185.757 176.37C185.664 176.297 185.591 176.2 185.547 176.09C185.542 176.01 185.542 175.93 185.547 175.85C185.547 175.85 185.947 175.36 186.067 175.2C186.192 175.052 186.333 174.917 186.487 174.8L187.377 174.07C187.447 174.017 187.52 173.971 187.597 173.93C187.867 173.806 188.114 173.637 188.327 173.43C188.373 173.402 188.408 173.36 188.427 173.31C188.643 173.067 188.892 172.855 189.167 172.68C189.417 172.57 189.647 172.45 189.877 172.33C189.877 172.33 189.937 172.28 189.987 172.33C190.037 172.38 190.157 172.33 190.227 172.25C190.323 172.189 190.423 172.135 190.527 172.09C190.593 172.079 190.661 172.079 190.727 172.09C190.787 172.09 190.857 172.23 190.857 172.25C190.857 172.27 190.917 172.35 190.967 172.39C190.869 172.626 190.745 172.851 190.597 173.06C190.597 173.06 189.907 173.72 189.837 173.8C189.798 173.838 189.75 173.866 189.697 173.88C189.697 173.88 189.147 174.42 189.127 174.44C189.107 174.46 188.907 174.66 188.727 174.68H188.647C188.447 174.853 188.233 175.01 188.007 175.15C187.899 175.228 187.796 175.311 187.697 175.4C187.697 175.4 187.647 175.4 187.627 175.4C187.601 175.395 187.573 175.395 187.547 175.4C187.289 175.589 187.042 175.793 186.807 176.01C186.807 176.06 186.407 176.2 186.357 176.26C186.307 176.32 186.177 176.39 186.157 176.44Z" fill="#221F1F"/>
<path d="M190.37 176.26C190.48 176.26 190.43 176.42 190.28 176.63C190.206 176.718 190.114 176.789 190.01 176.84H189.78C189.78 176.84 189.34 176.5 189.2 176.4C189.067 176.301 188.949 176.183 188.85 176.05L188.21 175.27C188.161 175.213 188.121 175.149 188.09 175.08C187.99 174.841 187.844 174.623 187.66 174.44C187.66 174.44 187.66 174.37 187.56 174.36C187.344 174.178 187.158 173.961 187.01 173.72C186.92 173.5 186.82 173.3 186.72 173.09C186.72 173.09 186.72 173.04 186.72 172.99C186.72 172.94 186.72 172.83 186.66 172.77C186.609 172.687 186.566 172.6 186.53 172.51C186.516 172.451 186.516 172.389 186.53 172.33C186.53 172.27 186.66 172.2 186.68 172.2C186.7 172.2 186.78 172.13 186.82 172.09C187.04 172.161 187.248 172.262 187.44 172.39C187.44 172.39 188.01 172.97 188.08 173.03C188.115 173.066 188.14 173.111 188.15 173.16C188.15 173.16 188.63 173.63 188.65 173.65C188.67 173.67 188.84 173.84 188.85 173.99C188.86 174.14 188.85 174.04 188.85 174.06C188.998 174.236 189.132 174.423 189.25 174.62C189.32 174.72 189.4 174.8 189.47 174.89V174.95C189.47 174.95 189.47 175.01 189.47 175.03C189.636 175.252 189.812 175.466 190 175.67C190 175.67 190.15 176.02 190.21 176.06C190.27 176.1 190.33 176.25 190.37 176.26Z" fill="#221F1F"/>
<path d="M187.837 177.24C187.837 177.35 187.747 177.4 187.487 177.42C187.372 177.412 187.26 177.381 187.157 177.33C187.109 177.266 187.066 177.199 187.027 177.13C187.027 177.13 187.027 176.54 187.027 176.35C187.03 176.171 187.054 175.993 187.097 175.82C187.177 175.47 187.247 175.11 187.327 174.76C187.347 174.682 187.377 174.608 187.417 174.54C187.538 174.29 187.622 174.024 187.667 173.75C187.667 173.7 187.667 173.66 187.667 173.61C187.679 173.302 187.74 172.998 187.847 172.71C187.967 172.49 188.067 172.27 188.177 172.05C188.177 172.05 188.177 171.97 188.227 171.95C188.277 171.93 188.347 171.83 188.367 171.76C188.387 171.69 188.447 171.57 188.497 171.47C188.541 171.422 188.592 171.382 188.647 171.35C188.697 171.35 188.837 171.35 188.847 171.35C188.857 171.35 188.957 171.35 189.017 171.4H189.077C189.157 171.629 189.204 171.868 189.217 172.11C189.217 172.11 189.097 172.99 189.097 173.11C189.088 173.16 189.067 173.208 189.037 173.25C189.037 173.25 188.957 173.97 188.947 173.99C188.933 174.139 188.878 174.281 188.787 174.4C188.787 174.4 188.787 174.4 188.787 174.48C188.745 174.723 188.678 174.96 188.587 175.19C188.587 175.31 188.537 175.44 188.507 175.56V175.62C188.507 175.62 188.507 175.62 188.507 175.7C188.425 175.986 188.359 176.276 188.307 176.57C188.307 176.64 188.127 176.93 188.127 177.02C188.127 177.11 187.827 177.19 187.837 177.24Z" fill="#221F1F"/>
<path d="M190.858 173.92C190.948 173.86 191.018 173.99 191.068 174.24C191.104 174.333 191.105 174.437 191.07 174.531C191.035 174.625 190.967 174.703 190.878 174.75C190.878 174.75 190.348 174.85 190.168 174.89C190.005 174.91 189.841 174.91 189.678 174.89H188.678C188.602 174.886 188.528 174.869 188.458 174.84C188.212 174.767 187.955 174.733 187.698 174.74C187.698 174.74 187.618 174.74 187.578 174.74C187.296 174.78 187.01 174.78 186.728 174.74C186.508 174.65 186.288 174.6 186.068 174.53C186.068 174.53 185.998 174.53 185.978 174.53C185.958 174.53 185.848 174.44 185.778 174.43C185.682 174.414 185.588 174.387 185.498 174.35C185.448 174.35 185.408 174.27 185.358 174.22C185.308 174.17 185.358 174.04 185.358 174.02C185.358 174 185.358 173.9 185.358 173.84C185.353 173.82 185.353 173.799 185.358 173.78C185.556 173.666 185.768 173.578 185.988 173.52L186.898 173.47C186.898 173.47 186.988 173.47 187.038 173.47C187.088 173.47 187.698 173.47 187.728 173.47C187.758 173.47 187.998 173.47 188.118 173.55C188.144 173.558 188.172 173.558 188.198 173.55C188.426 173.553 188.654 173.576 188.878 173.62C188.998 173.62 189.118 173.62 189.228 173.62H189.288H189.368C189.644 173.64 189.922 173.64 190.198 173.62C190.258 173.62 190.558 173.74 190.628 173.73C190.698 173.72 190.818 174 190.858 173.92Z" fill="#221F1F"/>
<g opacity="0.6">
<path d="M141.62 242.25C141.62 242.33 141.51 242.3 141.37 242.25C141.317 242.203 141.276 242.145 141.25 242.08C141.245 242.03 141.245 241.979 141.25 241.93C141.25 241.93 141.51 241.62 141.59 241.52C141.67 241.426 141.76 241.342 141.86 241.27L142.44 240.79L142.58 240.7C142.751 240.616 142.909 240.508 143.05 240.38C143.077 240.359 143.098 240.332 143.11 240.3C143.253 240.145 143.414 240.007 143.59 239.89L144.05 239.66C144.05 239.66 144.05 239.66 144.11 239.66C144.17 239.66 144.22 239.66 144.27 239.61C144.33 239.567 144.393 239.53 144.46 239.5H144.58C144.58 239.5 144.66 239.58 144.66 239.59C144.66 239.6 144.66 239.65 144.73 239.68C144.663 239.829 144.579 239.97 144.48 240.1L143.99 240.57C143.99 240.57 143.93 240.57 143.9 240.63L143.53 240.98C143.45 241.04 143.39 241.12 143.28 241.14C143.152 241.251 143.015 241.352 142.87 241.44L142.66 241.61C142.66 241.61 142.66 241.61 142.61 241.61C142.441 241.728 142.281 241.859 142.13 242C142.13 242 141.88 242.12 141.84 242.16C141.8 242.2 141.63 242.22 141.62 242.25Z" fill="#221F1F"/>
<path d="M144.337 242.16C144.397 242.16 144.337 242.26 144.287 242.39C144.237 242.52 144.147 242.52 144.117 242.51H143.997C143.997 242.51 143.717 242.29 143.627 242.23C143.549 242.158 143.476 242.081 143.407 242L142.997 241.5C142.965 241.46 142.938 241.416 142.917 241.37C142.85 241.217 142.755 241.078 142.637 240.96C142.618 240.953 142.597 240.953 142.577 240.96C142.437 240.842 142.315 240.704 142.217 240.55C142.162 240.409 142.099 240.272 142.027 240.14C142.022 240.13 142.019 240.12 142.019 240.11C142.019 240.099 142.022 240.089 142.027 240.08C142.041 240.061 142.049 240.038 142.049 240.015C142.049 239.991 142.041 239.968 142.027 239.95L141.937 239.78C141.932 239.743 141.932 239.706 141.937 239.67C141.937 239.67 142.017 239.58 142.037 239.59C142.057 239.6 142.097 239.59 142.117 239.52C142.254 239.572 142.385 239.639 142.507 239.72C142.507 239.72 142.867 240.1 142.917 240.13C142.919 240.16 142.919 240.19 142.917 240.22C142.917 240.22 143.217 240.52 143.227 240.53C143.291 240.593 143.336 240.672 143.357 240.76C143.453 240.873 143.54 240.993 143.617 241.12C143.617 241.18 143.717 241.23 143.757 241.29C143.757 241.29 143.757 241.29 143.757 241.34C143.757 241.39 143.967 241.63 144.097 241.75C144.227 241.87 144.197 241.97 144.237 242C144.277 242.03 144.307 242.15 144.337 242.16Z" fill="#221F1F"/>
<path d="M142.7 242.78C142.7 242.85 142.64 242.88 142.49 242.89C142.425 242.908 142.356 242.908 142.29 242.89C142.258 242.85 142.231 242.806 142.21 242.76C142.21 242.76 142.21 242.39 142.21 242.26C142.201 242.146 142.201 242.033 142.21 241.92C142.27 241.7 142.31 241.47 142.36 241.24C142.374 241.19 142.394 241.143 142.42 241.1C142.498 240.939 142.548 240.767 142.57 240.59C142.58 240.56 142.58 240.529 142.57 240.5C142.577 240.302 142.614 240.106 142.68 239.92C142.76 239.78 142.82 239.63 142.89 239.49C142.96 239.35 142.89 239.44 142.89 239.43C142.89 239.42 142.96 239.35 142.98 239.3C143.003 239.238 143.03 239.178 143.06 239.12C143.085 239.088 143.116 239.061 143.15 239.04C143.15 239.04 143.26 239.04 143.27 239.04C143.28 239.04 143.34 239.04 143.37 239.04C143.414 239.186 143.441 239.337 143.45 239.49C143.45 239.49 143.37 240.06 143.36 240.12C143.35 240.18 143.36 240.18 143.36 240.22C143.36 240.26 143.3 240.68 143.29 240.69C143.286 240.783 143.255 240.874 143.2 240.95C143.196 240.959 143.194 240.969 143.194 240.98C143.194 240.99 143.196 241 143.2 241.01C143.166 241.162 143.123 241.312 143.07 241.46C143.044 241.537 143.027 241.618 143.02 241.7C143.02 241.7 143.02 241.7 143.02 241.75C142.971 241.934 142.931 242.121 142.9 242.31C142.9 242.31 142.78 242.55 142.78 242.6C142.78 242.65 142.69 242.75 142.7 242.78Z" fill="#221F1F"/>
<path d="M144.659 240.66C144.719 240.66 144.769 240.66 144.799 240.85C144.816 240.919 144.816 240.991 144.799 241.06L144.699 241.15C144.548 241.188 144.394 241.218 144.239 241.24C144.133 241.255 144.025 241.255 143.919 241.24H143.279H143.129C142.972 241.186 142.806 241.163 142.639 241.17C142.613 241.161 142.585 241.161 142.559 241.17C142.377 241.194 142.192 241.194 142.009 241.17L141.589 241.05C141.589 241.05 141.589 241.05 141.529 241.05C141.469 241.05 141.449 241.05 141.399 240.99C141.34 240.999 141.279 240.999 141.219 240.99C141.185 240.973 141.154 240.949 141.129 240.92C141.113 240.878 141.113 240.832 141.129 240.79C141.129 240.79 141.129 240.73 141.129 240.69C141.255 240.62 141.389 240.57 141.529 240.54H142.119C142.119 240.54 142.179 240.54 142.209 240.54C142.239 240.54 142.639 240.54 142.659 240.54C142.742 240.521 142.827 240.521 142.909 240.54C142.909 240.54 142.909 240.54 142.959 240.54C143.106 240.53 143.253 240.53 143.399 240.54H143.669H143.719C143.896 240.55 144.073 240.55 144.249 240.54C144.341 240.569 144.435 240.592 144.529 240.61C144.529 240.61 144.639 240.68 144.659 240.66Z" fill="#221F1F"/>
</g>
<g opacity="0.6">
<path d="M154.159 379.47C154.159 379.55 154.039 379.47 153.909 379.47C153.779 379.47 153.779 379.33 153.789 379.3C153.784 379.25 153.784 379.2 153.789 379.15C153.789 379.15 154.049 378.84 154.129 378.74C154.206 378.644 154.297 378.56 154.399 378.49L154.999 378L155.139 377.91C155.308 377.822 155.465 377.715 155.609 377.59C155.637 377.57 155.658 377.542 155.669 377.51C155.808 377.353 155.97 377.218 156.149 377.11C156.309 377.04 156.449 376.95 156.599 376.87C156.749 376.79 156.599 376.87 156.669 376.87C156.739 376.87 156.779 376.87 156.819 376.82C156.879 376.777 156.942 376.741 157.009 376.71H157.139C157.139 376.71 157.219 376.79 157.219 376.8C157.219 376.81 157.219 376.86 157.279 376.89C157.208 377.037 157.125 377.178 157.029 377.31L156.539 377.78C156.539 377.78 156.479 377.78 156.449 377.84C156.419 377.9 156.089 378.18 156.079 378.19C156.007 378.264 155.918 378.319 155.819 378.35C155.693 378.464 155.556 378.565 155.409 378.65L155.209 378.82H155.149C154.986 378.941 154.829 379.072 154.679 379.21C154.679 379.21 154.429 379.33 154.389 379.37C154.349 379.41 154.169 379.44 154.159 379.47Z" fill="#221F1F"/>
<path d="M156.867 379.38C156.937 379.38 156.867 379.48 156.817 379.61C156.774 379.665 156.719 379.71 156.657 379.74H156.517C156.517 379.74 156.237 379.52 156.147 379.46C156.064 379.394 155.99 379.316 155.927 379.23L155.507 378.73C155.478 378.69 155.454 378.647 155.437 378.6C155.362 378.452 155.268 378.314 155.157 378.19C155.14 378.166 155.115 378.148 155.087 378.14C154.952 378.02 154.835 377.882 154.737 377.73C154.677 377.59 154.607 377.46 154.547 377.33C154.487 377.2 154.547 377.33 154.547 377.26C154.547 377.19 154.547 377.16 154.547 377.13C154.509 377.078 154.479 377.021 154.457 376.96C154.452 376.924 154.452 376.887 154.457 376.85C154.457 376.85 154.537 376.77 154.547 376.77C154.557 376.77 154.607 376.77 154.637 376.7C154.771 376.751 154.899 376.818 155.017 376.9C155.017 376.9 155.387 377.28 155.437 377.31C155.442 377.34 155.442 377.37 155.437 377.4L155.757 377.71C155.821 377.773 155.866 377.853 155.887 377.94C155.887 377.94 156.057 378.18 156.147 378.3C156.191 378.359 156.237 378.416 156.287 378.47V378.52C156.392 378.664 156.505 378.801 156.627 378.93C156.627 378.93 156.727 379.15 156.757 379.19C156.787 379.23 156.837 379.37 156.867 379.38Z" fill="#221F1F"/>
<path d="M155.24 380C155.24 380.07 155.18 380.1 155.03 380.11C154.957 380.111 154.885 380.094 154.82 380.06C154.791 380.02 154.767 379.976 154.75 379.93C154.75 379.93 154.75 379.56 154.75 379.43C154.753 379.315 154.769 379.201 154.8 379.09L154.95 378.41C154.961 378.361 154.977 378.314 155 378.27C155.08 378.11 155.134 377.937 155.16 377.76C155.167 377.746 155.171 377.731 155.171 377.715C155.171 377.699 155.167 377.684 155.16 377.67C155.175 377.472 155.215 377.277 155.28 377.09C155.355 376.951 155.422 376.807 155.48 376.66C155.48 376.66 155.48 376.61 155.48 376.6C155.48 376.59 155.55 376.52 155.57 376.47C155.588 376.407 155.615 376.346 155.65 376.29C155.67 376.254 155.702 376.226 155.74 376.21C155.74 376.21 155.85 376.21 155.86 376.21C155.87 376.21 155.92 376.21 155.96 376.21C156 376.357 156.024 376.508 156.03 376.66C156.03 376.66 155.95 377.23 155.95 377.29C155.959 377.323 155.959 377.357 155.95 377.39C155.95 377.39 155.9 377.85 155.89 377.86C155.88 377.87 155.89 378.05 155.79 378.12C155.69 378.19 155.79 378.12 155.79 378.18C155.759 378.332 155.719 378.483 155.67 378.63C155.645 378.709 155.625 378.789 155.61 378.87C155.557 379.054 155.514 379.241 155.48 379.43C155.48 379.48 155.37 379.67 155.36 379.72C155.35 379.77 155.23 380 155.24 380Z" fill="#221F1F"/>
<path d="M157.198 377.88C157.258 377.88 157.298 377.88 157.338 378.07C157.355 378.139 157.355 378.211 157.338 378.28L157.238 378.37C157.238 378.37 156.888 378.44 156.778 378.46C156.672 378.475 156.565 378.475 156.458 378.46H155.808H155.668C155.511 378.407 155.345 378.384 155.178 378.39C155.153 378.38 155.124 378.38 155.098 378.39C154.916 378.415 154.731 378.415 154.548 378.39L154.128 378.27C154.128 378.27 154.078 378.27 154.068 378.27C154.058 378.27 153.978 378.22 153.938 378.21C153.876 378.203 153.815 378.186 153.758 378.16C153.724 378.143 153.693 378.119 153.668 378.09C153.658 378.072 153.652 378.051 153.652 378.03C153.652 378.009 153.658 377.988 153.668 377.97C153.668 377.97 153.668 377.9 153.668 377.86C153.798 377.792 153.936 377.742 154.078 377.71H154.668C154.668 377.71 154.728 377.71 154.758 377.71C154.788 377.71 155.188 377.71 155.198 377.71C155.288 377.702 155.378 377.719 155.458 377.76H155.508C155.656 377.767 155.803 377.784 155.948 377.81H156.168H156.218C156.395 377.82 156.572 377.82 156.748 377.81C156.798 377.81 156.988 377.89 157.028 377.88C157.068 377.87 157.168 377.9 157.198 377.88Z" fill="#221F1F"/>
</g>
<path d="M159.71 230.36C159.71 230.43 159.59 230.36 159.46 230.36C159.407 230.313 159.366 230.255 159.34 230.19C159.335 230.14 159.335 230.089 159.34 230.04C159.34 230.04 159.6 229.73 159.68 229.63C159.763 229.535 159.853 229.448 159.95 229.37C160.15 229.22 160.34 229.06 160.53 228.9C160.573 228.864 160.62 228.834 160.67 228.81C160.844 228.727 161.003 228.615 161.14 228.48C161.14 228.48 161.19 228.48 161.2 228.41C161.344 228.255 161.505 228.117 161.68 228C161.84 227.93 161.98 227.85 162.13 227.77C162.28 227.69 162.13 227.77 162.2 227.77C162.27 227.77 162.31 227.77 162.36 227.72L162.55 227.62C162.55 227.62 162.63 227.62 162.67 227.62C162.71 227.62 162.75 227.7 162.75 227.71C162.75 227.72 162.75 227.77 162.81 227.8C162.741 227.948 162.657 228.088 162.56 228.22L162.07 228.69H161.98L161.61 229.05C161.53 229.11 161.47 229.19 161.36 229.21C161.23 229.32 161.09 229.41 160.95 229.51C160.81 229.61 160.81 229.62 160.74 229.67C160.58 229.81 160.4 229.91 160.26 230.06C160.12 230.21 160.01 230.19 159.97 230.23C159.93 230.27 159.72 230.33 159.71 230.36Z" fill="#221F1F"/>
<path d="M162.421 230.26C162.491 230.26 162.421 230.37 162.421 230.5C162.372 230.549 162.314 230.59 162.251 230.62H162.111C162.111 230.62 161.831 230.4 161.741 230.33C161.653 230.268 161.578 230.19 161.521 230.1C161.381 229.93 161.241 229.77 161.111 229.6C161.078 229.564 161.051 229.523 161.031 229.48C160.961 229.328 160.866 229.19 160.751 229.07C160.751 229.07 160.751 229.07 160.691 229.02C160.548 228.901 160.426 228.759 160.331 228.6C160.277 228.462 160.214 228.328 160.141 228.2C160.141 228.2 160.141 228.2 160.141 228.14C160.153 228.118 160.159 228.094 160.159 228.07C160.159 228.045 160.153 228.021 160.141 228L160.051 227.84C160.046 227.8 160.046 227.759 160.051 227.72C160.051 227.72 160.131 227.64 160.151 227.64C160.171 227.64 160.151 227.64 160.231 227.58C160.367 227.632 160.498 227.699 160.621 227.78C160.621 227.78 160.981 228.16 161.031 228.2C161.033 228.226 161.033 228.253 161.031 228.28C161.031 228.28 161.331 228.59 161.341 228.6C161.351 228.61 161.461 228.72 161.471 228.82V228.87C161.568 228.978 161.655 229.095 161.731 229.22C161.772 229.284 161.819 229.344 161.871 229.4C161.991 229.53 162.081 229.69 162.211 229.81C162.341 229.93 162.311 230.03 162.351 230.06C162.391 230.09 162.401 230.26 162.421 230.26Z" fill="#221F1F"/>
<path d="M160.791 230.88C160.791 230.95 160.731 230.99 160.581 231C160.511 230.998 160.443 230.981 160.381 230.95L160.301 230.82C160.301 230.82 160.301 230.44 160.301 230.32C160.29 230.207 160.29 230.093 160.301 229.98C160.361 229.75 160.401 229.52 160.451 229.3C160.466 229.248 160.486 229.198 160.511 229.15C160.586 228.988 160.637 228.816 160.661 228.64C160.668 228.626 160.671 228.61 160.671 228.595C160.671 228.579 160.668 228.564 160.661 228.55C160.678 228.352 160.718 228.157 160.781 227.97C160.861 227.83 160.921 227.69 160.991 227.55C161.061 227.41 160.991 227.5 160.991 227.49C160.991 227.48 161.061 227.41 161.081 227.36C161.099 227.293 161.126 227.229 161.161 227.17C161.186 227.141 161.217 227.117 161.251 227.1C161.251 227.1 161.361 227.1 161.371 227.1C161.381 227.1 161.441 227.1 161.471 227.1C161.515 227.246 161.542 227.397 161.551 227.55C161.551 227.55 161.471 228.11 161.461 228.18C161.468 228.209 161.468 228.24 161.461 228.27C161.461 228.27 161.461 228.73 161.401 228.75C161.395 228.843 161.364 228.933 161.311 229.01C161.307 229.017 161.305 229.026 161.305 229.035C161.305 229.043 161.307 229.052 161.311 229.06C161.278 229.216 161.235 229.369 161.181 229.52C161.156 229.598 161.136 229.678 161.121 229.76C161.066 229.943 161.026 230.13 161.001 230.32C160.955 230.414 160.915 230.511 160.881 230.61C160.881 230.61 160.781 230.86 160.791 230.88Z" fill="#221F1F"/>
<path d="M162.75 228.77C162.81 228.77 162.85 228.77 162.89 228.96C162.906 229.025 162.906 229.094 162.89 229.16C162.862 229.198 162.829 229.232 162.79 229.26C162.638 229.294 162.485 229.321 162.33 229.34C162.224 229.355 162.117 229.355 162.01 229.34H161.37H161.22C161.061 229.295 160.896 229.274 160.73 229.28C160.704 229.271 160.676 229.271 160.65 229.28C160.468 229.31 160.282 229.31 160.1 229.28L159.68 229.15C159.671 229.154 159.661 229.156 159.65 229.156C159.64 229.156 159.63 229.154 159.62 229.15C159.607 229.128 159.587 229.111 159.564 229.1C159.541 229.09 159.516 229.086 159.49 229.09L159.31 229.04C159.31 229.04 159.25 229.04 159.22 228.96C159.19 228.88 159.22 228.85 159.22 228.84C159.22 228.83 159.22 228.77 159.22 228.73C159.345 228.657 159.48 228.603 159.62 228.57H160.21H160.3C160.3 228.57 160.73 228.57 160.75 228.57C160.837 228.562 160.924 228.579 161 228.62H161.05C161.198 228.626 161.345 228.643 161.49 228.67H161.75H161.8C161.98 228.68 162.16 228.68 162.34 228.67C162.432 228.695 162.526 228.716 162.62 228.73C162.62 228.73 162.73 228.78 162.75 228.77Z" fill="#221F1F"/>
<path d="M119.81 368C119.81 368.07 119.69 368 119.56 368C119.504 367.954 119.46 367.896 119.43 367.83C119.424 367.78 119.424 367.73 119.43 367.68C119.43 367.68 119.69 367.37 119.77 367.27C119.85 367.173 119.941 367.086 120.04 367.01L120.61 366.54L120.76 366.45C120.927 366.364 121.082 366.257 121.22 366.13C121.22 366.13 121.22 366.13 121.28 366.05C121.425 365.893 121.59 365.755 121.77 365.64L122.22 365.41C122.22 365.41 122.22 365.41 122.29 365.41C122.318 365.412 122.346 365.407 122.372 365.397C122.398 365.386 122.421 365.37 122.44 365.35L122.63 365.25C122.63 365.25 122.71 365.25 122.76 365.25C122.81 365.25 122.84 365.33 122.83 365.34C122.82 365.35 122.83 365.4 122.9 365.43C122.833 365.577 122.753 365.718 122.66 365.85C122.66 365.85 122.21 366.27 122.17 366.32C122.145 366.344 122.114 366.361 122.08 366.37L121.7 366.73C121.62 366.79 121.56 366.87 121.45 366.89C121.324 367.004 121.187 367.105 121.04 367.19L120.84 367.36H120.79C120.64 367.49 120.46 367.6 120.31 367.74C120.16 367.88 120.06 367.87 120.03 367.91C120 367.95 119.82 367.94 119.81 368Z" fill="#221F1F"/>
<path d="M122.52 367.88C122.59 367.88 122.52 367.98 122.52 368.11C122.475 368.16 122.421 368.201 122.36 368.23H122.21L121.85 367.95C121.766 367.881 121.689 367.804 121.62 367.72C121.49 367.55 121.35 367.38 121.21 367.22C121.181 367.18 121.157 367.136 121.14 367.09C121.07 366.939 120.976 366.8 120.86 366.68C120.841 366.658 120.817 366.641 120.79 366.63C120.653 366.508 120.535 366.367 120.44 366.21C120.38 366.08 120.31 365.95 120.25 365.81C120.19 365.67 120.25 365.81 120.25 365.75C120.25 365.69 120.25 365.65 120.25 365.62C120.212 365.568 120.182 365.51 120.16 365.45C120.15 365.411 120.15 365.369 120.16 365.33C120.16 365.33 120.24 365.25 120.25 365.26C120.26 365.27 120.31 365.26 120.34 365.19C120.478 365.232 120.607 365.3 120.72 365.39L121.13 365.8C121.139 365.829 121.139 365.861 121.13 365.89L121.44 366.2C121.44 366.27 121.57 366.33 121.58 366.42C121.575 366.436 121.575 366.454 121.58 366.47C121.678 366.582 121.765 366.702 121.84 366.83L121.99 367C121.99 367 121.99 367 121.99 367.05C122.091 367.193 122.202 367.33 122.32 367.46C122.32 367.46 122.43 367.68 122.46 367.71C122.49 367.74 122.49 367.87 122.52 367.88Z" fill="#221F1F"/>
<path d="M120.888 368.5C120.888 368.57 120.828 368.6 120.668 368.61C120.598 368.611 120.529 368.594 120.468 368.56C120.437 368.521 120.413 368.477 120.398 368.43C120.398 368.43 120.398 368.05 120.398 367.93C120.383 367.817 120.383 367.703 120.398 367.59L120.548 366.91C120.56 366.858 120.576 366.808 120.598 366.76C120.679 366.604 120.733 366.434 120.758 366.26C120.763 366.227 120.763 366.193 120.758 366.16C120.769 365.965 120.809 365.773 120.878 365.59C120.948 365.45 121.008 365.3 121.078 365.16C121.148 365.02 121.078 365.11 121.078 365.1C121.078 365.09 121.148 365.02 121.158 364.97C121.18 364.908 121.207 364.848 121.238 364.79C121.263 364.758 121.293 364.731 121.328 364.71C121.347 364.702 121.367 364.697 121.388 364.697C121.408 364.697 121.429 364.702 121.448 364.71C121.448 364.71 121.518 364.71 121.558 364.71C121.606 364.855 121.633 365.007 121.638 365.16C121.638 365.16 121.558 365.73 121.558 365.79C121.558 365.85 121.558 365.85 121.558 365.88C121.558 365.91 121.498 366.34 121.498 366.36C121.498 366.38 121.498 366.55 121.398 366.62V366.67C121.37 366.827 121.326 366.981 121.268 367.13C121.268 367.21 121.268 367.29 121.268 367.37C121.268 367.56 121.168 367.74 121.148 367.93C121.128 368.12 121.028 368.17 121.028 368.22C121.028 368.27 120.878 368.47 120.888 368.5Z" fill="#221F1F"/>
<path d="M122.839 366.38C122.909 366.38 122.949 366.38 122.979 366.57C123 366.638 123 366.711 122.979 366.78C122.945 366.812 122.908 366.843 122.869 366.87C122.721 366.908 122.571 366.938 122.419 366.96C122.313 366.974 122.205 366.974 122.099 366.96H121.449C121.403 366.97 121.355 366.97 121.309 366.96C121.15 366.915 120.984 366.895 120.819 366.9C120.79 366.89 120.758 366.89 120.729 366.9C120.55 366.924 120.368 366.924 120.189 366.9C120.049 366.85 119.909 366.82 119.759 366.78C119.609 366.74 119.759 366.78 119.699 366.78C119.639 366.78 119.619 366.73 119.579 366.72C119.513 366.714 119.449 366.697 119.389 366.67C119.389 366.67 119.389 366.67 119.309 366.6C119.229 366.53 119.309 366.48 119.309 366.47C119.309 366.46 119.309 366.4 119.309 366.37C119.438 366.302 119.576 366.251 119.719 366.22H120.299C120.299 366.22 120.359 366.22 120.389 366.22H120.839C120.925 366.217 121.011 366.234 121.089 366.27C121.237 366.276 121.384 366.292 121.529 366.32H121.799H121.849C122.026 366.33 122.202 366.33 122.379 366.32C122.379 366.32 122.609 366.39 122.659 366.39C122.709 366.39 122.819 366.39 122.839 366.38Z" fill="#221F1F"/>
<path d="M212.25 232.37L217.12 208.46C217.7 205.54 218.27 202.63 218.85 199.73L225.41 169.06C226.41 164.52 227.29 159.95 228.16 155.43C229.3 149.63 230.31 143.77 231.8 138.04C232.73 134.48 234.29 139.58 232.93 146.25C230.53 158.08 228.01 169.87 225.26 181.73C223.61 188.82 222.26 196.28 220.75 203.57C219.13 211.57 217.503 219.596 215.87 227.65C214.87 232.59 213.87 237.53 212.96 242.48C211.52 249.97 210.08 257.48 208.82 264.97C208.34 267.87 207.9 270.75 207.47 273.62C207.04 276.49 206.68 279.37 206.29 282.25C206.12 283.52 205.95 284.76 205.79 286.04C205.15 290.78 204.79 292.26 203.9 293.18C203.724 293.399 203.53 293.603 203.32 293.79C202.71 294.17 202.54 292.17 202.88 288.67C203.88 278.27 205.69 267.42 207.63 256.56C209.06 248.5 210.63 240.42 212.18 232.36L212.25 232.37Z" fill="#221F1F"/>
<path d="M414.667 286C417.787 272 420.397 257.89 422.927 243.76C425.457 229.63 427.787 215.44 429.977 201.25C431.577 190.89 432.977 180.51 434.367 170.14C434.957 165.56 435.527 160.98 436.007 156.41C436.237 154.12 436.457 151.83 436.637 149.54C436.817 147.25 436.947 144.96 436.887 142.76C436.887 142.49 436.887 142.22 436.887 141.96V141.59V141.46C436.878 141.373 436.839 141.291 436.777 141.23C436.685 141.186 436.587 141.152 436.487 141.13C435.457 140.799 434.404 140.545 433.337 140.37C431.117 139.98 428.847 139.66 426.567 139.42C422.007 138.9 417.407 138.52 412.807 138.19C394.407 136.91 375.937 136.19 357.477 135.61C341.097 135.09 324.607 134.77 308.337 134.52C287.437 134.22 266.447 134.15 245.567 133.7C232.567 133.44 249.077 130.93 273.177 131.19C294.511 131.423 315.874 131.81 337.267 132.35C358.657 132.93 380.077 133.65 401.597 134.95C408.027 135.36 414.527 135.79 421.067 136.36C424.337 136.67 427.617 136.98 430.917 137.45L433.397 137.82L435.897 138.33C436.338 138.435 436.772 138.565 437.197 138.72L438.077 139.01C438.386 139.127 438.656 139.328 438.857 139.59C439.044 139.866 439.18 140.175 439.257 140.5C439.304 140.667 439.341 140.838 439.367 141.01C439.367 141.21 439.417 141.33 439.427 141.44C439.481 141.881 439.511 142.325 439.517 142.77C439.531 146.129 439.368 149.487 439.027 152.83C438.737 156.14 438.387 159.44 438.027 162.73C437.277 169.32 436.407 175.89 435.497 182.41C433.497 196.756 431.281 211.09 428.847 225.41C426.457 239.7 423.937 253.97 421.177 268.2C420.057 273.93 418.897 279.66 417.627 285.36C416.997 288.22 416.337 291.07 415.627 293.91C415.257 295.33 414.867 296.74 414.427 298.16C414.197 298.87 413.957 299.58 413.667 300.3C413.377 301.02 412.807 302.45 411.667 302.3H406.817H402.197L392.957 302.24L312.067 301.29L250.237 300.81L236.697 300.7C219.757 300.5 214.367 300.23 210.697 299.46C209.867 299.28 208.777 299.1 208.297 298.93C206.687 298.36 213.597 298.02 226.007 298.05C262.807 298.11 301.617 298.55 340.577 299L375.967 299.4L393.687 299.57L402.537 299.63H406.967H410.967L411.057 299.43C411.287 298.9 411.497 298.3 411.697 297.69C412.097 296.46 412.447 295.18 412.787 293.89C413.467 291.32 414.077 288.71 414.667 286.09V286Z" fill="#221F1F"/>
<path d="M322.288 292.24L373.518 293.16L399.138 293.61H400.138C400.198 293.61 400.218 293.55 400.248 293.5V293.43L400.368 293.16C400.754 292.215 401.088 291.25 401.368 290.27C401.968 288.27 402.498 286.21 403.008 284.15C404.008 280.02 404.948 275.86 405.838 271.7C408.438 259.52 410.698 247.27 412.938 235.03C415.565 220.636 418.021 206.213 420.308 191.76C421.438 184.53 422.518 177.29 423.468 170.05C423.948 166.43 424.388 162.8 424.748 159.18C424.928 157.36 425.088 155.55 425.178 153.75C425.228 152.85 425.258 151.95 425.238 151.08V150.43C425.238 150.24 425.238 149.96 425.238 149.9C425.238 149.84 425.188 149.49 424.978 149.47L423.978 149.16L422.678 148.89C421.808 148.7 420.918 148.56 420.018 148.44C418.238 148.16 416.428 147.98 414.618 147.78C410.998 147.41 407.358 147.12 403.708 146.87C396.428 146.36 389.118 146 381.818 145.67C362.358 144.82 342.818 144.35 323.438 144L248.828 143C233.358 142.75 252.998 140.49 281.638 140.83C305.638 141.12 329.588 141.55 353.638 142.27C365.638 142.63 377.638 143.08 389.698 143.7C395.698 144.02 401.698 144.37 407.768 144.86C409.268 144.97 410.768 145.11 412.288 145.25C413.808 145.39 415.288 145.54 416.818 145.73C418.348 145.92 419.818 146.11 421.358 146.34C422.118 146.43 422.898 146.63 423.658 146.78C424.057 146.844 424.451 146.935 424.838 147.05L426.318 147.54C426.586 147.668 426.82 147.857 427.002 148.091C427.184 148.326 427.309 148.599 427.368 148.89C427.443 149.183 427.5 149.48 427.538 149.78C427.538 149.98 427.538 150.18 427.538 150.37C427.538 151.14 427.538 151.86 427.538 152.59C427.488 154.03 427.388 155.46 427.268 156.88C426.568 164.55 425.488 172.21 424.398 179.88C423.308 187.55 422.078 195.33 420.828 203.08C418.318 218.58 415.618 234.15 412.688 249.53C411.078 257.99 409.398 266.43 407.568 274.85C406.648 279.07 405.698 283.27 404.568 287.46C404.042 289.589 403.401 291.689 402.648 293.75L402.478 294.15C402.418 294.28 402.378 294.41 402.258 294.63C402.079 295.011 401.824 295.351 401.508 295.63C401.357 295.769 401.163 295.853 400.958 295.87C400.755 295.915 400.546 295.935 400.338 295.93H399.338L396.118 295.88L344.488 294.98L280.948 293.89L232.798 293.08L220.798 292.88L214.268 292.77H213.328C213.328 292.77 213.328 292.69 213.328 292.65L213.478 291.59L213.758 289.66L214.198 286.66C215.348 278.73 216.708 270.86 218.078 263.01C222.428 238.63 227.078 214.81 231.908 190.83C232.978 185.55 234.038 180.38 235.128 175.06C239.258 155.34 240.798 149.12 242.338 145.06C242.698 144.13 243.108 142.89 243.338 142.36C244.238 140.58 242.858 148.68 239.928 163.13C235.568 184.56 231.118 206.57 226.788 228.93C224.621 240.11 222.521 251.366 220.488 262.7C219.488 268.37 218.488 274.05 217.608 279.7C217.128 282.54 216.708 285.4 216.308 288.25L215.998 290.39H218.748L322.138 292.07L322.288 292.24Z" fill="#221F1F"/>
<path d="M414.999 301.69C411.449 303.21 405.389 301.58 405.379 301.28C407.516 301.178 409.635 300.843 411.699 300.28C416.129 298.62 441.809 144.13 437.909 140.28C437.079 139.44 437.719 139.96 435.389 139.28C439.119 139.28 440.019 140.49 440.919 141.13C445.179 144.21 417.739 300.51 414.999 301.69Z" fill="#221F1F"/>
<path d="M437.687 167.4C438.297 162.98 438.877 158.56 439.357 154.13C439.597 151.92 439.817 149.71 439.967 147.51C440.047 146.41 440.107 145.31 440.117 144.23C440.117 143.69 440.117 143.16 440.117 142.66C440.117 142.44 440.057 142.14 440.037 142.05C440.017 141.96 440.037 141.96 439.967 141.94C439.399 141.406 438.714 141.012 437.967 140.79C437.134 140.579 436.277 140.478 435.417 140.49L435.727 138.13C436.137 138.24 436.537 138.34 436.927 138.42L437.297 138.49C437.494 138.517 437.685 138.571 437.867 138.65C438.209 138.837 438.513 139.084 438.767 139.38C439.154 139.854 439.382 140.439 439.417 141.05C439.471 141.465 439.501 141.882 439.507 142.3C439.507 143.11 439.507 143.89 439.507 144.66C439.447 146.21 439.327 147.74 439.207 149.27C438.947 152.27 438.617 155.36 438.267 158.39C437.497 164.87 436.677 171.39 435.757 177.79C432.447 200.52 428.627 223.16 424.557 245.79C422.737 255.79 420.897 265.89 418.937 275.79C417.937 281.02 416.847 286.25 415.607 291.47C415.025 294.117 414.28 296.725 413.377 299.28C413.317 299.44 413.237 299.61 413.167 299.78C413.079 299.981 412.975 300.175 412.857 300.36C412.728 300.592 412.551 300.793 412.337 300.95C412.121 301.093 411.88 301.194 411.627 301.25C410.941 301.442 410.243 301.589 409.537 301.69C408.187 301.9 406.847 302.03 405.537 302.14L405.487 301.28C405.567 301.28 405.747 301.06 405.867 300.82L405.977 300.63L406.117 300.69C406.235 300.737 406.355 300.778 406.477 300.81C406.727 300.89 406.997 300.96 407.267 301.03C407.807 301.16 408.357 301.26 408.917 301.34C410.015 301.512 411.127 301.576 412.237 301.53C413.667 301.45 414.417 301.24 414.737 301.27C415.057 301.3 414.957 301.54 414.337 301.94C413.292 302.513 412.136 302.854 410.947 302.94C410.052 303.011 409.152 303.011 408.257 302.94C407.757 302.94 407.257 302.85 406.697 302.77L405.867 302.61C405.712 302.575 405.558 302.531 405.407 302.48L405.127 302.39L404.927 302.29L404.727 302.14C404.665 302.075 404.608 302.004 404.557 301.93C404.448 301.751 404.383 301.549 404.367 301.34V300.34L405.437 300.17C406.867 299.94 408.437 299.7 410.007 299.35L410.577 299.21L410.847 299.14L411.037 299.08C411.037 299.08 411.037 299.14 411.107 298.92C411.424 298.138 411.701 297.34 411.937 296.53C412.857 293.44 413.607 290.21 414.337 287C415.067 283.79 415.747 280.54 416.417 277.3C417.747 270.82 419.007 264.3 420.237 257.8C422.697 244.76 425.074 231.663 427.367 218.51C430.107 202.77 432.567 186.32 434.767 170.13C435.447 165.13 436.087 160.13 436.637 155.13C436.907 152.63 437.157 150.13 437.337 147.62C437.437 146.37 437.507 145.12 437.537 143.88C437.537 143.27 437.537 142.65 437.537 142.06C437.527 141.775 437.501 141.491 437.457 141.21C437.447 141.118 437.427 141.027 437.397 140.94C437.381 140.88 437.35 140.825 437.307 140.78C437.242 140.708 437.168 140.644 437.087 140.59H436.967H436.667C436.197 140.5 435.747 140.39 435.307 140.27L428.697 138.48L435.537 138.54C436.586 138.53 437.632 138.658 438.647 138.92C439.454 139.146 440.211 139.523 440.877 140.03L441.517 140.53C441.902 140.849 442.149 141.303 442.207 141.8C442.273 142.147 442.316 142.497 442.337 142.85C442.337 143.52 442.337 144.17 442.337 144.85C442.337 146.14 442.237 147.41 442.137 148.68C441.947 151.22 441.677 153.74 441.397 156.25C440.117 167.25 438.467 178.25 436.787 189.17C434.207 205.74 431.377 222.34 428.547 238.74C426.347 251.48 424.227 263.99 421.887 276.56C421.367 279.33 420.887 282.04 420.317 284.83C418.247 295.16 417.257 298.42 416.057 300.45C415.832 300.913 415.527 301.332 415.157 301.69C415.097 301.69 415.067 301.69 415.067 301.69C415.045 301.645 415.014 301.604 414.977 301.57C414.969 301.513 414.969 301.456 414.977 301.4C415.047 301.01 415.167 300.4 415.337 299.49C415.697 297.61 416.277 294.69 417.007 290.93C419.197 279.74 421.247 268.18 423.327 256.47C425.407 244.76 427.467 232.86 429.467 220.93C432.467 203.22 435.347 185.41 437.787 167.59L437.687 167.4Z" fill="#221F1F"/>
<path d="M413.999 302.67C413.659 304.18 413.359 307.28 412.659 307.77C399.789 316.66 323.909 350.28 323.909 350.28L131.959 348.28L130.809 343.65C157.099 343.99 270.179 344.24 324.019 345.5L413.999 302.67Z" fill="#221F1F"/>
<path d="M409.78 303.1L323.7 344.1L299.88 343.65L275.72 343.34L227.41 342.9L129 342.22L130.86 349.68L277.29 351.21L313.63 351.59L322.71 351.68H324.1C324.29 351.68 324.45 351.55 324.63 351.49L324.96 351.35L325.48 351.11L327.55 350.19L331.7 348.34L348.27 340.86C359.27 335.86 370.27 330.77 381.27 325.56C386.74 322.95 392.21 320.33 397.63 317.56C400.35 316.22 403.04 314.79 405.74 313.38L409.74 311.16C410.41 310.81 411.07 310.36 411.74 309.96L412.74 309.34L413.23 309.03C413.525 308.854 413.78 308.619 413.98 308.34C414.111 308.175 414.219 307.994 414.3 307.8C414.36 307.66 414.4 307.54 414.45 307.41C414.5 307.28 414.58 306.95 414.62 306.75C414.697 306.387 414.75 306.019 414.78 305.65C414.838 305.104 414.838 304.555 414.78 304.01C414.66 303.15 414.4 302.69 414.05 302.61C413.7 302.53 413.26 302.89 412.86 303.68C412.625 304.154 412.428 304.645 412.27 305.15L411.98 306.05L411.83 306.48L411.76 306.65L410.27 307.58C409.63 307.96 409.04 308.37 408.37 308.72L404.38 311C401.7 312.39 399.05 313.81 396.33 315.14C390.94 317.86 385.48 320.48 380.02 323.08C369.1 328.28 358.12 333.373 347.08 338.36L330.53 345.83L326.38 347.68L324.31 348.6L323.6 348.92H322.72L313.64 348.83L277.3 348.45L133.05 346.94L132.6 345.15L227.39 345.78L275.69 346.21L299.83 346.53L324.31 346.98L411 305.65C415.79 303.38 414.57 300.82 409.78 303.1Z" fill="#232020"/>
<path d="M325.408 347.92L414.228 306.21C415.228 305.75 413.638 302.3 412.628 302.8L323.808 344.52C322.998 344.89 324.608 348.31 325.408 347.92Z" fill="#232020"/>
<path d="M207.38 332.82C205.177 332.726 202.99 332.391 200.86 331.82C198.79 331.33 196.78 330.82 194.77 330.19L182.85 326.61C181.4 326.19 179.95 325.81 178.51 325.47C177.8 325.31 177.08 325.15 176.38 325.04C175.755 324.911 175.117 324.861 174.48 324.89C173.297 325.055 172.145 325.392 171.06 325.89C169.87 326.38 168.68 326.89 167.49 327.51L160.32 331.05C155.49 333.423 150.513 335.483 145.42 337.22C140.898 338.754 136.273 339.967 131.58 340.85C128.578 341.423 125.547 341.827 122.5 342.06C119.454 342.316 116.391 342.293 113.35 341.99C111.45 341.81 111.75 341.32 113.35 340.82C114.15 340.56 115.28 340.32 116.63 340.03C118.155 339.763 119.694 339.586 121.24 339.5C127.276 339.101 133.256 338.096 139.09 336.5C144.973 334.868 150.717 332.775 156.27 330.24C159.64 328.75 162.97 326.99 166.39 325.24C168.132 324.322 169.933 323.52 171.78 322.84C172.81 322.466 173.895 322.264 174.99 322.24C176.021 322.301 177.044 322.448 178.05 322.68C182.23 323.63 186.19 324.92 190.2 326.12C194.21 327.32 198.2 328.54 202.2 329.44C203.418 329.719 204.649 329.933 205.89 330.08C206.48 330.154 207.075 330.184 207.67 330.17C208.038 330.188 208.403 330.098 208.72 329.91C208.845 329.811 208.929 329.671 208.959 329.515C208.988 329.358 208.96 329.197 208.88 329.06C208.803 328.898 208.706 328.747 208.59 328.61C208.407 328.394 208.21 328.19 208 328C207.105 327.153 206.134 326.389 205.1 325.72C201.869 323.633 198.494 321.778 195 320.17C191.516 318.513 187.944 317.047 184.3 315.78C182.913 315.293 181.501 314.879 180.07 314.54C179.415 314.372 178.745 314.268 178.07 314.23C177.4 314.23 176.64 314.23 175.93 314.35C173.034 314.623 170.167 315.145 167.36 315.91L163.6 316.91C158.85 318.15 157.21 318.24 156.05 317.73C155.786 317.634 155.532 317.513 155.29 317.37C154.75 316.88 156.62 316.18 160.02 315.21C165.02 313.8 170.38 312 176.2 311.65C176.56 311.65 176.92 311.65 177.29 311.6H177.83C178.057 311.585 178.284 311.585 178.51 311.6C179.296 311.672 180.075 311.805 180.84 312C182.28 312.35 183.65 312.78 185.01 313.24C187.71 314.16 190.36 315.24 193.01 316.34C196.927 318.014 200.738 319.928 204.42 322.07C206.356 323.175 208.169 324.483 209.83 325.97C210.365 326.456 210.83 327.015 211.21 327.63C211.48 328.045 211.673 328.506 211.78 328.99C211.88 329.454 211.88 329.935 211.78 330.4C211.632 330.85 211.386 331.262 211.062 331.608C210.737 331.953 210.34 332.224 209.9 332.4C209.468 332.568 209.018 332.688 208.56 332.76L207.96 332.83H207.49L207.38 332.82Z" fill="#221F1F"/>
<path d="M222.998 324.56C223.068 324.56 223.098 324.47 223.058 324.35C222.852 323.826 222.573 323.334 222.228 322.89L221.978 322.6C221.89 322.482 221.786 322.377 221.668 322.29L220.898 321.6C220.388 321.15 219.778 320.71 219.228 320.27C216.898 318.53 214.448 316.88 211.958 315.27C210.128 314.13 208.248 313.07 206.388 311.98C203.118 310.07 199.798 308.21 196.388 306.53C193.032 304.811 189.544 303.363 185.958 302.2C185.168 302.01 184.358 301.73 183.568 301.62C182.771 301.482 181.966 301.402 181.158 301.38C179.488 301.337 177.818 301.407 176.158 301.59C171.958 302.05 167.848 303.46 163.498 304.03C162.138 304.19 162.228 303.67 163.228 302.89C164.805 301.705 166.609 300.857 168.528 300.4C170.723 299.813 172.955 299.372 175.208 299.08C177.501 298.815 179.814 298.755 182.118 298.9L183.948 299.16C184.534 299.254 185.112 299.391 185.678 299.57C186.794 299.837 187.892 300.171 188.968 300.57C191.094 301.365 193.177 302.273 195.208 303.29C200.038 305.67 205.028 308.17 209.758 310.96C212.338 312.52 214.918 314.09 217.418 315.8C218.048 316.21 218.668 316.65 219.288 317.09C219.908 317.53 220.528 317.96 221.128 318.44C221.728 318.92 222.348 319.37 222.938 319.91C223.59 320.448 224.166 321.074 224.648 321.77C224.924 322.206 225.165 322.665 225.368 323.14L225.538 323.57L225.668 324.08C225.729 324.41 225.729 324.749 225.668 325.08C225.595 325.416 225.447 325.732 225.236 326.003C225.025 326.275 224.756 326.496 224.448 326.65C223.922 326.923 223.354 327.109 222.768 327.2C220.788 327.463 218.774 327.257 216.888 326.6C214.186 325.741 211.54 324.712 208.968 323.52C206.408 322.38 203.878 321.21 201.328 320.13C197.447 318.445 193.433 317.083 189.328 316.06C188.438 315.85 187.558 315.69 186.658 315.53C184.998 315.23 183.908 315.09 183.148 314.92C182.559 314.821 182.008 314.562 181.558 314.17C181.375 314.028 181.207 313.867 181.058 313.69C180.678 313.18 182.158 312.56 184.868 312.69C188.878 313.057 192.818 313.976 196.578 315.42C200.378 316.79 204.088 318.42 207.768 320.09C210.488 321.29 213.208 322.52 215.928 323.48C217.227 323.954 218.566 324.312 219.928 324.55C220.52 324.643 221.121 324.663 221.718 324.61C222.012 324.585 222.303 324.535 222.588 324.46L222.818 324.39L222.998 324.56Z" fill="#221F1F"/>
<path d="M93.16 353.85C94.67 352.85 96.16 351.85 97.66 350.85C98.2 350.48 98.66 350.04 99.23 349.67C101.13 348.36 103.05 347.06 104.84 345.61C105.65 344.98 106.37 344.25 107.12 343.61C108 342.645 108.949 341.746 109.96 340.92C110.29 340.68 110.61 341.03 110.73 341.61C110.803 341.955 110.802 342.311 110.728 342.656C110.654 343 110.508 343.325 110.3 343.61C109.43 344.676 108.484 345.679 107.47 346.61C106.434 347.516 105.338 348.351 104.19 349.11C102.81 350.02 101.56 351.2 100.19 352.18C98.82 353.16 97.19 354.28 95.66 355.31L92.86 357.2C91.46 358.2 90.03 359.1 88.68 360.11C87.68 360.9 86.68 361.81 85.75 362.67C85.54 362.86 85.33 363.04 85.1 363.22C84.25 363.84 83.86 363.9 83.3 363.55C83.18 363.47 83.04 363.4 82.93 363.31C82.56 363.01 82.66 362.43 83.16 361.79C83.9057 360.833 84.7578 359.964 85.7 359.2C86.63 358.41 87.6 357.65 88.6 356.93C90.08 355.86 91.6 354.85 93.1 353.81L93.16 353.85Z" fill="#221F1F"/>
<path d="M75.4376 358.42C74.6276 357.62 73.8576 356.77 73.1076 355.92C72.3576 355.07 71.6076 354.21 70.8776 353.34C70.3376 352.71 69.7676 352.11 69.2676 351.45C67.5036 349.128 65.8678 346.711 64.3676 344.21L62.3176 340.92C61.3109 339.556 60.6022 337.996 60.2376 336.34C60.1576 335.8 60.7576 335.7 61.4976 335.88C62.3393 336.038 63.0839 336.523 63.5676 337.23C64.9576 340.02 66.6276 342.8 68.2576 345.66C69.3302 347.361 70.5374 348.972 71.8676 350.48C72.5576 351.34 73.2876 352.17 73.9976 353.03L76.2276 355.49C77.2276 356.44 78.1176 357.49 79.1576 358.35C80.6696 359.762 82.2877 361.056 83.9976 362.22C84.6415 362.657 85.3092 363.057 85.9976 363.42L88.1076 364.42C88.4076 364.58 88.7476 364.66 89.1076 364.8C90.2676 365.31 90.5476 365.65 90.5176 366.43C90.5279 366.603 90.5279 366.777 90.5176 366.95C90.4176 367.51 89.7376 367.69 88.7676 367.4C87.3081 366.958 85.9001 366.362 84.5676 365.62C83.8876 365.24 83.2476 364.81 82.5676 364.39C81.8876 363.97 81.2776 363.51 80.6676 363.03C79.7334 362.34 78.8355 361.603 77.9776 360.82L76.6776 359.67L75.4376 358.46V358.42Z" fill="#221F1F"/>
<path d="M99.7289 311.64C110.979 305.416 122.706 300.096 134.799 295.73C135.909 295.35 137.009 294.93 138.119 294.56L141.479 293.49C143.699 292.73 145.979 292.14 148.249 291.55C156.29 289.442 164.549 288.274 172.859 288.07C173.859 288.07 174.919 287.99 175.999 288.07C177.079 288.15 178.129 288.24 179.169 288.39C181.247 288.705 183.302 289.16 185.319 289.75C189.312 290.916 193.216 292.37 196.999 294.1C203.656 297.162 210.091 300.684 216.259 304.64C220.256 307.113 224.063 309.881 227.649 312.92C228.108 313.32 228.545 313.744 228.959 314.19C229.039 314.28 229.219 314.47 229.369 314.65L229.779 315.19C230.024 315.528 230.198 315.912 230.289 316.32C230.344 316.505 230.337 316.703 230.268 316.884C230.2 317.065 230.073 317.218 229.909 317.32L229.429 317.67C229.269 317.81 229.082 317.915 228.879 317.98L228.229 318.22L227.909 318.34C227.809 318.34 227.739 318.34 227.659 318.41C227.339 318.46 227.019 318.56 226.659 318.58C224.19 318.734 221.723 318.234 219.509 317.13C218.169 316.56 217.679 316.29 217.759 316.13C217.839 315.97 218.599 315.9 219.839 316.13C221.432 316.461 223.052 316.642 224.679 316.67C225.153 316.661 225.625 316.607 226.089 316.51C226.326 316.463 226.56 316.4 226.789 316.32L227.139 316.21C227.239 316.21 227.139 316.21 227.209 316.16C227.279 316.11 227.209 316.1 227.209 316.08L227.079 315.94C225.423 314.369 223.666 312.91 221.819 311.57C219.939 310.18 218.009 308.85 216.059 307.57C212.139 305.003 208.109 302.6 203.969 300.36C199.846 298.114 195.595 296.111 191.239 294.36C186.946 292.573 182.448 291.323 177.849 290.64C176.477 290.462 175.091 290.405 173.709 290.47L169.429 290.59C167.999 290.7 166.569 290.86 165.129 291C164.419 291.08 163.699 291.13 162.979 291.23L160.839 291.58C155.091 292.501 149.412 293.807 143.839 295.49C137.719 297.29 131.729 299.49 125.839 301.95C119.949 304.41 114.139 307.13 108.429 310.05C101.409 313.656 94.5289 317.523 87.7889 321.65C82.6689 324.74 77.6489 328.02 72.6689 331.33C67.6889 334.64 62.7389 338.11 57.9989 341.64C50.5689 347.13 43.5389 352.83 36.5389 358.64L31.9589 362.52C26.2189 367.37 24.2989 368.82 22.5989 369.31C22.2316 369.444 21.8536 369.548 21.4689 369.62C20.5789 369.62 22.5989 367.36 26.7089 363.62C39.414 352.291 52.7989 341.748 66.7889 332.05C72.0889 328.37 77.4856 324.81 82.9789 321.37C88.4722 317.93 94.0556 314.646 99.7289 311.52V311.64Z" fill="#221F1F"/>
<path d="M69.3672 364.31C65.3672 367.31 61.3672 370.45 57.2172 373.44C55.1472 374.93 53.0572 376.44 50.8472 377.8C49.7171 378.528 48.5487 379.196 47.3472 379.8C46.6719 380.143 45.9695 380.431 45.2472 380.66C44.7517 380.818 44.237 380.909 43.7172 380.93C43.2976 380.951 42.8777 380.896 42.4772 380.77C42.1959 380.676 41.9272 380.549 41.6772 380.39C41.404 380.193 41.1613 379.957 40.9572 379.69C40.6379 379.254 40.4318 378.745 40.3572 378.21C40.3572 378.02 40.3572 377.82 40.3572 377.64V377.19C40.4298 376.67 40.5606 376.16 40.7472 375.67C40.9191 375.234 41.137 374.819 41.3972 374.43L41.7772 373.89C41.9072 373.72 42.0372 373.58 42.1772 373.42C43.1762 372.348 44.3128 371.413 45.5572 370.64C46.7072 369.89 47.8572 369.25 48.9772 368.64C50.0972 368.03 51.2372 367.45 52.1572 366.87C56.3464 364.273 60.3555 361.396 64.1572 358.26C65.4185 357.182 66.5345 355.945 67.4772 354.58L67.7872 354.11L68.0072 353.64C68.147 353.359 68.2543 353.064 68.3272 352.76V352.65H68.5272H68.5972H68.7472C68.847 352.659 68.9474 352.659 69.0472 352.65H69.3672C69.4335 352.659 69.5009 352.659 69.5672 352.65C69.6754 352.639 69.7825 352.619 69.8872 352.59C69.8872 352.59 70.0272 352.51 69.9772 352.59C69.9509 352.623 69.9306 352.66 69.9172 352.7C69.9126 352.74 69.9126 352.78 69.9172 352.82C69.9172 352.87 69.9172 352.97 69.9172 353.04C69.9072 353.116 69.9072 353.193 69.9172 353.27V353.55C69.918 353.775 69.9448 354 69.9972 354.22H69.8572C69.7038 354.271 69.5536 354.331 69.4072 354.4C67.8644 355.157 66.3773 356.022 64.9572 356.99C63.4572 357.99 61.9572 358.99 60.4572 360.06C56.7572 362.64 53.0972 365.31 49.3972 367.96L45.9972 370.49C44.4172 371.6 42.8372 372.69 41.3372 373.63C40.1715 374.428 38.899 375.057 37.5572 375.5C36.7969 375.695 36.0111 375.773 35.2272 375.73C35.0424 375.709 34.861 375.666 34.6872 375.6C34.4333 375.469 34.2033 375.297 34.0072 375.09C33.5849 374.686 33.2895 374.168 33.1572 373.6C33.0057 372.691 33.1421 371.757 33.5472 370.93C33.9774 369.956 34.5467 369.05 35.2372 368.24C36.1948 367.101 37.2487 366.047 38.3872 365.09C39.0072 364.54 39.6672 364 40.3872 363.47L41.3872 362.68L42.2472 362.02L44.8372 360.14C46.5672 358.9 48.3172 357.7 50.0572 356.51C53.5372 354.12 57.0572 351.8 60.3172 349.25C61.1046 348.655 61.8528 348.011 62.5572 347.32C62.7055 347.177 62.8426 347.023 62.9672 346.86C63.0184 346.803 63.0652 346.743 63.1072 346.68V346.63C63.1923 346.662 63.2758 346.699 63.3572 346.74C63.5799 346.839 63.825 346.877 64.0672 346.85L63.7372 347.02C63.7372 347.02 63.8472 346.93 63.7972 347.02C63.7472 347.11 63.7972 347.02 63.7972 347.1C63.7543 347.173 63.7271 347.255 63.7172 347.34C63.6777 347.476 63.6575 347.618 63.6572 347.76C63.3112 347.8 62.9737 347.894 62.6572 348.04C62.2472 348.22 61.8072 348.42 61.3672 348.66C60.4972 349.12 59.6172 349.66 58.7572 350.21C56.3872 351.74 54.0672 353.43 51.7572 355.13C49.4472 356.83 47.1072 358.53 44.8172 360.28C42.5272 362.03 40.1872 363.74 37.8172 365.4C36.6272 366.23 35.4272 367.05 34.1872 367.83C32.913 368.654 31.5754 369.376 30.1872 369.99C29.6845 370.209 29.1622 370.38 28.6272 370.5C28.2987 370.571 27.9635 370.608 27.6272 370.61C27.1438 370.605 26.6705 370.47 26.2572 370.22C26.1348 370.138 26.0209 370.044 25.9172 369.94L25.7572 369.78C25.6245 369.611 25.5198 369.422 25.4472 369.22C25.325 368.786 25.3678 368.323 25.5672 367.92C25.7158 367.602 25.9076 367.305 26.1372 367.04C26.4457 366.642 26.7797 366.264 27.1372 365.91C28.5272 364.56 29.9472 363.38 31.3772 362.19C34.2172 359.82 37.0172 357.43 39.9372 355.19L48.6072 348.42C50.0372 347.27 51.4972 346.17 52.9372 345.06C54.3772 343.95 55.7872 342.79 57.2172 341.67C58.9972 340.28 59.8072 339.67 59.9372 339.93C60.0672 340.19 59.5172 341.15 58.3872 342.8C56.7906 345.017 55.0431 347.122 53.1572 349.1C50.4812 351.859 47.6249 354.438 44.6072 356.82C43.1372 357.99 41.6872 359.18 40.2072 360.32L35.7372 363.69C34.2472 364.8 32.8372 366.01 31.4672 367.2C30.7972 367.79 30.1272 368.4 29.5772 368.98C29.4454 369.109 29.3219 369.245 29.2072 369.39L29.0672 369.55L28.9172 369.45L28.4472 369.19C28.2772 369.1 28.2072 369.04 28.0672 368.98C27.9451 368.916 27.818 368.863 27.6872 368.82C27.5572 368.82 27.5072 368.74 27.4072 368.71C27.3072 368.68 27.1072 368.64 26.9972 368.71L27.5172 368.28C27.6397 368.062 27.7082 367.819 27.7172 367.57C27.7423 367.274 27.7423 366.976 27.7172 366.68H27.7872L28.1272 366.59C28.4683 366.469 28.8022 366.329 29.1272 366.17C29.8919 365.8 30.6363 365.389 31.3572 364.94C32.8672 364.02 34.3572 362.94 35.8772 361.94C38.8772 359.8 41.8772 357.54 44.8772 355.3C47.8772 353.06 50.8772 350.75 54.0272 348.57C55.6072 347.49 57.2172 346.42 59.0272 345.43C59.9875 344.848 61.0065 344.368 62.0672 344L62.5872 343.87C62.7954 343.826 63.0057 343.792 63.2172 343.77C63.8978 343.68 64.5899 343.781 65.2172 344.06C65.6783 344.263 66.0807 344.58 66.3872 344.98C66.5585 345.189 66.6998 345.421 66.8072 345.67C66.9441 345.987 67.0253 346.325 67.0472 346.67C67.0594 346.938 67.0393 347.206 66.9872 347.47C66.8964 347.922 66.7199 348.353 66.4672 348.74C66.1008 349.297 65.6713 349.811 65.1872 350.27C64.7772 350.65 64.3872 351 63.9872 351.32C63.2072 351.97 62.4272 352.57 61.6372 353.13L56.8972 356.37C53.7672 358.5 50.6372 360.58 47.5672 362.73L45.5672 364.12L44.5672 364.83L44.1172 365.16L43.9872 365.26C43.5885 365.532 43.2046 365.826 42.8372 366.14C42.4278 366.47 42.0645 366.853 41.7572 367.28C41.6738 367.384 41.6122 367.505 41.5762 367.633C41.5401 367.762 41.5302 367.897 41.5472 368.03C41.5567 368.093 41.5808 368.153 41.6177 368.205C41.6545 368.257 41.703 368.3 41.7594 368.33C41.8157 368.36 41.8783 368.377 41.9422 368.379C42.006 368.38 42.0694 368.367 42.1272 368.34C42.9512 367.922 43.7375 367.433 44.4772 366.88L50.4772 362.56C52.8772 360.8 55.2972 359.03 57.7372 357.3C60.1772 355.57 62.6472 353.85 65.3072 352.3C65.8772 351.97 66.4672 351.64 67.0972 351.3C67.4172 351.14 67.7472 350.99 68.0972 350.85C68.5315 350.675 68.9845 350.551 69.4472 350.48C69.8968 350.406 70.3578 350.447 70.7872 350.6C70.9609 350.661 71.1257 350.745 71.2772 350.85C71.4645 350.979 71.6328 351.134 71.7772 351.31C71.9028 351.467 72.0039 351.642 72.0772 351.83C72.0772 351.93 72.1572 352.02 72.1872 352.11C72.191 352.18 72.191 352.25 72.1872 352.32C72.22 352.555 72.22 352.794 72.1872 353.03C72.1833 353.185 72.1598 353.34 72.1172 353.49L71.9472 354.09C71.8527 354.483 71.7082 354.863 71.5172 355.22C71.3613 355.562 71.1878 355.896 70.9972 356.22C69.4768 358.511 67.5919 360.537 65.4172 362.22C63.4172 363.9 61.2672 365.4 59.1372 366.84L55.9972 369L54.4172 370C53.8072 370.41 53.2372 370.71 52.6672 371C50.47 372.096 48.3604 373.36 46.3572 374.78C45.5283 375.347 44.8434 376.101 44.3572 376.98C44.2472 377.16 44.2772 377.32 44.2072 377.48C44.1372 377.64 44.2072 377.62 44.2072 377.59C44.0989 377.6 43.9918 377.62 43.8872 377.65H43.6872L43.4972 377.73C43.4678 377.721 43.4366 377.721 43.4072 377.73C43.2772 377.83 43.4072 377.73 43.4072 377.61C43.4679 377.485 43.502 377.349 43.5072 377.21C43.517 377.11 43.517 377.009 43.5072 376.91C43.6732 376.896 43.8373 376.866 43.9972 376.82C45.0763 376.44 46.1122 375.948 47.0872 375.35C48.1372 374.74 49.1872 374.07 50.2272 373.35C52.3072 371.97 54.3572 370.49 56.3972 368.99C58.8972 367.14 61.3972 365.24 63.8672 363.35C66.3372 361.46 68.8672 359.53 71.4672 357.7C71.7972 357.47 72.1372 357.24 72.4672 357.02C72.6644 356.896 72.8681 356.782 73.0772 356.68C73.3351 356.537 73.6109 356.429 73.8972 356.36C74.4726 356.217 75.0702 356.186 75.6572 356.27C76.1758 356.348 76.6503 356.606 76.9972 357C77.3975 357.386 77.6308 357.914 77.6472 358.47C77.6468 359.128 77.4596 359.773 77.1072 360.33C76.8512 360.755 76.5494 361.15 76.2072 361.51C75.5792 362.108 74.911 362.663 74.2072 363.17C71.6672 365.1 69.1172 366.88 66.5672 368.7C62.7072 371.45 58.8272 374.18 55.0672 377.01C54.1272 377.723 53.2072 378.443 52.3072 379.17C51.8672 379.54 51.4372 379.91 51.0372 380.29C50.8472 380.47 50.6472 380.67 50.5072 380.83L50.3572 381.02L50.1072 380.9C49.9769 380.829 49.8395 380.772 49.6972 380.73C49.5372 380.73 49.5272 380.67 49.4172 380.73L50.4172 380.59H50.2972C50.2433 380.617 50.1862 380.637 50.1272 380.65C50.0571 380.68 49.9901 380.717 49.9272 380.76C49.9606 380.692 49.9874 380.622 50.0072 380.55C50.002 380.49 50.002 380.43 50.0072 380.37V380.25H50.0572H50.2872C50.7593 380.108 51.2152 379.917 51.6472 379.68C52.644 379.135 53.6089 378.534 54.5372 377.88C58.3572 375.21 62.0172 372.19 65.7372 369.26C67.5872 367.79 69.4572 366.33 71.3772 364.91C72.3772 364.2 73.3172 363.51 74.3772 362.84C74.8872 362.52 75.3772 362.19 75.9772 361.84C76.587 361.503 77.235 361.242 77.9072 361.06C78.3033 360.981 78.7111 360.981 79.1072 361.06C79.4032 361.127 79.679 361.264 79.9119 361.459C80.1448 361.653 80.3283 361.9 80.4472 362.18C80.6366 362.625 80.6752 363.12 80.5572 363.59C80.4767 363.912 80.3592 364.224 80.2072 364.52C79.7005 365.409 79.0859 366.232 78.3772 366.97C77.0772 368.36 75.7072 369.6 74.3772 370.81C71.6172 373.23 68.7972 375.51 66.0272 377.81C63.2626 380.023 60.6188 382.383 58.1072 384.88C57.5802 385.409 57.1232 386.004 56.7472 386.65C56.7341 386.691 56.7174 386.731 56.6972 386.77C56.6972 386.77 56.4472 386.7 56.3072 386.69C55.8172 386.62 55.6972 386.81 55.8672 386.69C55.9251 386.639 55.9727 386.578 56.0072 386.51C56.0772 386.38 55.3472 387.56 55.6572 387.06C55.6572 387.06 55.6572 387.06 55.6572 386.95C55.6788 386.811 55.6788 386.669 55.6572 386.53C55.6425 386.334 55.609 386.139 55.5572 385.95V385.87H55.6272L55.8072 385.78C56.5091 385.396 57.1781 384.954 57.8072 384.46C58.4972 383.94 59.1872 383.39 59.8672 382.82C62.2672 380.82 64.5372 378.71 66.8672 376.57C75.6372 368.57 78.7772 366.22 81.5772 365.57C82.1872 365.44 83.0872 365.2 83.3972 365.45C83.4672 365.45 83.3972 365.62 83.3972 365.52C83.3938 365.543 83.3938 365.566 83.3972 365.59C83.4059 365.649 83.4059 365.71 83.3972 365.77C83.3924 365.826 83.3924 365.883 83.3972 365.94V366.02C82.9534 366.544 82.4793 367.041 81.9772 367.51C80.5072 368.99 78.1172 371.36 74.9772 374.34L67.9972 380.88C65.5672 383.11 63.1472 385.34 60.3872 387.47C59.6272 388.05 58.8287 388.578 57.9972 389.05C57.729 389.197 57.4518 389.327 57.1672 389.44L56.9072 389.54L56.5772 389.64H56.4072H56.1672C55.9776 389.658 55.7868 389.658 55.5972 389.64C55.3075 389.629 55.021 389.575 54.7472 389.48C54.5743 389.417 54.407 389.34 54.2472 389.25L53.9672 389.07C53.8019 388.943 53.648 388.803 53.5072 388.65C53.3473 388.472 53.2066 388.277 53.0872 388.07C52.7065 387.359 52.5964 386.535 52.7772 385.75C52.9609 385.031 53.2763 384.353 53.7072 383.75C54.0272 383.29 54.3372 382.92 54.6472 382.55C55.2772 381.83 55.9072 381.2 56.5472 380.55C59.0872 378.14 61.6972 376.02 64.3072 373.87C66.9172 371.72 69.5372 369.62 72.0272 367.44C73.2572 366.36 74.4772 365.25 75.5172 364.14C75.9693 363.674 76.3746 363.165 76.7272 362.62C76.7872 362.53 76.8172 362.46 76.8072 362.46C76.9664 362.525 77.1302 362.578 77.2972 362.62C77.4276 362.669 77.5612 362.709 77.6972 362.74C77.9161 362.795 78.1413 362.822 78.3672 362.82C78.6672 362.82 78.7272 362.71 78.6072 362.82L78.8072 362.63C78.7836 362.671 78.7635 362.715 78.7472 362.76C78.7472 362.76 78.7472 362.91 78.7472 363.02C78.7404 363.136 78.7404 363.253 78.7472 363.37C78.7492 363.705 78.7793 364.039 78.8372 364.37L78.8972 364.65C78.8007 364.678 78.707 364.715 78.6172 364.76C78.3772 364.86 78.0672 365.02 77.7572 365.19C77.1272 365.55 76.4672 365.98 75.7572 366.43C74.4272 367.34 73.0872 368.34 71.7572 369.37C69.0972 371.42 66.4472 373.58 63.7572 375.71C61.7572 377.3 59.7572 378.88 57.5772 380.41C56.4682 381.215 55.3166 381.959 54.1272 382.64C53.4275 383.043 52.6908 383.377 51.9272 383.64C51.3088 383.862 50.6542 383.967 49.9972 383.95C49.3542 383.922 48.7299 383.726 48.1872 383.38C47.8512 383.164 47.5566 382.889 47.3172 382.57C47.1105 382.295 46.9454 381.992 46.8272 381.67C46.7363 381.423 46.6693 381.169 46.6272 380.91V380.82C46.6272 380.82 46.6272 380.63 46.6272 380.53C46.6074 380.31 46.6074 380.089 46.6272 379.87C46.6706 379.629 46.7411 379.394 46.8372 379.17C47.0049 378.807 47.2238 378.47 47.4872 378.17C47.7601 377.816 48.0575 377.482 48.3772 377.17C48.9172 376.65 49.4372 376.17 49.9572 375.78C50.9572 374.92 52.0172 374.13 53.0472 373.34C55.1172 371.78 57.1972 370.28 59.2772 368.79C63.4172 365.79 67.6472 362.9 71.6172 359.91C72.1072 359.54 72.6172 359.16 72.9972 358.81L73.2572 358.58L73.4272 358.4C73.5323 358.286 73.626 358.162 73.7072 358.03V357.95L73.9172 358.03L74.2072 358.13L74.5072 358.2L74.7472 358.26H75.0072H75.2072H75.3972H75.4972C75.6672 358.2 75.5872 358.2 75.4972 358.31C75.4328 358.4 75.3853 358.502 75.3572 358.61C75.2882 358.772 75.2444 358.944 75.2272 359.12C75.2272 359.27 75.1572 359.58 75.1572 359.8V359.98C75.1572 360.05 75.1572 360.12 75.1572 360.09H74.9972H74.9272L74.6172 360.27L73.9172 360.73C73.4272 361.06 72.9172 361.42 72.4272 361.78L69.4272 364.04L69.3672 364.31Z" fill="#221F1F"/>
<path d="M345.39 254.872L356.74 255.312L358.63 247.172L359.04 245.372L359.09 245.132V245.022C359.09 245.022 359.03 245.022 359.01 245.022L356.11 244.932L296.22 243.812C292.09 243.662 287.94 243.562 283.85 243.482C278.59 243.382 273.31 243.382 268.05 243.012C264.77 242.772 268.93 240.832 275 241.012C285.75 241.272 296.5 241.672 307.34 242.272C310.57 242.452 345.88 242.562 349.21 242.662L359.5 242.972H360.98C361.212 242.963 361.443 242.983 361.67 243.032L361.51 243.762L360.93 246.342L360.13 249.812L358.38 257.462L350.04 257.172L304.59 256.702C297.79 256.482 290.97 256.222 284.23 256.072C278.99 255.952 273.84 255.962 268.66 255.912H266.96H264.78H263C263.16 255.212 263.3 254.562 263.44 253.972C263.58 253.382 263.66 253.032 263.76 252.622C263.88 252.124 264.027 251.634 264.2 251.152C264.372 250.556 264.68 250.008 265.1 249.552C265.249 249.362 265.42 249.191 265.61 249.042C265.86 248.892 265.99 249.262 265.98 250.042C265.971 250.54 265.934 251.037 265.87 251.532L265.74 252.532L265.59 253.532V253.952H266.02H270.92L277.7 254.022C282.26 254.092 286.87 254.212 291.5 254.332L345.4 255.012L345.39 254.872Z" fill="#221F1F"/>
<path d="M238.478 330.75L230.478 333.93L229.478 334.33C229.324 334.39 229.184 334.482 229.067 334.599C228.95 334.716 228.858 334.856 228.798 335.01C228.728 335.167 228.691 335.338 228.691 335.51C228.691 335.682 228.728 335.852 228.798 336.01C228.864 336.165 228.962 336.304 229.086 336.418C229.21 336.532 229.357 336.618 229.518 336.67C229.66 336.716 229.809 336.736 229.958 336.73H253.338C253.557 336.752 253.778 336.752 253.998 336.73C254.208 336.665 254.412 336.581 254.608 336.48L255.098 336.26L257.098 335.35L261.098 333.55L262.098 333.1L262.598 332.87C262.865 332.764 263.087 332.57 263.228 332.32C263.305 332.185 263.35 332.033 263.358 331.878C263.366 331.722 263.339 331.567 263.276 331.424C263.214 331.281 263.12 331.155 263 331.056C262.88 330.956 262.739 330.885 262.588 330.85C262.505 330.825 262.422 330.805 262.338 330.79H261.338H257.018L239.708 330.7C239.627 330.689 239.545 330.696 239.467 330.719C239.39 330.743 239.318 330.782 239.257 330.836C239.196 330.889 239.147 330.955 239.113 331.029C239.08 331.103 239.062 331.184 239.062 331.265C239.062 331.346 239.08 331.426 239.113 331.5C239.147 331.574 239.196 331.64 239.257 331.694C239.318 331.747 239.39 331.787 239.467 331.81C239.545 331.834 239.627 331.841 239.708 331.83L256.788 331.91H261.058H261.998L260.408 332.63L256.558 334.37L254.638 335.24L254.158 335.46L253.778 335.63H231.338C230.678 335.63 229.628 335.63 229.858 335.57C229.858 335.49 229.858 335.47 229.918 335.44L230.918 335.04L238.918 331.85C239.168 331.75 239.418 330.52 238.478 330.75Z" fill="#232020"/>
<path d="M244.8 311.14C247.33 310.92 249.94 311.09 252.48 311.07L252.31 310.45C251.315 311.013 250.283 311.508 249.22 311.93C248.52 312.23 249.41 311.98 249.11 311.99C248.814 312.005 248.517 312.005 248.22 311.99C246.09 311.99 243.95 311.93 241.82 312.07L242.15 312.69C243.15 312.16 244.15 311.5 245.15 311.06C245.98 310.71 245.23 310.2 244.62 310.46C243.48 310.95 242.41 311.66 241.32 312.24C240.8 312.53 241.25 312.89 241.66 312.86C243.99 312.71 246.45 313.08 248.76 312.86C250.335 312.534 251.826 311.887 253.14 310.96C253.49 310.73 253.41 310.33 252.97 310.33C250.32 310.33 247.6 310.18 244.97 310.41C244.3 310.4 243.9 311.21 244.8 311.14Z" fill="#221F1F"/>
<path d="M261.818 311.05H269.688L269.558 310.54L266.768 312C266.518 312.13 265.368 312.9 266.288 312.39C266.878 312.06 266.468 312.31 265.868 312.27C263.768 312.12 261.638 312.16 259.528 312.1V312.6L262.658 310.85C263.578 310.33 262.138 310.32 261.718 310.56L258.588 312.31C258.348 312.45 258.048 312.8 258.588 312.82C260.908 312.88 263.288 313.12 265.588 313.01C267.338 312.92 269.008 311.64 270.538 310.85C270.998 310.61 270.888 310.34 270.398 310.34H262.528C261.998 310.32 260.768 311.05 261.818 311.05Z" fill="#221F1F"/>
<path d="M278.109 311H285.999V310.54L283.239 312C283.019 312.11 281.759 312.81 282.759 312.38C283.489 312.08 282.829 312.3 282.339 312.26C280.239 312.11 278.109 312.15 276.009 312.09L275.959 312.55L279.089 310.79C280.009 310.28 278.549 310.33 278.159 310.55L274.999 312.32C274.769 312.45 274.449 312.76 274.999 312.78C277.319 312.84 279.709 313.09 281.999 312.97C283.749 312.88 285.419 311.6 286.949 310.8C287.179 310.68 287.499 310.35 286.999 310.35H279.129C278.779 310.35 277.329 311 278.109 311Z" fill="#221F1F"/>
<path d="M294.557 311H302.427L302.287 310.5L299.507 312C299.257 312.12 298.087 312.88 299.027 312.38C299.637 312.06 299.197 312.31 298.607 312.26C296.507 312.12 294.377 312.15 292.267 312.09V312.59L295.397 310.84C296.327 310.32 294.877 310.32 294.467 310.55L291.327 312.31C291.097 312.44 290.787 312.79 291.327 312.8C293.657 312.87 296.037 313.11 298.327 312.99C300.087 312.91 301.747 311.63 303.327 310.84C303.787 310.6 303.677 310.34 303.197 310.34H295.327C294.747 310.33 293.497 311 294.557 311Z" fill="#221F1F"/>
<path d="M311.429 311H319.299L319.159 310.49L316.369 312C316.159 312.12 315.049 312.55 315.739 312.41C316.429 312.27 315.329 312.32 315.159 312.31C313.049 312.16 310.929 312.19 308.819 312.14L308.959 312.64L312.089 310.89C312.849 310.46 311.689 310.34 311.289 310.56L308.159 312.31C307.779 312.52 307.889 312.81 308.299 312.82C310.589 312.88 312.959 313.15 315.249 313.01C316.889 312.9 318.509 311.64 319.959 310.89C320.339 310.69 320.229 310.38 319.819 310.38H311.999C311.499 310.34 310.559 311 311.429 311Z" fill="#221F1F"/>
<path d="M328.459 311H334.669C335.131 311.04 335.596 311.04 336.059 311C336.439 310.92 336.489 310.69 335.999 310.79C334.883 311.13 333.839 311.672 332.919 312.39C332.469 312.81 333.839 312.47 333.319 312.31C332.833 312.255 332.344 312.255 331.859 312.31L327.929 312.21C327.506 312.185 327.082 312.185 326.659 312.21C326.209 312.21 326.479 312.45 326.879 312.29C327.816 311.851 328.722 311.346 329.589 310.78C330.249 310.41 328.659 310.59 328.369 310.78L325.239 312.54C324.979 312.68 325.029 312.85 325.329 312.86C327.649 312.93 330.039 313.19 332.329 313.05C334.079 312.95 335.749 311.68 337.269 310.89C337.499 310.77 337.829 310.48 337.339 310.48H329.499C329.169 310.37 327.699 311 328.459 311Z" fill="#221F1F"/>
<path d="M346.65 311.08H354.52V310.38L351.73 311.83C351.56 311.92 350.51 312.41 351.02 312.27C351.53 312.13 350.55 312.27 350.36 312.21C348.26 312.11 346.14 312.1 344.03 312.04L344.19 312.66L347.33 310.9C348.09 310.48 346.96 310.21 346.5 310.46L343.37 312.22C342.99 312.43 343.12 312.82 343.54 312.84C345.8 312.9 348.12 313.11 350.38 313.02C352.04 312.96 353.6 311.73 355.05 311.02C355.41 310.83 355.63 310.33 355.05 310.33H347.18C346.61 310.29 345.77 311.08 346.65 311.08Z" fill="#221F1F"/>
<path d="M232.858 321.37H240.728V320.69L237.938 322.13C237.768 322.22 236.718 322.71 237.228 322.58C237.738 322.45 236.758 322.53 236.568 322.52C234.468 322.41 232.348 322.4 230.238 322.34L230.398 322.95L233.528 321.2C234.298 320.77 233.158 320.51 232.708 320.77L229.578 322.52C229.198 322.74 229.328 323.11 229.738 323.13C232.008 323.19 234.318 323.4 236.588 323.31C238.238 323.25 239.798 322.02 241.248 321.31C241.608 321.13 241.838 320.63 241.248 320.63H233.378C232.838 320.59 231.998 321.37 232.858 321.37Z" fill="#221F1F"/>
<path d="M250.068 321.36H257.938L257.798 320.82L254.998 322.27C254.738 322.4 253.588 322.82 254.428 322.65C255.268 322.48 254.138 322.55 253.928 322.53C251.828 322.37 249.688 322.42 247.588 322.36L247.728 322.9L250.868 321.14C251.788 320.62 250.348 320.58 249.918 320.82L246.788 322.57C246.328 322.83 246.438 323.1 246.928 323.11C249.218 323.17 251.588 323.43 253.878 323.3C255.578 323.21 257.248 321.91 258.728 321.14C259.198 320.9 259.078 320.6 258.588 320.6H250.718C250.228 320.6 248.998 321.36 250.068 321.36Z" fill="#221F1F"/>
<path d="M266.629 321.39H274.489V320.67L271.699 322.11C271.529 322.2 270.479 322.69 270.989 322.56C271.499 322.43 270.529 322.51 270.329 322.5C268.229 322.39 266.109 322.38 263.999 322.32L264.169 322.97L267.299 321.22C268.069 320.79 266.949 320.48 266.469 320.75L263.339 322.5C262.949 322.72 263.089 323.13 263.509 323.15C265.779 323.21 268.089 323.42 270.359 323.33C272.009 323.27 273.579 322.05 275.029 321.33C275.389 321.13 275.609 320.6 275.029 320.6H267.159C266.569 320.57 265.749 321.39 266.629 321.39Z" fill="#221F1F"/>
<path d="M282.898 321.41H290.768V320.65L287.978 322.09C287.818 322.18 286.758 322.67 287.268 322.54C287.778 322.41 286.808 322.49 286.618 322.48C284.508 322.37 282.388 322.36 280.278 322.31V323.07L283.408 321.31C284.188 320.88 283.478 320.31 282.858 320.65L279.728 322.4C279.368 322.61 279.158 323.15 279.728 323.16C281.998 323.22 284.308 323.43 286.568 323.35C288.228 323.29 289.788 322.07 291.238 321.35C291.608 321.16 291.808 320.59 291.238 320.59H283.378C282.808 320.55 281.998 321.41 282.898 321.41Z" fill="#221F1F"/>
<path d="M299.608 321.37H307.478L307.318 320.8L304.538 322.25C304.278 322.38 303.128 322.8 303.968 322.63C304.808 322.46 303.668 322.53 303.458 322.51C301.358 322.36 299.228 322.4 297.128 322.34L297.278 322.91L300.408 321.16C301.338 320.64 299.908 320.55 299.408 320.8L296.268 322.56C295.808 322.81 295.928 323.12 296.428 323.13C298.718 323.19 301.088 323.44 303.378 323.32C305.078 323.23 306.738 321.93 308.228 321.16C308.698 320.92 308.568 320.59 308.078 320.59H300.208C299.728 320.59 298.538 321.37 299.608 321.37Z" fill="#221F1F"/>
<path d="M316.71 321.32H324.58L324.63 320.86L321.84 322.3C321.62 322.42 320.36 323.12 321.36 322.69C322.08 322.38 321.44 322.6 320.94 322.57C318.84 322.42 316.71 322.45 314.61 322.4L314.56 322.86L317.69 321.1C318.61 320.59 317.15 320.64 316.76 320.86L313.63 322.61C313.39 322.74 313.08 323.06 313.58 323.07C315.9 323.14 318.29 323.39 320.58 323.27C322.33 323.17 324 321.9 325.53 321.1C325.76 320.98 326.07 320.64 325.58 320.64H317.71C317.38 320.64 315.93 321.32 316.71 321.32Z" fill="#221F1F"/>
<path d="M334.619 321.3H340.829C341.291 321.345 341.757 321.345 342.219 321.3C342.639 321.21 342.609 321.02 342.159 321.08C341.036 321.41 339.987 321.953 339.069 322.68C338.629 323.1 339.999 322.76 339.469 322.6C338.984 322.544 338.494 322.544 338.009 322.6L334.089 322.49C333.663 322.45 333.235 322.45 332.809 322.49C332.359 322.58 332.649 322.73 333.039 322.59C333.978 322.15 334.884 321.642 335.749 321.07C336.409 320.7 334.829 320.86 334.529 321.07L331.399 322.82C331.129 322.97 331.189 323.16 331.489 323.17C333.809 323.23 336.199 323.49 338.489 323.36C340.239 323.26 341.909 321.99 343.429 321.19C343.669 321.07 343.989 320.77 343.489 320.77H335.629C335.319 320.66 333.849 321.3 334.619 321.3Z" fill="#221F1F"/>
<path d="M329.391 196.706C329.741 194.501 329.59 192.243 328.953 190.123C328.332 188.017 327.323 186.07 325.984 184.394C323.276 181.075 319.547 178.898 315.459 178.246C313.424 177.929 311.347 178.029 309.34 178.54C307.326 179.016 305.407 179.881 303.678 181.091C301.938 182.329 300.465 183.951 299.361 185.847C298.273 187.746 297.56 189.86 297.267 192.057C296.669 196.453 297.654 200.912 300.021 204.532C301.214 206.328 302.732 207.847 304.487 209.002C306.246 210.137 308.192 210.903 310.225 211.261C312.242 211.661 314.314 211.667 316.341 211.279C318.375 210.86 320.314 210.015 322.047 208.793C325.529 206.333 328.042 202.584 329.098 198.277C329.385 197.08 327.558 196.777 327.331 197.801C326.392 201.637 324.153 204.974 321.051 207.164C319.526 208.235 317.823 208.979 316.037 209.355C314.232 209.731 312.382 209.755 310.576 209.423C308.772 209.123 307.045 208.444 305.495 207.424C303.945 206.405 302.602 205.065 301.543 203.483C299.437 200.257 298.564 196.285 299.103 192.372C299.357 190.439 299.982 188.581 300.94 186.913C301.907 185.261 303.192 183.846 304.71 182.764C307.821 180.604 311.547 179.706 315.204 180.236C318.861 180.819 322.195 182.767 324.617 185.735C325.821 187.177 326.712 188.886 327.229 190.742C327.745 192.598 327.875 194.556 327.608 196.479C327.487 197.24 329.275 197.686 329.391 196.706Z" fill="#232020"/>
<path d="M336.673 223.843L326.936 209.623C326.164 208.501 324.815 210.271 325.625 211.458L335.367 225.674C336.139 226.807 337.488 225.026 336.677 223.85L336.673 223.843Z" fill="#221F1F"/>
<path d="M452.607 291.69C456.437 292.04 460.267 292.32 464.097 292.5C465.497 292.57 466.887 292.56 468.287 292.64C473.207 292.92 478.127 293.22 483.057 293.43C485.237 293.52 487.437 293.56 489.607 293.62C492.387 293.67 495.187 293.75 497.967 293.91C498.837 293.91 498.717 294.02 497.967 294.14C497.217 294.26 495.877 294.46 494.267 294.57C488.577 294.89 482.897 295.16 477.167 295.07C473.737 295 470.167 295.18 466.657 295.22H455.087C452.707 295.22 450.337 295.22 447.957 295.22C444.367 295.17 440.757 294.96 437.187 294.88C434.407 294.81 431.687 294.88 428.947 294.69C428.347 294.69 427.757 294.62 427.147 294.56C425.975 294.477 424.815 294.269 423.687 293.94L423.367 293.85C424.129 293.581 424.922 293.41 425.727 293.34C430.769 292.359 435.87 291.714 440.997 291.41C444.861 291.218 448.732 291.282 452.587 291.6L452.607 291.69Z" fill="#221F1F"/>
<path d="M108.369 297.12C105.699 296.79 103.019 296.53 100.369 296.37C99.3693 296.3 98.4193 296.32 97.4393 296.24C93.9993 295.98 90.5593 295.7 87.1293 295.52C85.5993 295.44 84.0693 295.4 82.5493 295.36C80.6093 295.36 78.6493 295.25 76.7093 295.11C76.0993 295.06 76.1793 294.99 76.7093 294.88C77.5558 294.677 78.4141 294.526 79.2793 294.43C83.2668 294.033 87.2721 293.843 91.2793 293.86C93.6693 293.86 96.1693 293.71 98.6193 293.66L106.699 293.59C108.359 293.59 110.009 293.59 111.699 293.59C114.209 293.59 116.699 293.81 119.229 293.88C121.169 293.93 123.059 293.88 124.979 294.03C125.399 294.03 125.809 294.09 126.239 294.16C127.072 294.235 127.888 294.437 128.659 294.76L128.879 294.84C129.029 294.89 128.389 295.05 127.239 295.36C125.529 295.79 123.769 296.26 121.989 296.61C120.201 296.96 118.395 297.21 116.579 297.36C113.884 297.568 111.176 297.521 108.489 297.22L108.369 297.12Z" fill="#221F1F"/>
</svg>
