<svg  viewBox="0 0 96 96" fill="none" xmlns="http://www.w3.org/2000/svg">
<path d="M52.8199 80.78C53.0329 80.91 53.2126 81.088 53.3446 81.2999C53.4766 81.5117 53.5571 81.7515 53.5799 82C53.6145 82.5932 53.5503 83.188 53.3899 83.76C53.2799 84.21 52.4599 85.04 52.1199 84.92C51.4658 84.7057 50.8303 84.4382 50.2199 84.12C49.8299 83.93 45.7099 79.87 44.2999 78.53C42.9519 77.2147 41.6925 75.8117 40.5299 74.33C38.1399 71.33 35.7199 68.42 33.3599 65.43C32.8553 64.7471 32.4008 64.0285 31.9999 63.28C30.5594 60.7588 28.8854 58.3784 26.9999 56.17C26.7276 55.7636 26.3691 55.4222 25.9499 55.17C25.1699 54.79 20.4299 48.49 19.9499 47.55C18.8399 45.23 17.5899 43 16.4499 40.69C16.2799 40.36 15.9799 40.1 16.0399 39.69C16.0721 38.8525 15.8142 38.0295 15.3099 37.36C14.7787 36.3972 14.324 35.3941 13.9499 34.36C13.8173 33.7698 13.7668 33.1641 13.7999 32.56C13.7999 32 14.7999 31.73 14.9399 31.82C15.4599 32.07 15.6499 31.5 15.9399 31.25C16.0496 31.161 16.1706 31.087 16.2999 31.03C17.253 31.6107 18.1561 32.2696 18.9999 33C20.0231 33.7466 20.9861 34.5725 21.8799 35.47C21.8799 35.47 22.2499 35.98 22.7799 36.69L24.7299 39.28C26.1799 41.19 27.7299 43.17 28.0599 43.56C28.3839 43.9977 28.637 44.4837 28.8099 45C28.9099 45.23 33.4499 50.86 33.5999 51.11C34.5512 52.2793 35.3107 53.5924 35.8499 55C35.9491 55.2906 36.1093 55.5566 36.3199 55.78C37.8699 57.83 39.1899 60.05 40.5799 62.22C41.2899 63.33 42.1299 64.35 42.8899 65.42C43.0118 65.6304 43.122 65.8474 43.2199 66.07C43.3412 66.3447 43.4851 66.609 43.6499 66.86C45.5399 69.34 47.1599 72.01 49.1999 74.36C49.6699 74.9 51.2799 77.97 51.8499 78.56C52.1599 78.88 52.4599 80.57 52.8199 80.78Z" fill="#231F20"/>
<path d="M47.9998 52C48.1945 52.3156 48.2976 52.6792 48.2976 53.05C48.2976 53.4209 48.1945 53.7844 47.9998 54.1C47.8798 54.36 47.2698 54.63 47.0798 54.48C46.7098 54.2 46.3298 53.92 45.9898 53.61C45.7998 53.42 43.3098 50.07 42.3598 48.99C41.9098 48.45 41.4898 47.91 41.0898 47.35C40.6898 46.79 40.3898 46.19 40.0898 45.6L36.0898 38.41C35.7998 37.874 35.5621 37.3115 35.3798 36.73C34.7141 34.7508 33.8357 32.8497 32.7598 31.06C32.637 30.7214 32.418 30.426 32.1298 30.21C31.5798 29.87 29.1298 24.8 28.9398 24.07C28.7298 23.16 28.4798 22.28 28.2298 21.39C27.9798 20.5 27.7998 19.58 27.5798 18.68C27.5198 18.43 27.3398 18.21 27.4698 17.88C27.557 17.5891 27.5825 17.2831 27.5447 16.9818C27.5068 16.6804 27.4063 16.3903 27.2498 16.13C26.9719 15.3921 26.7414 14.6373 26.5598 13.87C26.5176 13.4331 26.5344 12.9925 26.6098 12.56C26.6098 12.16 27.3798 11.98 27.5098 12.05C27.8798 12.26 28.0598 11.84 28.3198 11.67C28.411 11.6074 28.5082 11.5538 28.6098 11.51C29.9927 12.6457 31.2957 13.8753 32.5098 15.19L34.5098 18.11C35.4098 19.63 36.3398 21.21 36.5098 21.52C36.7011 21.8709 36.8265 22.2539 36.8798 22.65C36.8798 22.83 39.6598 27.34 39.7298 27.54C40.3125 28.4866 40.6557 29.5609 40.7298 30.67C40.7444 30.8931 40.813 31.1093 40.9298 31.3C41.6896 33.0165 42.3573 34.7723 42.9298 36.56C43.2498 37.46 43.6898 38.31 44.0598 39.19C44.1079 39.3607 44.1447 39.5344 44.1698 39.71C44.2052 39.9252 44.2621 40.1362 44.3398 40.34C45.2498 42.41 46.0298 44.53 46.8998 46.62C47.0898 47.1 47.5598 49.62 47.8298 50.15C47.9298 50.46 47.8398 51.72 47.9998 52Z" fill="#231F20"/>
<path d="M82.0997 69.3001C82.6497 69.8401 82.2997 70.6401 81.4697 71.5901C81.1997 71.8901 80.1797 72.3001 79.9497 72.1701C79.5063 71.9442 79.0816 71.6834 78.6797 71.3901C78.4797 71.2001 76.1297 67.8401 75.3897 66.6601C74.6856 65.5286 74.0897 64.3333 73.6097 63.0901C72.6097 60.6001 71.6097 58.0901 70.6097 55.6001C70.397 55.0408 70.2428 54.4611 70.1497 53.8701C69.7899 51.8464 69.182 49.8749 68.3397 48.0001C68.2543 47.6594 68.078 47.3484 67.8297 47.1001C67.3197 46.7001 65.4797 41.5201 65.3997 40.8001C65.2097 39.0001 64.8197 37.2701 64.5897 35.4901C64.5897 35.2301 64.3897 35.0001 64.5897 34.7001C64.7161 34.4328 64.7817 34.1408 64.7817 33.8451C64.7817 33.5494 64.7161 33.2574 64.5897 32.9901C64.3964 32.2481 64.2594 31.4926 64.1797 30.7301C64.1945 30.2919 64.2824 29.8593 64.4397 29.4501C64.5497 29.0601 65.4397 28.9401 65.5197 29.0201C65.8897 29.2501 66.1597 28.8601 66.5197 28.7101C66.629 28.6541 66.7427 28.6073 66.8597 28.5701C68.0924 29.7935 69.2042 31.1331 70.1797 32.5701C70.1797 32.5701 70.3797 32.9801 70.6397 33.5701C70.8997 34.1601 71.2397 34.9101 71.5797 35.7001C72.2497 37.2701 72.9497 38.9101 73.1097 39.2301C73.2504 39.5901 73.3217 39.9735 73.3197 40.3601C73.3197 40.5501 75.4197 45.2101 75.4697 45.3601C75.9089 46.3351 76.1405 47.3908 76.1497 48.4601C76.1482 48.6727 76.1998 48.8824 76.2997 49.0701C76.912 50.7651 77.4361 52.4908 77.8697 54.2401C78.1297 55.1201 78.4997 55.9601 78.8697 56.8201C78.9084 56.9876 78.9318 57.1583 78.9397 57.3301C78.9535 57.541 78.9938 57.7493 79.0597 57.9501C79.8697 59.9501 80.4097 62.0901 81.4197 64.0201C81.6797 64.4601 81.9597 66.9201 82.2197 67.4401C82.2197 67.7801 81.8697 69.0801 82.0997 69.3001Z" fill="#231F20"/>
</svg>
