<svg width="1098" height="1069" viewBox="0 0 1098 1069" fill="none" xmlns="http://www.w3.org/2000/svg">
<path d="M474.609 246C491.609 246 505.026 251.167 514.859 261.5C524.693 271.667 529.609 285.167 529.609 302C529.609 313.333 527.443 325 523.109 337H520.109C520.109 329.5 514.943 323.583 504.609 319.25C494.276 314.917 481.276 312.75 465.609 312.75C446.609 312.75 428.943 316.75 412.609 324.75C396.443 332.583 383.526 342.167 373.859 353.5C364.359 364.667 359.609 374.667 359.609 383.5C359.609 392.5 365.943 399.167 378.609 403.5C391.276 407.667 408.109 409.75 429.109 409.75H461.359C480.026 409.75 494.693 411.917 505.359 416.25C516.026 420.583 523.693 427.583 528.359 437.25C533.026 446.75 535.359 459.75 535.359 476.25C535.359 512.75 528.359 544.417 514.359 571.25C500.359 598.083 479.693 618.75 452.359 633.25C425.193 647.75 392.193 655 353.359 655C310.859 655 278.526 643.5 256.359 620.5C234.193 597.667 223.109 564.75 223.109 521.75C223.109 476.583 233.193 432.167 253.359 388.5H259.609C249.443 416.167 244.359 443.417 244.359 470.25C244.359 499.417 254.609 521.917 275.109 537.75C295.609 553.417 324.776 561.25 362.609 561.25C401.109 561.25 432.443 558 456.609 551.5C480.776 545.167 498.109 537.417 508.609 528.25C519.109 518.917 524.359 509.667 524.359 500.5C524.359 497.333 519.609 495.083 510.109 493.75C500.609 492.25 482.776 491.5 456.609 491.5H423.109C404.276 491.5 389.109 489.583 377.609 485.75C366.276 481.75 357.859 475.167 352.359 466C347.026 456.667 344.359 443.917 344.359 427.75C344.359 401.417 350.526 374 362.859 345.5C375.193 317 391.359 293.333 411.359 274.5C431.526 255.5 452.609 246 474.609 246Z" fill="#AC71FF"/>
<path d="M635.223 774C623.556 774 612.639 770.75 602.473 764.25C598.973 795.25 591.889 821.667 581.223 843.5C570.556 865.5 557.306 882.083 541.473 893.25C525.639 904.583 508.389 910.25 489.723 910.25C477.056 910.25 465.139 908.167 453.973 904C442.806 900 429.806 894.25 414.973 886.75C401.973 880.25 392.556 876 386.723 874V871C412.889 865.167 440.473 855.5 469.473 842C498.473 828.5 524.306 813.917 546.973 798.25C569.639 782.75 585.056 769.083 593.223 757.25C573.056 740.083 553.723 708.333 535.223 662C539.723 655.833 545.223 645.583 551.723 631.25C558.389 616.75 563.973 602.75 568.473 589.25H571.473C581.473 623.25 592.889 646.917 605.723 660.25C618.723 673.417 633.556 680 650.223 680L635.223 774ZM634.98 774C624.98 774 619.98 763.917 619.98 743.75C619.98 722.75 622.647 706.917 627.98 696.25C633.314 685.417 640.73 680 650.23 680H756.23L741.23 774H634.98ZM740.937 774C730.937 774 725.937 763.917 725.937 743.75C725.937 722.75 728.604 706.917 733.937 696.25C739.271 685.417 746.687 680 756.188 680H862.188L847.188 774H740.937ZM983.395 646.75C983.395 675.917 979.061 699.75 970.395 718.25C961.895 736.75 947.645 750.667 927.645 760C907.811 769.333 880.895 774 846.895 774C836.895 774 831.895 763.917 831.895 743.75C831.895 722.75 834.561 706.917 839.895 696.25C845.228 685.417 852.645 680 862.145 680C879.978 680 897.478 679 914.645 677C931.978 675 946.061 672.333 956.895 669C967.728 665.667 973.145 662.25 973.145 658.75C973.145 655.75 969.811 650.5 963.145 643C956.478 635.5 947.978 627.333 937.645 618.5C927.478 609.667 917.478 601.917 907.645 595.25C913.311 589.083 919.728 578.333 926.895 563C934.228 547.5 940.895 532 946.895 516.5H950.145C950.811 518.667 952.478 522.5 955.145 528C963.145 546 969.811 564.333 975.145 583C980.645 601.667 983.395 622.917 983.395 646.75ZM801.645 881.25C804.645 875.917 808.478 866.667 813.145 853.5C817.811 840.5 820.978 830.583 822.645 823.75C842.145 822.417 861.561 821.333 880.895 820.5C900.228 819.833 915.228 819.5 925.895 819.5C940.228 819.5 950.811 821.25 957.645 824.75C964.645 828.417 968.145 834.75 968.145 843.75C968.145 846.75 967.645 850 966.645 853.5C965.811 857.167 964.478 861.75 962.645 867.25C959.478 877.083 957.311 885.417 956.145 892.25H953.145C953.145 886.417 950.061 882.417 943.895 880.25C937.895 878.083 927.811 877 913.645 877C903.645 877 886.395 877.333 861.895 878C837.395 878.833 817.311 879.917 801.645 881.25Z" fill="#FFBB87"/>
<path d="M826.5 540.5C814.833 540.5 803.917 537.25 793.75 530.75C790.25 561.75 783.167 588.167 772.5 610C761.833 632 748.583 648.583 732.75 659.75C716.917 671.083 699.667 676.75 681 676.75C668.333 676.75 656.417 674.667 645.25 670.5C634.083 666.5 621.083 660.75 606.25 653.25C593.25 646.75 583.833 642.5 578 640.5V637.5C604.167 631.667 631.75 622 660.75 608.5C689.75 595 715.583 580.417 738.25 564.75C760.917 549.25 776.333 535.583 784.5 523.75C764.333 506.583 745 474.833 726.5 428.5C731 422.333 736.5 412.083 743 397.75C749.667 383.25 755.25 369.25 759.75 355.75H762.75C772.75 389.75 784.167 413.417 797 426.75C810 439.917 824.833 446.5 841.5 446.5L826.5 540.5Z" fill="#AC71FF"/>
<path d="M826.258 540.5C816.258 540.5 811.258 530.417 811.258 510.25C811.258 489.25 813.924 473.417 819.258 462.75C824.591 451.917 832.008 446.5 841.508 446.5H947.508L932.508 540.5H826.258Z" fill="#AC71FF"/>
<path d="M932.215 540.5C922.215 540.5 917.215 530.417 917.215 510.25C917.215 489.25 919.882 473.417 925.215 462.75C930.548 451.917 937.965 446.5 947.465 446.5H949.465L934.465 540.5H932.215Z" fill="#AC71FF"/>
<path d="M1070.67 413.25C1070.67 442.417 1066.34 466.25 1057.67 484.75C1049.17 503.25 1034.92 517.167 1014.92 526.5C995.089 535.833 968.172 540.5 934.172 540.5C924.172 540.5 919.172 530.417 919.172 510.25C919.172 489.25 921.839 473.417 927.172 462.75C932.505 451.917 939.922 446.5 949.422 446.5C967.255 446.5 984.755 445.5 1001.92 443.5C1019.26 441.5 1033.34 438.833 1044.17 435.5C1055.01 432.167 1060.42 428.75 1060.42 425.25C1060.42 422.25 1057.09 417 1050.42 409.5C1043.76 402 1035.26 393.833 1024.92 385C1014.76 376.167 1004.76 368.417 994.922 361.75C1000.59 355.583 1007.01 344.833 1014.17 329.5C1021.51 314 1028.17 298.5 1034.17 283H1037.42C1038.09 285.167 1039.76 289 1042.42 294.5C1050.42 312.5 1057.09 330.833 1062.42 349.5C1067.92 368.167 1070.67 389.417 1070.67 413.25Z" fill="#AC71FF"/>
<path d="M1091.98 433C1091.98 439.161 1092.56 455.689 1093.73 482.585C1096.58 549.298 1098 599.258 1098 632.465C1098 665.972 1097.08 692.492 1095.24 712.026C1093.4 731.409 1090.97 746.434 1087.96 757.102C1085.12 767.62 1080.77 780.017 1074.92 794.291C1069.06 808.265 1064.63 819.834 1061.62 829H1058.36C1058.53 826.145 1058.61 821.337 1058.61 814.575C1058.61 789.483 1056.69 754.773 1052.84 710.448C1049.16 666.122 1044.81 623.675 1039.79 583.106C1034.94 542.537 1031.01 516.167 1028 503.996C1038.04 494.981 1048.57 483.937 1059.61 470.865C1070.65 457.642 1080.44 445.02 1088.97 433H1091.98Z" fill="#FFBB87"/>
<path d="M651.978 196C651.978 202.161 652.564 218.689 653.735 245.585C656.578 312.298 658 362.258 658 395.465C658 428.972 657.08 455.492 655.24 475.026C653.4 494.409 650.975 509.434 647.964 520.102C645.121 530.62 640.772 543.017 634.918 557.291C629.063 571.265 624.631 582.834 621.62 592H618.358C618.526 589.145 618.609 584.337 618.609 577.575C618.609 552.483 616.686 517.773 612.839 473.448C609.159 429.122 604.81 386.675 599.792 346.106C594.941 305.537 591.011 279.167 588 266.996C598.036 257.981 608.573 246.937 619.613 233.865C630.652 220.642 640.437 208.02 648.968 196H651.978Z" fill="#AC71FF"/>
<path d="M440.978 423C440.978 429.161 441.564 445.689 442.735 472.585C445.578 539.298 447 589.258 447 622.465C447 655.972 446.08 682.492 444.24 702.026C442.4 721.409 439.975 736.434 436.964 747.102C434.121 757.62 429.772 770.017 423.918 784.291C418.063 798.265 413.631 809.834 410.62 819H407.358C407.526 816.145 407.609 811.337 407.609 804.575C407.609 779.483 405.686 744.773 401.839 700.448C398.159 656.122 393.81 613.675 388.792 573.106C383.941 532.537 380.011 506.167 377 493.996C387.036 484.981 397.573 473.937 408.613 460.865C419.652 447.642 429.437 435.02 437.968 423H440.978Z" fill="#FFBB87"/>
<path d="M336.551 696.25C336.551 737.917 329.301 773.25 314.801 802.25C300.467 831.25 280.134 853.083 253.801 867.75C227.467 882.583 196.467 890 160.801 890C118.634 890 86.3841 878.417 64.0508 855.25C41.7175 832.25 30.5508 799.417 30.5508 756.75C30.5508 711.583 40.6341 667.167 60.8008 623.5H67.0508C56.8841 651.167 51.8008 678.417 51.8008 705.25C51.8008 724.417 56.3841 740.833 65.5508 754.5C74.7175 768 88.1341 778.333 105.801 785.5C123.634 792.667 145.051 796.25 170.051 796.25C199.717 796.25 226.384 792.083 250.051 783.75C273.884 775.583 292.467 765.333 305.801 753C319.134 740.667 325.801 728.75 325.801 717.25C325.801 707.75 306.217 680.5 267.051 635.5C272.884 628.333 279.217 617.5 286.051 603C292.884 588.5 298.634 574.083 303.301 559.75H306.301C305.967 558.75 307.801 563.75 311.801 574.75C319.301 594.417 325.301 613.5 329.801 632C334.301 650.333 336.551 671.75 336.551 696.25ZM173.051 678C168.384 671.667 160.967 664.333 150.801 656C140.634 647.667 131.884 641.917 124.551 638.75V635.5L164.051 587C173.217 591.5 182.884 598.333 193.051 607.5C203.384 616.5 210.884 624.833 215.551 632.5L173.051 678Z" fill="#FFBB87"/>
<path fill-rule="evenodd" clip-rule="evenodd" d="M442.735 472.585C441.564 445.689 440.978 429.161 440.978 423H437.968C429.437 435.02 419.652 447.642 408.613 460.865C397.573 473.937 387.036 484.981 377 493.996C377.914 497.69 378.912 502.691 379.995 509H444.209C443.77 497.473 443.278 485.335 442.735 472.585Z" fill="#FFBB87"/>
<path d="M820.25 675C830.417 683.333 837.833 690.667 842.5 697L885 651.5C880.333 643.833 872.833 635.5 862.5 626.5C852.333 617.333 842.667 610.5 833.5 606L794 654.5V657.75C801.333 660.917 810.083 666.667 820.25 675Z" fill="#AC71FF"/>
</svg>
