<svg width="1080" height="1080" viewBox="0 0 1080 1080" fill="none" xmlns="http://www.w3.org/2000/svg">
<rect x="66.6035" y="1013.4" width="946.793" height="946.793" rx="149" transform="rotate(-90 66.6035 1013.4)" fill="url(#paint0_linear_405_357)"/>
<path fill-rule="evenodd" clip-rule="evenodd" d="M22.5173 107.805C0 151.153 0 208.102 0 322V758C0 871.898 0 928.847 22.5173 972.195C41.4924 1008.72 71.2765 1038.51 107.805 1057.48C151.153 1080 208.102 1080 322 1080H758C871.898 1080 928.847 1080 972.195 1057.48C1008.72 1038.51 1038.51 1008.72 1057.48 972.195C1080 928.847 1080 871.898 1080 758V322C1080 208.102 1080 151.153 1057.48 107.805C1038.51 71.2765 1008.72 41.4924 972.195 22.5173C928.847 0 871.898 0 758 0H322C208.102 0 151.153 0 107.805 22.5173C71.2765 41.4924 41.4924 71.2765 22.5173 107.805ZM146.918 996.621C179.212 1013.4 221.639 1013.4 306.493 1013.4L773.506 1013.4C858.36 1013.4 900.787 1013.4 933.081 996.621C960.295 982.485 982.484 960.296 996.621 933.082C1013.4 900.788 1013.4 858.361 1013.4 773.507L1013.4 306.494C1013.4 221.64 1013.4 179.213 996.621 146.919C982.484 119.705 960.295 97.5157 933.081 83.3793C900.787 66.6039 858.36 66.6039 773.506 66.6039L306.493 66.6039C221.639 66.6039 179.212 66.6039 146.918 83.3793C119.704 97.5158 97.5151 119.705 83.3787 146.919C66.6033 179.213 66.6033 221.64 66.6033 306.494L66.6033 773.507C66.6033 858.361 66.6033 900.788 83.3787 933.082C97.5152 960.296 119.704 982.485 146.918 996.621Z" fill="url(#paint1_linear_405_357)"/>
<path fill-rule="evenodd" clip-rule="evenodd" d="M539.857 236.438C515.021 236.438 494.888 211.255 494.888 176.449C494.888 141.644 515.021 126.061 539.857 126.061C564.692 126.061 584.825 141.644 584.825 176.449C584.825 211.255 564.692 236.438 539.857 236.438ZM278.803 216.581C326.554 264.331 352.709 319.033 335.102 336.64C317.495 354.247 262.793 328.092 215.043 280.341C167.292 232.59 160.268 197.02 177.875 179.413C195.482 161.806 231.052 168.83 278.803 216.581ZM802.221 216.582C754.471 264.333 728.315 319.035 745.922 336.642C763.529 354.249 818.231 328.093 865.982 280.342C913.732 232.592 920.756 197.021 903.149 179.414C885.542 161.807 849.972 168.831 802.221 216.582ZM215.043 803.759C262.794 756.009 317.496 729.853 335.103 747.46C352.71 765.067 326.554 819.769 278.803 867.52C231.053 915.27 195.482 922.294 177.876 904.687C160.269 887.08 167.292 851.51 215.043 803.759ZM745.922 747.461C763.529 729.854 818.231 756.009 865.982 803.76C913.733 851.511 920.756 887.081 903.149 904.688C885.543 922.295 849.972 915.271 802.221 867.52C754.471 819.77 728.315 765.068 745.922 747.461ZM845.351 541.932C845.351 517.097 870.535 496.964 905.34 496.964C940.146 496.964 955.729 517.097 955.729 541.932C955.729 566.768 940.146 586.901 905.34 586.901C870.535 586.901 845.351 566.768 845.351 541.932ZM174.373 496.964C209.179 496.964 234.363 517.097 234.363 541.932C234.363 566.768 209.179 586.901 174.373 586.901C139.568 586.901 123.985 566.768 123.985 541.932C123.985 517.097 139.568 496.964 174.373 496.964ZM494.888 907.416C494.888 872.61 515.021 847.427 539.857 847.427C564.692 847.427 584.825 872.61 584.825 907.416C584.825 942.221 564.692 957.804 539.857 957.804C515.021 957.804 494.888 942.221 494.888 907.416ZM540.512 740.835C651.713 740.835 741.859 650.689 741.859 539.488C741.859 428.287 651.713 338.141 540.512 338.141C429.311 338.141 339.165 428.287 339.165 539.488C339.165 650.689 429.311 740.835 540.512 740.835Z" fill="url(#paint2_linear_405_357)"/>
<defs>
<linearGradient id="paint0_linear_405_357" x1="110.743" y1="1898.22" x2="1014.08" y2="1105.07" gradientUnits="userSpaceOnUse">
<stop stop-color="#2B1141"/>
<stop offset="0.648566" stop-color="#4B14D2"/>
<stop offset="1" stop-color="#6562FF"/>
</linearGradient>
<linearGradient id="paint1_linear_405_357" x1="39.4497" y1="76.8501" x2="1080" y2="1033.89" gradientUnits="userSpaceOnUse">
<stop stop-color="#FF7A41"/>
<stop offset="0.515625" stop-color="#FF026C"/>
<stop offset="1" stop-color="#810084"/>
</linearGradient>
<linearGradient id="paint2_linear_405_357" x1="181.5" y1="187.5" x2="956" y2="958" gradientUnits="userSpaceOnUse">
<stop stop-color="#FFFFCD"/>
<stop offset="0.046875" stop-color="#FFEA7F"/>
<stop offset="0.338542" stop-color="#FFB588"/>
<stop offset="0.6875" stop-color="#FF7139"/>
<stop offset="1" stop-color="#EA612B"/>
</linearGradient>
</defs>
</svg>
